<svg xmlns="http://www.w3.org/2000/svg" viewBox="0 0 1476.23 428.93"><defs><style>.cls-1{fill:#fff;}.cls-2{fill:#d7232a;}.cls-3{fill:#dc3e44;}.cls-4{fill:#f5ccce;}</style></defs><g id="Livello_2" data-name="Livello 2"><g id="buco"><circle class="cls-1" cx="249.74" cy="250.39" r="142.5"/></g><g id="logo"><path class="cls-2" d="M89.89,321.92c-18.38,5.19-36,12.49-53.5,20-8.06,3.45-12.57,1.6-15.06-6.49-.35-1.16-.87-2.26-1.31-3.39-8.93-23-7.68-27.21,13.44-39,62.71-34.89,127.15-66.36,192.1-96.81,2.87-1.35,5.65-3.43,9.67-2.67-1.22,13-7.48,24.24-12.26,35.68-16,38.17-31.42,76.53-45.37,115.48-1.23,3.42-3.27,4.84-6.06,6-48.89,20.39-96.8,42.92-144.4,66.13-5.35,2.6-9.17,1.6-12.8-2.61A59,59,0,0,1,1.17,388.65C-1.52,376.77-.1,373.4,11,367.4c27.41-14.85,55-29.38,82.51-44C93.59,319.65,91.42,321.58,89.89,321.92Z"/><path class="cls-2" d="M446.92,83.2c.73,11-1.95,15.94-12.13,18.38-102.39,24.51-201.8,57.9-297.53,102-4.94,2.28-9.84,4.69-14.64,7.27-4,2.14-7.62,5-12.21,1-2.23-1.92-4.37-.45-6.52,1-3.22,2.21-7.12,3.54-10,6.06-7.59,6.6-12.64,7.85-13.07-4.77,0-.94-1.23-2.17-2.2-2.71-8.31-4.65-5.34-7.65.53-12.48A118.89,118.89,0,0,1,97.2,187C195.49,132,299.61,91.54,408,61.74c6.67-1.83,13.44-3.31,20.17-4.9,3.13-.74,6.27-.47,8.26,2.23C442.25,66.92,443.13,76.88,446.92,83.2Z"/><path class="cls-2" d="M290.65,173.21c6.79-4.72,14.43-6.75,21.7-9.48,51.26-19.22,103.62-35.14,155.78-51.68,6.57-2.08,10.72-1.07,14.73,4.47,7.95,11,13.07,23.08,16.38,36.12,1.24,4.89-.77,7.31-4.95,9.13-47.39,20.69-94.5,42-140.7,65.25-2.63,1.32-4.63,1.91-7-.83A428.71,428.71,0,0,0,290.65,173.21Z"/><path class="cls-2" d="M418,267.76c-9.09,0-18.32-1-27.25.26-9.63,1.31-14.49-2.76-17.61-10.87a44.49,44.49,0,0,0-12.32-17.76c-5.79-5-5.58-7.15,2-9.56,41-13,82.19-25.12,124.15-34.55,20.38-4.58,40.9-8.58,61.19-13.52,6.58-1.6,9.48.58,11.94,6,5.78,12.79,7.2,26.17,6,40-.34,4.06-2.15,6.55-6.4,7.63-34.61,8.83-68.65,19.58-102.86,29.8-12,3.57-25.86.57-38.87.57Z"/><path class="cls-2" d="M137.21,393c-1.19-5.63,2-10.1,8.36-12.88,2.49-1.08,4.75-2.68,7.13-4,5.8-3.27,11.35-8.28,17.52-9.24,5.1-.8,7.33,8.5,13.44,9.18,10.66,1.18,18.53,10.49,31.64,7.28,7.26-1.77,8.78-5,11.18-9.32,15.39-27.77,31.27-55.29,44.37-84.27,3.36-7.43,7.36-14.64,10-22.3s5.56-5.45,9.86-1.74c17,14.67,27.54,33.32,34.11,54.5,7.38,23.76,7.45,23.85-15,34.26-50,23.21-100,46.5-148.46,72.7-6.18,3.34-10.17,1.85-14-3.11C140.71,415.31,137.58,405.38,137.21,393Z"/><path class="cls-2" d="M230.62,56.94C233.19,32.2,242.21,13,264.69,2.46c10.06-4.73,17.95-2.66,24.55,6.4,12.47,17.12,12.86,38.21,1.3,56-5.65,8.7-13.43,15.42-20.51,22.79-2.74,2.85-19.67,1.64-23.42-1.61C237.34,78.06,231.94,67.92,230.62,56.94Z"/><path class="cls-3" d="M1476.09,359.14H365.6v-1.59H1476.23Z"/><path class="cls-4" d="M89.89,321.92c2.06-1.77,4.56-3.29,6.6-.77.83,1-1.74,1.7-3,2.22Z"/></g></g></svg>