<?xml version="1.0" encoding="utf-8"?>
<!-- Generator: Adobe Illustrator 21.1.0, SVG Export Plug-In . SVG Version: 6.00 Build 0)  -->
<svg version="1.1" id="Livello_1" xmlns="http://www.w3.org/2000/svg" xmlns:xlink="http://www.w3.org/1999/xlink" x="0px" y="0px"
	 viewBox="0 0 1309 663" style="enable-background:new 0 0 1309 663;" xml:space="preserve">
<style type="text/css">
	.st0{fill:#FFFFFF;}
	.st1{fill:#EE0000;}
	.st2{fill:#3A3A3A;}
	.st3{font-family:'SuisseIntl-Light';}
	.st4{font-size:17.798px;}
	.st5{fill:none;stroke:#000000;}
	.st6{fill:none;stroke:#000000;stroke-width:1.4878;}
	.st7{font-family:'SuisseIntl-Regular';}
	.st8{font-size:38.4292px;}
	.st9{fill:none;stroke:#FFFFFF;stroke-width:1.1646;}
	.st10{fill:none;stroke:#FFFFFF;stroke-width:1.3323;}
	.st11{fill:none;stroke:#FFFFFF;stroke-width:1.8191;}
	.st12{fill:none;stroke:#FFFFFF;stroke-width:0.9636;}
	.st13{font-size:34.252px;}
</style>
<g>
	<rect x="257.6" y="184.5" class="st0" width="930" height="55.3"/>
	
		<rect x="187.6" y="184.5" transform="matrix(-1 -1.224647e-16 1.224647e-16 -1 445.1802 424.3395)" class="st1" width="70" height="55.3"/>
	
		<rect x="187.6" y="287.8" transform="matrix(-1 -1.224647e-16 1.224647e-16 -1 413.1802 631)" class="st1" width="38" height="55.3"/>
	
		<rect x="187.6" y="386.4" transform="matrix(-1 -1.224647e-16 1.224647e-16 -1 456.1802 828.1)" class="st1" width="81" height="55.3"/>
	<rect x="222.3" y="287.8" class="st0" width="965.3" height="55.3"/>
	<rect x="266.3" y="386.2" class="st0" width="921.3" height="55.3"/>
	<rect x="186.5" y="489.5" class="st0" width="1001.1" height="55.3"/>
	<text transform="matrix(1 0 0 1 1053.5613 153.8959)" class="st2 st3 st4">% intervistati</text>
	<path class="st5" d="M187.6,129v471.6"/>
	<path class="st5" d="M187.6,129h1025.5"/>
	<line class="st6" x1="187.6" y1="122.5" x2="187.6" y2="115.8"/>
	<g>
		<text transform="matrix(1 0 0 1 157.5361 90.7974)" class="st7 st8">0%</text>
	</g>
	<g>
		<text transform="matrix(1 0 0 1 1153.5542 90.7974)" class="st7 st8">100%</text>
	</g>
	<line class="st6" x1="287.6" y1="122.5" x2="287.6" y2="115.8"/>
	<line class="st6" x1="387.6" y1="122.5" x2="387.6" y2="115.8"/>
	<line class="st6" x1="487.6" y1="122.5" x2="487.6" y2="115.8"/>
	<line class="st6" x1="587.6" y1="122.5" x2="587.6" y2="115.8"/>
	<line class="st6" x1="587.6" y1="122.5" x2="587.6" y2="115.8"/>
	<line class="st6" x1="687.6" y1="122.5" x2="687.6" y2="115.8"/>
	<line class="st6" x1="787.6" y1="122.5" x2="787.6" y2="115.8"/>
	<line class="st6" x1="887.6" y1="122.5" x2="887.6" y2="115.8"/>
	<line class="st6" x1="987.6" y1="122.5" x2="987.6" y2="115.8"/>
	<line class="st6" x1="1087.6" y1="122.5" x2="1087.6" y2="115.8"/>
	<line class="st6" x1="1187.6" y1="122.5" x2="1187.6" y2="115.8"/>
	<g>
		<g>
			<line class="st9" x1="224.6" y1="212.2" x2="165.4" y2="212.2"/>
			<g>
				<path class="st0" d="M224.1,212.2c-1.2,1.2-1.8,3.6-1.8,5.3c1.7-2.2,3.8-4.2,6.5-5.3c-2.6-1-4.7-3.1-6.5-5.3
					C222.4,208.7,222.9,210.9,224.1,212.2z"/>
			</g>
		</g>
	</g>
	<g>
		<g>
			<line class="st10" x1="243.5" y1="414" x2="165.4" y2="414"/>
			<g>
				<path class="st0" d="M243,414c-1.4,1.4-2.1,4.1-2.1,6.1c1.9-2.6,4.4-4.8,7.4-6.1c-3-1.2-5.4-3.6-7.4-6.1
					C241.1,409.9,241.6,412.4,243,414z"/>
			</g>
		</g>
	</g>
	<g>
		<g>
			<line class="st11" x1="313.4" y1="513.2" x2="165.4" y2="513.2"/>
			<g>
				<path class="st0" d="M312.7,513.2c-1.9,1.9-2.8,5.7-2.9,8.3c2.6-3.5,6-6.6,10.1-8.3c-4.1-1.6-7.3-4.9-10.1-8.3
					C310,507.7,310.7,511.1,312.7,513.2z"/>
			</g>
		</g>
	</g>
	<g>
		<g>
			<line class="st12" x1="205.4" y1="312.8" x2="165.4" y2="312.8"/>
			<g>
				<path class="st0" d="M205,312.8c-1,1-1.5,3-1.5,4.4c1.4-1.9,3.2-3.5,5.3-4.4c-2.2-0.9-3.9-2.6-5.3-4.4
					C203.6,309.9,203.9,311.7,205,312.8z"/>
			</g>
		</g>
	</g>
	<text transform="matrix(1 0 0 1 286.6282 225.0483)" class="st1 st7 st13">Cittadinanza</text>
	<text transform="matrix(1 0 0 1 74.75 225.0483)" class="st1 st7 st13">7,0%</text>
	<text transform="matrix(1 0 0 1 73.4141 325.8248)" class="st1 st7 st13">3,8%</text>
	<text transform="matrix(1 0 0 1 80.915 426.939)" class="st1 st7 st13">8,1%</text>
	<text transform="matrix(1 0 0 1 61.1865 526.7152)" class="st1 st7 st13">16,3%</text>
	<text transform="matrix(1 0 0 1 257.6282 325.8248)" class="st1 st7 st13">Permesso di soggiorno permanente</text>
	<text transform="matrix(1 0 0 1 294.6282 423.9388)" class="st1 st7 st13">Permesso di soggiorno temporaneo</text>
	<text transform="matrix(1 0 0 1 387.6282 524.7153)" class="st1 st7 st13">Nessun documento</text>
	<g>
		<text transform="matrix(6.123232e-17 1 -1 6.123232e-17 1213.1523 274.5937)" class="st2 st3 st4">Documenti in possesso</text>
	</g>
	
		<rect x="187.6" y="489.5" transform="matrix(-1 -1.224647e-16 1.224647e-16 -1 538.1802 1034.3209)" class="st1" width="163" height="55.3"/>
</g>
</svg>
