<?xml version="1.0" encoding="utf-8"?>
<!-- Generator: Adobe Illustrator 21.1.0, SVG Export Plug-In . SVG Version: 6.00 Build 0)  -->
<svg version="1.1" id="Livello_1" xmlns="http://www.w3.org/2000/svg" xmlns:xlink="http://www.w3.org/1999/xlink" x="0px" y="0px"
	 viewBox="0 0 1728 2417" style="enable-background:new 0 0 1728 2417;" xml:space="preserve">
<style type="text/css">
	.st0{fill:#D3D3D3;}
	.st1{fill:#E75151;}
	.st2{fill:#3A3A3A;}
	.st3{font-family:'SuisseIntl-Regular';}
	.st4{font-size:27.6921px;}
	.st5{font-family:'SuisseIntl-Bold';}
	.st6{font-size:39.164px;}
	.st7{font-size:36.6747px;}
	.st8{font-size:23.7933px;}
	.st9{fill:none;stroke:#D3D3D3;stroke-width:6;stroke-miterlimit:10;}
	.st10{fill:none;stroke:#E75151;stroke-width:6;stroke-miterlimit:10;}
	.st11{fill:none;stroke:#000000;}
	.st12{font-size:35px;}
	.st13{font-size:22.5893px;}
	.st14{enable-background:new    ;}
	.st15{fill:#7B7B7B;}
	.st16{font-family:'Arial-BoldMT';}
	.st17{font-size:12px;}
	.st18{fill:none;stroke:#D8EFEF;stroke-miterlimit:10;}
	.st19{fill:#FFFFFF;}
	.st20{font-size:18.383px;}
	.st21{fill:none;stroke:#000000;stroke-width:0.7976;}
	.st22{font-size:10px;}
	.st23{font-family:'SuisseIntl-Light';}
	.st24{font-size:24.318px;}
	.st25{fill:#EE0000;}
	.st26{font-size:27px;}
	.st27{fill:none;}
	.st28{fill:none;stroke:#D3D3D3;stroke-width:6.2017;stroke-miterlimit:10;}
</style>
<path id="IT-45" class="st0" d="M606,1446.1l-0.7,1.9l0.2,2.5l-1.6,0.6l-0.3,1.3l-1.8-0.2l0.1-0.6l-0.5-0.2l-0.4-1.6l-1.7,0.7v-1.3
	l-1.4-0.8l0,0l0.7-1l-0.2-2.3l-2.3,1.5h-1l0.2,2.2l0,0l0,0l0,0l0.7,1.3h-1l-0.2-0.5l-1.3,0.5l-0.6,2.1l-1.6,1.3l-0.2,1.3l0,0l0,0
	l0,0l-1,0.6l-1.3-0.2l-0.6,1.2l-1-1.4l-0.9,0.5l-0.9-0.1l0,0l-1,0.6l-0.7-0.8l0,0l-0.6,0.2l-0.9-0.6l-0.6,0.2l0,0l-1-0.6l-0.2-0.6
	l0,0l-0.9-0.1l-0.3-0.8l-2.9-0.2l-1.3-1.5l-2.2-1.3l0.2-1.9l-1.1-0.8l0.2-1l-1.3-1.3l0.2-0.7l0.4,0.1l-0.2-0.7l1-0.4l0.2-1.3
	l1.3-1.3l0.2-1.7l-3.4,0.7l-1.7-0.2l0.9-1.3l-0.1-0.6l-1.6-0.3l-0.6,0.6l-0.7-0.2l-1.1-1.2l-0.9-0.2l-0.2-1.3l-0.8-0.7l-1.5,1.5
	l-1.6,0.2l-0.2,0.6l-1.4,1.3l-2.5,0.1l-0.1,0.6l1.8,1l0.2,0.6l-1.6,0.1l-1.9-0.6l-2.1,0.9l-1.7-0.2l-1-0.7l0.4-0.6l-0.2-0.6l-3,3.4
	l-0.4-0.2l0.2-0.6l-0.4-0.6l-1.4-0.3l-3.1-2.5l-3.5-0.1l-0.6,0.8l0.1,0.9l-1,0.2l-2.1-1.9l-0.2-1l-1.1-1v-0.9l-0.8-0.4l-1,0.2
	l-1.8-1.9h-1l-1.3-0.8l-1.5,0.7l-3.5-3.7l-1.5,0.3l-2.7-1.8l-0.7-0.8l0.3-1.7l-0.6-0.2l-0.3-0.8l-1.5-0.6l-3.3,0.4l-2.1,3.3
	l-2.2,1.3l0,0l-0.9-2.1l-1.7-1.3l-0.6,0.4l-0.9-0.6l-0.2,0.6l-1.7,0.2l-0.6,0.7l-0.2-0.7l-1,0.2l1-2.8l0.8-0.2l0.3-2.1l-0.6-1.3
	l-2-0.7l-0.5-1.1l-1.5,1.1l-2-1.6l-0.2,0.6l-1.3-0.2l0.2-0.6l-0.4-0.4l-1.4,0.2l0,0v-3.2l0.3,0.1l0,0l1.1-0.1l-0.2-1.3l0.8,1.6
	l2-0.6l-0.5-0.9l0.6-0.6l-0.1-0.8l-1.1-0.6l-0.2-0.7l2.4-2.4l-0.6-2l-0.6-0.5l-0.5,0.2l-1.1-1l0.8-1l-0.4-0.6l1-0.2l0.9-2.5l1-1.1
	l-0.1-1.3l1.3-1.1l-0.1-0.4l0.8,0.1l0.2-0.5l1.7-0.5l1,1.2l0.7-0.6l-0.4-1.7l0.5-0.1l1,1.3l0.8-0.3l0.4-1.2l0.6,0.8l-0.1,1.6
	l2.6,1.1l1-0.9l0.3-0.6l-0.5-0.7l0.6-0.2l0.6,1l1.2,0.6l0.2,1.2l0.6-2h0.6l0.6,1l0.6-0.2l0.2-0.7l-0.7-1l1.1-0.9l0.5,0.4l-0.2,1.3
	l1.8-1.3l0.6,0.1l1.2,1.5l-0.2,1l1,0.8l0.1,0.8l1-0.2l0.5,1.1l2.1-1l0.3,0.6h1.3l1.9,1.5h1l1.7,1.4l1.5-0.9l1,1.8l2.9,1.3l2.5-0.1
	l0.9-0.6l1.7-2.5l0.3,1l1.1-1.3l0.6,1.9l2.8,0.5l0.5,0.5l0.6-0.1l0.1,0.5l0.9-0.1l-0.2,0.4l0.9-0.6l0.9,0.2l0.2-0.7l1.4-0.7l1.9,0.2
	l0.6-0.5l1.7,0.4l0.8,1l0.3-0.4l2.5-0.2l0.2-0.4l1,0.6l1-1l3.9,0.6l0,0l0.1,1l3.6-0.2l1.3,0.9l0.2,1l0.5,0.2l0.8-0.1l1.3-1.2l2-0.6
	l0.5-1.3l1.8-0.9l3.9,0.1l1.3-0.5l4.2,0.6l1.4,1.9l1-0.6l0.5,0.6l1.3,0.1l0.9-0.8h0.6l0.6,0.6l-0.4,0.8l0.2,1.8l0.4,0.6l1.3,0.3
	l0.4,1.3l0,0l-0.4,0.1l-0.7-1.1l-0.7-0.2l-1.1,1.4l0.8-0.3l-1,2.7l-0.4,3.1l0.3,2.1l1.2,2.4l-0.1,5.5l1.1,2.9l0.2,2.1l1.3,4.4
	l1.1,2.2l4.2,4.8l1.6,1l3.7,4L606,1446.1L606,1446.1z M587.8,1453l-0.2,0.7l0.9,1l1.3-0.7l-0.2-0.7l0,0l-0.2-0.3H587.8L587.8,1453z"
	/>
<path id="IT-45_1_" class="st1" d="M590,1431.4l-0.7,1.9l0.2,2.5l-1.6,0.6l-0.3,1.3l-1.8-0.2l0.1-0.6l-0.5-0.2l-0.4-1.6l-1.7,0.7
	v-1.3l-1.4-0.8l0,0l0.7-1l-0.2-2.3l-2.3,1.5h-1l0.2,2.2l0,0l0,0l0,0l0.7,1.3h-1l-0.2-0.5l-1.3,0.5l-0.6,2.1l-1.6,1.3l-0.2,1.3l0,0
	l0,0l0,0l-1,0.6l-1.3-0.2l-0.6,1.2l-1-1.4l-0.9,0.5l-0.9-0.1l0,0l-1,0.6l-0.7-0.8l0,0l-0.6,0.2l-0.9-0.6l-0.6,0.2l0,0l-1-0.6
	l-0.2-0.6l0,0l-0.9-0.1l-0.3-0.8l-2.9-0.2l-1.3-1.5l-2.2-1.3l0.2-1.9l-1.1-0.8l0.2-1l-1.3-1.3l0.2-0.7l0.4,0.1l-0.2-0.7l1-0.4
	l0.2-1.3l1.3-1.3l0.2-1.7l-3.4,0.7l-1.7-0.2l0.9-1.3l-0.1-0.6l-1.6-0.3l-0.6,0.6l-0.7-0.2l-1.1-1.2l-0.9-0.2l-0.2-1.3l-0.8-0.7
	l-1.5,1.5l-1.6,0.2l-0.2,0.6l-1.4,1.3l-2.5,0.1l-0.1,0.6l1.8,1l0.2,0.6l-1.6,0.1l-1.9-0.6l-2.1,0.9l-1.7-0.2l-1-0.7l0.4-0.6
	l-0.2-0.6l-3,3.4l-0.4-0.2l0.2-0.6l-0.4-0.6l-1.4-0.3l-3.1-2.5l-3.5-0.1l-0.6,0.8l0.1,0.9l-1,0.2l-2.1-1.9l-0.2-1l-1.1-1v-0.9
	l-0.8-0.4l-1,0.2l-1.8-1.9h-1l-1.3-0.8l-1.5,0.7l-3.5-3.7l-1.5,0.3l-2.7-1.8l-0.7-0.8l0.3-1.7l-0.6-0.2l-0.3-0.8l-1.5-0.6l-3.3,0.4
	l-2.1,3.3l-2.2,1.3l0,0l-0.9-2.1l-1.7-1.3l-0.6,0.4l-0.9-0.6l-0.2,0.6l-1.7,0.2l-0.6,0.7l-0.2-0.7l-1,0.2l1-2.8l0.8-0.2l0.3-2.1
	l-0.6-1.3l-2-0.7l-0.5-1.1l-1.5,1.1l-2-1.6l-0.2,0.6l-1.3-0.2l0.2-0.6l-0.4-0.4l-1.4,0.2l0,0v-3.2l0.3,0.1l0,0l1.1-0.1l-0.2-1.3
	l0.8,1.6l2-0.6l-0.5-0.9l0.6-0.6l-0.1-0.8l-1.1-0.6l-0.2-0.7l2.4-2.4l-0.6-2l-0.6-0.5l-0.5,0.2l-1.1-1l0.8-1l-0.4-0.6l1-0.2l0.9-2.5
	l1-1.1l-0.1-1.3l1.3-1.1l-0.1-0.4l0.8,0.1l0.2-0.5l1.7-0.5l1,1.2l0.7-0.6l-0.4-1.7l0.5-0.1l1,1.3l0.8-0.3l0.4-1.2l0.6,0.8l-0.1,1.6
	l2.6,1.1l1-0.9l0.3-0.6l-0.5-0.7l0.6-0.2l0.6,1l1.2,0.6l0.2,1.2l0.6-2h0.6l0.6,1l0.6-0.2l0.2-0.7l-0.7-1l1.1-0.9l0.5,0.4l-0.2,1.3
	l1.8-1.3l0.6,0.1l1.2,1.5l-0.2,1l1,0.8l0.1,0.8l1-0.2l0.5,1.1l2.1-1l0.3,0.6h1.3l1.9,1.5h1l1.7,1.4l1.5-0.9l1,1.8l2.9,1.3l2.5-0.1
	l0.9-0.6l1.7-2.5l0.3,1l1.1-1.3l0.6,1.9l2.8,0.5l0.5,0.5l0.6-0.1l0.1,0.5l0.9-0.1l-0.2,0.4l0.9-0.6l0.9,0.2l0.2-0.7l1.4-0.7l1.9,0.2
	l0.6-0.5l1.7,0.4l0.8,1l0.3-0.4l2.5-0.2l0.2-0.4l1,0.6l1-1l3.9,0.6l0,0l0.1,1l3.6-0.2l1.3,0.9l0.2,1l0.5,0.2l0.8-0.1l1.3-1.2l2-0.6
	l0.5-1.3l1.8-0.9l3.9,0.1l1.3-0.5l4.2,0.6l1.4,1.9l1-0.6l0.5,0.6l1.3,0.1l0.9-0.8h0.6l0.6,0.6l-0.4,0.8l0.2,1.8l0.4,0.6l1.3,0.3
	l0.4,1.3l0,0l-0.4,0.1l-0.7-1.1l-0.7-0.2l-1.1,1.4l0.8-0.3l-1,2.7l-0.4,3.1l0.3,2.1l1.2,2.4l-0.1,5.5l1.1,2.9l0.2,2.1l1.3,4.4
	l1.1,2.2l4.2,4.8l1.6,1l3.7,4L590,1431.4L590,1431.4z M571.7,1438.4l-0.2,0.7l0.9,1l1.3-0.7l-0.2-0.7l0,0l-0.2-0.3H571.7
	L571.7,1438.4z"/>
<text transform="matrix(1 0 0 1 434.7279 1468.6525)" class="st2 st3 st4">LAZIO</text>
<text transform="matrix(1 0 0 1 435.3187 1396.0714)" class="st1 st5 st6">F</text>
<text transform="matrix(1 0 0 1 616.4813 1468.6095)" class="st0 st5 st6">M</text>
<path id="IT-62_1_" class="st0" d="M1156.4,1500.4l-0.1,0.7l0.3,0.1l-0.6,0.7l-0.1-1.6l1.3-0.6L1156.4,1500.4z M1186.5,1477.5
	l0.6,0.5l-0.4,0.7h-0.4l-1.8,1.6l-1.3,0.2l0.7,1.3l-0.4,0.9l0.6,2.6l-1.8,0.7l-0.1,0.6l0.4,0.1l-0.3,0.4l-1.8,0.4l-0.3,0.7l-1.6-1.2
	l-0.7,0.4l-1.6-0.7l-1.7,1l0.1,0.8l0.5,0.4l-1.2,0.1l-5.2-3l-2.5-0.6l-1,0.6l-1.3-0.1l-1.7,0.5l-1.9,1.9l-1.4-0.1l-1.7-3.9l-2.2-2.3
	l-2.1-1.2l-1.9-0.2l-0.4,0.4l-2.8-1.9l-1,0.1l-0.1,0.4l-0.5-0.2l-1.9-3.4l-4.2-4.9l-2.2-1.8l-3.6-1.6l-0.5-3.4l-1.9-3.3l-2.8-1.6
	l-0.7-1.1l-1.5-0.6l-0.3-0.7l-1.3-0.9l-2.5,0.4l-1-2.3l-1.8-2.3l-0.1-1.1l-1.3-2.5l-1.3-1.9l-3.2-2.6l-3-1.4l1.1-2.5l3.9-0.1l-0.1-2
	l-1.6-1.1l0.8-1.1l-0.3-1l0.4-0.2l0.7,0.6l0.4-0.5l0.4,0.1l1-0.5l0.1-0.6l0.9-0.7l0.7,0.1l0.5-1.3l0.8,0.1l0.8-0.5l-0.1-0.6
	l-0.6-0.3l-0.2-1.6h0.7l0.6-1.4l-2.2-1.7l0.7-1.4l0.7,0.3l0.4,0.7l0.3-1.2l1-0.6l1.4,0.1l1,2.3l1.6,1l-0.6,1.2l-1.1,0.6l0.7,1.3
	l2.4,1.5l2.2-0.7l0.6,0.6l0.1-0.4l0.4,0.1l0.8-0.7l1,0.4l1,1.2l0.3,2.6l1,0.4l-0.1,1.1l0.6,0.5l-0.4,0.4l0.9,0.4l-0.4,0.3l1.1-0.1
	l0.7,0.7l1.2-1l0.9,0.1l-0.1,1.1l0.4,0.4l-0.4,0.1v1.2l1.3,0.4l-0.6,0.8l2.2-0.3v1l0.5,0.6l2.5-1.9l0.1-2.2l0.7-0.1l0.5,1.1h0.7
	l1.7-1.1l-0.8-1.2l1.8-0.5l0.1-0.7l1.2,0.1l1.1-1l1.2-0.4l-0.4-1.5l0.4-0.7l1.2,0.6l0.4-0.6h1.9l0.4-0.9l1.2,0.6l1.6-1v-0.4l1,0.4
	l0.7-0.7l0.4-2.6l1.9,0.4l0.3-0.7l0.7-0.1l2.2,1.9l-0.3,1l0.7,0.8l1.2,0.4l-0.4,2l-0.8,0.7l-1.3-0.2l-0.9,0.4l-0.4-0.6h-0.8
	l-0.4,0.4l-1.6-0.6l-0.4,1.6l-0.6,0.3l0.6,1.1l0.1,1.4l-1.9,1.4l2.3,2.2l-1.2,1.3l2.2,1.4l0.4,1.9l1.5,1.5l1.4,0.5l0.1,1l1.1,0.7
	l-1,0.2l0.3,0.4l-0.9,0.1l-0.6,1.3l-1-0.4l-0.7,0.4l-3.8-2.1l-1,0.1v1.4l-1.2,1l-0.4-0.2l-0.1,2.9l0.8,1.3l1.4,0.4v-0.7l1.2,0.4
	l4.5,2.6l0.5-0.2l1.2,1.3l0.6-0.1l0.6,0.8l-0.7,1.3l0.6,2.1l0.8-0.8l1,0.4l0.9,0.8l1,0.2l0.4,1l0.9,0.5l2.4-0.8l0.6-1.2l1,0.3
	l0.6,0.7l0.7-0.4l1,1.9l0.7,0.2l0.6-0.4l1.4,0.8l1.1-0.1l1.5,1.9l1.2,1l0.8,2.1l0.1,0.8l-0.4,0.4l0.8,0.9l-0.1,0.5l-0.5,0.1l0.7,0.6
	L1186.5,1477.5L1186.5,1477.5z M1141.2,1461.2L1141.2,1461.2L1141.2,1461.2l-0.1-0.2h-0.1h-0.1l-0.1,0.1l0,0l0.1,0.1l0,0H1141.2
	L1141.2,1461.2L1141.2,1461.2L1141.2,1461.2z"/>
<path id="IT-62" class="st1" d="M1145.7,1478.2l-0.1,0.7l0.3,0.1l-0.6,0.7l-0.1-1.6l1.3-0.6L1145.7,1478.2z M1175.8,1455.3l0.6,0.5
	l-0.4,0.7h-0.4l-1.8,1.6l-1.3,0.2l0.7,1.3l-0.4,0.9l0.6,2.6l-1.8,0.7l-0.1,0.6l0.4,0.1l-0.3,0.4l-1.8,0.4l-0.3,0.7l-1.6-1.2
	l-0.7,0.4l-1.6-0.7l-1.7,1l0.1,0.8l0.5,0.4l-1.2,0.1l-5.2-3l-2.5-0.6l-1,0.6l-1.3-0.1l-1.7,0.5l-1.9,1.9l-1.4-0.1l-1.7-3.9l-2.2-2.3
	l-2.1-1.2l-1.9-0.2l-0.4,0.4l-2.8-1.9l-1,0.1l-0.1,0.4l-0.5-0.2l-1.9-3.4l-4.2-4.9l-2.2-1.8l-3.6-1.6l-0.5-3.4l-1.9-3.3l-2.8-1.6
	l-0.7-1.1l-1.5-0.6l-0.3-0.7l-1.3-0.9l-2.5,0.4l-1-2.3l-1.8-2.3l-0.1-1.1l-1.3-2.5l-1.3-1.9l-3.2-2.6l-3-1.4l1.1-2.5l3.9-0.1l-0.1-2
	l-1.6-1.1l0.8-1.1l-0.3-1l0.4-0.2l0.7,0.6l0.4-0.5l0.4,0.1l1-0.5l0.1-0.6l0.9-0.7l0.7,0.1l0.5-1.3l0.8,0.1l0.8-0.5l-0.1-0.6
	l-0.6-0.3l-0.2-1.6h0.7l0.6-1.4l-2.2-1.7l0.7-1.4l0.7,0.3l0.4,0.7l0.3-1.2l1-0.6l1.4,0.1l1,2.3l1.6,1l-0.6,1.2l-1.1,0.6l0.7,1.3
	l2.4,1.5l2.2-0.7l0.6,0.6l0.1-0.4l0.4,0.1l0.8-0.7l1,0.4l1,1.2l0.3,2.6l1,0.4l-0.1,1.1l0.6,0.5l-0.4,0.4l0.9,0.4l-0.4,0.3l1.1-0.1
	l0.7,0.7l1.2-1l0.9,0.1l-0.1,1.1l0.4,0.4l-0.4,0.1v1.2l1.3,0.4l-0.6,0.8l2.2-0.3v1l0.5,0.6l2.5-1.9l0.1-2.2l0.7-0.1l0.5,1.1h0.7
	l1.7-1.1l-0.8-1.2l1.8-0.5l0.1-0.7l1.2,0.1l1.1-1l1.2-0.4l-0.4-1.5l0.4-0.7l1.2,0.6l0.4-0.6h1.9l0.4-0.9l1.2,0.6l1.6-1v-0.4l1,0.4
	l0.7-0.7l0.4-2.6l1.9,0.4l0.3-0.7l0.7-0.1l2.2,1.9l-0.3,1l0.7,0.8l1.2,0.4l-0.4,2l-0.8,0.7l-1.3-0.2l-0.9,0.4l-0.4-0.6h-0.8
	l-0.4,0.4l-1.6-0.6l-0.4,1.6l-0.6,0.3l0.6,1.1l0.1,1.4l-1.9,1.4l2.3,2.2l-1.2,1.3l2.2,1.4l0.4,1.9l1.5,1.5l1.4,0.5l0.1,1l1.1,0.7
	l-1,0.2l0.3,0.4l-0.9,0.1l-0.6,1.3l-1-0.4l-0.7,0.4l-3.8-2.1l-1,0.1v1.4l-1.2,1l-0.4-0.2l-0.1,2.9l0.8,1.3l1.4,0.4v-0.7l1.2,0.4
	l4.5,2.6l0.5-0.2l1.2,1.3l0.6-0.1l0.6,0.8l-0.7,1.3l0.6,2.1l0.8-0.8l1,0.4l0.9,0.8l1,0.2l0.4,1l0.9,0.5l2.4-0.8l0.6-1.2l1,0.3
	l0.6,0.7l0.7-0.4l1,1.9l0.7,0.2l0.6-0.4l1.4,0.8l1.1-0.1l1.5,1.9l1.2,1l0.8,2.1l0.1,0.8l-0.4,0.4l0.8,0.9l-0.1,0.5l-0.5,0.1l0.7,0.6
	L1175.8,1455.3L1175.8,1455.3z M1130.6,1439.1L1130.6,1439.1L1130.6,1439.1l-0.1-0.2h-0.1h-0.1l-0.1,0.1l0,0l0.1,0.1l0,0H1130.6
	L1130.6,1439.1L1130.6,1439.1L1130.6,1439.1z"/>
<text transform="matrix(1 0 0 1 1072.6028 1411.0229)" class="st1 st5 st7">F</text>
<g>
	<text transform="matrix(1 0 0 1 1200.2903 1486.231)" class="st0 st5 st7">M</text>
</g>
<text transform="matrix(1 3.822801e-03 -3.822801e-03 1 1196.573 1398.1858)" class="st2 st3 st8">EMILIA</text>
<text transform="matrix(1 3.822801e-03 -3.822801e-03 1 1196.4496 1430.4766)" class="st2 st3 st8">ROMAGNA</text>
<path class="st9" d="M324.7,681.5c0-291.6,236.4-528,528-528s528,236.4,528,528c0,159.3-70.6,302.2-182.2,399"/>
<path class="st10" d="M1197,1082.8c-92.6,79.2-212.8,127.1-344.3,127.1c-292.6,0-529.9-237.2-529.9-529.9"/>
<image style="overflow:visible;enable-background:new    ;" width="196" height="233" xlink:href="gruppo MSF/grafici/lazio emiliaromagna stp 18-19-20 sesso/BACB05D6CEBFBBD7.png"  transform="matrix(1 0 0 1 485 757.9907)">
</image>
<g>
	
		<image style="overflow:visible;enable-background:new    ;" width="197" height="256" xlink:href="gruppo MSF/grafici/lazio emiliaromagna stp 18-19-20 sesso/BACB05D6CEBFBBD5.png"  transform="matrix(1 0 0 1 732 734.9907)">
	</image>
</g>
<g>
	
		<image style="overflow:visible;enable-background:new    ;" width="196" height="281" xlink:href="gruppo MSF/grafici/lazio emiliaromagna stp 18-19-20 sesso/BACB05D6CEBFBBDB.png"  transform="matrix(1 0 0 1 981 709.9907)">
	</image>
</g>
<image style="overflow:visible;enable-background:new    ;" width="196" height="351" xlink:href="gruppo MSF/grafici/lazio emiliaromagna stp 18-19-20 sesso/BACB05D6CEBFBBDD.png"  transform="matrix(1 0 0 1 485 479.9908)">
</image>
<g>
	
		<image style="overflow:visible;enable-background:new    ;" width="198" height="315" xlink:href="gruppo MSF/grafici/lazio emiliaromagna stp 18-19-20 sesso/BACB05D6CEBFBBDF.png"  transform="matrix(1 0 0 1 732 492.9908)">
	</image>
</g>
<g>
	
		<image style="overflow:visible;enable-background:new    ;" width="196" height="394" xlink:href="gruppo MSF/grafici/lazio emiliaromagna stp 18-19-20 sesso/BACB05D6CEBFBBDC.png"  transform="matrix(1 0 0 1 981 388.9908)">
	</image>
</g>
<line class="st11" x1="644.5" y1="961.4" x2="644.5" y2="967.4"/>
<line class="st11" x1="892.5" y1="961.4" x2="892.5" y2="967.4"/>
<g>
	<text transform="matrix(1 0 0 1 876.3027 1036.4902)" class="st3 st12">19</text>
</g>
<g>
	<text transform="matrix(1 0 0 1 633.0984 1036.4905)" class="st3 st12">18</text>
</g>
<g>
	<g>
		<g>
			<text transform="matrix(1 0 0 1 799.0208 566.4167)" class="st3 st13">56,8%</text>
		</g>
	</g>
</g>
<g>
	<g>
		<g>
			<text transform="matrix(1 0 0 1 1047.374 462.3411)" class="st3 st13">60,7%</text>
		</g>
	</g>
</g>
<g>
	<text transform="matrix(1 0 0 1 1120.979 1036.4904)" class="st3 st12">20</text>
</g>
<line class="st11" x1="1140.5" y1="961.4" x2="1140.5" y2="967.4"/>
<line class="st11" x1="512" y1="954.9" x2="506" y2="954.9"/>
<g class="st14">
	<path d="M494.1,954.5c0-2.3,0.9-3.7,2.8-3.7c1.9,0,2.8,1.5,2.8,3.7c0,2.3-0.9,3.8-2.8,3.8C495,958.2,494.1,956.8,494.1,954.5z
		 M495.1,954.5c0,2,0.7,3,1.8,3c1.1,0,1.8-1,1.8-3c0-2-0.7-3-1.8-3C495.8,951.5,495.1,952.5,495.1,954.5z"/>
</g>
<line class="st11" x1="512" y1="904" x2="506" y2="904"/>
<g class="st14">
	<path d="M476.6,901.5h-1.7v-0.6c1,0,1.6-0.2,2-1h0.6v7.2h-0.9V901.5z"/>
	<path d="M480.3,906v1.2l-0.6,1.3h-0.6l0.5-1.4h-0.5V906H480.3z"/>
	<path d="M480.9,903.6c0-2.3,0.9-3.7,2.8-3.7c1.9,0,2.8,1.5,2.8,3.7c0,2.3-0.9,3.8-2.8,3.8C481.8,907.3,480.9,905.9,480.9,903.6z
		 M481.9,903.6c0,2,0.7,3,1.8,3c1.1,0,1.8-1,1.8-3c0-2-0.7-3-1.8-3C482.6,900.6,481.9,901.5,481.9,903.6z"/>
	<path d="M487.5,903.6c0-2.3,0.9-3.7,2.8-3.7c1.9,0,2.8,1.5,2.8,3.7c0,2.3-0.9,3.8-2.8,3.8C488.4,907.3,487.5,905.9,487.5,903.6z
		 M488.5,903.6c0,2,0.7,3,1.8,3c1.1,0,1.8-1,1.8-3c0-2-0.7-3-1.8-3C489.2,900.6,488.5,901.5,488.5,903.6z"/>
	<path d="M494.1,903.6c0-2.3,0.9-3.7,2.8-3.7c1.9,0,2.8,1.5,2.8,3.7c0,2.3-0.9,3.8-2.8,3.8C495,907.3,494.1,905.9,494.1,903.6z
		 M495.1,903.6c0,2,0.7,3,1.8,3c1.1,0,1.8-1,1.8-3c0-2-0.7-3-1.8-3C495.8,900.6,495.1,901.5,495.1,903.6z"/>
</g>
<line class="st11" x1="512" y1="853.1" x2="506" y2="853.1"/>
<g class="st14">
	<path d="M474.1,855.4h4v0.8h-5.2v-0.8c2.6-1.9,4.1-3.3,4.1-4.5c0-0.7-0.5-1.3-1.4-1.3c-0.8,0-1.5,0.4-1.6,1.6h-0.9
		c0-1.4,1-2.4,2.5-2.4c1.3,0,2.3,0.7,2.3,1.9C477.9,852.5,476.1,854,474.1,855.4z"/>
	<path d="M480.3,855.1v1.2l-0.6,1.3h-0.6l0.5-1.4h-0.5v-1.1H480.3z"/>
	<path d="M480.9,852.6c0-2.3,0.9-3.7,2.8-3.7c1.9,0,2.8,1.5,2.8,3.7c0,2.3-0.9,3.8-2.8,3.8C481.8,856.4,480.9,854.9,480.9,852.6z
		 M481.9,852.6c0,2,0.7,3,1.8,3c1.1,0,1.8-1,1.8-3c0-2-0.7-3-1.8-3C482.6,849.7,481.9,850.6,481.9,852.6z"/>
	<path d="M487.5,852.6c0-2.3,0.9-3.7,2.8-3.7c1.9,0,2.8,1.5,2.8,3.7c0,2.3-0.9,3.8-2.8,3.8C488.4,856.4,487.5,854.9,487.5,852.6z
		 M488.5,852.6c0,2,0.7,3,1.8,3c1.1,0,1.8-1,1.8-3c0-2-0.7-3-1.8-3C489.2,849.7,488.5,850.6,488.5,852.6z"/>
	<path d="M494.1,852.6c0-2.3,0.9-3.7,2.8-3.7c1.9,0,2.8,1.5,2.8,3.7c0,2.3-0.9,3.8-2.8,3.8C495,856.4,494.1,854.9,494.1,852.6z
		 M495.1,852.6c0,2,0.7,3,1.8,3c1.1,0,1.8-1,1.8-3c0-2-0.7-3-1.8-3C495.8,849.7,495.1,850.6,495.1,852.6z"/>
</g>
<line class="st11" x1="512" y1="802.2" x2="506" y2="802.2"/>
<g class="st14">
	<path d="M475.2,802H475v-0.8h0.1c1.3,0,1.9-0.4,1.9-1.2c0-0.8-0.6-1.2-1.4-1.2c-1,0-1.5,0.6-1.6,1.4h-0.9c0.1-1.3,1-2.2,2.5-2.2
		c1.3,0,2.3,0.5,2.3,1.8c0,0.7-0.4,1.4-1.2,1.7c1.1,0.3,1.4,1.1,1.4,1.8c0,1.5-1.2,2.2-2.6,2.2c-1.7,0-2.5-1.1-2.6-2.3h0.9
		c0.1,0.9,0.6,1.5,1.6,1.5c1,0,1.6-0.5,1.6-1.4C477.3,802.3,476.3,802,475.2,802z"/>
	<path d="M480.3,804.2v1.2l-0.6,1.3h-0.6l0.5-1.4h-0.5v-1.1H480.3z"/>
	<path d="M480.9,801.7c0-2.3,0.9-3.7,2.8-3.7c1.9,0,2.8,1.5,2.8,3.7c0,2.3-0.9,3.8-2.8,3.8C481.8,805.5,480.9,804,480.9,801.7z
		 M481.9,801.7c0,2,0.7,3,1.8,3c1.1,0,1.8-1,1.8-3c0-2-0.7-3-1.8-3C482.6,798.7,481.9,799.7,481.9,801.7z"/>
	<path d="M487.5,801.7c0-2.3,0.9-3.7,2.8-3.7c1.9,0,2.8,1.5,2.8,3.7c0,2.3-0.9,3.8-2.8,3.8C488.4,805.5,487.5,804,487.5,801.7z
		 M488.5,801.7c0,2,0.7,3,1.8,3c1.1,0,1.8-1,1.8-3c0-2-0.7-3-1.8-3C489.2,798.7,488.5,799.7,488.5,801.7z"/>
	<path d="M494.1,801.7c0-2.3,0.9-3.7,2.8-3.7c1.9,0,2.8,1.5,2.8,3.7c0,2.3-0.9,3.8-2.8,3.8C495,805.5,494.1,804,494.1,801.7z
		 M495.1,801.7c0,2,0.7,3,1.8,3c1.1,0,1.8-1,1.8-3c0-2-0.7-3-1.8-3C495.8,798.7,495.1,799.7,495.1,801.7z"/>
</g>
<line class="st11" x1="512" y1="751.3" x2="506" y2="751.3"/>
<g class="st14">
	<path d="M477,752.7v1.8h-0.9v-1.8h-3.6v-0.9l3.6-4.6h0.9v4.6h1.3v0.9H477z M476.1,751.8v-3.3l-2.6,3.3H476.1z"/>
	<path d="M480.3,753.3v1.2l-0.6,1.3h-0.6l0.5-1.4h-0.5v-1.1H480.3z"/>
	<path d="M480.9,750.8c0-2.3,0.9-3.7,2.8-3.7c1.9,0,2.8,1.5,2.8,3.7c0,2.3-0.9,3.8-2.8,3.8C481.8,754.6,480.9,753.1,480.9,750.8z
		 M481.9,750.8c0,2,0.7,3,1.8,3c1.1,0,1.8-1,1.8-3c0-2-0.7-3-1.8-3C482.6,747.8,481.9,748.8,481.9,750.8z"/>
	<path d="M487.5,750.8c0-2.3,0.9-3.7,2.8-3.7c1.9,0,2.8,1.5,2.8,3.7c0,2.3-0.9,3.8-2.8,3.8C488.4,754.6,487.5,753.1,487.5,750.8z
		 M488.5,750.8c0,2,0.7,3,1.8,3c1.1,0,1.8-1,1.8-3c0-2-0.7-3-1.8-3C489.2,747.8,488.5,748.8,488.5,750.8z"/>
	<path d="M494.1,750.8c0-2.3,0.9-3.7,2.8-3.7c1.9,0,2.8,1.5,2.8,3.7c0,2.3-0.9,3.8-2.8,3.8C495,754.6,494.1,753.1,494.1,750.8z
		 M495.1,750.8c0,2,0.7,3,1.8,3c1.1,0,1.8-1,1.8-3c0-2-0.7-3-1.8-3C495.8,747.8,495.1,748.8,495.1,750.8z"/>
</g>
<line class="st11" x1="512" y1="700.4" x2="506" y2="700.4"/>
<g class="st14">
	<path d="M475.6,699.4c-0.7,0-1.2,0.4-1.4,0.8l-0.9-0.1l0.5-3.9h4.2v0.8h-3.4l-0.2,2.1c0.4-0.4,1-0.5,1.6-0.5c1.3,0,2.4,0.9,2.4,2.5
		c0,1.7-1.2,2.5-2.6,2.5c-1.7,0-2.4-1.1-2.6-2.2h0.9c0.1,0.9,0.6,1.5,1.6,1.5c0.9,0,1.6-0.6,1.6-1.7
		C477.2,700,476.4,699.4,475.6,699.4z"/>
	<path d="M480.3,702.4v1.2l-0.6,1.3h-0.6l0.5-1.4h-0.5v-1.1H480.3z"/>
	<path d="M480.9,699.9c0-2.3,0.9-3.7,2.8-3.7c1.9,0,2.8,1.5,2.8,3.7c0,2.3-0.9,3.8-2.8,3.8C481.8,703.7,480.9,702.2,480.9,699.9z
		 M481.9,699.9c0,2,0.7,3,1.8,3c1.1,0,1.8-1,1.8-3c0-2-0.7-3-1.8-3C482.6,696.9,481.9,697.9,481.9,699.9z"/>
	<path d="M487.5,699.9c0-2.3,0.9-3.7,2.8-3.7c1.9,0,2.8,1.5,2.8,3.7c0,2.3-0.9,3.8-2.8,3.8C488.4,703.7,487.5,702.2,487.5,699.9z
		 M488.5,699.9c0,2,0.7,3,1.8,3c1.1,0,1.8-1,1.8-3c0-2-0.7-3-1.8-3C489.2,696.9,488.5,697.9,488.5,699.9z"/>
	<path d="M494.1,699.9c0-2.3,0.9-3.7,2.8-3.7c1.9,0,2.8,1.5,2.8,3.7c0,2.3-0.9,3.8-2.8,3.8C495,703.7,494.1,702.2,494.1,699.9z
		 M495.1,699.9c0,2,0.7,3,1.8,3c1.1,0,1.8-1,1.8-3c0-2-0.7-3-1.8-3C495.8,696.9,495.1,697.9,495.1,699.9z"/>
</g>
<line class="st11" x1="512" y1="649.5" x2="506" y2="649.5"/>
<g class="st14">
	<path d="M475.9,647.8c1.3,0,2.3,1,2.3,2.5c0,1.3-1,2.5-2.5,2.5c-1.8,0-2.6-1.3-2.6-3.5c0-2,0.7-4,2.8-4c1.4,0,2.1,0.9,2.2,1.8h-1
		c-0.1-0.6-0.6-1-1.4-1c-1.1,0-1.7,1.1-1.8,2.8C474.4,648.2,475,647.8,475.9,647.8z M477.3,650.3c0-1-0.6-1.7-1.6-1.7
		c-0.9,0-1.6,0.7-1.6,1.7c0,1,0.6,1.7,1.6,1.7C476.7,652,477.3,651.3,477.3,650.3z"/>
	<path d="M480.3,651.5v1.2l-0.6,1.3h-0.6l0.5-1.4h-0.5v-1.1H480.3z"/>
	<path d="M480.9,649c0-2.3,0.9-3.7,2.8-3.7c1.9,0,2.8,1.5,2.8,3.7c0,2.3-0.9,3.8-2.8,3.8C481.8,652.8,480.9,651.3,480.9,649z
		 M481.9,649c0,2,0.7,3,1.8,3c1.1,0,1.8-1,1.8-3c0-2-0.7-3-1.8-3C482.6,646,481.9,647,481.9,649z"/>
	<path d="M487.5,649c0-2.3,0.9-3.7,2.8-3.7c1.9,0,2.8,1.5,2.8,3.7c0,2.3-0.9,3.8-2.8,3.8C488.4,652.8,487.5,651.3,487.5,649z
		 M488.5,649c0,2,0.7,3,1.8,3c1.1,0,1.8-1,1.8-3c0-2-0.7-3-1.8-3C489.2,646,488.5,647,488.5,649z"/>
	<path d="M494.1,649c0-2.3,0.9-3.7,2.8-3.7c1.9,0,2.8,1.5,2.8,3.7c0,2.3-0.9,3.8-2.8,3.8C495,652.8,494.1,651.3,494.1,649z
		 M495.1,649c0,2,0.7,3,1.8,3c1.1,0,1.8-1,1.8-3c0-2-0.7-3-1.8-3C495.8,646,495.1,647,495.1,649z"/>
</g>
<line class="st11" x1="512" y1="598.6" x2="506" y2="598.6"/>
<g class="st14">
	<path d="M480,594.5v0.8c-1.8,1.4-2.9,3.7-3.1,6.4h-1.1c0.2-2.6,1.3-4.8,3.1-6.4h-4v-0.8H480z"/>
	<path d="M480.3,600.6v1.2l-0.6,1.3h-0.6l0.5-1.4h-0.5v-1.1H480.3z"/>
	<path d="M480.9,598.1c0-2.3,0.9-3.7,2.8-3.7c1.9,0,2.8,1.5,2.8,3.7c0,2.3-0.9,3.8-2.8,3.8C481.8,601.9,480.9,600.4,480.9,598.1z
		 M481.9,598.1c0,2,0.7,3,1.8,3c1.1,0,1.8-1,1.8-3c0-2-0.7-3-1.8-3C482.6,595.1,481.9,596.1,481.9,598.1z"/>
	<path d="M487.5,598.1c0-2.3,0.9-3.7,2.8-3.7c1.9,0,2.8,1.5,2.8,3.7c0,2.3-0.9,3.8-2.8,3.8C488.4,601.9,487.5,600.4,487.5,598.1z
		 M488.5,598.1c0,2,0.7,3,1.8,3c1.1,0,1.8-1,1.8-3c0-2-0.7-3-1.8-3C489.2,595.1,488.5,596.1,488.5,598.1z"/>
	<path d="M494.1,598.1c0-2.3,0.9-3.7,2.8-3.7c1.9,0,2.8,1.5,2.8,3.7c0,2.3-0.9,3.8-2.8,3.8C495,601.9,494.1,600.4,494.1,598.1z
		 M495.1,598.1c0,2,0.7,3,1.8,3c1.1,0,1.8-1,1.8-3c0-2-0.7-3-1.8-3C495.8,595.1,495.1,596.1,495.1,598.1z"/>
</g>
<line class="st11" x1="512" y1="547.7" x2="506" y2="547.7"/>
<g class="st14">
	<path d="M477.1,547c0.9,0.4,1.2,1.2,1.2,1.8c0,1.4-1.1,2.2-2.6,2.2c-1.5,0-2.6-0.8-2.6-2.2c0-0.7,0.3-1.4,1.2-1.8
		c-0.7-0.4-1-1.1-1-1.7c0-1.1,0.9-1.8,2.4-1.8c1.5,0,2.4,0.8,2.4,1.8C478.1,545.9,477.8,546.6,477.1,547z M475.6,550.2
		c1,0,1.7-0.6,1.7-1.4s-0.7-1.4-1.7-1.4c-1,0-1.7,0.6-1.7,1.4S474.6,550.2,475.6,550.2z M474.1,545.4c0,0.7,0.6,1.3,1.5,1.3
		c0.9,0,1.5-0.5,1.5-1.3c0-0.7-0.6-1.2-1.5-1.2C474.7,544.2,474.1,544.7,474.1,545.4z"/>
	<path d="M480.3,549.7v1.2l-0.6,1.3h-0.6l0.5-1.4h-0.5v-1.1H480.3z"/>
	<path d="M480.9,547.2c0-2.3,0.9-3.7,2.8-3.7c1.9,0,2.8,1.5,2.8,3.7c0,2.3-0.9,3.8-2.8,3.8C481.8,550.9,480.9,549.5,480.9,547.2z
		 M481.9,547.2c0,2,0.7,3,1.8,3c1.1,0,1.8-1,1.8-3c0-2-0.7-3-1.8-3C482.6,544.2,481.9,545.2,481.9,547.2z"/>
	<path d="M487.5,547.2c0-2.3,0.9-3.7,2.8-3.7c1.9,0,2.8,1.5,2.8,3.7c0,2.3-0.9,3.8-2.8,3.8C488.4,550.9,487.5,549.5,487.5,547.2z
		 M488.5,547.2c0,2,0.7,3,1.8,3c1.1,0,1.8-1,1.8-3c0-2-0.7-3-1.8-3C489.2,544.2,488.5,545.2,488.5,547.2z"/>
	<path d="M494.1,547.2c0-2.3,0.9-3.7,2.8-3.7c1.9,0,2.8,1.5,2.8,3.7c0,2.3-0.9,3.8-2.8,3.8C495,550.9,494.1,549.5,494.1,547.2z
		 M495.1,547.2c0,2,0.7,3,1.8,3c1.1,0,1.8-1,1.8-3c0-2-0.7-3-1.8-3C495.8,544.2,495.1,545.2,495.1,547.2z"/>
</g>
<line class="st11" x1="512" y1="496.7" x2="506" y2="496.7"/>
<g class="st14">
	<path d="M475.6,497.5c-1.3,0-2.3-1-2.3-2.5c0-1.3,1-2.5,2.5-2.5c1.8,0,2.6,1.3,2.6,3.5c0,2-0.7,4-2.8,4c-1.4,0-2.1-0.9-2.2-1.8h1
		c0.1,0.6,0.6,1,1.3,1c1.1,0,1.7-1.1,1.8-2.8C477.2,497.1,476.5,497.5,475.6,497.5z M474.2,495c0,1,0.6,1.7,1.6,1.7
		c0.9,0,1.6-0.7,1.6-1.7c0-1-0.6-1.7-1.6-1.7C474.9,493.3,474.2,494,474.2,495z"/>
	<path d="M480.3,498.8v1.2l-0.6,1.3h-0.6l0.5-1.4h-0.5v-1.1H480.3z"/>
	<path d="M480.9,496.3c0-2.3,0.9-3.7,2.8-3.7c1.9,0,2.8,1.5,2.8,3.7c0,2.3-0.9,3.8-2.8,3.8C481.8,500,480.9,498.6,480.9,496.3z
		 M481.9,496.3c0,2,0.7,3,1.8,3c1.1,0,1.8-1,1.8-3c0-2-0.7-3-1.8-3C482.6,493.3,481.9,494.3,481.9,496.3z"/>
	<path d="M487.5,496.3c0-2.3,0.9-3.7,2.8-3.7c1.9,0,2.8,1.5,2.8,3.7c0,2.3-0.9,3.8-2.8,3.8C488.4,500,487.5,498.6,487.5,496.3z
		 M488.5,496.3c0,2,0.7,3,1.8,3c1.1,0,1.8-1,1.8-3c0-2-0.7-3-1.8-3C489.2,493.3,488.5,494.3,488.5,496.3z"/>
	<path d="M494.1,496.3c0-2.3,0.9-3.7,2.8-3.7c1.9,0,2.8,1.5,2.8,3.7c0,2.3-0.9,3.8-2.8,3.8C495,500,494.1,498.6,494.1,496.3z
		 M495.1,496.3c0,2,0.7,3,1.8,3c1.1,0,1.8-1,1.8-3c0-2-0.7-3-1.8-3C495.8,493.3,495.1,494.3,495.1,496.3z"/>
</g>
<line class="st11" x1="512" y1="445.8" x2="506" y2="445.8"/>
<g class="st14">
	<path d="M470.5,443.3h-1.7v-0.6c1,0,1.6-0.2,2-1h0.6v7.2h-0.9V443.3z"/>
	<path d="M472.8,445.4c0-2.3,0.9-3.7,2.8-3.7c1.9,0,2.8,1.5,2.8,3.7c0,2.3-0.9,3.8-2.8,3.8C473.7,449.1,472.8,447.7,472.8,445.4z
		 M473.8,445.4c0,2,0.7,3,1.8,3c1.1,0,1.8-1,1.8-3c0-2-0.7-3-1.8-3C474.5,442.4,473.8,443.4,473.8,445.4z"/>
	<path d="M480.3,447.9v1.2l-0.6,1.3h-0.6l0.5-1.4h-0.5v-1.1H480.3z"/>
	<path d="M480.9,445.4c0-2.3,0.9-3.7,2.8-3.7c1.9,0,2.8,1.5,2.8,3.7c0,2.3-0.9,3.8-2.8,3.8C481.8,449.1,480.9,447.7,480.9,445.4z
		 M481.9,445.4c0,2,0.7,3,1.8,3c1.1,0,1.8-1,1.8-3c0-2-0.7-3-1.8-3C482.6,442.4,481.9,443.4,481.9,445.4z"/>
	<path d="M487.5,445.4c0-2.3,0.9-3.7,2.8-3.7c1.9,0,2.8,1.5,2.8,3.7c0,2.3-0.9,3.8-2.8,3.8C488.4,449.1,487.5,447.7,487.5,445.4z
		 M488.5,445.4c0,2,0.7,3,1.8,3c1.1,0,1.8-1,1.8-3c0-2-0.7-3-1.8-3C489.2,442.4,488.5,443.4,488.5,445.4z"/>
	<path d="M494.1,445.4c0-2.3,0.9-3.7,2.8-3.7c1.9,0,2.8,1.5,2.8,3.7c0,2.3-0.9,3.8-2.8,3.8C495,449.1,494.1,447.7,494.1,445.4z
		 M495.1,445.4c0,2,0.7,3,1.8,3c1.1,0,1.8-1,1.8-3c0-2-0.7-3-1.8-3C495.8,442.4,495.1,443.4,495.1,445.4z"/>
</g>
<line class="st11" x1="514" y1="394.9" x2="508" y2="394.9"/>
<g class="st14">
	<path d="M474.1,392.4h-1.7v-0.6c1,0,1.6-0.2,2-1h0.6v7.2h-0.9V392.4z"/>
	<path d="M478,392.4h-1.7v-0.6c1,0,1.6-0.2,2-1h0.6v7.2H478V392.4z"/>
	<path d="M481.7,396.9v1.2l-0.6,1.3h-0.6l0.5-1.4h-0.5v-1.1H481.7z"/>
	<path d="M482.3,394.5c0-2.3,0.9-3.7,2.8-3.7c1.9,0,2.8,1.5,2.8,3.7c0,2.3-0.9,3.8-2.8,3.8C483.2,398.2,482.3,396.8,482.3,394.5z
		 M483.3,394.5c0,2,0.7,3,1.8,3c1.1,0,1.8-1,1.8-3c0-2-0.7-3-1.8-3C484,391.5,483.3,392.5,483.3,394.5z"/>
	<path d="M488.9,394.5c0-2.3,0.9-3.7,2.8-3.7c1.9,0,2.8,1.5,2.8,3.7c0,2.3-0.9,3.8-2.8,3.8C489.8,398.2,488.9,396.8,488.9,394.5z
		 M489.9,394.5c0,2,0.7,3,1.8,3c1.1,0,1.8-1,1.8-3c0-2-0.7-3-1.8-3C490.6,391.5,489.9,392.5,489.9,394.5z"/>
	<path d="M495.5,394.5c0-2.3,0.9-3.7,2.8-3.7c1.9,0,2.8,1.5,2.8,3.7c0,2.3-0.9,3.8-2.8,3.8C496.4,398.2,495.5,396.8,495.5,394.5z
		 M496.5,394.5c0,2,0.7,3,1.8,3c1.1,0,1.8-1,1.8-3c0-2-0.7-3-1.8-3C497.2,391.5,496.5,392.5,496.5,394.5z"/>
</g>
<text transform="matrix(1 0 0 1 1236.3188 950.3901)" class="st15 st16 st17">anno</text>
<g>
	
		<image style="overflow:visible;enable-background:new    ;" width="197" height="158" xlink:href="gruppo MSF/grafici/lazio emiliaromagna stp 18-19-20 sesso/BACB05D6CEBFBBD4.png"  transform="matrix(1 0 0 1 608 832.9907)">
	</image>
</g>
<g>
	
		<image style="overflow:visible;enable-background:new    ;" width="196" height="165" xlink:href="gruppo MSF/grafici/lazio emiliaromagna stp 18-19-20 sesso/BACB05D6CEBFBBD6.png"  transform="matrix(1 0 0 1 857 825.9907)">
	</image>
</g>
<g>
	
		<image style="overflow:visible;enable-background:new    ;" width="196" height="148" xlink:href="gruppo MSF/grafici/lazio emiliaromagna stp 18-19-20 sesso/BACB05D6CEBFBBD2.png"  transform="matrix(1 0 0 1 1105 842.9907)">
	</image>
</g>
<g>
	
		<image style="overflow:visible;enable-background:new    ;" width="196" height="147" xlink:href="gruppo MSF/grafici/lazio emiliaromagna stp 18-19-20 sesso/FF57D80BE1B62614.png"  transform="matrix(1 0 0 1 609 758.9907)">
	</image>
</g>
<g>
	
		<image style="overflow:visible;enable-background:new    ;" width="196" height="154" xlink:href="gruppo MSF/grafici/lazio emiliaromagna stp 18-19-20 sesso/FF57D80BE1B62613.png"  transform="matrix(1 0 0 1 857 744.9907)">
	</image>
</g>
<g>
	
		<image style="overflow:visible;enable-background:new    ;" width="197" height="154" xlink:href="gruppo MSF/grafici/lazio emiliaromagna stp 18-19-20 sesso/FF57D80BE1B6262C.png"  transform="matrix(1 0 0 1 1104 761.9907)">
	</image>
</g>
<path class="st18" d="M769,954.9V452.8"/>
<path class="st18" d="M1017,954.9v-550"/>
<path class="st11" d="M520.5,954.9h745"/>
<path class="st11" d="M521,954.9v-560"/>
<g class="st14">
	<path class="st2" d="M863.3,987v-6.8h1.5v17.6h-1.5v-2.1c-0.9,1.6-2.5,2.5-4.4,2.5c-3,0-5.5-2.5-5.5-6.8c0-4.3,2.5-6.8,5.5-6.8
		C860.8,984.5,862.4,985.4,863.3,987z M855.1,991.3c0,3.5,1.7,5.4,4.2,5.4c2,0,4.2-1.6,4.2-5.4s-2.2-5.4-4.2-5.4
		C856.8,985.9,855.1,987.8,855.1,991.3z"/>
	<path class="st2" d="M872.3,998.1c-3,0-4.3-1.8-4.3-5.1v-8.3h1.5v7.9c0,2.5,0.6,4.1,3.1,4.1c2.1,0,3.8-1.9,3.8-4.7v-7.4h1.5v13.1
		h-1.5v-2.1C875.9,996.9,874.6,998.1,872.3,998.1z"/>
	<path class="st2" d="M886.8,984.5c3.7,0,6,3.1,5.8,7.2h-10.4c0,3.2,2,5,4.7,5c2,0,3.5-1,4-2.8h1.6c-0.6,2.7-2.8,4.2-5.7,4.2
		c-3.8,0-6.2-2.7-6.2-6.8C880.7,987.1,883.3,984.5,886.8,984.5z M891,990.3c0-2.2-1.6-4.5-4.2-4.5c-2.4,0-4.2,1.6-4.5,4.5H891z"/>
	<path class="st2" d="M895.3,997.8v-13.1h1.5v2.2c0.6-1.2,1.8-2.4,4.1-2.4c2.1,0,3.3,0.9,3.8,2.6c1-1.7,2.3-2.6,4.4-2.6
		c3,0,4.2,1.8,4.2,5.1v8.2h-1.5V990c0-2.5-0.5-4.1-3-4.1c-2.1,0-3.7,1.9-3.7,4.7v7.3h-1.5V990c0-2.5-0.5-4.1-3-4.1
		c-2.1,0-3.7,1.9-3.7,4.7v7.3H895.3z"/>
	<path class="st2" d="M918.1,982.6h-1.5v-2.4h1.5V982.6z M918.1,997.8h-1.5v-13.1h1.5V997.8z"/>
	<path class="st2" d="M921.7,997.8v-17.6h1.5v17.6H921.7z"/>
	<path class="st2" d="M930.2,998.1c-2.4,0-4.3-1.4-4.3-3.6c0-3,2.9-4.1,9.2-4.7v-0.5c0-3-1.8-3.6-3.6-3.6c-2.2,0-3.6,1.2-3.7,2.9
		h-1.6c0.3-2.6,2.4-4.3,5.4-4.3c3,0,5.1,1.3,5.1,5.2c0,1.8,0,3,0,4c0,1.5,0.1,2.8,0.1,4.2h-1.5l-0.1-2
		C934.3,997.2,932.6,998.1,930.2,998.1z M935.2,991.8v-0.6c-5.3,0.6-7.6,1.3-7.6,3.3c0,1.4,1.3,2.3,3,2.3
		C933,996.8,935.2,995.5,935.2,991.8z"/>
</g>
<g class="st14">
	<path class="st2" d="M616.2,987v-6.8h1.5v17.6h-1.5v-2.1c-0.9,1.6-2.5,2.5-4.4,2.5c-3,0-5.5-2.5-5.5-6.8c0-4.3,2.5-6.8,5.5-6.8
		C613.7,984.5,615.3,985.4,616.2,987z M607.9,991.3c0,3.5,1.7,5.4,4.2,5.4c2,0,4.2-1.6,4.2-5.4s-2.2-5.4-4.2-5.4
		C609.7,985.9,607.9,987.8,607.9,991.3z"/>
	<path class="st2" d="M625.2,998.1c-3,0-4.3-1.8-4.3-5.1v-8.3h1.5v7.9c0,2.5,0.6,4.1,3.1,4.1c2.1,0,3.8-1.9,3.8-4.7v-7.4h1.5v13.1
		h-1.5v-2.1C628.8,996.9,627.5,998.1,625.2,998.1z"/>
	<path class="st2" d="M639.7,984.5c3.7,0,6,3.1,5.8,7.2h-10.4c0,3.2,2,5,4.7,5c2,0,3.5-1,4-2.8h1.6c-0.6,2.7-2.8,4.2-5.7,4.2
		c-3.8,0-6.2-2.7-6.2-6.8C633.6,987.1,636.2,984.5,639.7,984.5z M643.9,990.3c0-2.2-1.6-4.5-4.2-4.5c-2.4,0-4.2,1.6-4.5,4.5H643.9z"
		/>
	<path class="st2" d="M648.2,997.8v-13.1h1.5v2.2c0.6-1.2,1.8-2.4,4.1-2.4c2.1,0,3.3,0.9,3.8,2.6c1-1.7,2.3-2.6,4.4-2.6
		c3,0,4.2,1.8,4.2,5.1v8.2h-1.5V990c0-2.5-0.5-4.1-3-4.1c-2.1,0-3.7,1.9-3.7,4.7v7.3h-1.5V990c0-2.5-0.5-4.1-3-4.1
		c-2.1,0-3.7,1.9-3.7,4.7v7.3H648.2z"/>
	<path class="st2" d="M671,982.6h-1.5v-2.4h1.5V982.6z M671,997.8h-1.5v-13.1h1.5V997.8z"/>
	<path class="st2" d="M674.6,997.8v-17.6h1.5v17.6H674.6z"/>
	<path class="st2" d="M683.1,998.1c-2.4,0-4.3-1.4-4.3-3.6c0-3,2.9-4.1,9.2-4.7v-0.5c0-3-1.8-3.6-3.6-3.6c-2.2,0-3.6,1.2-3.7,2.9
		h-1.6c0.3-2.6,2.4-4.3,5.4-4.3c3,0,5.1,1.3,5.1,5.2c0,1.8,0,3,0,4c0,1.5,0.1,2.8,0.1,4.2h-1.5l-0.1-2
		C687.1,997.2,685.5,998.1,683.1,998.1z M688,991.8v-0.6c-5.3,0.6-7.6,1.3-7.6,3.3c0,1.4,1.3,2.3,3,2.3
		C685.8,996.8,688,995.5,688,991.8z"/>
</g>
<g class="st14">
	<path class="st2" d="M1114.7,987v-6.8h1.5v17.6h-1.5v-2.1c-0.9,1.6-2.5,2.5-4.4,2.5c-3,0-5.5-2.5-5.5-6.8c0-4.3,2.5-6.8,5.5-6.8
		C1112.2,984.5,1113.8,985.4,1114.7,987z M1106.4,991.3c0,3.5,1.7,5.4,4.2,5.4c2,0,4.2-1.6,4.2-5.4s-2.2-5.4-4.2-5.4
		C1108.1,985.9,1106.4,987.8,1106.4,991.3z"/>
	<path class="st2" d="M1123.7,998.1c-3,0-4.3-1.8-4.3-5.1v-8.3h1.5v7.9c0,2.5,0.6,4.1,3.1,4.1c2.1,0,3.8-1.9,3.8-4.7v-7.4h1.5v13.1
		h-1.5v-2.1C1127.3,996.9,1126,998.1,1123.7,998.1z"/>
	<path class="st2" d="M1138.2,984.5c3.7,0,6,3.1,5.8,7.2h-10.4c0,3.2,2,5,4.7,5c2,0,3.5-1,4-2.8h1.6c-0.6,2.7-2.8,4.2-5.7,4.2
		c-3.8,0-6.2-2.7-6.2-6.8C1132,987.1,1134.7,984.5,1138.2,984.5z M1142.3,990.3c0-2.2-1.6-4.5-4.2-4.5c-2.4,0-4.2,1.6-4.5,4.5
		H1142.3z"/>
	<path class="st2" d="M1146.6,997.8v-13.1h1.5v2.2c0.6-1.2,1.8-2.4,4.1-2.4c2.1,0,3.3,0.9,3.8,2.6c1-1.7,2.3-2.6,4.4-2.6
		c3,0,4.2,1.8,4.2,5.1v8.2h-1.5V990c0-2.5-0.5-4.1-3-4.1c-2.1,0-3.7,1.9-3.7,4.7v7.3h-1.5V990c0-2.5-0.5-4.1-3-4.1
		c-2.1,0-3.7,1.9-3.7,4.7v7.3H1146.6z"/>
	<path class="st2" d="M1169.4,982.6h-1.5v-2.4h1.5V982.6z M1169.4,997.8h-1.5v-13.1h1.5V997.8z"/>
	<path class="st2" d="M1173.1,997.8v-17.6h1.5v17.6H1173.1z"/>
	<path class="st2" d="M1181.5,998.1c-2.4,0-4.3-1.4-4.3-3.6c0-3,2.9-4.1,9.2-4.7v-0.5c0-3-1.8-3.6-3.6-3.6c-2.2,0-3.6,1.2-3.7,2.9
		h-1.6c0.3-2.6,2.4-4.3,5.4-4.3c3,0,5.1,1.3,5.1,5.2c0,1.8,0,3,0,4c0,1.5,0.1,2.8,0.1,4.2h-1.5l-0.1-2
		C1185.6,997.2,1184,998.1,1181.5,998.1z M1186.5,991.8v-0.6c-5.3,0.6-7.6,1.3-7.6,3.3c0,1.4,1.3,2.3,3,2.3
		C1184.3,996.8,1186.5,995.5,1186.5,991.8z"/>
</g>
<g>
	<text transform="matrix(1 0 0 1 668.1638 903.9907)" class="st19 st3 st13">55,9%</text>
</g>
<g class="st14">
	<text transform="matrix(1 0 0 1 552.827 552.6907)" class="st3 st13">63,4%</text>
</g>
<g>
	<text transform="matrix(1 0 0 1 924.2974 897.2908)" class="st19 st3 st13">52,4%</text>
</g>
<g>
	<text transform="matrix(1 0 0 1 1171.365 832.5909)" class="st3 st13">50,1%</text>
</g>
<text transform="matrix(6.123234e-17 -1 1 6.123234e-17 709.2837 771.3906)" class="st1 st3 st20">Emilia romagna</text>
<text transform="matrix(6.123234e-17 -1 1 6.123234e-17 955 744.5898)" class="st1 st3 st20">Emilia romagna</text>
<g>
	<text transform="matrix(6.123234e-17 -1 1 6.123234e-17 1202.8 764.5469)" class="st2 st3 st20">Emilia romagna</text>
</g>
<text transform="matrix(6.123234e-17 -1 1 6.123234e-17 583.7327 489.6855)" class="st2 st3 st20">Lazio</text>
<text transform="matrix(6.123234e-17 -1 1 6.123234e-17 839.6503 498.6855)" class="st2 st3 st20">Lazio</text>
<text transform="matrix(6.123234e-17 -1 1 6.123234e-17 1084.8411 404.8906)" class="st3 st20">Lazio</text>
<g>
	
		<image style="overflow:visible;enable-background:new    ;" width="198" height="234" xlink:href="gruppo MSF/grafici/lazio emiliaromagna stp 18-19-20 sesso/FF57D80BE1B6262F.png"  transform="matrix(0.9954 0 0 0.9954 339.439 1933.9939)">
	</image>
</g>
<g>
	
		<image style="overflow:visible;enable-background:new    ;" width="198" height="257" xlink:href="gruppo MSF/grafici/lazio emiliaromagna stp 18-19-20 sesso/FF57D80BE1B6262D.png"  transform="matrix(0.9957 0 0 0.9957 463.4118 1911.0115)">
	</image>
</g>
<g>
	
		<image style="overflow:visible;enable-background:new    ;" width="198" height="282" xlink:href="gruppo MSF/grafici/lazio emiliaromagna stp 18-19-20 sesso/FF57D80BE1B62633.png"  transform="matrix(0.996 0 0 0.996 586.384 1886.0261)">
	</image>
</g>
<g>
	
		<image style="overflow:visible;enable-background:new    ;" width="198" height="352" xlink:href="gruppo MSF/grafici/lazio emiliaromagna stp 18-19-20 sesso/FF57D80BE1B62634.png"  transform="matrix(0.9966 0 0 0.9966 339.3176 1656.0496)">
	</image>
</g>
<g>
	
		<image style="overflow:visible;enable-background:new    ;" width="198" height="315" xlink:href="gruppo MSF/grafici/lazio emiliaromagna stp 18-19-20 sesso/FF57D80BE1B62637.png"  transform="matrix(0.9963 0 0 0.9963 463.3506 1670.0398)">
	</image>
</g>
<g>
	
		<image style="overflow:visible;enable-background:new    ;" width="198" height="394" xlink:href="gruppo MSF/grafici/lazio emiliaromagna stp 18-19-20 sesso/FF57D80BE1B62635.png"  transform="matrix(0.997 0 0 0.997 586.2852 1566.0559)">
	</image>
</g>
<line class="st11" x1="562.1" y1="2137.7" x2="562.1" y2="2143.7"/>
<line class="st11" x1="438.4" y1="2137.7" x2="438.4" y2="2143.7"/>
<line class="st11" x1="685" y1="2137.7" x2="685" y2="2143.7"/>
<g>
	<text transform="matrix(1 0 0 1 545.2971 2212.7556)" class="st3 st12">19</text>
</g>
<g>
	<text transform="matrix(1 0 0 1 422.6089 2212.7559)" class="st3 st12">18</text>
</g>
<g>
	<g>
		<g>
			<text transform="matrix(1 0 0 1 530.1946 1742.6821)" class="st3 st13">56,8%</text>
		</g>
	</g>
</g>
<g>
	<g>
		<g>
			<text transform="matrix(1 0 0 1 653.6478 1638.6064)" class="st3 st13">60,7%</text>
		</g>
	</g>
</g>
<g>
	<text transform="matrix(1 0 0 1 668.056 2212.7559)" class="st3 st12">20</text>
</g>
<line class="st11" x1="367.4" y1="2131.2" x2="361.4" y2="2131.2"/>
<line class="st11" x1="367.4" y1="2080.3" x2="361.4" y2="2080.3"/>
<line class="st11" x1="367.4" y1="2029.4" x2="361.4" y2="2029.4"/>
<line class="st11" x1="367.4" y1="1978.5" x2="361.4" y2="1978.5"/>
<line class="st11" x1="367.4" y1="1927.6" x2="361.4" y2="1927.6"/>
<line class="st11" x1="367.4" y1="1876.7" x2="361.4" y2="1876.7"/>
<line class="st11" x1="367.4" y1="1825.8" x2="361.4" y2="1825.8"/>
<line class="st11" x1="367.4" y1="1774.9" x2="361.4" y2="1774.9"/>
<line class="st11" x1="367.4" y1="1724" x2="361.4" y2="1724"/>
<line class="st11" x1="367.4" y1="1673" x2="361.4" y2="1673"/>
<line class="st11" x1="367.4" y1="1622.1" x2="361.4" y2="1622.1"/>
<line class="st11" x1="369.4" y1="1571.2" x2="363.4" y2="1571.2"/>
<path class="st18" d="M624.4,2131.2v-502.1"/>
<path class="st18" d="M500.4,2131.2v-502.1"/>
<path class="st21" d="M375.9,2131.2h474"/>
<path class="st11" d="M376.4,2131.2v-560"/>
<g class="st14">
	<text transform="matrix(1 0 0 1 408.2008 1728.9561)" class="st3 st13">63,4%</text>
</g>
<line class="st11" x1="1198.4" y1="2137.7" x2="1198.4" y2="2143.7"/>
<line class="st11" x1="1074.7" y1="2137.7" x2="1074.7" y2="2143.7"/>
<line class="st11" x1="1321.4" y1="2137.7" x2="1321.4" y2="2143.7"/>
<g>
	<text transform="matrix(1 0 0 1 1181.6699 2212.7556)" class="st3 st12">19</text>
</g>
<g>
	<text transform="matrix(1 0 0 1 1058.9814 2212.7559)" class="st3 st12">18</text>
</g>
<g>
	<text transform="matrix(1 0 0 1 1304.4287 2212.7559)" class="st3 st12">20</text>
</g>
<line class="st11" x1="1003.7" y1="2131.2" x2="997.7" y2="2131.2"/>
<line class="st11" x1="1003.7" y1="2080.3" x2="997.7" y2="2080.3"/>
<line class="st11" x1="1003.7" y1="2029.4" x2="997.7" y2="2029.4"/>
<line class="st11" x1="1003.7" y1="1978.5" x2="997.7" y2="1978.5"/>
<line class="st11" x1="1003.7" y1="1927.6" x2="997.7" y2="1927.6"/>
<line class="st11" x1="1003.7" y1="1876.7" x2="997.7" y2="1876.7"/>
<line class="st11" x1="1003.7" y1="1825.8" x2="997.7" y2="1825.8"/>
<line class="st11" x1="1003.7" y1="1774.9" x2="997.7" y2="1774.9"/>
<line class="st11" x1="1003.7" y1="1724" x2="997.7" y2="1724"/>
<line class="st11" x1="1003.7" y1="1673" x2="997.7" y2="1673"/>
<line class="st11" x1="1003.7" y1="1622.1" x2="997.7" y2="1622.1"/>
<line class="st11" x1="1005.7" y1="1571.2" x2="999.7" y2="1571.2"/>
<path class="st18" d="M1260.7,2131.2v-502.1"/>
<path class="st18" d="M1136.7,2131.2v-502.1"/>
<path class="st21" d="M1012.2,2131.2h474"/>
<path class="st11" d="M1012.7,2131.2v-560"/>
<g>
	
		<image style="overflow:visible;enable-background:new    ;" width="198" height="158" xlink:href="gruppo MSF/grafici/lazio emiliaromagna stp 18-19-20 sesso/FF57D80BE1B6266C.png"  transform="matrix(0.9945 0 0 0.9945 976.533 2009.8943)">
	</image>
</g>
<g>
	
		<image style="overflow:visible;enable-background:new    ;" width="198" height="147" xlink:href="gruppo MSF/grafici/lazio emiliaromagna stp 18-19-20 sesso/FF57D80BE1B62676.png"  transform="matrix(0.9943 0 0 0.9943 976.5454 1935.873)">
	</image>
</g>
<g>
	
		<image style="overflow:visible;enable-background:new    ;" width="198" height="165" xlink:href="gruppo MSF/grafici/lazio emiliaromagna stp 18-19-20 sesso/FF57D80BE1B6264A.png"  transform="matrix(0.9945 0 0 0.9945 1099.5248 2002.907)">
	</image>
</g>
<g>
	
		<image style="overflow:visible;enable-background:new    ;" width="198" height="156" xlink:href="gruppo MSF/grafici/lazio emiliaromagna stp 18-19-20 sesso/FF57D80BE1B62648.png"  transform="matrix(0.9944 0 0 0.9944 1099.5353 1920.8906)">
	</image>
</g>
<g>
	
		<image style="overflow:visible;enable-background:new    ;" width="198" height="149" xlink:href="gruppo MSF/grafici/lazio emiliaromagna stp 18-19-20 sesso/FF57D80BE1B6264B.png"  transform="matrix(0.9943 0 0 0.9943 1222.5432 2018.877)">
	</image>
</g>
<g>
	
		<image style="overflow:visible;enable-background:new    ;" width="198" height="154" xlink:href="gruppo MSF/grafici/lazio emiliaromagna stp 18-19-20 sesso/FF57D80BE1B62646.png"  transform="matrix(0.9944 0 0 0.9944 1222.5376 1938.8867)">
	</image>
</g>
<path class="st18" d="M1257.7,2131.2v-550"/>
<path class="st18" d="M1136.4,2131.2v-550"/>
<g>
	<text transform="matrix(1 0 0 1 1044.5734 2080.2563)" class="st19 st3 st13">55,9%</text>
</g>
<g>
	<text transform="matrix(1 0 0 1 1165.5669 2073.5562)" class="st19 st3 st13">52,4%</text>
</g>
<g>
	<text transform="matrix(1 0 0 1 1300.4285 2008.8562)" class="st3 st13">50,1%</text>
</g>
<path class="st10" d="M1388.7,795.4c-63.3,296-354.5,484.7-650.5,421.4S253.4,862.3,316.7,566.2c9.5-44.6,24.3-86.9,43.5-126.2"/>
<path class="st9" d="M357.1,448.3C464.2,225,713.4,95.5,966.3,149.6c296.3,63.4,485.2,354.8,421.8,651.1"/>
<text transform="matrix(1 0 0 1 349.01 2134.3555)" class="st3 st22">0</text>
<text transform="matrix(1 0 0 1 330.1599 2083.4465)" class="st3 st22">1,000</text>
<text transform="matrix(1 0 0 1 327.9402 2032.5374)" class="st3 st22">2,000</text>
<text transform="matrix(1 0 0 1 328.1697 1981.6284)" class="st3 st22">3,000</text>
<text transform="matrix(1 0 0 1 327.7 1930.7192)" class="st3 st22">4,000</text>
<text transform="matrix(1 0 0 1 327.97 1879.8101)" class="st3 st22">5,000</text>
<text transform="matrix(1 0 0 1 327.99 1828.9011)" class="st3 st22">6,000</text>
<text transform="matrix(1 0 0 1 330.2102 1777.9922)" class="st3 st22">7,000</text>
<text transform="matrix(1 0 0 1 327.8801 1727.083)" class="st3 st22">8,000</text>
<text transform="matrix(1 0 0 1 328.1902 1676.1738)" class="st3 st22">9,000</text>
<text transform="matrix(1 0 0 1 324.05 1625.2649)" class="st3 st22">10,000</text>
<text transform="matrix(1 0 0 1 327.7 1574.3555)" class="st3 st22">11,000</text>
<text transform="matrix(1 0 0 1 522.5585 2174.0737)" class="st2 st23 st24">duemila</text>
<text transform="matrix(6.123234e-17 -1 1 6.123234e-17 439.1064 1665.9512)" class="st2 st3 st20">Lazio</text>
<text transform="matrix(6.123234e-17 -1 1 6.123234e-17 570.824 1674.9512)" class="st2 st3 st20">Lazio</text>
<text transform="matrix(6.123234e-17 -1 1 6.123234e-17 691.115 1581.1562)" class="st3 st20">Lazio</text>
<text transform="matrix(1 0 0 1 985.3827 2134.3555)" class="st3 st22">0</text>
<text transform="matrix(1 0 0 1 966.5326 2083.4465)" class="st3 st22">1,000</text>
<text transform="matrix(1 0 0 1 964.3129 2032.5374)" class="st3 st22">2,000</text>
<text transform="matrix(1 0 0 1 964.5424 1981.6284)" class="st3 st22">3,000</text>
<text transform="matrix(1 0 0 1 964.0726 1930.7192)" class="st3 st22">4,000</text>
<text transform="matrix(1 0 0 1 964.3427 1879.8101)" class="st3 st22">5,000</text>
<text transform="matrix(1 0 0 1 964.3627 1828.9011)" class="st3 st22">6,000</text>
<text transform="matrix(1 0 0 1 966.5829 1777.9922)" class="st3 st22">7,000</text>
<text transform="matrix(1 0 0 1 964.2528 1727.083)" class="st3 st22">8,000</text>
<text transform="matrix(1 0 0 1 964.5629 1676.1738)" class="st3 st22">9,000</text>
<text transform="matrix(1 0 0 1 960.4227 1625.2649)" class="st3 st22">10,000</text>
<text transform="matrix(1 0 0 1 964.0726 1574.3555)" class="st3 st22">11,000</text>
<text transform="matrix(1 0 0 1 1158.9312 2174.0737)" class="st2 st23 st24">duemila</text>
<text transform="matrix(1 0 0 1 658.2372 137.3755)" class="st25 st3 st26"> </text>
<text transform="matrix(6.123236e-17 -1 1 6.123236e-17 536.6448 499.9082)" class="st2 st23 st17">numero tesserini</text>
<text transform="matrix(6.123236e-17 -1 1 6.123236e-17 392.3762 1677.0898)" class="st2 st23 st17">numero tesserini</text>
<text transform="matrix(6.123236e-17 -1 1 6.123236e-17 1032.1569 1677.0898)" class="st2 st23 st17">numero tesserini</text>
<text transform="matrix(1 0 0 1 1451.7247 2124.6902)" class="st2 st23 st17">anni</text>
<text transform="matrix(1 0 0 1 818.5468 2124.6902)" class="st2 st23 st17">anni</text>
<text transform="matrix(1 0 0 1 1222.5376 972.3907)" class="st2 st23 st17">anni</text>
<text transform="matrix(1 0 0 1 1409.2838 863.2699)" class="st2 st3 st26"> </text>
<text transform="matrix(1 0 0 1 1316.0101 1037.0953)" class="st2 st3 st26"> </text>
<path id="SVGID_x5F_1_x5F_" class="st27" d="M276,744.2c-28.7-276.5,145.2-541.5,422-618.5c308.9-85.9,629,94.8,715,403.7
	c3.5,12.5,6.5,24.9,9.1,37.4"/>
<g>
	<path d="M311.6,456.9l-14.7-6.2l0.9-2.1l14.7,6.2L311.6,456.9z"/>
	<path d="M313.9,451.6l-14.6-6.3l0.8-1.8l14.6,6.4L313.9,451.6z"/>
	<path d="M310.8,432.5c1.3-2.7,4.2-3.7,7.1-2.4c2.7,1.3,4.1,4.3,2.6,7.4c-1.7,3.6-5,4.1-9.4,2c-4.1-1.9-7.3-5.2-5.4-9.4
		c1.3-2.8,3.7-3.3,5.7-2.8l-0.9,2c-1.4-0.4-2.7,0.3-3.4,1.7c-1,2.2,0.6,4.5,3.9,6.1C310.2,436.1,309.9,434.5,310.8,432.5z
		 M317.1,432.1c-2-0.9-4-0.3-4.9,1.6c-0.9,1.9,0,3.8,2,4.8c2,0.9,3.9,0.3,4.8-1.6C319.8,435,319.1,433,317.1,432.1z"/>
	<path d="M316.3,427c-4.5-2.2-6.5-5.4-4.7-9.2c1.9-3.8,5.6-4.1,10.1-1.9c4.5,2.2,6.6,5.4,4.7,9.2C324.6,428.9,320.8,429.2,316.3,427
		z M317.2,425.1c4,2,6.6,1.5,7.7-0.7s-0.1-4.6-4.1-6.6c-4-2-6.6-1.5-7.7,0.7C312,420.8,313.3,423.1,317.2,425.1z"/>
	<path d="M328.5,414.8l2.4,1.2l2,2.5l-0.6,1.1l-2.2-2.4l-0.5,1l-2.3-1.2L328.5,414.8z"/>
	<path d="M327,407l-0.2,0.3l-1.6-0.9l0.1-0.2c1.3-2.4,1.3-4.1-0.3-5c-1.5-0.8-3,0-3.7,1.5c-1,1.9-0.4,3.5,1.1,4.5l-1,1.8
		c-2.4-1.5-3.2-4.2-1.6-7.2c1.3-2.4,3.4-4,6-2.7c1.4,0.8,2.2,2.2,2,4c1.8-1.7,3.5-1.6,5-0.8c2.8,1.5,2.9,4.6,1.5,7.3
		c-1.8,3.3-4.6,3.7-7.1,2.7l1-1.8c1.8,0.7,3.6,0.3,4.6-1.6c1-1.9,0.7-3.7-1-4.6C329.8,403.3,328.2,404.7,327,407z"/>
	<path d="M334.6,390.9c1.7-1.4,3.5-1.1,4.8-0.4c2.6,1.5,2.9,4.5,1.3,7.4c-1.6,2.9-4.4,4.2-7,2.8c-1.3-0.7-2.5-2.1-2.2-4.3
		c-1.5,1-3.1,0.8-4.3,0.1c-2.1-1.2-2.6-3.8-0.9-6.6c1.6-2.8,4.1-3.8,6.2-2.7C333.6,387.8,334.7,389.1,334.6,390.9z M328.5,394.8
		c1.4,0.8,3.1,0.2,4.1-1.5c1-1.7,0.6-3.5-0.8-4.2c-1.4-0.8-2.9-0.1-3.9,1.6C326.8,392.4,327.1,394.1,328.5,394.8z M339.3,397.1
		c1.1-2,0.7-3.8-0.9-4.7c-1.6-0.9-3.5-0.3-4.6,1.7c-1.1,2-0.7,3.9,1,4.8C336.4,399.7,338.2,399.1,339.3,397.1z"/>
	<path d="M335,375.2c1.3-2.1,3.5-2.1,5.9-0.7c2.3,1.4,3.3,3.5,2.1,5.5c-1.2,2-3.5,2.1-5.8,0.6C334.7,379.2,333.7,377.2,335,375.2z
		 M336,375.8c-0.6,1.1,0.1,2.3,1.9,3.4c1.9,1.1,3.3,1.2,3.9,0.2c0.7-1.1,0-2.3-1.9-3.5C338.1,374.8,336.6,374.7,336,375.8z
		 M340.8,365.9l1.2-1.9l7.8,17.7l-1.2,1.9L340.8,365.9z M347.8,367.6c1.3-2.1,3.5-2.1,5.9-0.7s3.3,3.5,2.1,5.5
		c-1.2,2-3.5,2.1-5.8,0.6C347.6,371.6,346.6,369.6,347.8,367.6z M348.8,368.2c-0.6,1.1,0.1,2.3,1.9,3.4c1.9,1.1,3.3,1.2,3.9,0.2
		c0.7-1.1,0-2.3-1.9-3.5C350.9,367.2,349.5,367.1,348.8,368.2z"/>
	<path d="M353.9,345.8l13.3,8.9l-1.1,1.7l-1.5-1c0.6,1.3,0.6,2.8-0.4,4.4c-1.5,2.3-4.7,3-7.9,0.8c-3.2-2.2-3.8-5.4-2.3-7.6
		c1.1-1.6,2.4-2.2,3.9-2.1l-5-3.3L353.9,345.8z M357.4,358.7c2.3,1.6,4.4,1.4,5.6-0.3c1-1.5,0.8-3.6-1.8-5.3
		c-2.6-1.7-4.6-1.1-5.6,0.4C354.5,355.1,355.1,357.1,357.4,358.7z"/>
	<path d="M358.9,342.8l-1.1,1.6l-2-1.4l1.1-1.6L358.9,342.8z M370.1,350.5l-1.1,1.6l-9.7-6.7l1.1-1.6L370.1,350.5z"/>
	<path d="M364.3,332.9l2.4,1.7l1.3-1.8l1.3,0.9l-1.3,1.8l5.7,4.1c1,0.7,1.3,0.8,2-0.1l0.6-0.8l1.4,1l-0.8,1.2c-1.3,1.8-2,2-4,0.5
		l-5.9-4.2l-1.1,1.5l-1.3-0.9l1.1-1.5l-2.4-1.7L364.3,332.9z"/>
	<path d="M380.7,333.1c1.1-1.4,1-2.7,0.4-3.8l1.2-1.7c1.3,1.7,1.5,4.2-0.2,6.5c-2.2,3-5.6,3.1-8.4,1c-3-2.2-3.4-5.7-1.5-8.3
		c2.2-2.9,5.9-2.8,8.7-0.4l-5.4,7.3C377.6,335.3,379.7,334.6,380.7,333.1z M378.3,327.2c-1.4-1-3.5-1-4.7,0.7
		c-1.1,1.4-1.2,3.3,0.6,4.9L378.3,327.2z"/>
	<path d="M380.9,318.3c-0.7,0.9-1.2,2.2-0.3,2.9c0.7,0.6,1.5,0.3,2.4-0.4l1.3-1.1c1.7-1.4,3.5-2.4,5.3-1c1.8,1.4,1.6,3.9-0.1,6.1
		c-1.9,2.4-4.6,2.6-6.4,1.5l1.3-1.7c1.4,0.7,2.7,0.5,3.8-0.9c0.9-1.2,1.2-2.6,0.3-3.3c-0.9-0.7-2-0.2-3,0.7l-1.4,1.2
		c-1.2,1.1-2.9,2-4.7,0.6c-1.6-1.3-1.3-3.7,0.3-5.8c1.6-2,3.8-2.5,5.8-1.4l-1.3,1.6C382.8,316.7,381.7,317.2,380.9,318.3z"/>
	<path d="M388.1,309.2c-0.7,0.9-1.2,2.2-0.4,2.9c0.7,0.6,1.5,0.4,2.4-0.4l1.3-1.1c1.7-1.4,3.5-2.4,5.3-0.9c1.8,1.5,1.5,4-0.2,6.1
		c-2,2.4-4.6,2.5-6.4,1.4l1.3-1.6c1.4,0.7,2.7,0.5,3.8-0.8c1-1.2,1.2-2.6,0.4-3.2c-0.9-0.7-2-0.2-3,0.6l-1.4,1.1
		c-1.3,1-3,1.9-4.7,0.6c-1.6-1.3-1.2-3.7,0.4-5.8c1.6-2,3.8-2.4,5.8-1.3l-1.3,1.6C390.1,307.6,389,308.1,388.1,309.2z"/>
	<path d="M403,305.1c1.1-1.3,1.2-2.6,0.6-3.7l1.3-1.6c1.2,1.7,1.3,4.2-0.6,6.5c-2.4,2.9-5.8,2.7-8.5,0.5c-2.9-2.4-3.1-5.9-1-8.3
		c2.3-2.8,6.1-2.5,8.7,0.2l-5.9,7C399.7,307,401.8,306.5,403,305.1z M400.9,299c-1.3-1-3.4-1.2-4.8,0.4c-1.1,1.4-1.4,3.2,0.3,4.9
		L400.9,299z"/>
	<path d="M404.9,290.1c-1.2,1.4-1,2.8,0.9,4.5l4.7,4.1l-1.3,1.5l-8.9-7.8l1.3-1.5l1.6,1.4c-0.6-1.3-0.4-2.7,0.6-3.9
		c0.1-0.1,0.2-0.3,0.4-0.4l1.6,1.4C405.4,289.6,405.1,289.9,404.9,290.1z"/>
	<path d="M405.5,283.9l-1.3,1.5l-1.8-1.6l1.3-1.5L405.5,283.9z M415.6,292.9l-1.3,1.5l-8.8-7.9l1.3-1.5L415.6,292.9z"/>
	<path d="M412.8,278.1c1.9-2.1,4-1.6,6,0.2l5.5,5.1l-1.4,1.5l-5.1-4.7c-1.3-1.2-2.7-2.1-4.3-0.4c-1.3,1.4-1.1,3.2,0.7,4.9l4.7,4.4
		l-1.4,1.5l-8.7-8l1.4-1.5l1.3,1.2C411.3,281,411.4,279.6,412.8,278.1z"/>
	<path d="M417.9,270.5l-1.4,1.5l-1.8-1.7l1.4-1.5L417.9,270.5z M427.7,279.8l-1.4,1.5l-8.6-8.2l1.4-1.5L427.7,279.8z"/>
	<path d="M428.9,263.8c-0.8,0.8-1.5,2.1-0.7,2.8c0.7,0.7,1.4,0.5,2.4-0.1l1.4-1c1.8-1.2,3.7-2,5.4-0.4c1.7,1.6,1.1,4.1-0.8,6
		c-2.2,2.2-4.9,2-6.5,0.7l1.5-1.5c1.3,0.9,2.6,0.8,3.8-0.4c1.1-1.1,1.5-2.4,0.7-3.2c-0.8-0.8-2-0.4-3.1,0.3l-1.5,1
		c-1.4,0.9-3.1,1.6-4.7,0.1c-1.5-1.5-0.8-3.8,1-5.7c1.8-1.8,4-2,5.9-0.7l-1.5,1.5C431,262.4,429.9,262.8,428.9,263.8z"/>
	<path d="M433.1,253.3l2.1,2.1l1.6-1.6l1.1,1.2l-1.6,1.6l4.9,5c0.9,0.9,1.1,1,2,0.2l0.7-0.7l1.2,1.2l-1,1c-1.6,1.6-2.4,1.6-4.1-0.2
		l-5.1-5.2l-1.3,1.3l-1.1-1.2l1.3-1.3l-2.1-2.1L433.1,253.3z"/>
	<path d="M441.3,252.2c-0.3-1.4,0-2.9,1.4-4.2c2-1.9,5.2-1.8,7.9,1c2.7,2.9,2.5,6.1,0.5,8c-1.4,1.3-2.8,1.6-4.2,1.1l3.9,4.1
		l-1.5,1.4l-10.7-11.4l1.5-1.4L441.3,252.2z M449,250.5c-1.9-2.1-4-2.3-5.5-0.9c-1.3,1.2-1.6,3.3,0.5,5.6c2.1,2.3,4.3,2.1,5.6,0.9
		C451,254.7,450.9,252.6,449,250.5z"/>
	<path d="M457.1,237.8c-1.4,1.2-1.4,2.6,0.3,4.6l4.1,4.6l-1.5,1.3l-7.9-8.8l1.5-1.3l1.4,1.5c-0.5-1.4,0-2.8,1.1-3.8
		c0.1-0.1,0.3-0.2,0.5-0.4l1.4,1.6C457.7,237.4,457.4,237.6,457.1,237.8z"/>
	<path d="M458.6,231.6L457,233l-1.6-1.8l1.5-1.3L458.6,231.6z M467.5,241.8l-1.5,1.3l-7.8-8.9l1.5-1.3L467.5,241.8z"/>
	<path d="M469.8,239.8l-10.4-12.1l1.5-1.3l10.4,12.1L469.8,239.8z"/>
	<path d="M474.7,226.2l-0.2-0.2c-1.4-1.7-2.8-1.4-3.9-0.5c-1.3,1.1-1.4,2.4-0.6,3.5l-1.6,1.3c-1.5-2.1-0.7-4.6,1.1-6.1
		c2.5-2.1,4.6-1.8,6.7,0.7l1.7,2.1c1.2,1.5,2.2,2.5,3.1,3.2l-1.6,1.3c-0.3-0.3-0.7-0.6-1.2-1.2c0.2,1.4-0.3,2.7-1.9,4.1
		c-1.7,1.4-3.9,1.7-5.3,0C469.4,232.4,471.3,229.7,474.7,226.2z M472.8,233.1c0.7,0.9,1.9,0.9,3,0c1.4-1.2,2.3-3,0.5-5.1l-0.5-0.6
		C473.2,229.9,471.8,231.8,472.8,233.1z"/>
	<path d="M479.8,218.1c-0.9,0.7-1.7,1.9-1,2.7c0.6,0.7,1.4,0.7,2.4,0.1l1.5-0.8c1.9-1,3.9-1.6,5.4,0.2c1.5,1.8,0.6,4.2-1.5,5.9
		c-2.4,1.9-5.1,1.4-6.5,0l1.7-1.3c1.2,1,2.5,1.1,3.9,0c1.2-0.9,1.7-2.2,1.1-3.1c-0.7-0.9-1.9-0.6-3.1,0l-1.6,0.8
		c-1.5,0.7-3.3,1.3-4.7-0.5c-1.3-1.6-0.4-3.9,1.6-5.5c2-1.6,4.2-1.6,5.9,0l-1.6,1.3C482.1,217,480.9,217.2,479.8,218.1z"/>
	<path d="M493.5,210.5c-1.1-0.9-2.7-1-3.9,0c-1.4,1.1-1.9,3.2-0.1,5.5c1.8,2.4,4,2.5,5.4,1.5c1.3-1,1.6-2.6,1.1-3.8l1.6-1.3
		c1,2,0.5,4.8-1.7,6.5c-2.7,2.1-6,1.3-8.1-1.6c-2.1-2.8-2-6.2,0.8-8.4c2.3-1.7,5-1.1,6.5,0.3L493.5,210.5z"/>
	<path d="M495.4,202.1l-1.6,1.2l-1.4-1.9l1.6-1.2L495.4,202.1z M503.4,213l-1.6,1.2l-7.1-9.5l1.6-1.2L503.4,213z"/>
	<path d="M507.6,200.9l-0.2-0.2c-1.3-1.7-2.7-1.6-3.9-0.8c-1.3,1-1.6,2.3-0.8,3.5l-1.7,1.2c-1.3-2.2-0.3-4.7,1.5-6
		c2.6-1.9,4.8-1.5,6.7,1.2l1.6,2.2c1.1,1.6,2,2.7,2.9,3.4l-1.6,1.2c-0.3-0.3-0.6-0.7-1.1-1.2c0.1,1.4-0.5,2.7-2.2,3.9
		c-1.8,1.3-4,1.4-5.3-0.4C501.9,206.7,504,204.2,507.6,200.9z M505.3,207.6c0.7,0.9,1.8,1,2.9,0.2c1.5-1.1,2.5-2.8,0.8-5.1l-0.4-0.6
		C505.9,204.5,504.4,206.3,505.3,207.6z"/>
	<path d="M509.6,190.4l1.7,2.4l1.8-1.3l0.9,1.3l-1.8,1.3l4,5.8c0.7,1,1,1.2,1.9,0.6l0.8-0.6l1,1.4l-1.2,0.8c-1.9,1.3-2.6,1.2-4-0.8
		l-4.1-6l-1.5,1.1l-0.9-1.3l1.5-1.1l-1.7-2.4L509.6,190.4z"/>
	<path d="M516,187.5l-1.7,1.1l-1.4-2l1.7-1.1L516,187.5z M523.6,198.7l-1.7,1.1l-6.6-9.8l1.7-1.1L523.6,198.7z"/>
	<path d="M530.3,175.2l8.6,13.4l-1.7,1.1l-1-1.5c0.1,1.4-0.5,2.8-2.1,3.8c-2.3,1.5-5.5,0.9-7.6-2.4c-2.1-3.3-1.4-6.5,0.9-7.9
		c1.6-1,3.1-1,4.4-0.4l-3.2-5L530.3,175.2z M528.4,188.4c1.5,2.4,3.5,3,5.3,1.9c1.5-1,2.2-3,0.5-5.6c-1.7-2.6-3.8-2.8-5.3-1.9
		C527.2,183.9,526.9,186,528.4,188.4z"/>
	<path d="M544,177l-0.1-0.2c-1.1-1.8-2.5-1.8-3.8-1.1c-1.4,0.9-1.8,2.1-1.1,3.4l-1.8,1.1c-1.2-2.3,0-4.7,2-5.9
		c2.8-1.7,4.8-1.1,6.6,1.7l1.4,2.3c1,1.7,1.8,2.8,2.6,3.6L548,183c-0.3-0.3-0.6-0.7-1-1.3c0,1.4-0.7,2.7-2.4,3.7
		c-1.9,1.2-4.1,1.1-5.3-0.8C537.9,182.3,540.1,180,544,177z M541.2,183.5c0.6,1,1.7,1.1,2.9,0.4c1.6-1,2.7-2.6,1.2-5l-0.4-0.6
		C542.1,180.4,540.4,182.1,541.2,183.5z"/>
	<path d="M552,180.6l-8.1-13.7l1.7-1l8.1,13.7L552,180.6z"/>
	<path d="M556.5,178l-8-13.8l1.7-1l8,13.8L556.5,178z"/>
	<path d="M563.7,165.5l-0.1-0.2c-1.1-1.9-2.5-1.9-3.8-1.2c-1.4,0.8-1.8,2.1-1.2,3.4l-1.8,1c-1.1-2.3,0.2-4.7,2.2-5.8
		c2.8-1.6,4.9-1,6.5,2l1.3,2.4c1,1.7,1.7,2.9,2.5,3.7l-1.8,1c-0.3-0.4-0.6-0.7-0.9-1.3c0,1.4-0.8,2.6-2.6,3.7
		c-1.9,1.1-4.2,0.9-5.2-1C557.4,170.6,559.7,168.4,563.7,165.5z M560.6,171.9c0.5,1,1.7,1.2,2.9,0.5c1.6-0.9,2.8-2.5,1.4-5l-0.4-0.7
		C561.6,168.9,559.8,170.5,560.6,171.9z"/>
	<path d="M575.8,156.1c-1.6,0.9-2,2.2-0.8,4.5l2.9,5.5l-1.8,0.9l-5.5-10.5l1.7-0.9l1,1.8c-0.1-1.5,0.6-2.7,2-3.4
		c0.2-0.1,0.3-0.2,0.5-0.3l1,1.9C576.4,155.8,576,156,575.8,156.1z"/>
	<path d="M586.6,159.9c1.6-0.8,2.1-1.9,2-3.2l1.8-0.9c0.4,2.1-0.5,4.4-3.1,5.7c-3.3,1.7-6.4,0.2-8-2.9c-1.7-3.3-0.5-6.6,2.4-8.1
		c3.2-1.6,6.5,0.1,8,3.6l-8.1,4.1C582.8,160.5,585,160.7,586.6,159.9z M587.1,153.5c-0.8-1.5-2.7-2.4-4.6-1.4
		c-1.6,0.8-2.6,2.4-1.7,4.6L587.1,153.5z"/>
	<path d="M598.1,142.8l4.4,9.3c1,2.2,1.1,3.3,0.8,4.2c-0.3,1.3-1.4,2.4-3,3.2c-2.4,1.2-4.6,0.8-6-1.2l1.9-0.9
		c0.7,0.8,1.6,1.3,3.3,0.5c1-0.5,1.6-1.1,1.8-1.8c0.2-0.6,0.3-1.2-0.4-2.7l-0.5-1c-0.1,1.4-0.8,2.7-2.5,3.5
		c-2.4,1.1-5.4,0.3-7.1-3.2c-1.6-3.4-0.4-6.4,2-7.5c1.7-0.8,3.1-0.6,4.3,0.2l-0.8-1.7L598.1,142.8z M592.8,151.7
		c1.2,2.4,3.1,3.2,4.8,2.4c1.6-0.8,2.5-2.5,1.2-5.3c-1.3-2.7-3.2-3.1-4.8-2.3C592.3,147.3,591.7,149.2,592.8,151.7z"/>
	<path d="M602.2,139l-1.8,0.8l-1-2.2l1.8-0.8L602.2,139z M607.9,151.3l-1.8,0.8l-4.9-10.8l1.8-0.8L607.9,151.3z"/>
	<path d="M615.3,148.3c-2.5,1.1-5.9,0.6-7.7-3.3c-1.7-3.9,0.2-6.8,2.7-7.9s5.9-0.6,7.7,3.3C619.7,144.3,617.8,147.2,615.3,148.3z
		 M616.1,141.2c-1.3-2.9-3.4-3.3-5-2.6c-1.7,0.7-2.8,2.5-1.5,5.5c1.3,2.9,3.4,3.3,5,2.6S617.3,144,616.1,141.2z"/>
	<path d="M623.3,131.5c2.6-1.1,4.3,0.2,5.3,2.7l2.9,6.9l-1.8,0.8l-2.6-6.4c-0.7-1.7-1.6-3-3.7-2.2c-1.8,0.7-2.4,2.4-1.4,4.8l2.5,5.9
		l-1.8,0.8l-4.5-10.9l1.8-0.8l0.7,1.6C620.7,133.5,621.4,132.3,623.3,131.5z"/>
	<path d="M638.3,136.9c1.6-0.6,2.3-1.7,2.3-3l1.9-0.8c0.2,2.1-0.9,4.3-3.6,5.4c-3.5,1.4-6.4-0.4-7.7-3.7c-1.4-3.5,0.1-6.6,3.1-7.8
		c3.4-1.3,6.5,0.7,7.6,4.3l-8.5,3.3C634.5,137,636.7,137.5,638.3,136.9z M639.4,130.5c-0.6-1.5-2.4-2.6-4.4-1.9
		c-1.7,0.6-2.8,2.1-2.1,4.4L639.4,130.5z"/>
	<path d="M660.6,128.2l0.6,1.8l-10.1,3.6l-5.3-15l2.1-0.8l4.7,13.2L660.6,128.2z"/>
	<path d="M667.3,120.3l-0.1-0.3c-0.7-2-2.1-2.4-3.5-1.9c-1.6,0.5-2.2,1.7-1.8,3.1l-2,0.6c-0.6-2.5,1.1-4.5,3.3-5.3c3.1-1,5,0,6,3.2
		l0.8,2.6c0.6,1.9,1.1,3.1,1.7,4.1l-1.9,0.6c-0.2-0.4-0.4-0.8-0.7-1.5c-0.3,1.4-1.3,2.4-3.2,3.1c-2.1,0.7-4.3,0.1-4.9-2
		C660.1,124.1,662.9,122.4,667.3,120.3z M663.1,126.1c0.4,1.1,1.4,1.5,2.8,1.1c1.8-0.6,3.2-2,2.3-4.6l-0.2-0.7
		C664.6,123.3,662.6,124.5,663.1,126.1z"/>
	<path d="M677,114.3l-6.1,1.9l-0.5-1.7l8.3-2.6l0.5,1.7l-4,10l6.6-2.1l0.5,1.7l-8.9,2.7l-0.5-1.7L677,114.3z"/>
	<path d="M682.6,109.1l-1.9,0.6l-0.7-2.3l1.9-0.6L682.6,109.1z M686.4,122l-1.9,0.6l-3.3-11.4l1.9-0.6L686.4,122z"/>
	<path d="M694.2,120.1c-2.6,0.7-6-0.3-7.1-4.4c-1.1-4.1,1.2-6.7,3.8-7.4c2.6-0.7,6,0.3,7.1,4.4S696.8,119.4,694.2,120.1z M696,113.3
		c-0.8-3-2.8-3.8-4.6-3.3c-1.7,0.5-3.1,2.1-2.2,5.2c0.8,3,2.8,3.8,4.6,3.3C695.5,118,696.8,116.2,696,113.3z"/>
	<path d="M705.8,101.5l0.7,2.9l2.2-0.5l0.4,1.6l-2.2,0.5l1.7,6.8c0.3,1.2,0.5,1.5,1.6,1.2l1-0.2l0.4,1.6l-1.4,0.4
		c-2.2,0.5-2.8,0.2-3.4-2.2l-1.8-7l-1.8,0.5l-0.4-1.6l1.8-0.5l-0.7-2.9L705.8,101.5z"/>
	<path d="M716.1,104.1c-1.8,0.4-2.5,1.6-1.9,4.2l1.4,6l-1.9,0.5l-2.7-11.5l1.9-0.4l0.5,2c0.3-1.4,1.3-2.4,2.8-2.8
		c0.2,0,0.4-0.1,0.6-0.1l0.5,2.1C716.8,104,716.5,104,716.1,104.1z"/>
	<path d="M726.5,104.4l-0.1-0.3c-0.5-2.1-1.8-2.6-3.2-2.2c-1.6,0.4-2.4,1.4-2.1,2.9l-2,0.4c-0.4-2.5,1.5-4.4,3.8-4.9
		c3.2-0.7,5,0.5,5.6,3.8l0.6,2.7c0.4,1.9,0.8,3.2,1.3,4.3l-2,0.4c-0.2-0.4-0.3-0.9-0.5-1.6c-0.5,1.3-1.5,2.3-3.5,2.7
		c-2.2,0.5-4.2-0.3-4.7-2.5C718.9,107.5,721.8,106,726.5,104.4z M721.7,109.7c0.2,1.1,1.2,1.6,2.6,1.3c1.8-0.4,3.4-1.6,2.8-4.3
		l-0.2-0.7C723.5,107.1,721.4,108.1,721.7,109.7z"/>
	<path d="M737.3,95.9l-2,0.4l-0.5-2.4l2-0.4L737.3,95.9z M739.9,109.1l-2,0.4l-2.2-11.6l2-0.4L739.9,109.1z"/>
	<path d="M743,108.5l-2.9-15.7l2-0.4l2.9,15.7L743,108.5z"/>
	<path d="M754.6,104.6l8.6-1.4l0.3,1.8l-11.3,1.8l-0.3-1.8c4.9-5,7.7-8.5,7.2-11.3c-0.3-1.6-1.5-2.6-3.4-2.3
		c-1.7,0.3-3.2,1.5-2.8,4.1l-2,0.3c-0.5-3.1,1.3-5.5,4.6-6.1c2.9-0.5,5.2,0.7,5.7,3.3C761.8,96.9,758.5,100.7,754.6,104.6z"/>
	<path d="M764.2,96.9c-0.7-5,0.8-8.4,5-9c4.2-0.6,6.6,2.3,7.3,7.3c0.7,5-0.8,8.5-5,9C767.3,104.8,764.9,101.9,764.2,96.9z
		 M766.3,96.6c0.6,4.4,2.4,6.3,4.9,6c2.5-0.3,3.7-2.7,3.1-7.1c-0.6-4.4-2.4-6.3-4.9-6S765.8,92.2,766.3,96.6z"/>
	<path d="M781.1,90.2l-3.7,0.4l-0.2-1.4c2.3-0.4,3.4-0.8,4.1-2.6l1.4-0.2l1.8,15.8l-2,0.2L781.1,90.2z"/>
	<path d="M795.7,92.7c2.1,0.6,2.9,2.3,3.1,3.7c0.3,3-2.1,5-5.3,5.3c-3.3,0.3-6-1.2-6.3-4.2c-0.1-1.4,0.3-3.2,2.3-4.2
		c-1.7-0.7-2.4-2.2-2.5-3.4c-0.2-2.3,1.6-4.2,4.9-4.6c3.2-0.3,5.5,1.2,5.7,3.5C797.7,90.1,797.2,91.6,795.7,92.7z M789,89.9
		c0.2,1.6,1.6,2.7,3.6,2.5c2-0.2,3.2-1.5,3-3.1c-0.2-1.6-1.6-2.5-3.5-2.3C790,87.1,788.8,88.3,789,89.9z M793.3,100
		c2.2-0.2,3.6-1.6,3.4-3.4c-0.2-1.9-1.8-3-4-2.8c-2.3,0.2-3.6,1.7-3.4,3.5C789.5,99.2,791.1,100.2,793.3,100z"/>
	<path d="M811.8,98.4c1.8-0.1,2.7-1,3.1-2.2l2.1-0.1c-0.4,2.1-2.2,3.9-5,4.1c-3.7,0.2-6-2.3-6.2-5.8c-0.2-3.7,2.1-6.3,5.3-6.5
		c3.6-0.2,6,2.6,6,6.4l-9.1,0.6C808.2,97.4,810.1,98.5,811.8,98.4z M814.8,92.7c-0.2-1.7-1.5-3.3-3.6-3.1c-1.8,0.1-3.3,1.2-3.3,3.6
		L814.8,92.7z"/>
	<path d="M826.2,85.6l-2,0.1l-0.1-2.4l2-0.1L826.2,85.6z M826.8,99.1l-2,0.1l-0.5-11.8l2-0.1L826.8,99.1z"/>
	<path d="M830,99l-0.5-15.9l2-0.1l0.5,15.9L830,99z"/>
	<path d="M842,96.8l8.8-0.1l0,1.9l-11.5,0.2l0-1.8c5.6-4.2,8.8-7.3,8.8-10.1c0-1.7-1.1-2.8-3-2.7c-1.7,0-3.4,1-3.4,3.6l-2.1,0
		c-0.1-3.2,2.1-5.3,5.5-5.3c2.9,0,5.1,1.4,5.1,4.1C850.3,90.2,846.5,93.6,842,96.8z"/>
	<path d="M852.7,90.6c0.1-5,2.1-8.2,6.3-8.2c4.2,0.1,6.2,3.3,6.1,8.4c-0.1,5.1-2.1,8.2-6.3,8.2C854.6,98.9,852.6,95.7,852.7,90.6z
		 M854.9,90.6c-0.1,4.4,1.5,6.6,4,6.7s4.1-2.1,4.2-6.5c0.1-4.4-1.5-6.6-4-6.6C856.5,84.1,854.9,86.2,854.9,90.6z"/>
	<path d="M869.5,97.1l8.8,0.3l-0.1,1.9l-11.5-0.4l0.1-1.8c5.8-3.9,9.2-6.8,9.3-9.7c0.1-1.6-1-2.8-2.9-2.9c-1.7-0.1-3.4,0.8-3.6,3.5
		l-2.1-0.1c0.1-3.2,2.3-5.2,5.7-5.1c2.9,0.1,5,1.7,4.9,4.4C878,90.9,874.1,94,869.5,97.1z"/>
	<path d="M880.4,91.4c0.3-5,2.4-8.1,6.7-7.9c4.2,0.3,6,3.6,5.7,8.6c-0.3,5.1-2.4,8.1-6.7,7.9C881.9,99.7,880.1,96.4,880.4,91.4z
		 M882.5,91.5c-0.3,4.4,1.2,6.7,3.7,6.8c2.5,0.1,4.2-1.9,4.5-6.3c0.3-4.4-1.2-6.7-3.7-6.8C884.5,85,882.8,87.1,882.5,91.5z"/>
	<path d="M905.2,99.7c1.8,0.2,2.8-0.5,3.4-1.7l2.1,0.2c-0.7,2-2.8,3.5-5.6,3.2c-3.7-0.3-5.5-3.2-5.2-6.7c0.3-3.7,3.1-5.9,6.3-5.6
		c3.6,0.3,5.5,3.6,4.9,7.3l-9.1-0.8C901.7,98.1,903.4,99.5,905.2,99.7z M909,94.5c0.1-1.7-1-3.4-3.1-3.6c-1.8-0.2-3.5,0.7-3.9,3
		L909,94.5z M905.1,85.1l1.8,2.7l-1.7-0.2l-2.6-2.8L905.1,85.1z"/>
	<path d="M923.1,92.7c-1.2-0.1-2.5,0.1-2.6,1.2c-0.1,0.9,0.5,1.5,1.6,1.8l1.6,0.5c2.1,0.7,3.9,1.7,3.6,4c-0.3,2.3-2.5,3.4-5.2,3.1
		c-3.1-0.4-4.6-2.6-4.5-4.7l2.1,0.3c0.1,1.5,1,2.6,2.7,2.8c1.5,0.2,2.8-0.3,2.9-1.4c0.1-1.2-0.9-1.8-2.1-2.2l-1.7-0.6
		c-1.6-0.5-3.2-1.5-2.9-3.7c0.3-2.1,2.5-3,5.1-2.7c2.5,0.3,4.1,1.9,4.2,4.2l-2.1-0.3C925.5,93.5,924.4,92.8,923.1,92.7z"/>
	<path d="M933.8,89.6l-0.4,2.9l2.2,0.3l-0.2,1.6l-2.2-0.3l-1,7c-0.2,1.2-0.1,1.5,1,1.7l1,0.1l-0.2,1.7l-1.4-0.2
		c-2.2-0.3-2.7-0.9-2.4-3.3l1-7.2l-1.9-0.3l0.2-1.6l1.9,0.3l0.4-2.9L933.8,89.6z"/>
	<path d="M944.6,98.8l0-0.3c0.3-2.1-0.8-3-2.2-3.3c-1.6-0.3-2.7,0.5-3,1.9l-2-0.3c0.6-2.5,3-3.6,5.3-3.2c3.2,0.5,4.4,2.3,3.9,5.5
		l-0.4,2.7c-0.3,2-0.4,3.3-0.4,4.5l-2-0.3c0-0.4,0-0.9,0.1-1.6c-0.9,1.1-2.2,1.6-4.3,1.3c-2.2-0.3-3.8-1.8-3.5-4
		C936.5,98.9,939.7,98.6,944.6,98.8z M938.3,101.9c-0.2,1.1,0.6,2,2,2.2c1.8,0.3,3.7-0.3,4.2-3.1l0.1-0.7
		C940.9,100.2,938.5,100.3,938.3,101.9z"/>
	<path d="M953.4,92.6l-0.5,2.9l2.2,0.4l-0.3,1.6l-2.2-0.4l-1.2,6.9c-0.2,1.2-0.2,1.5,1,1.7l1,0.2l-0.3,1.6l-1.4-0.2
		c-2.2-0.4-2.7-1-2.3-3.4l1.2-7.2l-1.8-0.3l0.3-1.6l1.8,0.3l0.5-2.9L953.4,92.6z"/>
	<path d="M960,109.1c-2.7-0.5-5.2-2.9-4.4-7.1c0.8-4.2,4-5.5,6.7-5s5.2,2.9,4.4,7.1C965.9,108.3,962.7,109.6,960,109.1z
		 M964.6,103.7c0.6-3.1-0.9-4.6-2.7-5c-1.8-0.3-3.7,0.5-4.3,3.7c-0.6,3.1,0.9,4.6,2.7,5C962.1,107.7,964.1,106.7,964.6,103.7z"/>
	<path d="M981.7,105.9l0.1-0.3c0.5-2.1-0.6-3.1-2-3.4c-1.6-0.4-2.8,0.3-3.2,1.7l-2-0.4c0.7-2.4,3.2-3.4,5.5-2.9
		c3.2,0.7,4.3,2.5,3.5,5.8l-0.6,2.7c-0.4,1.9-0.6,3.3-0.7,4.4l-2-0.4c0-0.4,0.1-0.9,0.2-1.6c-1,1-2.3,1.4-4.4,1
		c-2.2-0.5-3.7-2.1-3.2-4.2C973.6,105.5,976.8,105.4,981.7,105.9z M975.2,108.7c-0.2,1.1,0.4,2,1.8,2.3c1.8,0.4,3.8-0.1,4.4-2.8
		l0.2-0.7C977.9,107.1,975.5,107.1,975.2,108.7z"/>
	<path d="M991.2,105c-1.1-0.3-2.5-0.2-2.8,0.9c-0.2,0.9,0.3,1.5,1.4,2l1.5,0.7c2,0.9,3.6,2.2,3.1,4.4c-0.5,2.3-2.9,3.1-5.5,2.4
		c-3-0.7-4.2-3.1-4-5.2l2.1,0.5c-0.1,1.5,0.6,2.6,2.4,3.1c1.5,0.4,2.8,0,3.1-1.1c0.3-1.2-0.7-1.9-1.9-2.5l-1.6-0.8
		c-1.5-0.7-3-1.8-2.5-4c0.5-2,2.8-2.7,5.4-2.1c2.5,0.6,3.8,2.4,3.7,4.7l-2-0.5C993.5,106.1,992.6,105.3,991.2,105z"/>
	<path d="M1002.5,107.8c-1.1-0.3-2.5-0.2-2.8,0.8c-0.2,0.9,0.3,1.5,1.3,2l1.5,0.7c2,1,3.6,2.2,3,4.4c-0.6,2.3-3,3-5.6,2.3
		c-3-0.8-4.2-3.2-3.9-5.3l2,0.5c-0.1,1.5,0.6,2.7,2.3,3.1c1.5,0.4,2.8,0.1,3.1-1c0.3-1.1-0.7-1.9-1.8-2.5l-1.6-0.8
		c-1.5-0.7-3-1.9-2.4-4c0.5-2,2.9-2.7,5.4-2c2.5,0.6,3.8,2.5,3.6,4.7l-2-0.5C1004.8,109,1003.9,108.2,1002.5,107.8z"/>
	<path d="M1012.4,119.7c1.7,0.5,2.8,0,3.6-1l2,0.6c-1.1,1.8-3.3,2.9-6.1,2.1c-3.6-1-4.8-4.2-3.9-7.5c1-3.6,4.1-5.2,7.2-4.3
		c3.5,1,4.7,4.5,3.4,8l-8.8-2.5C1009.3,117.6,1010.7,119.3,1012.4,119.7z M1017.1,115.4c0.4-1.6-0.3-3.6-2.4-4.2
		c-1.7-0.5-3.5,0-4.3,2.2L1017.1,115.4z"/>
	<path d="M1032.5,115l-3,9.8c-0.7,2.3-1.4,3.1-2.3,3.6c-1.1,0.7-2.7,0.8-4.4,0.3c-2.6-0.8-3.9-2.5-3.6-4.9l2,0.6
		c-0.1,1.1,0.3,2.1,2.1,2.6c1,0.3,1.9,0.3,2.6-0.1c0.6-0.3,1-0.7,1.5-2.3l0.3-1.1c-1.1,1-2.4,1.4-4.2,0.8c-2.5-0.8-4.2-3.5-3-7.1
		c1.1-3.6,4-4.9,6.5-4.2c1.8,0.6,2.7,1.7,3,3.1l0.6-1.8L1032.5,115z M1022.5,117.9c-0.8,2.6,0.1,4.4,1.9,5c1.7,0.5,3.6-0.2,4.4-3
		c0.9-2.9-0.2-4.5-1.9-5C1025.1,114.3,1023.3,115.3,1022.5,117.9z"/>
	<path d="M1041.2,117.7c2.7,0.9,3.1,3,2.2,5.6l-2.4,7.1l-1.9-0.6l2.2-6.5c0.6-1.7,0.8-3.3-1.4-4.1c-1.8-0.6-3.4,0.3-4.2,2.7l-2,6.1
		l-1.9-0.6l3.8-11.2l1.9,0.6l-0.6,1.7C1038,117.5,1039.3,117,1041.2,117.7z"/>
	<path d="M1053.2,126.9l0.1-0.3c0.7-2-0.2-3.1-1.6-3.6c-1.6-0.6-2.8,0-3.3,1.3l-1.9-0.7c1-2.3,3.6-2.9,5.8-2.1
		c3.1,1.1,3.9,3.1,2.8,6.2l-0.9,2.6c-0.7,1.9-1,3.2-1.2,4.3l-1.9-0.7c0.1-0.4,0.2-0.9,0.4-1.6c-1.1,0.9-2.5,1.1-4.5,0.4
		c-2.1-0.8-3.4-2.5-2.7-4.6C1045.2,125.5,1048.4,125.8,1053.2,126.9z M1046.4,128.8c-0.4,1.1,0.2,2,1.5,2.5c1.8,0.6,3.7,0.4,4.7-2.2
		l0.3-0.7C1049.3,127.6,1046.9,127.3,1046.4,128.8z"/>
	<path d="M1063,122.5l-1,2.8l2.1,0.8l-0.6,1.5l-2.1-0.8l-2.5,6.6c-0.4,1.2-0.5,1.5,0.6,1.9l0.9,0.4l-0.6,1.6l-1.4-0.5
		c-2.1-0.8-2.4-1.5-1.6-3.8l2.6-6.8l-1.8-0.7l0.6-1.5l1.7,0.7l1-2.8L1063,122.5z"/>
	<path d="M1066.3,140c-2.6-1-4.6-3.8-3-7.8c1.6-4,5-4.6,7.5-3.6c2.6,1,4.6,3.8,3,7.8S1068.9,141,1066.3,140z M1071.9,135.6
		c1.2-2.9,0-4.7-1.7-5.4c-1.7-0.7-3.7-0.2-4.9,2.8c-1.2,2.9,0,4.7,1.7,5.4C1068.7,139,1070.8,138.4,1071.9,135.6z"/>
	<path d="M1088.2,140.9l0.1-0.3c0.9-2,0-3.1-1.3-3.7c-1.5-0.7-2.8-0.2-3.4,1.1l-1.9-0.8c1.2-2.3,3.8-2.7,5.9-1.8
		c3,1.3,3.7,3.3,2.4,6.4l-1.1,2.5c-0.8,1.8-1.2,3.1-1.5,4.2l-1.9-0.8c0.1-0.4,0.2-0.9,0.5-1.6c-1.1,0.8-2.6,1-4.5,0.1
		c-2-0.9-3.2-2.7-2.4-4.7C1080.4,139,1083.6,139.5,1088.2,140.9z M1081.3,142.4c-0.4,1,0,2.1,1.4,2.6c1.7,0.7,3.7,0.7,4.8-1.9
		l0.3-0.7C1084.3,141.4,1081.9,140.9,1081.3,142.4z"/>
	<path d="M1103,144.9c-1.7-0.8-3-0.2-4,2.1l-2.6,5.6l-1.8-0.8l5-10.7l1.8,0.8l-0.9,1.9c1.1-1,2.5-1.1,3.9-0.5
		c0.2,0.1,0.3,0.2,0.5,0.3l-0.9,1.9C1103.6,145.2,1103.3,145,1103,144.9z"/>
	<path d="M1103.4,155.9l-1.8-0.9l5.1-10.7l1.8,0.9L1103.4,155.9z M1109.2,143.7l-1.8-0.9l1-2.2l1.8,0.9L1109.2,143.7z"/>
	<path d="M1116.7,153.7c0.4-1.4-0.3-2.8-1.7-3.5c-1.6-0.8-3.7-0.3-5,2.4c-1.3,2.7-0.5,4.7,1.1,5.5c1.5,0.7,3.1,0.3,3.9-0.7l1.9,0.9
		c-1.3,1.8-4.1,2.6-6.6,1.4c-3-1.5-3.8-4.8-2.2-8c1.6-3.2,4.7-4.5,7.9-3c2.6,1.3,3.2,4,2.6,5.9L1116.7,153.7z"/>
	<path d="M1127.8,154.7c2.5,1.3,2.6,3.4,1.3,5.8l-3.5,6.6l-1.8-0.9l3.2-6.1c0.8-1.6,1.3-3.2-0.7-4.2c-1.7-0.9-3.4-0.3-4.6,2l-3,5.7
		l-1.8-0.9l7.4-14.1l1.8,0.9l-2.7,5.2C1124.7,154.1,1126.1,153.8,1127.8,154.7z"/>
	<path d="M1130,169.6l-1.8-1l5.6-10.4l1.8,1L1130,169.6z M1136.5,157.7l-1.8-1l1.2-2.1l1.8,1L1136.5,157.7z"/>
	<path d="M1137.8,172.2c1.5,0.9,2.8,0.6,3.8-0.1l1.8,1c-1.5,1.5-3.9,2.1-6.4,0.6c-3.3-1.8-3.7-5.2-2-8.2c1.8-3.3,5.2-4.1,8-2.5
		c3.1,1.8,3.6,5.5,1.5,8.6l-7.9-4.5C1135.3,169.4,1136.3,171.3,1137.8,172.2z M1143.5,169.1c0.8-1.5,0.5-3.5-1.3-4.6
		c-1.6-0.9-3.4-0.8-4.7,1.2L1143.5,169.1z"/>
	<path d="M1160.8,168.8l-8.1,13.7l-1.7-1l0.9-1.5c-1.3,0.7-2.8,0.8-4.4-0.2c-2.3-1.4-3.2-4.5-1.2-7.9c2-3.3,5.2-4.1,7.5-2.7
		c1.6,1,2.3,2.3,2.3,3.8l3.1-5.1L1160.8,168.8z M1148.1,173c-1.4,2.4-1.1,4.5,0.6,5.5c1.5,0.9,3.6,0.6,5.2-2.1
		c1.6-2.7,0.8-4.7-0.7-5.6C1151.5,169.9,1149.5,170.6,1148.1,173z"/>
	<path d="M1160.3,185.5c1.5,0.9,2.7,0.8,3.8,0l1.8,1.1c-1.5,1.4-4,1.9-6.5,0.4c-3.2-2-3.5-5.3-1.7-8.3c2-3.2,5.4-3.9,8.1-2.2
		c3.1,1.9,3.3,5.6,1.1,8.7l-7.7-4.8C1157.9,182.6,1158.8,184.6,1160.3,185.5z M1166,182.6c0.8-1.4,0.7-3.5-1.1-4.6
		c-1.5-0.9-3.4-1-4.8,1L1166,182.6z"/>
	<path d="M1177.5,184c2.4,1.6,2.2,3.7,0.8,5.9l-4.1,6.3l-1.7-1.1l3.8-5.8c1-1.5,1.6-3-0.3-4.3c-1.6-1.1-3.3-0.6-4.7,1.5l-3.5,5.4
		l-1.7-1.1l6.5-9.9l1.7,1.1l-1,1.5C1174.4,183,1175.8,182.9,1177.5,184z"/>
	<path d="M1187,187l-1.7,2.5l1.9,1.3l-0.9,1.3l-1.9-1.3l-3.9,5.8c-0.7,1-0.8,1.3,0.2,2l0.8,0.6l-0.9,1.4l-1.2-0.8
		c-1.9-1.3-2-2-0.6-4l4.1-6l-1.5-1l0.9-1.3l1.5,1l1.7-2.5L1187,187z"/>
	<path d="M1184.3,203.1l-1.6-1.1l6.7-9.7l1.6,1.1L1184.3,203.1z M1192,192l-1.6-1.1l1.4-2l1.6,1.1L1192,192z"/>
	<path d="M1208.7,201l-9.4,12.9l-1.6-1.2l1.1-1.4c-1.3,0.6-2.8,0.5-4.3-0.6c-2.2-1.6-2.8-4.8-0.4-8c2.3-3.1,5.5-3.6,7.7-2
		c1.5,1.1,2.1,2.5,1.9,4l3.5-4.8L1208.7,201z M1195.6,203.9c-1.7,2.3-1.5,4.4,0.1,5.6c1.4,1.1,3.6,1,5.4-1.5s1.3-4.6-0.2-5.6
		C1199.4,201.1,1197.3,201.7,1195.6,203.9z"/>
	<path d="M1221,215.6l-6.3,8.1c-1.5,1.9-2.4,2.4-3.4,2.6c-1.3,0.3-2.8-0.2-4.2-1.3c-2.1-1.6-2.8-3.7-1.6-5.9l1.7,1.3
		c-0.4,1-0.4,2,1,3.2c0.9,0.7,1.7,0.9,2.4,0.8c0.6-0.1,1.2-0.3,2.2-1.6l0.7-0.9c-1.3,0.5-2.7,0.5-4.2-0.7c-2.1-1.6-2.7-4.7-0.3-7.7
		c2.3-3,5.5-3.2,7.6-1.6c1.5,1.2,1.9,2.5,1.7,3.9l1.1-1.5L1221,215.6z M1210.7,214.8c-1.7,2.1-1.5,4.2,0,5.4
		c1.4,1.1,3.4,1.1,5.2-1.3c1.8-2.4,1.4-4.3-0.1-5.4C1214.3,212.4,1212.3,212.7,1210.7,214.8z"/>
	<path d="M1220.9,228.9c1.4,1.1,2.6,1.1,3.7,0.5l1.6,1.3c-1.7,1.2-4.2,1.4-6.5-0.5c-2.9-2.4-2.8-5.7-0.6-8.5
		c2.4-2.9,5.8-3.2,8.3-1.1c2.8,2.3,2.6,6,0,8.7l-7.1-5.8C1218.9,225.7,1219.6,227.8,1220.9,228.9z M1227,226.7
		c1-1.3,1.1-3.4-0.5-4.7c-1.4-1.1-3.2-1.4-4.9,0.3L1227,226.7z"/>
	<path d="M1238.2,229.6c2.2,1.9,1.8,3.9,0,6l-4.9,5.7l-1.5-1.3l4.5-5.2c1.2-1.4,2-2.8,0.2-4.3c-1.5-1.3-3.2-1-4.9,0.9l-4.2,4.9
		l-1.5-1.3l7.7-9l1.5,1.3l-1.2,1.4C1235.2,228.2,1236.7,228.3,1238.2,229.6z"/>
	<path d="M1240.2,245.4c1.3,1.2,2.6,1.2,3.7,0.7l1.5,1.4c-1.8,1.2-4.3,1.2-6.4-0.7c-2.8-2.5-2.6-5.9-0.2-8.5c2.5-2.8,6-2.9,8.4-0.8
		c2.7,2.4,2.3,6.1-0.4,8.7l-6.8-6.1C1238.4,242.1,1238.9,244.2,1240.2,245.4z M1246.4,243.5c1.1-1.3,1.3-3.4-0.3-4.8
		c-1.3-1.2-3.2-1.5-4.9,0.1L1246.4,243.5z"/>
	<path d="M1255.2,247.6c-1.4-1.3-2.7-1.1-4.5,0.8l-4.2,4.6l-1.5-1.4l8-8.7l1.4,1.3l-1.4,1.5c1.3-0.6,2.7-0.3,3.9,0.7
		c0.1,0.1,0.3,0.3,0.4,0.4l-1.4,1.6C1255.6,248.1,1255.4,247.9,1255.2,247.6z"/>
	<path d="M1255.2,259.1c1.3,1.2,2.5,1.3,3.7,0.8l1.5,1.4c-1.8,1.1-4.3,1-6.4-1c-2.7-2.6-2.3-5.9,0.1-8.5c2.6-2.7,6-2.7,8.4-0.5
		c2.6,2.5,2.1,6.2-0.7,8.7l-6.6-6.3C1253.4,255.8,1253.9,257.9,1255.2,259.1z M1261.4,257.4c1.1-1.2,1.4-3.3-0.2-4.8
		c-1.3-1.2-3.1-1.6-4.9,0L1261.4,257.4z"/>
	<path class="st2" d="M1274.8,272l-4.4,4.3l-2.1-2.2l4.9-4.8c0.9-0.9,1.9-2,0.7-3.3c-1.4-1.4-2.9-0.5-4.1,0.8l-4.4,4.3l-2.1-2.2
		l8.5-8.3l2.1,2.2l-1.1,1.1c1.3-0.3,2.6,0.1,3.6,1.1c1.4,1.4,1.3,2.8,1,3.8c1.6-0.3,2.9,0.2,4.1,1.4c2.1,2.1,1.5,4.2-0.5,6.1
		l-5.3,5.2l-2.1-2.2l4.9-4.8c0.9-0.9,1.9-2,0.7-3.3C1277.6,269.8,1276.1,270.8,1274.8,272z"/>
	<path class="st2" d="M1279.2,280.9c2.1-1.9,4.8-0.1,8.3,2.9l0.1-0.1c1.3-1.2,1.1-2.4,0.3-3.3c-0.8-0.9-1.9-1.2-2.9-0.3l-1.9-2.1
		c1.9-1.4,4.4-1.2,6.5,1.1c1.9,2.1,2.6,4.6-0.4,7.3c-0.3,0.3-1.5,1.3-2.2,2c-1.4,1.3-2.1,2.1-2.6,2.9l-1.9-2.1
		c0.2-0.3,0.6-0.7,1-1.1c-1.5,0.2-2.7-0.3-3.9-1.7C1278,284.7,1277.6,282.3,1279.2,280.9z M1281.4,283c-0.6,0.6-0.7,1.6,0.2,2.6
		c1.3,1.4,2.6,1.3,3.9,0.1l0.6-0.6C1283.6,282.9,1282.4,282.1,1281.4,283z"/>
	<path class="st2" d="M1296,289.3c-0.7-0.8-1.6-1.2-2.1-0.7c-0.5,0.4-0.5,1.1,0,2.1l0.8,1.4c1.2,2.1,2,4,0.2,5.6
		c-1.8,1.6-4.5,0.7-6.3-1.3c-1.9-2.2-2.3-4.8-0.4-6.8l1.9,2.2c-0.7,0.9-0.8,2.1,0.2,3.2c0.9,1,1.8,1.3,2.4,0.7
		c0.7-0.6,0.3-1.5-0.2-2.4l-0.9-1.6c-1.1-2-1.4-3.7,0.2-5.1c1.6-1.4,4.2-0.6,5.8,1.3c1.6,1.8,2.3,4.4,0.6,6.5l-1.9-2.1
		C1297,291.5,1296.9,290.3,1296,289.3z"/>
	<path class="st2" d="M1304.4,302.3c0.7-0.9,0.6-2.3-0.1-3.1c-1-1.2-2.9-1.3-4.7,0.3c-1.9,1.6-2.2,3.4-1.1,4.7
		c0.7,0.8,1.8,1.3,3.1,0.7l1.9,2.2c-2.9,1.6-5.3,0.4-6.9-1.5c-2.3-2.7-1.8-6.1,1-8.4c2.8-2.3,6.3-2.2,8.6,0.5
		c1.6,1.9,2.2,4.7,0.2,6.9L1304.4,302.3z"/>
	<path class="st2" d="M1315,308.4c1.8,2.2,1.2,4.3-1,6.1l-5.8,4.7l-1.9-2.4l5.3-4.3c1.2-1,2-2.1,0.9-3.4c-1.3-1.6-2.8-0.9-4.3,0.3
		l-4.8,3.9l-1.9-2.4l12.4-10.1l1.9,2.4l-4.4,3.6C1312.8,306.7,1314.1,307.3,1315,308.4z"/>
	<path class="st2" d="M1311.6,323.6l-1.9-2.4l9.3-7.3l1.9,2.4L1311.6,323.6z M1321.9,315.5l-1.9-2.4l2.2-1.7l1.9,2.4L1321.9,315.5z"
		/>
	<path class="st2" d="M1313.2,325.7l12.6-9.7l1.9,2.4l-12.6,9.7L1313.2,325.7z"/>
	<path class="st2" d="M1321.5,333.2c0.6,0.7,1.4,1.3,2.6,1.2l1.9,2.5c-1.8,0.5-4.4,0.3-6.3-2.3c-2.3-3.1-1.3-6.5,1.4-8.6
		c2.8-2.1,6.4-1.7,8.5,1.1c2.2,2.9,1.3,6.5-2.2,8.8l-5.2-7C1320.6,330.3,1320.6,332,1321.5,333.2z M1327.2,332.3
		c1.6-1.2,1.3-2.8,0.5-3.8c-0.7-0.9-2.1-1.7-3.9-0.7L1327.2,332.3z"/>
</g>
<g>
	<path d="M1417.5,831.4l15.4,4.1l-0.6,2.2l-15.4-4.1L1417.5,831.4z"/>
	<path d="M1416,836.9l15.4,4.2l-0.5,1.9l-15.4-4.2L1416,836.9z"/>
	<path d="M1420.4,854.2c0.5-1.6-0.1-2.9-0.8-3.5l0.7-1.9l7.9,3.5l-2.6,8.8l-1.8-0.5l2.2-7.2l-4.2-1.8c0.5,1,0.5,2.4,0.2,3.6
		c-0.8,2.7-3.4,4.4-6.8,3.4c-3.5-1.1-4.5-4.2-3.7-7c1.1-3.5,3.8-4.5,6.3-4l-0.6,2c-2-0.3-3.5,0.4-4.1,2.5c-0.6,1.8,0.3,3.8,2.7,4.5
		C1418.3,857.3,1419.9,855.9,1420.4,854.2z"/>
	<path d="M1410.6,861.8l-2.7,8.3l-1.8-0.6l3.6-10.9l1.7,0.6c2.2,6.6,4,10.7,6.7,11.6c1.6,0.5,3-0.2,3.6-2c0.5-1.6,0.2-3.5-2.3-4.4
		l0.6-2c3,0.9,4.3,3.7,3.3,6.9c-0.9,2.8-3,4.3-5.5,3.5C1414.2,871.7,1412.3,867,1410.6,861.8z"/>
	<path d="M1406.9,874.8l-2.6-0.9l-2.3-2.2l0.4-1.2l2.5,2.1l0.4-1l2.4,0.8L1406.9,874.8z"/>
	<path d="M1415.3,891.3l-1.8-0.6c-1.7-4.8-5.5-8.8-11-11.1l0.8-2.3c5.3,2.3,9,6.3,10.9,11.2l3-8.2l1.8,0.6L1415.3,891.3z"/>
	<path d="M1401.1,894.9l-3.7-1.4l0.7-1.9l3.7,1.4l2.8-7.4l1.8,0.7l6.7,11l-0.7,1.9l-9.5-3.6l-1,2.7l-1.8-0.7L1401.1,894.9z
		 M1403.6,893.7l6.9,2.6l-4.9-7.9L1403.6,893.7z"/>
	<path d="M1395.9,921.1c-0.9,2.2-3.2,2.6-5.7,1.5c-2.5-1.1-3.8-2.9-2.8-5.2c0.9-2.2,3.2-2.5,5.7-1.5
		C1395.6,917.1,1396.8,919,1395.9,921.1z M1394.8,920.7c0.5-1.1-0.4-2.3-2.4-3.1c-2-0.9-3.4-0.7-3.9,0.4c-0.5,1.2,0.4,2.3,2.4,3.1
		C1392.9,922,1394.3,921.9,1394.8,920.7z M1403.1,921.8l-0.9,2l-10.4-16.4l0.9-2L1403.1,921.8z M1407.5,911.7
		c-0.9,2.2-3.2,2.6-5.7,1.5s-3.8-2.9-2.8-5.2c0.9-2.2,3.2-2.6,5.7-1.5C1407.1,907.7,1408.4,909.6,1407.5,911.7z M1406.4,911.3
		c0.5-1.1-0.4-2.3-2.4-3.1c-2-0.9-3.4-0.7-3.9,0.4c-0.5,1.2,0.4,2.3,2.4,3.1C1404.5,912.6,1405.9,912.4,1406.4,911.3z"/>
	<path d="M1393.1,943.6l-14.4-6.8l0.9-1.8l1.6,0.8c-0.8-1.2-1-2.7-0.2-4.4c1.2-2.4,4.2-3.6,7.7-1.9c3.5,1.7,4.6,4.8,3.4,7.2
		c-0.8,1.7-2.1,2.5-3.5,2.6l5.4,2.6L1393.1,943.6z M1387.7,931.3c-2.5-1.2-4.6-0.7-5.5,1.2c-0.8,1.6-0.3,3.7,2.5,5s4.7,0.4,5.5-1.2
		C1391.2,934.5,1390.3,932.5,1387.7,931.3z"/>
	<path d="M1376.4,941.3l0.9-1.8l10.6,5.2l-0.9,1.8L1376.4,941.3z M1388.5,947.3l0.9-1.8l2.2,1.1l-0.9,1.8L1388.5,947.3z"/>
	<path d="M1384.7,957.8l-2.6-1.4l-1,2l-1.4-0.7l1-2l-6.2-3.2c-1.1-0.6-1.4-0.6-1.9,0.4l-0.5,0.9l-1.5-0.8l0.7-1.3
		c1-2,1.7-2.3,3.9-1.1l6.5,3.3l0.9-1.7l1.4,0.7l-0.9,1.7l2.6,1.4L1384.7,957.8z"/>
	<path d="M1368.4,960.1c-0.8,1.6-0.6,2.8,0.2,3.8l-1,1.8c-1.5-1.5-2.1-3.9-0.8-6.4c1.8-3.3,5.1-3.8,8.2-2.2c3.3,1.8,4.2,5.1,2.7,8
		c-1.7,3.2-5.4,3.7-8.6,1.7l4.3-8C1371.2,957.5,1369.2,958.5,1368.4,960.1z M1371.7,965.6c1.5,0.8,3.6,0.4,4.6-1.4
		c0.8-1.6,0.8-3.4-1.3-4.7L1371.7,965.6z"/>
	<path d="M1370.5,974.7c0.6-1,0.9-2.4-0.1-2.9c-0.8-0.5-1.5-0.1-2.3,0.8l-1.1,1.3c-1.4,1.7-3.1,2.9-5.1,1.8c-2-1.1-2.2-3.6-0.8-6
		c1.5-2.7,4.2-3.2,6.1-2.4l-1,1.8c-1.5-0.5-2.7-0.1-3.6,1.4c-0.7,1.3-0.8,2.7,0.2,3.3c1,0.6,2-0.1,2.9-1.1l1.2-1.4
		c1.1-1.2,2.6-2.4,4.5-1.3c1.8,1,1.8,3.5,0.6,5.7c-1.3,2.2-3.4,3-5.5,2.3l1-1.8C1368.8,976.6,1369.8,975.9,1370.5,974.7z"/>
	<path d="M1364.6,984.8c0.6-1,0.9-2.4,0-2.9c-0.8-0.5-1.5-0.1-2.3,0.7l-1.1,1.3c-1.5,1.6-3.1,2.9-5.1,1.7c-2-1.2-2.1-3.7-0.7-6
		c1.6-2.7,4.2-3.1,6.1-2.3l-1.1,1.8c-1.5-0.5-2.7-0.1-3.6,1.4c-0.8,1.3-0.8,2.7,0.1,3.3c1,0.6,2-0.1,2.9-1.1l1.2-1.3
		c1.1-1.2,2.6-2.4,4.5-1.2c1.8,1.1,1.8,3.5,0.4,5.8c-1.3,2.2-3.4,3-5.5,2.2l1.1-1.8C1362.9,986.7,1363.9,986,1364.6,984.8z"/>
	<path d="M1350.5,991.1c-0.9,1.5-0.8,2.7,0,3.8l-1.1,1.8c-1.5-1.5-1.9-4-0.4-6.5c2-3.2,5.3-3.5,8.3-1.7c3.2,2,3.9,5.4,2.2,8.1
		c-1.9,3.1-5.6,3.3-8.7,1.1l4.8-7.7C1353.4,988.7,1351.4,989.6,1350.5,991.1z M1353.4,996.8c1.4,0.8,3.5,0.7,4.6-1.1
		c0.9-1.5,1-3.4-1-4.8L1353.4,996.8z"/>
	<path d="M1350.9,1006.2c1-1.6,0.6-2.9-1.6-4.3l-5.2-3.4l1.1-1.7l10,6.4l-1.1,1.6l-1.7-1.1c0.8,1.2,0.8,2.6,0,4
		c-0.1,0.2-0.2,0.3-0.3,0.5l-1.8-1.2C1350.4,1006.7,1350.7,1006.4,1350.9,1006.2z"/>
	<path d="M1339.8,1005l1.1-1.7l9.9,6.5l-1.1,1.7L1339.8,1005z M1351.1,1012.5l1.1-1.7l2,1.3l-1.1,1.7L1351.1,1012.5z"/>
	<path d="M1344.8,1019.2c-1.6,2.4-3.7,2.2-6,0.7l-6.2-4.2l1.1-1.7l5.7,3.9c1.5,1,3,1.7,4.3-0.2c1.1-1.6,0.6-3.3-1.4-4.8l-5.3-3.6
		l1.1-1.7l9.8,6.7l-1.1,1.7l-1.5-1C1345.9,1016.1,1346,1017.5,1344.8,1019.2z"/>
	<path d="M1329.8,1019.7l1.2-1.6l9.7,6.8l-1.2,1.6L1329.8,1019.7z M1340.9,1027.5l1.2-1.6l2,1.4l-1.2,1.6L1340.9,1027.5z"/>
	<path d="M1331,1035.8c0.7-0.9,1.1-2.2,0.3-2.9c-0.8-0.6-1.5-0.3-2.4,0.5l-1.3,1.1c-1.6,1.5-3.4,2.5-5.2,1.2
		c-1.9-1.4-1.7-3.9-0.1-6.1c1.8-2.5,4.5-2.7,6.3-1.6l-1.3,1.7c-1.4-0.7-2.7-0.4-3.7,1c-0.9,1.2-1.1,2.6-0.2,3.3c1,0.7,2,0.1,3-0.8
		l1.3-1.2c1.2-1.1,2.9-2.1,4.6-0.8c1.7,1.2,1.4,3.7-0.1,5.8c-1.5,2.1-3.7,2.6-5.7,1.6l1.2-1.7
		C1329.1,1037.5,1330.2,1036.9,1331,1035.8z"/>
	<path d="M1328.4,1046.7l-2.4-1.8l-1.4,1.8l-1.3-1l1.4-1.8l-5.6-4.3c-1-0.7-1.3-0.9-2,0l-0.6,0.8l-1.3-1l0.9-1.2
		c1.4-1.8,2.1-1.9,4.1-0.4l5.8,4.4l1.1-1.5l1.3,1l-1.1,1.5l2.4,1.8L1328.4,1046.7z"/>
	<path d="M1320.5,1049.1c0.5,1.3,0.4,2.8-0.8,4.3c-1.7,2.1-4.9,2.6-8,0.2c-3.1-2.4-3.4-5.7-1.7-7.8c1.2-1.5,2.6-2,4-1.8l-4.4-3.5
		l1.2-1.6l12.3,9.7l-1.2,1.6L1320.5,1049.1z M1313.1,1051.8c2.2,1.7,4.3,1.7,5.6,0.1c1.1-1.4,1.1-3.5-1.3-5.5
		c-2.5-1.9-4.5-1.4-5.6,0C1310.4,1048,1310.9,1050.1,1313.1,1051.8z"/>
	<path d="M1306.9,1065.6c1.2-1.4,1-2.8-1-4.5l-4.8-4l1.3-1.5l9.1,7.6l-1.3,1.5l-1.6-1.3c0.7,1.3,0.5,2.7-0.5,3.9
		c-0.1,0.2-0.2,0.3-0.4,0.4l-1.6-1.4C1306.4,1066.1,1306.6,1065.9,1306.9,1065.6z"/>
	<path d="M1296.1,1063.1l1.3-1.5l9,7.7l-1.3,1.5L1296.1,1063.1z M1306.4,1071.9l1.3-1.5l1.8,1.6l-1.3,1.5L1306.4,1071.9z"/>
	<path d="M1294,1065.5l12.1,10.4l-1.3,1.5l-12.1-10.4L1294,1065.5z"/>
	<path d="M1291.2,1079.7l0.2,0.2c1.6,1.4,3,1,3.9-0.1c1.1-1.2,1.1-2.6,0-3.6l1.4-1.5c1.8,1.8,1.3,4.5-0.2,6.2
		c-2.2,2.4-4.3,2.5-6.8,0.3l-2-1.8c-1.5-1.3-2.6-2.2-3.5-2.7l1.3-1.5c0.4,0.2,0.8,0.5,1.3,1c-0.4-1.3-0.1-2.7,1.3-4.3
		c1.5-1.7,3.6-2.2,5.3-0.8C1295.6,1072.8,1294.1,1075.7,1291.2,1079.7z M1292,1072.6c-0.8-0.7-2-0.6-2.9,0.5
		c-1.2,1.4-1.8,3.3,0.3,5.2l0.6,0.5C1292.1,1075.8,1293.2,1073.7,1292,1072.6z"/>
	<path d="M1287.4,1088.4c0.8-0.9,1.4-2.1,0.6-2.8c-0.7-0.6-1.5-0.5-2.4,0.2l-1.4,1c-1.8,1.3-3.7,2.1-5.3,0.6c-1.7-1.6-1.2-4,0.6-6
		c2.1-2.3,4.8-2.2,6.5-0.9l-1.4,1.5c-1.3-0.8-2.6-0.7-3.8,0.6c-1,1.1-1.4,2.5-0.6,3.2c0.9,0.8,2,0.3,3.1-0.4l1.5-1
		c1.3-1,3.1-1.7,4.7-0.2c1.5,1.4,1,3.8-0.8,5.7c-1.7,1.9-4,2.2-5.9,0.9l1.4-1.5C1285.3,1089.9,1286.4,1089.4,1287.4,1088.4z"/>
	<path d="M1274.9,1097.9c1.2,0.8,2.8,0.6,3.9-0.5c1.2-1.3,1.4-3.4-0.8-5.5c-2.2-2.1-4.3-1.9-5.6-0.6c-1.2,1.2-1.2,2.8-0.5,3.9
		l-1.4,1.5c-1.3-1.8-1.2-4.7,0.7-6.7c2.4-2.4,5.7-2.2,8.3,0.3c2.5,2.4,2.9,5.9,0.4,8.4c-2,2.1-4.8,1.9-6.4,0.7L1274.9,1097.9z"/>
	<path d="M1264.7,1097l1.4-1.4l8.4,8.4l-1.4,1.4L1264.7,1097z M1274.3,1106.6l1.4-1.4l1.7,1.7l-1.4,1.4L1274.3,1106.6z"/>
	<path d="M1262.4,1109.5l0.2,0.2c1.5,1.5,2.9,1.2,3.9,0.2c1.2-1.1,1.2-2.5,0.3-3.6l1.5-1.4c1.6,2,1,4.6-0.6,6.2
		c-2.3,2.3-4.5,2.2-6.8-0.2l-1.9-2c-1.4-1.4-2.4-2.3-3.3-3l1.5-1.4c0.4,0.3,0.7,0.6,1.2,1.1c-0.3-1.4,0.1-2.7,1.6-4.2
		c1.6-1.5,3.8-2,5.3-0.4C1267.2,1102.9,1265.5,1105.7,1262.4,1109.5z M1263.7,1102.5c-0.8-0.8-1.9-0.7-2.9,0.3
		c-1.3,1.3-2,3.2-0.1,5.2l0.5,0.5C1263.5,1105.7,1264.8,1103.7,1263.7,1102.5z"/>
	<path d="M1262,1120.2l-2-2.2l-1.6,1.5l-1.1-1.2l1.6-1.5l-4.8-5.1c-0.8-0.9-1.1-1.1-2-0.3l-0.7,0.7l-1.1-1.2l1.1-1
		c1.7-1.6,2.4-1.5,4.1,0.2l5,5.3l1.4-1.3l1.1,1.2l-1.4,1.3l2,2.2L1262,1120.2z"/>
	<path d="M1246.9,1114.1l1.5-1.4l8,8.7l-1.5,1.4L1246.9,1114.1z M1256.1,1124l1.5-1.4l1.6,1.8l-1.5,1.4L1256.1,1124z"/>
	<path d="M1243.7,1138.3l-10.5-12l1.5-1.3l1.2,1.3c-0.3-1.4,0.1-2.9,1.5-4.1c2-1.8,5.3-1.6,7.9,1.3c2.6,2.9,2.3,6.2,0.3,8
		c-1.4,1.2-2.9,1.5-4.3,1l3.9,4.5L1243.7,1138.3z M1243.6,1124.9c-1.9-2.1-3.9-2.5-5.5-1.1c-1.3,1.2-1.7,3.3,0.3,5.6
		c2.1,2.3,4.2,2.2,5.5,1.1C1245.6,1129.2,1245.5,1127.1,1243.6,1124.9z"/>
	<path d="M1229.9,1138.6l0.2,0.2c1.4,1.7,2.8,1.4,3.9,0.5c1.3-1.1,1.4-2.4,0.6-3.5l1.6-1.3c1.5,2.1,0.7,4.6-1.1,6.1
		c-2.5,2.1-4.6,1.8-6.7-0.7l-1.7-2.1c-1.3-1.5-2.2-2.5-3.1-3.2l1.6-1.3c0.3,0.3,0.7,0.6,1.2,1.1c-0.2-1.4,0.3-2.7,1.9-4.1
		c1.7-1.4,3.9-1.7,5.3,0C1235.2,1132.4,1233.3,1135,1229.9,1138.6z M1231.7,1131.7c-0.7-0.9-1.9-0.9-3,0c-1.4,1.2-2.2,3-0.5,5.1
		l0.5,0.6C1231.3,1134.8,1232.8,1133,1231.7,1131.7z"/>
	<path d="M1221.4,1136.2l10.1,12.4l-1.6,1.3l-10.1-12.4L1221.4,1136.2z"/>
	<path d="M1217.4,1139.4l10,12.5l-1.6,1.2l-10-12.5L1217.4,1139.4z"/>
	<path d="M1212.1,1152.8l0.2,0.2c1.3,1.7,2.7,1.5,3.9,0.6c1.3-1,1.5-2.3,0.7-3.5l1.6-1.3c1.4,2.1,0.5,4.6-1.3,6.1
		c-2.6,2-4.7,1.7-6.7-1l-1.7-2.2c-1.2-1.6-2.1-2.6-3-3.3l1.6-1.2c0.3,0.3,0.7,0.6,1.1,1.2c-0.2-1.4,0.4-2.7,2-4
		c1.8-1.4,4-1.5,5.3,0.2C1217.6,1146.8,1215.6,1149.4,1212.1,1152.8z M1214.2,1146c-0.7-0.9-1.8-1-3-0.1c-1.5,1.1-2.4,2.9-0.6,5.1
		l0.5,0.6C1213.7,1149.1,1215.2,1147.3,1214.2,1146z"/>
	<path d="M1201.6,1163.9c1.5-1.1,1.6-2.5,0.1-4.6l-3.7-5l1.6-1.2l7,9.5l-1.6,1.2l-1.2-1.7c0.3,1.4-0.2,2.8-1.4,3.7
		c-0.2,0.1-0.3,0.2-0.5,0.3l-1.3-1.7C1201,1164.3,1201.3,1164.1,1201.6,1163.9z"/>
	<path d="M1190.3,1161.7c-1.4,1-1.8,2.2-1.5,3.5l-1.7,1.2c-0.7-2-0.2-4.4,2.2-6.1c3.1-2.2,6.3-1.2,8.3,1.7c2.2,3.1,1.5,6.5-1.1,8.3
		c-2.9,2.1-6.5,0.9-8.4-2.3l7.4-5.3C1193.9,1160.6,1191.7,1160.7,1190.3,1161.7z M1190.7,1168.1c1,1.3,3,2,4.7,0.8
		c1.5-1,2.2-2.7,1-4.8L1190.7,1168.1z"/>
	<path d="M1181.4,1180.3l-5.7-8.5c-1.4-2-1.5-3.1-1.4-4.1c0.2-1.3,1.1-2.6,2.5-3.6c2.2-1.5,4.4-1.5,6.1,0.3l-1.8,1.2
		c-0.8-0.7-1.8-1-3.3,0c-0.9,0.6-1.4,1.3-1.5,2.1c-0.1,0.6-0.1,1.3,0.8,2.6l0.6,0.9c-0.1-1.4,0.4-2.7,2-3.8c2.2-1.5,5.3-1.1,7.5,2.1
		c2.1,3.1,1.3,6.2-0.8,7.7c-1.6,1.1-3,1-4.3,0.4l1,1.6L1181.4,1180.3z M1185.4,1170.8c-1.5-2.2-3.5-2.7-5.1-1.6
		c-1.5,1-2.1,2.9-0.4,5.4c1.7,2.5,3.6,2.6,5.1,1.6C1186.6,1175,1186.9,1173,1185.4,1170.8z"/>
	<path d="M1170.5,1173.3l1.7-1.1l6.5,9.9l-1.7,1.1L1170.5,1173.3z M1177.9,1184.7l1.7-1.1l1.3,2l-1.7,1.1L1177.9,1184.7z"/>
	<path d="M1163.6,1177.4c2.3-1.5,5.8-1.4,8.1,2.2c2.3,3.6,0.8,6.8-1.5,8.2c-2.3,1.5-5.8,1.4-8.1-2.2
		C1159.8,1182,1161.3,1178.9,1163.6,1177.4z M1163.9,1184.5c1.7,2.7,3.8,2.8,5.3,1.8s2.4-2.9,0.6-5.6c-1.7-2.7-3.8-2.8-5.3-1.8
		C1163,1179.9,1162.3,1181.9,1163.9,1184.5z"/>
	<path d="M1158.2,1195.2c-2.5,1.5-4.3,0.4-5.7-1.9l-3.9-6.4l1.7-1l3.5,5.9c0.9,1.6,2,2.8,4,1.6c1.7-1,2-2.8,0.7-4.9l-3.3-5.5l1.7-1
		l6.1,10.1l-1.7,1l-0.9-1.5C1160.5,1192.9,1159.9,1194.2,1158.2,1195.2z"/>
	<path d="M1142.5,1192.1c-1.5,0.9-2,2-1.8,3.3l-1.8,1c-0.5-2,0.3-4.4,2.8-5.9c3.2-1.9,6.4-0.6,8.1,2.5c1.9,3.2,0.9,6.6-1.9,8.2
		c-3.1,1.8-6.5,0.2-8.2-3.1l7.9-4.5C1146.2,1191.4,1144.1,1191.3,1142.5,1192.1z M1142.4,1198.6c0.9,1.4,2.8,2.3,4.6,1.2
		c1.5-0.9,2.5-2.5,1.4-4.7L1142.4,1198.6z"/>
	<path d="M1128.2,1216.4l-0.9-1.7l7.6-4l-2.3-4.3l-7.1,3.8l-0.9-1.7l7.1-3.8l-2.5-4.7l-7.6,4l-0.9-1.7l9.6-5.1l7.5,14.1
		L1128.2,1216.4z"/>
	<path d="M1118.8,1203.4l5.3,10.6l-1.8,0.9l-0.8-1.6c-0.1,1.3-0.7,2.6-2.3,3.4c-1.6,0.8-2.9,0.6-4-0.4c-0.2,1.7-1.2,2.9-2.6,3.6
		c-2.5,1.2-4.2,0-5.5-2.4l-3.3-6.7l1.8-0.9l3.1,6.2c0.8,1.6,1.8,2.9,3.8,1.9c1.5-0.8,2-2.5,0.8-4.7l-2.9-5.8l1.8-0.9l3.1,6.2
		c0.8,1.6,1.8,2.9,3.8,1.9c1.5-0.8,2-2.5,0.8-4.7l-2.9-5.8L1118.8,1203.4z"/>
	<path d="M1099.2,1212.9l1.8-0.8l5,10.7l-1.8,0.8L1099.2,1212.9z M1105,1225.1l1.8-0.8l1,2.2l-1.8,0.8L1105,1225.1z"/>
	<path d="M1096.4,1214.2l6.6,14.5l-1.8,0.8l-6.6-14.5L1096.4,1214.2z"/>
	<path d="M1089.9,1217.1l1.8-0.8l4.8,10.8l-1.8,0.8L1089.9,1217.1z M1095.4,1229.5l1.8-0.8l1,2.2l-1.8,0.8L1095.4,1229.5z"/>
	<path d="M1083.2,1228l0.1,0.3c0.9,2,2.2,2.2,3.6,1.6c1.5-0.7,2.1-1.9,1.6-3.2l1.9-0.8c0.8,2.4-0.7,4.6-2.8,5.5
		c-3,1.3-5,0.4-6.3-2.6l-1.1-2.5c-0.8-1.8-1.4-3-2-4l1.9-0.8c0.2,0.4,0.5,0.8,0.8,1.4c0.2-1.4,1-2.5,3-3.4c2-0.9,4.2-0.5,5.1,1.5
		C1090,1223.6,1087.5,1225.6,1083.2,1228z M1086.9,1221.9c-0.4-1-1.5-1.4-2.8-0.8c-1.7,0.7-3,2.2-1.9,4.8l0.3,0.7
		C1085.6,1224.8,1087.5,1223.4,1086.9,1221.9z"/>
	<path d="M1068.5,1233.4l2.6-1l-2.4-6.2l2.1-0.8l5.8,14.9l-4.7,1.8c-3.6,1.4-6.5,1.7-7.9-1.9c-0.9-2.4-0.2-3.9,1.4-5.1l-6-5.2
		l2.3-0.9l5.7,5C1067.7,1233.7,1068.1,1233.5,1068.5,1233.4z M1071.8,1234.1l-2.8,1.1c-2.2,0.8-3.8,1.7-2.9,4c0.9,2.3,2.7,1.9,4.9,1
		l2.8-1.1L1071.8,1234.1z"/>
	<path d="M1052.6,1231.9c2.6-0.9,6-0.2,7.4,3.8c1.5,4-0.6,6.8-3.2,7.7c-2.6,0.9-6,0.2-7.4-3.8
		C1047.9,1235.6,1050,1232.8,1052.6,1231.9z M1051.4,1238.9c1.1,3,3.1,3.5,4.8,2.9c1.7-0.6,2.9-2.3,1.8-5.3c-1.1-3-3.1-3.5-4.8-2.9
		C1051.5,1234.2,1050.3,1236.1,1051.4,1238.9z"/>
	<path d="M1045.2,1234.9l3.7,11.2l-1.9,0.6l-0.6-1.7c-0.3,1.3-1.1,2.4-2.8,3c-1.7,0.6-3,0.2-3.9-0.9c-0.4,1.7-1.6,2.7-3.1,3.2
		c-2.6,0.9-4.2-0.5-5.1-3.1l-2.4-7.1l1.9-0.6l2.2,6.5c0.6,1.7,1.4,3.1,3.5,2.4c1.6-0.5,2.3-2.2,1.5-4.6l-2-6.1l1.9-0.6l2.2,6.5
		c0.6,1.7,1.4,3.1,3.5,2.4c1.6-0.5,2.3-2.2,1.5-4.6l-2-6.1L1045.2,1234.9z"/>
	<path d="M1021.6,1250.1l0.1,0.3c0.6,2.1,2,2.4,3.4,2c1.6-0.5,2.2-1.6,1.9-3l2-0.6c0.5,2.5-1.2,4.5-3.4,5.2c-3.1,0.9-5-0.1-5.9-3.3
		l-0.8-2.6c-0.6-1.9-1.1-3.2-1.6-4.2l1.9-0.6c0.2,0.4,0.4,0.8,0.6,1.5c0.3-1.4,1.3-2.4,3.3-3c2.1-0.6,4.3,0,4.9,2.1
		C1028.9,1246.5,1026.1,1248.2,1021.6,1250.1z M1026,1244.5c-0.3-1.1-1.4-1.5-2.7-1.1c-1.8,0.5-3.2,1.9-2.4,4.6l0.2,0.7
		C1024.4,1247.2,1026.4,1246.1,1026,1244.5z"/>
	<path d="M1008.4,1258.6l-2.8-9.9c-0.7-2.3-0.5-3.4,0-4.3c0.6-1.2,1.8-2.1,3.5-2.6c2.6-0.7,4.7,0,5.7,2.2l-2.1,0.6
		c-0.5-0.9-1.4-1.6-3.2-1.1c-1,0.3-1.7,0.8-2.1,1.5c-0.3,0.6-0.5,1.2,0,2.7l0.3,1.1c0.4-1.4,1.2-2.5,3.1-3c2.5-0.7,5.4,0.7,6.4,4.3
		c1,3.6-0.7,6.3-3.2,7c-1.8,0.5-3.1,0-4.2-1l0.5,1.8L1008.4,1258.6z M1015.1,1250.8c-0.7-2.6-2.5-3.7-4.4-3.2
		c-1.7,0.5-2.9,2.1-2.1,5c0.8,2.9,2.6,3.6,4.4,3.1C1014.9,1255.2,1015.9,1253.4,1015.1,1250.8z"/>
	<path d="M999.6,1261.1c-2.8,0.7-4.2-0.8-4.9-3.4l-1.9-7.2l1.9-0.5l1.7,6.7c0.5,1.8,1.1,3.2,3.4,2.7c1.9-0.5,2.7-2.1,2.1-4.5
		l-1.6-6.2l1.9-0.5l2.9,11.5l-1.9,0.5l-0.4-1.7C1002.4,1259.5,1001.5,1260.6,999.6,1261.1z"/>
	<path d="M984.5,1259.9l0.1,0.3c0.5,2.1,1.8,2.5,3.3,2.2c1.6-0.4,2.3-1.5,2.1-2.9l2-0.5c0.4,2.5-1.5,4.4-3.7,5
		c-3.2,0.7-5-0.4-5.7-3.7l-0.6-2.7c-0.4-1.9-0.8-3.2-1.3-4.3l2-0.5c0.2,0.4,0.3,0.9,0.5,1.6c0.4-1.3,1.5-2.3,3.5-2.8
		c2.2-0.5,4.2,0.3,4.7,2.4C992,1256.7,989.1,1258.2,984.5,1259.9z M989.2,1254.6c-0.3-1.1-1.3-1.6-2.7-1.3c-1.8,0.4-3.4,1.7-2.7,4.4
		l0.2,0.7C987.5,1257.2,989.6,1256.1,989.2,1254.6z"/>
	<path d="M973.4,1270l-0.6-2.9l-2.2,0.5l-0.3-1.6l2.2-0.5l-1.4-6.9c-0.2-1.2-0.4-1.5-1.5-1.3l-1,0.2l-0.3-1.6l1.4-0.3
		c2.2-0.5,2.8-0.1,3.3,2.3l1.5,7.1l1.8-0.4l0.3,1.6l-1.8,0.4l0.6,2.9L973.4,1270z"/>
	<path d="M963.2,1266.9c1.8-0.4,2.5-1.5,2-4.1l-1.2-6.1l2-0.4l2.3,11.6l-1.9,0.4l-0.4-2c-0.3,1.4-1.4,2.4-2.9,2.7
		c-0.2,0-0.4,0.1-0.6,0.1l-0.4-2.1C962.5,1267,962.9,1267,963.2,1266.9z"/>
	<path d="M952.9,1266.2l0,0.3c0.4,2.1,1.7,2.6,3.1,2.4c1.6-0.3,2.4-1.3,2.3-2.8l2-0.4c0.3,2.5-1.7,4.3-4,4.8c-3.2,0.6-4.9-0.7-5.5-4
		l-0.5-2.7c-0.3-2-0.7-3.3-1.1-4.3l2-0.4c0.1,0.4,0.3,0.9,0.4,1.6c0.5-1.3,1.6-2.2,3.7-2.6c2.2-0.4,4.2,0.5,4.6,2.6
		C960.6,1263.5,957.6,1264.8,952.9,1266.2z M957.9,1261.1c-0.2-1.1-1.2-1.7-2.6-1.4c-1.8,0.3-3.4,1.5-3,4.2l0.1,0.7
		C956,1263.7,958.2,1262.8,957.9,1261.1z"/>
	<path d="M939.7,1261l2-0.3l1.8,11.7l-2,0.3L939.7,1261z M941.8,1274.3l2-0.3l0.4,2.4l-2,0.3L941.8,1274.3z"/>
	<path d="M936.5,1261.4l2.5,15.8l-2,0.3l-2.5-15.8L936.5,1261.4z"/>
	<path d="M924.8,1264.9l-8.7,1l-0.2-1.9l11.4-1.4l0.2,1.8c-5.1,4.8-8,8.2-7.7,11c0.2,1.6,1.4,2.6,3.3,2.4c1.7-0.2,3.2-1.3,3-4
		l2.1-0.2c0.4,3.1-1.5,5.5-4.9,5.9c-2.9,0.4-5.2-0.9-5.5-3.5C917.3,1272.3,920.8,1268.6,924.8,1264.9z"/>
	<path d="M914.9,1272.3c0.5,5-1.2,8.4-5.4,8.8c-4.2,0.4-6.5-2.6-7-7.6c-0.5-5,1.2-8.4,5.4-8.8
		C912.1,1264.2,914.4,1267.2,914.9,1272.3z M912.8,1272.5c-0.4-4.4-2.2-6.4-4.7-6.2c-2.5,0.2-3.8,2.5-3.4,7c0.4,4.4,2.2,6.4,4.7,6.2
		C911.8,1279.2,913.2,1276.9,912.8,1272.5z"/>
	<path d="M897.8,1278.3l3.7-0.3l0.1,1.4c-2.3,0.3-3.4,0.6-4.2,2.4l-1.4,0.1l-1.2-15.9l2-0.2L897.8,1278.3z"/>
	<path d="M883.3,1275.3c-2.1-0.7-2.8-2.4-2.9-3.8c-0.2-3,2.2-4.9,5.5-5.1c3.3-0.2,5.9,1.4,6.1,4.4c0.1,1.5-0.4,3.2-2.5,4.2
		c1.6,0.8,2.3,2.2,2.4,3.5c0.1,2.3-1.8,4.2-5.1,4.4c-3.3,0.2-5.4-1.4-5.6-3.8C881.2,1277.8,881.7,1276.2,883.3,1275.3z M886,1268
		c-2.2,0.1-3.6,1.4-3.5,3.3c0.1,1.9,1.6,3.1,3.9,2.9c2.3-0.1,3.6-1.5,3.5-3.4C889.7,1269,888.2,1267.9,886,1268z M889.9,1278.3
		c-0.1-1.6-1.5-2.7-3.5-2.6c-2,0.1-3.2,1.4-3.1,3c0.1,1.6,1.5,2.6,3.5,2.4C888.7,1281,890,1279.9,889.9,1278.3z"/>
	<path d="M867.4,1268.9c-1.8,0-2.7,0.9-3.2,2l-2.1,0.1c0.5-2.1,2.3-3.8,5.2-3.9c3.7-0.1,5.9,2.5,6,6c0.1,3.7-2.3,6.2-5.6,6.3
		c-3.6,0.1-5.9-2.9-5.7-6.6l9.1-0.3C871,1270,869.1,1268.9,867.4,1268.9z M864.2,1274.5c0.1,1.7,1.4,3.3,3.5,3.2
		c1.8,0,3.4-1.1,3.5-3.4L864.2,1274.5z"/>
	<path d="M852.4,1267.7l2,0l0,11.8l-2,0L852.4,1267.7z M852.5,1281.2l2,0l0,2.4l-2,0L852.5,1281.2z"/>
	<path d="M849.3,1267.6l-0.1,15.9l-2,0l0.1-15.9L849.3,1267.6z"/>
	<path d="M837.2,1269.4l-8.8-0.3l0.1-1.9l11.5,0.3l-0.1,1.8c-5.8,4-9.1,6.9-9.2,9.7c0,1.6,1,2.8,2.9,2.9c1.7,0,3.4-0.8,3.5-3.5
		l2.1,0.1c0,3.2-2.3,5.2-5.7,5.1c-2.9-0.1-5-1.6-4.9-4.3C828.7,1275.6,832.6,1272.4,837.2,1269.4z"/>
	<path d="M826.2,1275.1c-0.3,5-2.4,8.1-6.6,7.9c-4.2-0.2-6-3.5-5.8-8.6c0.3-5.1,2.4-8.2,6.6-7.9S826.5,1270.1,826.2,1275.1z
		 M824.1,1275c0.2-4.4-1.2-6.7-3.7-6.8c-2.5-0.1-4.2,1.9-4.4,6.4c-0.2,4.4,1.2,6.7,3.7,6.8C822.2,1281.5,823.8,1279.4,824.1,1275z"
		/>
	<path d="M809.8,1268.1l-8.7-0.7l0.1-1.9l11.5,0.9l-0.1,1.8c-5.9,3.7-9.5,6.5-9.7,9.3c-0.1,1.6,0.9,2.8,2.8,3
		c1.7,0.1,3.5-0.7,3.7-3.3l2.1,0.2c-0.2,3.2-2.6,5.1-5.9,4.8c-2.9-0.2-4.9-1.9-4.7-4.6C801,1273.9,805.1,1270.9,809.8,1268.1z"/>
	<path d="M798.6,1273.3c-0.5,5-2.8,8-7,7.6c-4.2-0.4-5.9-3.8-5.3-8.8c0.5-5,2.8-8,7-7.6C797.4,1264.9,799.1,1268.3,798.6,1273.3z
		 M796.4,1273.1c0.4-4.4-0.9-6.7-3.4-7c-2.5-0.3-4.3,1.7-4.7,6.2c-0.4,4.4,0.9,6.7,3.4,7C794.2,1279.5,796,1277.5,796.4,1273.1z"/>
	<path d="M774.2,1264c-1.7-0.2-2.8,0.4-3.5,1.5l-2-0.3c0.8-2,2.9-3.4,5.7-3c3.7,0.5,5.4,3.4,4.9,6.9c-0.5,3.7-3.3,5.8-6.5,5.3
		c-3.6-0.5-5.3-3.8-4.6-7.4l9,1.2C777.5,1265.7,775.9,1264.2,774.2,1264z M770.1,1269c-0.2,1.7,0.8,3.5,2.9,3.8
		c1.8,0.2,3.5-0.5,4-2.8L770.1,1269z M773.6,1278.5l-1.6-2.8l1.7,0.2l2.5,2.9L773.6,1278.5z"/>
	<path d="M756,1270.3c1.2,0.2,2.5,0,2.7-1.1c0.2-0.9-0.4-1.5-1.5-1.9l-1.6-0.6c-2.1-0.8-3.8-1.9-3.4-4.1c0.4-2.3,2.7-3.3,5.3-2.8
		c3.1,0.5,4.5,2.8,4.4,4.9l-2.1-0.3c-0.1-1.5-0.8-2.6-2.6-2.9c-1.5-0.2-2.8,0.2-3,1.3c-0.2,1.2,0.8,1.9,2.1,2.3l1.7,0.6
		c1.5,0.6,3.1,1.6,2.8,3.8c-0.3,2.1-2.6,2.9-5.2,2.5c-2.5-0.4-4-2.1-4-4.4l2.1,0.3C753.7,1269.3,754.7,1270.1,756,1270.3z"/>
	<path d="M745.1,1272.9l0.5-2.9l-2.2-0.4l0.3-1.6l2.2,0.4l1.2-6.9c0.2-1.2,0.2-1.5-0.9-1.7l-1-0.2l0.3-1.6l1.4,0.3
		c2.2,0.4,2.7,1,2.2,3.4l-1.3,7.1l1.8,0.3l-0.3,1.6l-1.8-0.3l-0.5,2.9L745.1,1272.9z"/>
	<path d="M734.7,1263.3l-0.1,0.3c-0.4,2.1,0.6,3.1,2.1,3.3c1.6,0.3,2.7-0.4,3.1-1.8l2,0.4c-0.7,2.5-3.2,3.4-5.4,3
		c-3.2-0.6-4.3-2.4-3.7-5.7l0.5-2.7c0.4-1.9,0.6-3.3,0.6-4.4l2,0.4c0,0.4-0.1,0.9-0.2,1.6c0.9-1,2.3-1.5,4.3-1.1
		c2.2,0.4,3.8,2,3.3,4.1C742.8,1263.5,739.6,1263.7,734.7,1263.3z M741.2,1260.4c0.2-1.1-0.5-2-1.9-2.3c-1.8-0.4-3.7,0.1-4.3,2.9
		l-0.1,0.7C738.5,1262,740.9,1262,741.2,1260.4z"/>
	<path d="M725.7,1269.1l0.6-2.9l-2.2-0.5l0.3-1.6l2.2,0.5l1.5-6.9c0.3-1.2,0.2-1.5-0.9-1.8l-1-0.2l0.3-1.6l1.4,0.3
		c2.2,0.5,2.6,1.1,2.1,3.5l-1.5,7.1l1.8,0.4l-0.3,1.6l-1.8-0.4l-0.6,2.9L725.7,1269.1z"/>
	<path d="M719.8,1252.3c2.7,0.6,5.1,3.1,4.1,7.3c-1,4.2-4.2,5.3-6.9,4.7c-2.7-0.6-5.1-3.1-4.1-7.3
		C713.8,1252.8,717.1,1251.7,719.8,1252.3z M714.9,1257.5c-0.7,3.1,0.7,4.7,2.5,5.1s3.7-0.3,4.4-3.5c0.7-3.1-0.7-4.7-2.5-5.1
		C717.6,1253.6,715.6,1254.5,714.9,1257.5z"/>
	<path d="M698,1254.6l-0.1,0.3c-0.6,2.1,0.4,3.1,1.9,3.5c1.6,0.4,2.8-0.2,3.2-1.6l2,0.5c-0.8,2.4-3.4,3.2-5.6,2.6
		c-3.1-0.8-4.2-2.7-3.3-5.9l0.7-2.6c0.5-1.9,0.8-3.3,0.8-4.4l2,0.5c0,0.4-0.1,0.9-0.3,1.6c1-1,2.4-1.3,4.4-0.8
		c2.1,0.6,3.6,2.2,3.1,4.3C706.1,1255.4,702.8,1255.3,698,1254.6z M704.6,1252.1c0.3-1.1-0.4-2-1.7-2.4c-1.8-0.5-3.7-0.1-4.5,2.6
		l-0.2,0.7C701.8,1253.6,704.2,1253.7,704.6,1252.1z"/>
	<path d="M688.4,1255.1c1.1,0.3,2.5,0.3,2.8-0.8c0.3-0.9-0.3-1.5-1.3-2l-1.5-0.8c-2-1-3.5-2.3-2.9-4.5c0.6-2.2,3-2.9,5.6-2.2
		c3,0.9,4.1,3.3,3.7,5.4l-2-0.6c0.1-1.5-0.5-2.7-2.2-3.2c-1.5-0.4-2.8-0.1-3.1,0.9c-0.3,1.1,0.6,1.9,1.8,2.5l1.6,0.8
		c1.5,0.8,2.9,2,2.3,4.1c-0.6,2-2.9,2.6-5.5,1.9c-2.5-0.7-3.7-2.6-3.5-4.8l2,0.6C686.2,1253.9,687.1,1254.8,688.4,1255.1z"/>
	<path d="M677.2,1251.8c1.1,0.3,2.5,0.3,2.8-0.7c0.3-0.9-0.2-1.5-1.2-2.1l-1.5-0.8c-1.9-1-3.5-2.4-2.8-4.6c0.7-2.2,3.1-2.9,5.7-2.1
		c3,0.9,4,3.4,3.6,5.4l-2-0.6c0.2-1.5-0.5-2.7-2.2-3.2c-1.5-0.4-2.8-0.2-3.1,0.9c-0.3,1.1,0.6,1.9,1.7,2.6l1.6,0.9
		c1.4,0.8,2.9,2,2.2,4.1c-0.6,2-3,2.5-5.5,1.8c-2.4-0.8-3.7-2.6-3.4-4.9l2,0.6C675,1250.5,675.9,1251.4,677.2,1251.8z"/>
	<path d="M667.9,1239.5c-1.7-0.6-2.8-0.1-3.7,0.8l-2-0.7c1.2-1.8,3.5-2.8,6.2-1.9c3.5,1.2,4.7,4.4,3.6,7.7c-1.2,3.5-4.3,5-7.4,4
		c-3.4-1.1-4.5-4.7-3.1-8.2l8.6,2.9C670.9,1241.8,669.6,1240.1,667.9,1239.5z M663,1243.7c-0.5,1.6,0.2,3.6,2.2,4.2
		c1.7,0.6,3.5,0.1,4.4-2.1L663,1243.7z"/>
	<path d="M647.6,1243.4l3.4-9.7c0.8-2.3,1.6-3.1,2.5-3.5c1.1-0.6,2.7-0.7,4.4-0.1c2.5,0.9,3.8,2.7,3.4,5.1l-2-0.7
		c0.1-1.1-0.2-2.1-2-2.7c-1-0.4-1.9-0.3-2.6,0c-0.6,0.3-1.1,0.7-1.6,2.2l-0.4,1.1c1.1-0.9,2.4-1.3,4.2-0.7c2.5,0.9,4,3.7,2.7,7.3
		c-1.3,3.6-4.2,4.8-6.7,3.9c-1.8-0.6-2.6-1.8-2.8-3.2l-0.6,1.8L647.6,1243.4z M657.6,1240.9c0.9-2.5,0.1-4.4-1.7-5.1
		c-1.7-0.6-3.6,0-4.6,2.9c-1,2.8,0.1,4.5,1.7,5.1C654.9,1244.4,656.7,1243.5,657.6,1240.9z"/>
	<path d="M639,1240.4c-2.7-1-3-3.1-2-5.6l2.7-7l1.9,0.7l-2.5,6.4c-0.7,1.7-0.9,3.3,1.2,4.1c1.8,0.7,3.4-0.1,4.3-2.5l2.3-6l1.9,0.7
		l-4.2,11.1l-1.9-0.7l0.6-1.7C642.2,1240.7,640.8,1241.1,639,1240.4z"/>
	<path d="M627.4,1230.7l-0.1,0.3c-0.8,2,0,3.1,1.4,3.7c1.5,0.6,2.8,0.1,3.4-1.2l1.9,0.8c-1.1,2.3-3.8,2.8-5.9,1.9
		c-3-1.2-3.8-3.2-2.5-6.3l1-2.5c0.8-1.8,1.2-3.1,1.4-4.3l1.9,0.8c-0.1,0.4-0.2,0.9-0.5,1.6c1.1-0.8,2.5-1,4.5-0.3
		c2.1,0.8,3.3,2.7,2.5,4.7C635.3,1232.4,632.1,1232,627.4,1230.7z M634.3,1229.1c0.4-1-0.1-2.1-1.4-2.6c-1.7-0.7-3.7-0.6-4.8,2
		l-0.3,0.7C631.4,1230.2,633.7,1230.6,634.3,1229.1z"/>
	<path d="M617.4,1234.7l1.2-2.7l-2.1-0.9l0.6-1.5l2.1,0.9l2.7-6.5c0.5-1.1,0.5-1.5-0.5-1.9l-0.9-0.4l0.7-1.5l1.3,0.6
		c2.1,0.9,2.4,1.6,1.4,3.8l-2.8,6.7l1.7,0.7l-0.6,1.5l-1.7-0.7l-1.2,2.7L617.4,1234.7z"/>
	<path d="M614.8,1217.1c2.5,1.1,4.4,4,2.7,7.9c-1.7,3.9-5.2,4.4-7.7,3.3c-2.5-1.1-4.4-4-2.7-7.9
		C608.9,1216.5,612.3,1215.9,614.8,1217.1z M609.1,1221.2c-1.3,2.9-0.2,4.7,1.4,5.5c1.6,0.7,3.7,0.4,5-2.6c1.3-2.9,0.2-4.7-1.4-5.5
		C612.4,1217.9,610.3,1218.5,609.1,1221.2z"/>
	<path d="M593,1215.2l-0.1,0.3c-0.9,1.9-0.2,3.1,1.2,3.8c1.5,0.7,2.8,0.3,3.5-0.9l1.9,0.9c-1.3,2.2-3.9,2.5-6,1.5
		c-2.9-1.4-3.6-3.5-2.1-6.4l1.2-2.4c0.9-1.8,1.4-3.1,1.7-4.2l1.8,0.9c-0.1,0.4-0.3,0.9-0.6,1.5c1.2-0.8,2.6-0.9,4.5,0
		c2,1,3.1,2.9,2.2,4.8C600.8,1217.5,597.6,1216.8,593,1215.2z M600,1214c0.5-1,0-2.1-1.2-2.7c-1.7-0.8-3.7-0.8-4.9,1.7l-0.3,0.7
		C596.9,1215,599.3,1215.5,600,1214z"/>
	<path d="M578.3,1210.7c1.6,0.8,2.9,0.3,4.1-2l2.8-5.5l1.8,0.9l-5.4,10.5l-1.7-0.9l0.9-1.8c-1.1,0.9-2.6,1-4,0.4
		c-0.2-0.1-0.3-0.2-0.5-0.3l1-1.9C577.7,1210.4,578,1210.6,578.3,1210.7z"/>
	<path d="M572.1,1211.6l1.8,0.9l-1.1,2.1l-1.8-0.9L572.1,1211.6z M578.4,1199.6l1.8,0.9l-5.5,10.5l-1.8-0.9L578.4,1199.6z"/>
	<path d="M565,1201.3c-0.4,1.4,0.2,2.8,1.5,3.6c1.6,0.9,3.7,0.4,5.1-2.2c1.4-2.6,0.7-4.7-0.9-5.5c-1.5-0.8-3-0.4-3.9,0.6l-1.8-1
		c1.4-1.8,4.2-2.4,6.6-1.1c3,1.6,3.6,4.9,1.9,8.1c-1.7,3.1-4.9,4.3-8,2.6c-2.5-1.4-3.1-4.1-2.3-6L565,1201.3z"/>
	<path d="M554,1199.8c-2.5-1.4-2.5-3.5-1.1-5.9l3.7-6.5l1.7,1l-3.4,6c-0.9,1.6-1.4,3.1,0.5,4.2c1.7,1,3.4,0.4,4.6-1.8l3.2-5.6l1.7,1
		l-8,13.8l-1.7-1l2.9-5.1C557.1,1200.7,555.7,1200.8,554,1199.8z"/>
	<path d="M545.4,1196.6l1.7,1l-1.2,2.1l-1.7-1L545.4,1196.6z M552.3,1184.9l1.7,1l-6.1,10.2l-1.7-1L552.3,1184.9z"/>
	<path d="M544.6,1182c-1.5-0.9-2.7-0.8-3.8,0l-1.8-1.1c1.5-1.5,4-1.9,6.5-0.4c3.2,2,3.5,5.3,1.7,8.3c-2,3.2-5.4,3.9-8.1,2.2
		c-3.1-1.9-3.3-5.6-1.1-8.7l7.8,4.8C547,1184.9,546.1,1182.9,544.6,1182z M538.9,1184.9c-0.8,1.4-0.6,3.5,1.1,4.6
		c1.5,0.9,3.4,1,4.8-1L538.9,1184.9z"/>
	<path d="M521.6,1184.5l8.7-13.4l1.7,1.1l-1,1.5c1.3-0.7,2.8-0.7,4.4,0.4c2.3,1.5,3,4.6,0.9,7.9c-2.1,3.3-5.3,3.9-7.6,2.4
		c-1.6-1-2.2-2.4-2.1-3.8l-3.3,5L521.6,1184.5z M534.4,1180.8c1.5-2.4,1.3-4.5-0.4-5.6c-1.5-1-3.6-0.8-5.3,1.9
		c-1.7,2.6-1,4.6,0.5,5.6C530.9,1183.8,532.9,1183.2,534.4,1180.8z"/>
	<path d="M522.7,1167.8c-1.5-1-2.7-0.9-3.8-0.2l-1.7-1.2c1.6-1.4,4.1-1.7,6.5-0.1c3.1,2.1,3.3,5.5,1.3,8.4c-2.1,3.1-5.5,3.7-8.2,1.8
		c-3-2-3.1-5.8-0.8-8.7l7.5,5.1C525,1170.8,524.2,1168.8,522.7,1167.8z M516.9,1170.5c-0.9,1.4-0.8,3.5,0.9,4.7
		c1.5,1,3.3,1.1,4.8-0.8L516.9,1170.5z"/>
	<path d="M505.5,1168.7c-2.3-1.7-2.1-3.8-0.5-6l4.3-6.1l1.6,1.2l-4,5.6c-1.1,1.5-1.7,3,0.1,4.3c1.6,1.1,3.3,0.7,4.8-1.3l3.7-5.2
		l1.6,1.2l-6.9,9.6l-1.6-1.2l1-1.5C508.6,1169.8,507.1,1169.8,505.5,1168.7z"/>
	<path d="M496.1,1165.3l1.8-2.4l-1.8-1.3l1-1.3l1.8,1.3l4.2-5.6c0.7-1,0.8-1.3-0.1-2l-0.8-0.6l1-1.3l1.2,0.9c1.8,1.3,1.9,2.1,0.5,4
		l-4.3,5.8l1.5,1.1l-1,1.3l-1.5-1.1l-1.8,2.4L496.1,1165.3z"/>
	<path d="M491.3,1160.1l1.6,1.2l-1.5,1.9l-1.6-1.2L491.3,1160.1z M499.5,1149.3l1.6,1.2l-7.1,9.5l-1.6-1.2L499.5,1149.3z"/>
	<path d="M475,1150.5l9.9-12.5l1.6,1.2l-1.1,1.4c1.3-0.5,2.8-0.4,4.3,0.8c2.1,1.7,2.6,4.9,0.1,8c-2.4,3.1-5.7,3.4-7.8,1.7
		c-1.5-1.2-2-2.6-1.8-4l-3.7,4.7L475,1150.5z M488.1,1148c1.7-2.2,1.7-4.3,0.1-5.6c-1.4-1.1-3.5-1.1-5.5,1.3
		c-1.9,2.4-1.4,4.5-0.1,5.6C484.3,1150.7,486.4,1150.2,488.1,1148z"/>
	<path d="M472.4,1145.2l1.5,1.3l-1.5,1.9l-1.5-1.3L472.4,1145.2z M481,1134.7l1.5,1.3l-7.5,9.2l-1.6-1.3L481,1134.7z"/>
	<path d="M459.3,1131.9l6.7-7.8c1.6-1.8,2.6-2.3,3.6-2.4c1.3-0.2,2.8,0.3,4.1,1.5c2,1.7,2.6,3.9,1.3,5.9l-1.6-1.4
		c0.5-1,0.5-2-0.9-3.2c-0.8-0.7-1.6-1-2.4-0.9c-0.6,0.1-1.2,0.3-2.3,1.5l-0.7,0.9c1.4-0.5,2.8-0.3,4.2,0.9c2,1.7,2.4,4.9-0.1,7.8
		c-2.5,2.9-5.7,2.9-7.7,1.2c-1.4-1.2-1.8-2.6-1.5-4l-1.2,1.4L459.3,1131.9z M469.6,1133.2c1.8-2.1,1.7-4.1,0.2-5.4
		c-1.4-1.2-3.3-1.3-5.3,1c-2,2.3-1.6,4.2-0.2,5.4C465.8,1135.5,467.8,1135.2,469.6,1133.2z"/>
	<path d="M460,1118.7c-1.3-1.2-2.6-1.2-3.7-0.7l-1.5-1.4c1.8-1.2,4.3-1.1,6.4,0.8c2.8,2.5,2.5,5.9,0.2,8.5c-2.5,2.8-6,2.9-8.4,0.7
		c-2.7-2.4-2.3-6.1,0.4-8.7l6.8,6.1C461.9,1122,461.3,1119.8,460,1118.7z M453.9,1120.5c-1.1,1.3-1.3,3.4,0.3,4.8
		c1.3,1.2,3.2,1.5,4.9-0.1L453.9,1120.5z"/>
	<path d="M442.8,1117.2c-2.1-2-1.6-4,0.3-6l5.1-5.5l1.5,1.4l-4.7,5c-1.2,1.3-2.1,2.7-0.4,4.3c1.4,1.3,3.2,1.2,4.9-0.7l4.4-4.7
		l1.5,1.4l-8.1,8.6l-1.5-1.4l1.2-1.3C445.7,1118.7,444.3,1118.6,442.8,1117.2z"/>
	<path d="M441.5,1101.3c-1.3-1.2-2.5-1.3-3.7-0.9l-1.5-1.4c1.8-1.1,4.3-1,6.4,1.1c2.7,2.6,2.3,6-0.2,8.5c-2.6,2.7-6.1,2.6-8.4,0.4
		c-2.6-2.5-2-6.2,0.8-8.7l6.5,6.4C443.2,1104.7,442.8,1102.5,441.5,1101.3z M435.3,1102.9c-1.1,1.2-1.4,3.3,0.1,4.8
		c1.3,1.2,3.1,1.7,4.9,0.1L435.3,1102.9z"/>
	<path d="M426.7,1098.3c1.3,1.3,2.7,1.2,4.5-0.6l4.4-4.4l1.4,1.4l-8.4,8.3l-1.4-1.4l1.5-1.5c-1.4,0.5-2.8,0.2-3.9-0.9
		c-0.1-0.1-0.3-0.3-0.4-0.4l1.5-1.5C426.2,1097.8,426.5,1098.1,426.7,1098.3z"/>
	<path d="M427.3,1086.8c-1.2-1.3-2.5-1.4-3.6-1l-1.4-1.5c1.9-1,4.4-0.8,6.3,1.3c2.6,2.7,2.1,6.1-0.5,8.5c-2.7,2.6-6.2,2.4-8.4,0.1
		c-2.5-2.6-1.8-6.3,1.1-8.7l6.3,6.6C428.8,1090.3,428.5,1088.1,427.3,1086.8z M421,1088.2c-1.2,1.2-1.5,3.2-0.1,4.8
		c1.2,1.3,3,1.8,4.9,0.3L421,1088.2z"/>
	<path class="st25" d="M404.7,1083.8l-0.7-0.8l1.7-1.5l0.4,0.4c1,1.1,1.3,1.2,2.2,0.4l0.4-0.4l-1.6-1.8l1.5-1.4l1.6,1.8l7.2-6.5
		l2,2.3l-7.2,6.5l1.1,1.2l-1.5,1.4l-1.1-1.2l-0.5,0.4C408,1086.7,406.7,1086,404.7,1083.8z"/>
	<path class="st25" d="M409.9,1068.6c-0.6-0.7-1.5-1.2-2.7-1l-2.1-2.4c1.7-0.7,4.4-0.7,6.5,1.8c2.5,2.9,1.8,6.4-0.7,8.6
		c-2.7,2.3-6.2,2.2-8.5-0.4c-2.4-2.7-1.8-6.3,1.5-9l5.7,6.6C411,1071.4,410.8,1069.7,409.9,1068.6z M404.3,1070
		c-1.5,1.4-1.1,2.9-0.2,3.9c0.8,0.9,2.3,1.5,3.9,0.4L404.3,1070z"/>
	<path class="st25" d="M395.1,1057.5l4.8-3.9l1.9,2.3l-5.3,4.4c-1,0.8-2.1,1.9-0.9,3.2c1.3,1.6,2.8,0.7,4.2-0.4l4.8-3.9l1.9,2.3
		l-9.1,7.5l-1.9-2.3l1.2-1c-1.3,0.2-2.6-0.3-3.5-1.4c-1.3-1.6-1-2.9-0.7-3.8c-1.6,0.1-2.8-0.4-4-1.8c-1.9-2.3-1.1-4.3,1-6l5.8-4.7
		l1.9,2.3l-5.3,4.4c-1,0.8-2.1,1.9-0.9,3.2C392.2,1059.5,393.7,1058.7,395.1,1057.5z"/>
	<path class="st25" d="M382.5,1041.7l4.9-3.8l1.9,2.4l-5.5,4.2c-1,0.8-2.1,1.8-1,3.2c1.2,1.6,2.8,0.8,4.2-0.3l4.9-3.8l1.9,2.4
		l-9.4,7.2l-1.9-2.4l1.2-1c-1.3,0.2-2.6-0.4-3.5-1.5c-1.2-1.6-0.9-3-0.5-3.8c-1.6,0.1-2.8-0.5-3.9-1.9c-1.8-2.4-1-4.3,1.2-6l5.9-4.5
		l1.9,2.4l-5.5,4.2c-1,0.8-2.1,1.8-1,3.2C379.6,1043.5,381.1,1042.8,382.5,1041.7z"/>
	<path class="st25" d="M369.2,1035.5l1.8,2.4l-2.3,1.7l-1.8-2.4L369.2,1035.5z M379.8,1027.7l1.8,2.4l-9.5,7l-1.8-2.4L379.8,1027.7z
		"/>
	<path class="st25" d="M364.6,1027.3c-1.6-2.3-1-4.3,1.4-6l6.1-4.3l1.8,2.5l-5.5,3.9c-1.3,0.9-2.1,1.9-1.1,3.3c1.2,1.6,2.7,1,4.3,0
		l5-3.6l1.8,2.5l-9.6,6.9l-1.8-2.5l1.3-0.9C366.7,1029.2,365.4,1028.5,364.6,1027.3z"/>
	<path class="st25" d="M358.1,1019.8l1.7,2.5l-2.3,1.6l-1.7-2.5L358.1,1019.8z M368.9,1012.4l1.7,2.5l-9.8,6.7l-1.7-2.5
		L368.9,1012.4z"/>
	<path class="st25" d="M367.4,1010.2l-13.2,8.9l-1.7-2.5l13.2-8.9L367.4,1010.2z"/>
	<path class="st25" d="M359.7,1002.2c-0.5-0.8-1.3-1.4-2.5-1.3l-1.7-2.6c1.8-0.4,4.4,0,6.2,2.7c2.1,3.2,0.9,6.6-2,8.5
		c-3,1.9-6.5,1.3-8.4-1.6c-2-3.1-0.9-6.5,2.7-8.7l4.8,7.3C360.4,1005.1,360.4,1003.4,359.7,1002.2z M353.9,1002.7
		c-1.6,1.1-1.5,2.7-0.8,3.8c0.6,1,2,1.8,3.8,0.9L353.9,1002.7z"/>
</g>
<path class="st28" d="M266.9,710c-0.4-8.9-0.6-17.8-0.6-26.8c0-20.2,1-40.1,3-59.8"/>
</svg>
