<?xml version="1.0" encoding="utf-8"?>
<!-- Generator: Adobe Illustrator 21.1.0, SVG Export Plug-In . SVG Version: 6.00 Build 0)  -->
<svg version="1.1" id="Livello_1" xmlns="http://www.w3.org/2000/svg" xmlns:xlink="http://www.w3.org/1999/xlink" x="0px" y="0px"
	 viewBox="0 0 1420 2397" style="enable-background:new 0 0 1420 2397;" xml:space="preserve">
<style type="text/css">
	.st0{fill:#E75151;}
	.st1{fill:#D3D3D3;}
	.st2{fill:#3A3A3A;}
	.st3{font-family:'SuisseIntl-Regular';}
	.st4{font-size:50.0711px;}
	.st5{font-family:'SuisseIntl-Bold';}
	.st6{font-size:39.164px;}
	.st7{font-size:36.6747px;}
	.st8{font-size:45.5222px;}
	.st9{fill:none;stroke:#D3D3D3;stroke-width:6;stroke-miterlimit:10;}
	.st10{fill:none;stroke:#E75151;stroke-width:6;stroke-miterlimit:10;}
	.st11{fill:none;stroke:#000000;}
	.st12{font-size:57.866px;}
	.st13{font-size:29.4595px;}
	.st14{font-size:29.0384px;}
	.st15{enable-background:new    ;}
	.st16{fill:none;stroke:#D8EFEF;stroke-miterlimit:10;}
	.st17{fill:#FFFFFF;}
	.st18{font-size:28.9993px;}
	.st19{font-size:28.8957px;}
	.st20{font-size:26.4601px;}
	.st21{font-size:22.5893px;}
	.st22{font-size:28.9602px;}
	.st23{font-size:18.383px;}
	.st24{font-size:45.8695px;}
	.st25{font-size:27.4316px;}
	.st26{font-size:30.3258px;}
	.st27{fill:none;stroke:#000000;stroke-width:0.7976;}
	.st28{font-size:26.9592px;}
	.st29{font-size:13px;}
	.st30{font-family:'SuisseIntl-Light';}
	.st31{font-size:37.3832px;}
	.st32{fill:#EE0000;}
	.st33{font-size:27px;}
	.st34{font-size:18.3935px;}
	.st35{font-size:17.7878px;}
	.st36{font-size:18.7017px;}
	.st37{font-size:25.9135px;}
	.st38{fill:none;}
</style>
<rect x="980.8" y="2094.5" class="st0" width="120.9" height="91.6"/>
<rect x="189" y="1745.7" class="st1" width="123.4" height="282.3"/>
<rect x="189" y="2026.7" class="st0" width="124.8" height="159.6"/>
<rect x="366" y="569.2" class="st1" width="124.8" height="282.3"/>
<rect x="614" y="583" class="st1" width="124.8" height="243.4"/>
<rect x="737.6" y="835.6" class="st1" width="124.8" height="82.7"/>
<rect x="985.6" y="852.7" class="st1" width="124.8" height="82.7"/>
<rect x="985.6" y="935.3" class="st0" width="124.8" height="73.9"/>
<rect x="1102.1" y="2028.2" class="st1" width="124.8" height="82.7"/>
<rect x="1102.1" y="2110.9" class="st0" width="124.8" height="73.9"/>
<rect x="614" y="826.4" class="st0" width="124.8" height="183.2"/>
<rect x="311.7" y="1759.6" class="st1" width="124.8" height="243.4"/>
<rect x="311.7" y="2003" class="st0" width="124.8" height="183.2"/>
<rect x="861.6" y="799.6" class="st0" width="124.8" height="210"/>
<rect x="862.4" y="479.3" class="st1" width="124" height="323.3"/>
<rect x="436.5" y="1976.2" class="st0" width="124.8" height="210"/>
<rect x="437.3" y="1655.9" class="st1" width="124" height="323.3"/>
<rect x="490.8" y="850.3" class="st1" width="123.2" height="75.2"/>
<rect x="490.8" y="925.9" class="st0" width="123.2" height="84"/>
<rect x="857.1" y="2026.7" class="st1" width="123.2" height="75.2"/>
<rect x="857.1" y="2102.3" class="st0" width="123.2" height="84"/>
<rect x="738.4" y="918.3" class="st0" width="123.2" height="91.6"/>
<path id="IT-45" class="st1" d="M474,1506.1l-0.7,1.9l0.2,2.5l-1.6,0.6l-0.3,1.3l-1.8-0.2l0.1-0.6l-0.5-0.2l-0.4-1.6l-1.7,0.7v-1.3
	l-1.4-0.8l0,0l0.7-1l-0.2-2.3l-2.3,1.5h-1l0.2,2.2l0,0l0,0l0,0l0.7,1.3h-1l-0.2-0.5l-1.3,0.5l-0.6,2.1l-1.6,1.3l-0.2,1.3l0,0l0,0
	l0,0l-1,0.6l-1.3-0.2l-0.6,1.2l-1-1.4l-0.9,0.5l-0.9-0.1l0,0l-1,0.6l-0.7-0.8l0,0l-0.6,0.2l-0.9-0.6l-0.6,0.2l0,0l-1-0.6l-0.2-0.6
	l0,0l-0.9-0.1l-0.3-0.8l-2.9-0.2l-1.3-1.5l-2.2-1.3l0.2-1.9l-1.1-0.8l0.2-1l-1.3-1.3l0.2-0.7l0.4,0.1l-0.2-0.7l1-0.4l0.2-1.3
	l1.3-1.3l0.2-1.7l-3.4,0.7l-1.7-0.2l0.9-1.3l-0.1-0.6l-1.6-0.3l-0.6,0.6l-0.7-0.2l-1.1-1.2l-0.9-0.2l-0.2-1.3l-0.8-0.7l-1.5,1.5
	l-1.6,0.2l-0.2,0.6l-1.4,1.3l-2.5,0.1l-0.1,0.6l1.8,1l0.2,0.6l-1.6,0.1l-1.9-0.6l-2.1,0.9l-1.7-0.2l-1-0.7l0.4-0.6l-0.2-0.6l-3,3.4
	l-0.4-0.2l0.2-0.6l-0.4-0.6l-1.4-0.3l-3.1-2.5l-3.5-0.1l-0.6,0.8l0.1,0.9l-1,0.2l-2.1-1.9l-0.2-1l-1.1-1v-0.9l-0.8-0.4l-1,0.2
	l-1.8-1.9h-1l-1.3-0.8l-1.5,0.7l-3.5-3.7l-1.5,0.3l-2.7-1.8l-0.7-0.8l0.3-1.7l-0.6-0.2l-0.3-0.8l-1.5-0.6l-3.3,0.4l-2.1,3.3
	l-2.2,1.3l0,0l-0.9-2.1l-1.7-1.3l-0.6,0.4l-0.9-0.6l-0.2,0.6l-1.7,0.2l-0.6,0.7l-0.2-0.7l-1,0.2l1-2.8l0.8-0.2l0.3-2.1l-0.6-1.3
	l-2-0.7l-0.5-1.1l-1.5,1.1l-2-1.6l-0.2,0.6l-1.3-0.2l0.2-0.6l-0.4-0.4l-1.4,0.2l0,0v-3.2l0.3,0.1l0,0l1.1-0.1l-0.2-1.3l0.8,1.6
	l2-0.6l-0.5-0.9l0.6-0.6l-0.1-0.8l-1.1-0.6l-0.2-0.7l2.4-2.4l-0.6-2l-0.6-0.5l-0.5,0.2l-1.1-1l0.8-1l-0.4-0.6l1-0.2l0.9-2.5l1-1.1
	l-0.1-1.3l1.3-1.1l-0.1-0.4l0.8,0.1l0.2-0.5l1.7-0.5l1,1.2l0.7-0.6l-0.4-1.7l0.5-0.1l1,1.3l0.8-0.3l0.4-1.2l0.6,0.8l-0.1,1.6
	l2.6,1.1l1-0.9l0.3-0.6l-0.5-0.7l0.6-0.2l0.6,1l1.2,0.6l0.2,1.2l0.6-2h0.6l0.6,1l0.6-0.2l0.2-0.7l-0.7-1l1.1-0.9l0.5,0.4l-0.2,1.3
	l1.8-1.3l0.6,0.1l1.2,1.5l-0.2,1l1,0.8l0.1,0.8l1-0.2l0.5,1.1l2.1-1l0.3,0.6h1.3l1.9,1.5h1l1.7,1.4l1.5-0.9l1,1.8l2.9,1.3l2.5-0.1
	l0.9-0.6l1.7-2.5l0.3,1l1.1-1.3l0.6,1.9l2.8,0.5l0.5,0.5l0.6-0.1l0.1,0.5l0.9-0.1l-0.2,0.4l0.9-0.6l0.9,0.2l0.2-0.7l1.4-0.7l1.9,0.2
	l0.6-0.5l1.7,0.4l0.8,1l0.3-0.4l2.5-0.2l0.2-0.4l1,0.6l1-1l3.9,0.6l0,0l0.1,1l3.6-0.2l1.3,0.9l0.2,1l0.5,0.2l0.8-0.1l1.3-1.2l2-0.6
	l0.5-1.3l1.8-0.9l3.9,0.1l1.3-0.5l4.2,0.6l1.4,1.9l1-0.6l0.5,0.6l1.3,0.1l0.9-0.8h0.6l0.6,0.6l-0.4,0.8l0.2,1.8l0.4,0.6l1.3,0.3
	l0.4,1.3l0,0l-0.4,0.1l-0.7-1.1l-0.7-0.2l-1.1,1.4l0.8-0.3l-1,2.7l-0.4,3.1l0.3,2.1l1.2,2.4l-0.1,5.5l1.1,2.9l0.2,2.1l1.3,4.4
	l1.1,2.2l4.2,4.8l1.6,1l3.7,4L474,1506.1L474,1506.1z M455.8,1513l-0.2,0.7l0.9,1l1.3-0.7l-0.2-0.7l0,0l-0.2-0.3H455.8L455.8,1513z"
	/>
<path id="IT-45_1_" class="st0" d="M458,1491.4l-0.7,1.9l0.2,2.5l-1.6,0.6l-0.3,1.3l-1.8-0.2l0.1-0.6l-0.5-0.2l-0.4-1.6l-1.7,0.7
	v-1.3l-1.4-0.8l0,0l0.7-1l-0.2-2.3l-2.3,1.5h-1l0.2,2.2l0,0l0,0l0,0l0.7,1.3h-1l-0.2-0.5l-1.3,0.5l-0.6,2.1l-1.6,1.3l-0.2,1.3l0,0
	l0,0l0,0l-1,0.6l-1.3-0.2l-0.6,1.2l-1-1.4l-0.9,0.5l-0.9-0.1l0,0l-1,0.6l-0.7-0.8l0,0l-0.6,0.2l-0.9-0.6l-0.6,0.2l0,0l-1-0.6
	l-0.2-0.6l0,0l-0.9-0.1l-0.3-0.8l-2.9-0.2l-1.3-1.5l-2.2-1.3l0.2-1.9l-1.1-0.8l0.2-1l-1.3-1.3l0.2-0.7l0.4,0.1l-0.2-0.7l1-0.4
	l0.2-1.3l1.3-1.3l0.2-1.7l-3.4,0.7l-1.7-0.2l0.9-1.3l-0.1-0.6l-1.6-0.3l-0.6,0.6l-0.7-0.2l-1.1-1.2l-0.9-0.2l-0.2-1.3l-0.8-0.7
	l-1.5,1.5l-1.6,0.2l-0.2,0.6l-1.4,1.3l-2.5,0.1l-0.1,0.6l1.8,1l0.2,0.6l-1.6,0.1l-1.9-0.6l-2.1,0.9l-1.7-0.2l-1-0.7l0.4-0.6
	l-0.2-0.6l-3,3.4l-0.4-0.2l0.2-0.6l-0.4-0.6l-1.4-0.3l-3.1-2.5l-3.5-0.1l-0.6,0.8l0.1,0.9l-1,0.2l-2.1-1.9l-0.2-1l-1.1-1v-0.9
	l-0.8-0.4l-1,0.2l-1.8-1.9h-1l-1.3-0.8l-1.5,0.7l-3.5-3.7l-1.5,0.3l-2.7-1.8l-0.7-0.8l0.3-1.7l-0.6-0.2l-0.3-0.8l-1.5-0.6l-3.3,0.4
	l-2.1,3.3l-2.2,1.3l0,0l-0.9-2.1l-1.7-1.3l-0.6,0.4l-0.9-0.6l-0.2,0.6l-1.7,0.2l-0.6,0.7l-0.2-0.7l-1,0.2l1-2.8l0.8-0.2l0.3-2.1
	l-0.6-1.3l-2-0.7l-0.5-1.1l-1.5,1.1l-2-1.6l-0.2,0.6l-1.3-0.2l0.2-0.6l-0.4-0.4l-1.4,0.2l0,0v-3.2l0.3,0.1l0,0l1.1-0.1l-0.2-1.3
	l0.8,1.6l2-0.6l-0.5-0.9l0.6-0.6l-0.1-0.8l-1.1-0.6l-0.2-0.7l2.4-2.4l-0.6-2l-0.6-0.5l-0.5,0.2l-1.1-1l0.8-1l-0.4-0.6l1-0.2l0.9-2.5
	l1-1.1l-0.1-1.3l1.3-1.1l-0.1-0.4l0.8,0.1l0.2-0.5l1.7-0.5l1,1.2l0.7-0.6l-0.4-1.7l0.5-0.1l1,1.3l0.8-0.3l0.4-1.2l0.6,0.8l-0.1,1.6
	l2.6,1.1l1-0.9l0.3-0.6l-0.5-0.7l0.6-0.2l0.6,1l1.2,0.6l0.2,1.2l0.6-2h0.6l0.6,1l0.6-0.2l0.2-0.7l-0.7-1l1.1-0.9l0.5,0.4l-0.2,1.3
	l1.8-1.3l0.6,0.1l1.2,1.5l-0.2,1l1,0.8l0.1,0.8l1-0.2l0.5,1.1l2.1-1l0.3,0.6h1.3l1.9,1.5h1l1.7,1.4l1.5-0.9l1,1.8l2.9,1.3l2.5-0.1
	l0.9-0.6l1.7-2.5l0.3,1l1.1-1.3l0.6,1.9l2.8,0.5l0.5,0.5l0.6-0.1l0.1,0.5l0.9-0.1l-0.2,0.4l0.9-0.6l0.9,0.2l0.2-0.7l1.4-0.7l1.9,0.2
	l0.6-0.5l1.7,0.4l0.8,1l0.3-0.4l2.5-0.2l0.2-0.4l1,0.6l1-1l3.9,0.6l0,0l0.1,1l3.6-0.2l1.3,0.9l0.2,1l0.5,0.2l0.8-0.1l1.3-1.2l2-0.6
	l0.5-1.3l1.8-0.9l3.9,0.1l1.3-0.5l4.2,0.6l1.4,1.9l1-0.6l0.5,0.6l1.3,0.1l0.9-0.8h0.6l0.6,0.6l-0.4,0.8l0.2,1.8l0.4,0.6l1.3,0.3
	l0.4,1.3l0,0l-0.4,0.1l-0.7-1.1l-0.7-0.2l-1.1,1.4l0.8-0.3l-1,2.7l-0.4,3.1l0.3,2.1l1.2,2.4l-0.1,5.5l1.1,2.9l0.2,2.1l1.3,4.4
	l1.1,2.2l4.2,4.8l1.6,1l3.7,4L458,1491.4L458,1491.4z M439.7,1498.4l-0.2,0.7l0.9,1l1.3-0.7l-0.2-0.7l0,0l-0.2-0.3H439.7
	L439.7,1498.4z"/>
<text transform="matrix(1 0 0 1 206.8823 1524.4541)" class="st2 st3 st4">LAZIO</text>
<text transform="matrix(1 0 0 1 303.3187 1456.0714)" class="st0 st5 st6">F</text>
<text transform="matrix(1 0 0 1 484.4813 1528.6095)" class="st1 st5 st6">M</text>
<path id="IT-62_1_" class="st1" d="M968.4,1555.4l-0.1,0.7l0.3,0.1l-0.6,0.7l-0.1-1.6l1.3-0.6L968.4,1555.4z M998.5,1532.5l0.6,0.5
	l-0.4,0.7h-0.4l-1.8,1.6l-1.3,0.2l0.7,1.3l-0.4,0.9l0.6,2.6l-1.8,0.7l-0.1,0.6l0.4,0.1l-0.3,0.4l-1.8,0.4l-0.3,0.7l-1.6-1.2
	l-0.7,0.4l-1.6-0.7l-1.7,1l0.1,0.8l0.5,0.4l-1.2,0.1l-5.2-3l-2.5-0.6l-1,0.6l-1.3-0.1l-1.7,0.5l-1.9,1.9l-1.4-0.1l-1.7-3.9l-2.2-2.3
	l-2.1-1.2l-1.9-0.2l-0.4,0.4l-2.8-1.9l-1,0.1l-0.1,0.4l-0.5-0.2l-1.9-3.4l-4.2-4.9l-2.2-1.8l-3.6-1.6l-0.5-3.4l-1.9-3.3l-2.8-1.6
	l-0.7-1.1l-1.5-0.6l-0.3-0.7l-1.3-0.9l-2.5,0.4l-1-2.3l-1.8-2.3l-0.1-1.1l-1.3-2.5l-1.3-1.9l-3.2-2.6l-3-1.4l1.1-2.5l3.9-0.1l-0.1-2
	l-1.6-1.1l0.8-1.1l-0.3-1l0.4-0.2l0.7,0.6l0.4-0.5l0.4,0.1l1-0.5l0.1-0.6l0.9-0.7l0.7,0.1l0.5-1.3l0.8,0.1l0.8-0.5l-0.1-0.6
	l-0.6-0.3l-0.2-1.6h0.7l0.6-1.4l-2.2-1.7l0.7-1.4l0.7,0.3l0.4,0.7l0.3-1.2l1-0.6l1.4,0.1l1,2.3l1.6,1l-0.6,1.2l-1.1,0.6l0.7,1.3
	l2.4,1.5l2.2-0.7l0.6,0.6l0.1-0.4l0.4,0.1l0.8-0.7l1,0.4l1,1.2l0.3,2.6l1,0.4l-0.1,1.1l0.6,0.5l-0.4,0.4l0.9,0.4l-0.4,0.3l1.1-0.1
	l0.7,0.7l1.2-1l0.9,0.1l-0.1,1.1l0.4,0.4l-0.4,0.1v1.2l1.3,0.4l-0.6,0.8l2.2-0.3v1l0.5,0.6l2.5-1.9l0.1-2.2l0.7-0.1l0.5,1.1h0.7
	l1.7-1.1l-0.8-1.2l1.8-0.5l0.1-0.7l1.2,0.1l1.1-1l1.2-0.4l-0.4-1.5l0.4-0.7l1.2,0.6l0.4-0.6h1.9l0.4-0.9l1.2,0.6l1.6-1v-0.4l1,0.4
	l0.7-0.7l0.4-2.6l1.9,0.4l0.3-0.7l0.7-0.1l2.2,1.9l-0.3,1l0.7,0.8l1.2,0.4l-0.4,2l-0.8,0.7l-1.3-0.2l-0.9,0.4l-0.4-0.6h-0.8
	l-0.4,0.4l-1.6-0.6l-0.4,1.6l-0.6,0.3l0.6,1.1l0.1,1.4l-1.9,1.4l2.3,2.2l-1.2,1.3l2.2,1.4l0.4,1.9l1.5,1.5l1.4,0.5l0.1,1l1.1,0.7
	l-1,0.2l0.3,0.4l-0.9,0.1l-0.6,1.3l-1-0.4l-0.7,0.4l-3.8-2.1l-1,0.1v1.4l-1.2,1l-0.4-0.2l-0.1,2.9l0.8,1.3l1.4,0.4v-0.7l1.2,0.4
	l4.5,2.6l0.5-0.2l1.2,1.3l0.6-0.1l0.6,0.8l-0.7,1.3l0.6,2.1l0.8-0.8l1,0.4l0.9,0.8l1,0.2l0.4,1l0.9,0.5l2.4-0.8l0.6-1.2l1,0.3
	l0.6,0.7l0.7-0.4l1,1.9l0.7,0.2l0.6-0.4l1.4,0.8l1.1-0.1l1.5,1.9l1.2,1l0.8,2.1l0.1,0.8l-0.4,0.4l0.8,0.9l-0.1,0.5l-0.5,0.1l0.7,0.6
	L998.5,1532.5L998.5,1532.5z M953.2,1516.2L953.2,1516.2L953.2,1516.2l-0.1-0.2H953h-0.1l-0.1,0.1l0,0l0.1,0.1l0,0H953.2
	L953.2,1516.2L953.2,1516.2L953.2,1516.2z"/>
<path id="IT-62" class="st0" d="M957.7,1533.2l-0.1,0.7l0.3,0.1l-0.6,0.7l-0.1-1.6l1.3-0.6L957.7,1533.2z M987.8,1510.3l0.6,0.5
	l-0.4,0.7h-0.4l-1.8,1.6l-1.3,0.2l0.7,1.3l-0.4,0.9l0.6,2.6l-1.8,0.7l-0.1,0.6l0.4,0.1l-0.3,0.4l-1.8,0.4l-0.3,0.7l-1.6-1.2
	l-0.7,0.4l-1.6-0.7l-1.7,1l0.1,0.8l0.5,0.4l-1.2,0.1l-5.2-3l-2.5-0.6l-1,0.6l-1.3-0.1l-1.7,0.5l-1.9,1.9l-1.4-0.1l-1.7-3.9l-2.2-2.3
	l-2.1-1.2l-1.9-0.2l-0.4,0.4l-2.8-1.9l-1,0.1l-0.1,0.4l-0.5-0.2l-1.9-3.4l-4.2-4.9l-2.2-1.8l-3.6-1.6l-0.5-3.4l-1.9-3.3l-2.8-1.6
	l-0.7-1.1l-1.5-0.6l-0.3-0.7l-1.3-0.9l-2.5,0.4l-1-2.3l-1.8-2.3l-0.1-1.1l-1.3-2.5l-1.3-1.9l-3.2-2.6l-3-1.4l1.1-2.5l3.9-0.1l-0.1-2
	l-1.6-1.1l0.8-1.1l-0.3-1l0.4-0.2l0.7,0.6l0.4-0.5l0.4,0.1l1-0.5l0.1-0.6l0.9-0.7l0.7,0.1l0.5-1.3l0.8,0.1l0.8-0.5l-0.1-0.6
	l-0.6-0.3l-0.2-1.6h0.7l0.6-1.4l-2.2-1.7l0.7-1.4l0.7,0.3l0.4,0.7l0.3-1.2l1-0.6l1.4,0.1l1,2.3l1.6,1l-0.6,1.2l-1.1,0.6l0.7,1.3
	l2.4,1.5l2.2-0.7l0.6,0.6l0.1-0.4l0.4,0.1l0.8-0.7l1,0.4l1,1.2l0.3,2.6l1,0.4l-0.1,1.1l0.6,0.5l-0.4,0.4l0.9,0.4l-0.4,0.3l1.1-0.1
	l0.7,0.7l1.2-1l0.9,0.1l-0.1,1.1l0.4,0.4l-0.4,0.1v1.2l1.3,0.4l-0.6,0.8l2.2-0.3v1l0.5,0.6l2.5-1.9l0.1-2.2l0.7-0.1l0.5,1.1h0.7
	l1.7-1.1l-0.8-1.2l1.8-0.5l0.1-0.7l1.2,0.1l1.1-1l1.2-0.4l-0.4-1.5l0.4-0.7l1.2,0.6l0.4-0.6h1.9l0.4-0.9l1.2,0.6l1.6-1v-0.4l1,0.4
	l0.7-0.7l0.4-2.6l1.9,0.4l0.3-0.7l0.7-0.1l2.2,1.9l-0.3,1l0.7,0.8l1.2,0.4l-0.4,2l-0.8,0.7l-1.3-0.2l-0.9,0.4l-0.4-0.6h-0.8
	l-0.4,0.4l-1.6-0.6l-0.4,1.6l-0.6,0.3l0.6,1.1l0.1,1.4l-1.9,1.4l2.3,2.2l-1.2,1.3l2.2,1.4l0.4,1.9l1.5,1.5l1.4,0.5l0.1,1l1.1,0.7
	l-1,0.2l0.3,0.4l-0.9,0.1l-0.6,1.3l-1-0.4l-0.7,0.4l-3.8-2.1l-1,0.1v1.4l-1.2,1l-0.4-0.2l-0.1,2.9l0.8,1.3l1.4,0.4v-0.7l1.2,0.4
	l4.5,2.6l0.5-0.2l1.2,1.3l0.6-0.1l0.6,0.8l-0.7,1.3l0.6,2.1l0.8-0.8l1,0.4l0.9,0.8l1,0.2l0.4,1l0.9,0.5l2.4-0.8l0.6-1.2l1,0.3
	l0.6,0.7l0.7-0.4l1,1.9l0.7,0.2l0.6-0.4l1.4,0.8l1.1-0.1l1.5,1.9l1.2,1l0.8,2.1l0.1,0.8l-0.4,0.4l0.8,0.9l-0.1,0.5l-0.5,0.1l0.7,0.6
	L987.8,1510.3L987.8,1510.3z M942.6,1494.1L942.6,1494.1L942.6,1494.1l-0.1-0.2h-0.1h-0.1l-0.1,0.1l0,0l0.1,0.1l0,0H942.6
	L942.6,1494.1L942.6,1494.1L942.6,1494.1z"/>
<text transform="matrix(1 0 0 1 884.6028 1466.0229)" class="st0 st5 st7">F</text>
<g>
	<text transform="matrix(1 0 0 1 1012.2903 1541.231)" class="st1 st5 st7">M</text>
</g>
<text transform="matrix(1 3.822773e-03 -3.822773e-03 1 997.4684 1431.7302)" class="st2 st3 st8">EMILIA</text>
<text transform="matrix(1 3.822773e-03 -3.822773e-03 1 997.2321 1482.5745)" class="st2 st3 st8">ROMAGNA</text>
<path class="st9" d="M169.7,736.5c0-291.6,236.4-528,528-528s528,236.4,528,528c0,159.3-70.6,302.2-182.2,399"/>
<path class="st10" d="M1042,1137.8c-92.6,79.2-212.8,127.1-344.3,127.1c-292.6,0-529.9-237.2-529.9-529.9"/>
<line class="st11" x1="489.5" y1="1016.4" x2="489.5" y2="1022.4"/>
<line class="st11" x1="737.5" y1="1016.4" x2="737.5" y2="1022.4"/>
<g>
	<text transform="matrix(1 0 0 1 466.7349 1113.5)" class="st3 st12">18</text>
</g>
<g>
	<text transform="matrix(1 0 0 1 709.8 1113.5)" class="st3 st12">19</text>
</g>
<g>
	<text transform="matrix(1 0 0 1 961.9003 1113.5)" class="st3 st12">20</text>
</g>
<g>
	<g>
		<g>
			<text transform="matrix(1 0 0 1 633.6094 622.1465)" class="st3 st13">56,8%</text>
		</g>
	</g>
</g>
<g>
	<g>
		<g>
			<text transform="matrix(1 0 0 1 882.7578 518.0264)" class="st3 st14">60,7%</text>
		</g>
	</g>
</g>
<line class="st11" x1="985.5" y1="1016.4" x2="985.5" y2="1022.4"/>
<line class="st11" x1="357" y1="1009.9" x2="351" y2="1009.9"/>
<g class="st15">
	<path d="M339.1,1009.5c0-2.3,0.9-3.7,2.8-3.7c1.9,0,2.8,1.5,2.8,3.7c0,2.3-0.9,3.8-2.8,3.8C340,1013.2,339.1,1011.8,339.1,1009.5z
		 M340.1,1009.5c0,2,0.7,3,1.8,3s1.8-1,1.8-3s-0.7-3-1.8-3S340.1,1007.5,340.1,1009.5z"/>
</g>
<line class="st11" x1="357" y1="959" x2="351" y2="959"/>
<g class="st15">
	<path d="M321.6,956.5h-1.7v-0.6c1,0,1.6-0.2,2-1h0.6v7.2h-0.9L321.6,956.5L321.6,956.5z"/>
	<path d="M325.3,961v1.2l-0.6,1.3h-0.6l0.5-1.4h-0.5V961H325.3z"/>
	<path d="M325.9,958.6c0-2.3,0.9-3.7,2.8-3.7c1.9,0,2.8,1.5,2.8,3.7c0,2.3-0.9,3.8-2.8,3.8C326.8,962.3,325.9,960.9,325.9,958.6z
		 M326.9,958.6c0,2,0.7,3,1.8,3s1.8-1,1.8-3s-0.7-3-1.8-3C327.6,955.6,326.9,956.5,326.9,958.6z"/>
	<path d="M332.5,958.6c0-2.3,0.9-3.7,2.8-3.7c1.9,0,2.8,1.5,2.8,3.7c0,2.3-0.9,3.8-2.8,3.8C333.4,962.3,332.5,960.9,332.5,958.6z
		 M333.5,958.6c0,2,0.7,3,1.8,3s1.8-1,1.8-3s-0.7-3-1.8-3S333.5,956.5,333.5,958.6z"/>
	<path d="M339.1,958.6c0-2.3,0.9-3.7,2.8-3.7c1.9,0,2.8,1.5,2.8,3.7c0,2.3-0.9,3.8-2.8,3.8C340,962.3,339.1,960.9,339.1,958.6z
		 M340.1,958.6c0,2,0.7,3,1.8,3s1.8-1,1.8-3s-0.7-3-1.8-3S340.1,956.5,340.1,958.6z"/>
</g>
<line class="st11" x1="357" y1="908.1" x2="351" y2="908.1"/>
<g class="st15">
	<path d="M319.1,910.4h4v0.8h-5.2v-0.8c2.6-1.9,4.1-3.3,4.1-4.5c0-0.7-0.5-1.3-1.4-1.3c-0.8,0-1.5,0.4-1.6,1.6h-0.9
		c0-1.4,1-2.4,2.5-2.4c1.3,0,2.3,0.7,2.3,1.9C322.9,907.5,321.1,909,319.1,910.4z"/>
	<path d="M325.3,910.1v1.2l-0.6,1.3h-0.6l0.5-1.4h-0.5v-1.1H325.3z"/>
	<path d="M325.9,907.6c0-2.3,0.9-3.7,2.8-3.7c1.9,0,2.8,1.5,2.8,3.7c0,2.3-0.9,3.8-2.8,3.8C326.8,911.4,325.9,909.9,325.9,907.6z
		 M326.9,907.6c0,2,0.7,3,1.8,3s1.8-1,1.8-3s-0.7-3-1.8-3C327.6,904.7,326.9,905.6,326.9,907.6z"/>
	<path d="M332.5,907.6c0-2.3,0.9-3.7,2.8-3.7c1.9,0,2.8,1.5,2.8,3.7c0,2.3-0.9,3.8-2.8,3.8S332.5,909.9,332.5,907.6z M333.5,907.6
		c0,2,0.7,3,1.8,3s1.8-1,1.8-3s-0.7-3-1.8-3C334.2,904.7,333.5,905.6,333.5,907.6z"/>
	<path d="M339.1,907.6c0-2.3,0.9-3.7,2.8-3.7c1.9,0,2.8,1.5,2.8,3.7c0,2.3-0.9,3.8-2.8,3.8S339.1,909.9,339.1,907.6z M340.1,907.6
		c0,2,0.7,3,1.8,3s1.8-1,1.8-3s-0.7-3-1.8-3C340.8,904.7,340.1,905.6,340.1,907.6z"/>
</g>
<line class="st11" x1="357" y1="857.2" x2="351" y2="857.2"/>
<g class="st15">
	<path d="M320.2,857H320v-0.8h0.1c1.3,0,1.9-0.4,1.9-1.2c0-0.8-0.6-1.2-1.4-1.2c-1,0-1.5,0.6-1.6,1.4h-0.9c0.1-1.3,1-2.2,2.5-2.2
		c1.3,0,2.3,0.5,2.3,1.8c0,0.7-0.4,1.4-1.2,1.7c1.1,0.3,1.4,1.1,1.4,1.8c0,1.5-1.2,2.2-2.6,2.2c-1.7,0-2.5-1.1-2.6-2.3h0.9
		c0.1,0.9,0.6,1.5,1.6,1.5s1.6-0.5,1.6-1.4C322.3,857.3,321.3,857,320.2,857z"/>
	<path d="M325.3,859.2v1.2l-0.6,1.3h-0.6l0.5-1.4h-0.5v-1.1H325.3z"/>
	<path d="M325.9,856.7c0-2.3,0.9-3.7,2.8-3.7c1.9,0,2.8,1.5,2.8,3.7c0,2.3-0.9,3.8-2.8,3.8C326.8,860.5,325.9,859,325.9,856.7z
		 M326.9,856.7c0,2,0.7,3,1.8,3s1.8-1,1.8-3s-0.7-3-1.8-3C327.6,853.7,326.9,854.7,326.9,856.7z"/>
	<path d="M332.5,856.7c0-2.3,0.9-3.7,2.8-3.7c1.9,0,2.8,1.5,2.8,3.7c0,2.3-0.9,3.8-2.8,3.8S332.5,859,332.5,856.7z M333.5,856.7
		c0,2,0.7,3,1.8,3s1.8-1,1.8-3s-0.7-3-1.8-3S333.5,854.7,333.5,856.7z"/>
	<path d="M339.1,856.7c0-2.3,0.9-3.7,2.8-3.7c1.9,0,2.8,1.5,2.8,3.7c0,2.3-0.9,3.8-2.8,3.8S339.1,859,339.1,856.7z M340.1,856.7
		c0,2,0.7,3,1.8,3s1.8-1,1.8-3s-0.7-3-1.8-3S340.1,854.7,340.1,856.7z"/>
</g>
<line class="st11" x1="357" y1="806.3" x2="351" y2="806.3"/>
<g class="st15">
	<path d="M322,807.7v1.8h-0.9v-1.8h-3.6v-0.9l3.6-4.6h0.9v4.6h1.3v0.9H322z M321.1,806.8v-3.3l-2.6,3.3H321.1z"/>
	<path d="M325.3,808.3v1.2l-0.6,1.3h-0.6l0.5-1.4h-0.5v-1.1H325.3z"/>
	<path d="M325.9,805.8c0-2.3,0.9-3.7,2.8-3.7c1.9,0,2.8,1.5,2.8,3.7c0,2.3-0.9,3.8-2.8,3.8C326.8,809.6,325.9,808.1,325.9,805.8z
		 M326.9,805.8c0,2,0.7,3,1.8,3s1.8-1,1.8-3s-0.7-3-1.8-3C327.6,802.8,326.9,803.8,326.9,805.8z"/>
	<path d="M332.5,805.8c0-2.3,0.9-3.7,2.8-3.7c1.9,0,2.8,1.5,2.8,3.7c0,2.3-0.9,3.8-2.8,3.8C333.4,809.6,332.5,808.1,332.5,805.8z
		 M333.5,805.8c0,2,0.7,3,1.8,3s1.8-1,1.8-3s-0.7-3-1.8-3S333.5,803.8,333.5,805.8z"/>
	<path d="M339.1,805.8c0-2.3,0.9-3.7,2.8-3.7c1.9,0,2.8,1.5,2.8,3.7c0,2.3-0.9,3.8-2.8,3.8C340,809.6,339.1,808.1,339.1,805.8z
		 M340.1,805.8c0,2,0.7,3,1.8,3s1.8-1,1.8-3s-0.7-3-1.8-3S340.1,803.8,340.1,805.8z"/>
</g>
<line class="st11" x1="357" y1="755.4" x2="351" y2="755.4"/>
<g class="st15">
	<path d="M320.6,754.4c-0.7,0-1.2,0.4-1.4,0.8l-0.9-0.1l0.5-3.9h4.2v0.8h-3.4l-0.2,2.1c0.4-0.4,1-0.5,1.6-0.5c1.3,0,2.4,0.9,2.4,2.5
		c0,1.7-1.2,2.5-2.6,2.5c-1.7,0-2.4-1.1-2.6-2.2h0.9c0.1,0.9,0.6,1.5,1.6,1.5c0.9,0,1.6-0.6,1.6-1.7
		C322.2,755,321.4,754.4,320.6,754.4z"/>
	<path d="M325.3,757.4v1.2l-0.6,1.3h-0.6l0.5-1.4h-0.5v-1.1H325.3z"/>
	<path d="M325.9,754.9c0-2.3,0.9-3.7,2.8-3.7c1.9,0,2.8,1.5,2.8,3.7c0,2.3-0.9,3.8-2.8,3.8C326.8,758.7,325.9,757.2,325.9,754.9z
		 M326.9,754.9c0,2,0.7,3,1.8,3s1.8-1,1.8-3s-0.7-3-1.8-3C327.6,751.9,326.9,752.9,326.9,754.9z"/>
	<path d="M332.5,754.9c0-2.3,0.9-3.7,2.8-3.7c1.9,0,2.8,1.5,2.8,3.7c0,2.3-0.9,3.8-2.8,3.8C333.4,758.7,332.5,757.2,332.5,754.9z
		 M333.5,754.9c0,2,0.7,3,1.8,3s1.8-1,1.8-3s-0.7-3-1.8-3S333.5,752.9,333.5,754.9z"/>
	<path d="M339.1,754.9c0-2.3,0.9-3.7,2.8-3.7c1.9,0,2.8,1.5,2.8,3.7c0,2.3-0.9,3.8-2.8,3.8C340,758.7,339.1,757.2,339.1,754.9z
		 M340.1,754.9c0,2,0.7,3,1.8,3s1.8-1,1.8-3s-0.7-3-1.8-3S340.1,752.9,340.1,754.9z"/>
</g>
<line class="st11" x1="357" y1="704.5" x2="351" y2="704.5"/>
<g class="st15">
	<path d="M320.9,702.8c1.3,0,2.3,1,2.3,2.5c0,1.3-1,2.5-2.5,2.5c-1.8,0-2.6-1.3-2.6-3.5c0-2,0.7-4,2.8-4c1.4,0,2.1,0.9,2.2,1.8h-1
		c-0.1-0.6-0.6-1-1.4-1c-1.1,0-1.7,1.1-1.8,2.8C319.4,703.2,320,702.8,320.9,702.8z M322.3,705.3c0-1-0.6-1.7-1.6-1.7
		c-0.9,0-1.6,0.7-1.6,1.7s0.6,1.7,1.6,1.7S322.3,706.3,322.3,705.3z"/>
	<path d="M325.3,706.5v1.2l-0.6,1.3h-0.6l0.5-1.4h-0.5v-1.1H325.3z"/>
	<path d="M325.9,704c0-2.3,0.9-3.7,2.8-3.7c1.9,0,2.8,1.5,2.8,3.7c0,2.3-0.9,3.8-2.8,3.8C326.8,707.8,325.9,706.3,325.9,704z
		 M326.9,704c0,2,0.7,3,1.8,3s1.8-1,1.8-3s-0.7-3-1.8-3C327.6,701,326.9,702,326.9,704z"/>
	<path d="M332.5,704c0-2.3,0.9-3.7,2.8-3.7c1.9,0,2.8,1.5,2.8,3.7c0,2.3-0.9,3.8-2.8,3.8S332.5,706.3,332.5,704z M333.5,704
		c0,2,0.7,3,1.8,3s1.8-1,1.8-3s-0.7-3-1.8-3S333.5,702,333.5,704z"/>
	<path d="M339.1,704c0-2.3,0.9-3.7,2.8-3.7c1.9,0,2.8,1.5,2.8,3.7c0,2.3-0.9,3.8-2.8,3.8S339.1,706.3,339.1,704z M340.1,704
		c0,2,0.7,3,1.8,3s1.8-1,1.8-3s-0.7-3-1.8-3S340.1,702,340.1,704z"/>
</g>
<line class="st11" x1="357" y1="653.6" x2="351" y2="653.6"/>
<g class="st15">
	<path d="M325,649.5v0.8c-1.8,1.4-2.9,3.7-3.1,6.4h-1.1c0.2-2.6,1.3-4.8,3.1-6.4h-4v-0.8H325z"/>
	<path d="M325.3,655.6v1.2l-0.6,1.3h-0.6l0.5-1.4h-0.5v-1.1H325.3z"/>
	<path d="M325.9,653.1c0-2.3,0.9-3.7,2.8-3.7c1.9,0,2.8,1.5,2.8,3.7c0,2.3-0.9,3.8-2.8,3.8C326.8,656.9,325.9,655.4,325.9,653.1z
		 M326.9,653.1c0,2,0.7,3,1.8,3s1.8-1,1.8-3s-0.7-3-1.8-3C327.6,650.1,326.9,651.1,326.9,653.1z"/>
	<path d="M332.5,653.1c0-2.3,0.9-3.7,2.8-3.7c1.9,0,2.8,1.5,2.8,3.7c0,2.3-0.9,3.8-2.8,3.8C333.4,656.9,332.5,655.4,332.5,653.1z
		 M333.5,653.1c0,2,0.7,3,1.8,3s1.8-1,1.8-3s-0.7-3-1.8-3S333.5,651.1,333.5,653.1z"/>
	<path d="M339.1,653.1c0-2.3,0.9-3.7,2.8-3.7c1.9,0,2.8,1.5,2.8,3.7c0,2.3-0.9,3.8-2.8,3.8C340,656.9,339.1,655.4,339.1,653.1z
		 M340.1,653.1c0,2,0.7,3,1.8,3s1.8-1,1.8-3s-0.7-3-1.8-3S340.1,651.1,340.1,653.1z"/>
</g>
<line class="st11" x1="357" y1="602.7" x2="351" y2="602.7"/>
<g class="st15">
	<path d="M322.1,602c0.9,0.4,1.2,1.2,1.2,1.8c0,1.4-1.1,2.2-2.6,2.2s-2.6-0.8-2.6-2.2c0-0.7,0.3-1.4,1.2-1.8c-0.7-0.4-1-1.1-1-1.7
		c0-1.1,0.9-1.8,2.4-1.8s2.4,0.8,2.4,1.8C323.1,600.9,322.8,601.6,322.1,602z M320.6,605.2c1,0,1.7-0.6,1.7-1.4s-0.7-1.4-1.7-1.4
		s-1.7,0.6-1.7,1.4S319.6,605.2,320.6,605.2z M319.1,600.4c0,0.7,0.6,1.3,1.5,1.3s1.5-0.5,1.5-1.3c0-0.7-0.6-1.2-1.5-1.2
		C319.7,599.2,319.1,599.7,319.1,600.4z"/>
	<path d="M325.3,604.7v1.2l-0.6,1.3h-0.6l0.5-1.4h-0.5v-1.1H325.3z"/>
	<path d="M325.9,602.2c0-2.3,0.9-3.7,2.8-3.7c1.9,0,2.8,1.5,2.8,3.7c0,2.3-0.9,3.8-2.8,3.8C326.8,605.9,325.9,604.5,325.9,602.2z
		 M326.9,602.2c0,2,0.7,3,1.8,3s1.8-1,1.8-3s-0.7-3-1.8-3C327.6,599.2,326.9,600.2,326.9,602.2z"/>
	<path d="M332.5,602.2c0-2.3,0.9-3.7,2.8-3.7c1.9,0,2.8,1.5,2.8,3.7c0,2.3-0.9,3.8-2.8,3.8C333.4,605.9,332.5,604.5,332.5,602.2z
		 M333.5,602.2c0,2,0.7,3,1.8,3s1.8-1,1.8-3s-0.7-3-1.8-3S333.5,600.2,333.5,602.2z"/>
	<path d="M339.1,602.2c0-2.3,0.9-3.7,2.8-3.7c1.9,0,2.8,1.5,2.8,3.7c0,2.3-0.9,3.8-2.8,3.8C340,605.9,339.1,604.5,339.1,602.2z
		 M340.1,602.2c0,2,0.7,3,1.8,3s1.8-1,1.8-3s-0.7-3-1.8-3S340.1,600.2,340.1,602.2z"/>
</g>
<line class="st11" x1="357" y1="551.7" x2="351" y2="551.7"/>
<g class="st15">
	<path d="M320.6,552.5c-1.3,0-2.3-1-2.3-2.5c0-1.3,1-2.5,2.5-2.5c1.8,0,2.6,1.3,2.6,3.5c0,2-0.7,4-2.8,4c-1.4,0-2.1-0.9-2.2-1.8h1
		c0.1,0.6,0.6,1,1.3,1c1.1,0,1.7-1.1,1.8-2.8C322.2,552.1,321.5,552.5,320.6,552.5z M319.2,550c0,1,0.6,1.7,1.6,1.7
		c0.9,0,1.6-0.7,1.6-1.7s-0.6-1.7-1.6-1.7C319.9,548.3,319.2,549,319.2,550z"/>
	<path d="M325.3,553.8v1.2l-0.6,1.3h-0.6l0.5-1.4h-0.5v-1.1H325.3z"/>
	<path d="M325.9,551.3c0-2.3,0.9-3.7,2.8-3.7c1.9,0,2.8,1.5,2.8,3.7c0,2.3-0.9,3.8-2.8,3.8C326.8,555,325.9,553.6,325.9,551.3z
		 M326.9,551.3c0,2,0.7,3,1.8,3s1.8-1,1.8-3s-0.7-3-1.8-3C327.6,548.3,326.9,549.3,326.9,551.3z"/>
	<path d="M332.5,551.3c0-2.3,0.9-3.7,2.8-3.7c1.9,0,2.8,1.5,2.8,3.7c0,2.3-0.9,3.8-2.8,3.8C333.4,555,332.5,553.6,332.5,551.3z
		 M333.5,551.3c0,2,0.7,3,1.8,3s1.8-1,1.8-3s-0.7-3-1.8-3S333.5,549.3,333.5,551.3z"/>
	<path d="M339.1,551.3c0-2.3,0.9-3.7,2.8-3.7c1.9,0,2.8,1.5,2.8,3.7c0,2.3-0.9,3.8-2.8,3.8C340,555,339.1,553.6,339.1,551.3z
		 M340.1,551.3c0,2,0.7,3,1.8,3s1.8-1,1.8-3s-0.7-3-1.8-3S340.1,549.3,340.1,551.3z"/>
</g>
<line class="st11" x1="357" y1="500.8" x2="351" y2="500.8"/>
<g class="st15">
	<path d="M315.5,498.3h-1.7v-0.6c1,0,1.6-0.2,2-1h0.6v7.2h-0.9L315.5,498.3L315.5,498.3z"/>
	<path d="M317.8,500.4c0-2.3,0.9-3.7,2.8-3.7c1.9,0,2.8,1.5,2.8,3.7c0,2.3-0.9,3.8-2.8,3.8C318.7,504.1,317.8,502.7,317.8,500.4z
		 M318.8,500.4c0,2,0.7,3,1.8,3s1.8-1,1.8-3s-0.7-3-1.8-3S318.8,498.4,318.8,500.4z"/>
	<path d="M325.3,502.9v1.2l-0.6,1.3h-0.6l0.5-1.4h-0.5v-1.1H325.3z"/>
	<path d="M325.9,500.4c0-2.3,0.9-3.7,2.8-3.7c1.9,0,2.8,1.5,2.8,3.7c0,2.3-0.9,3.8-2.8,3.8C326.8,504.1,325.9,502.7,325.9,500.4z
		 M326.9,500.4c0,2,0.7,3,1.8,3s1.8-1,1.8-3s-0.7-3-1.8-3C327.6,497.4,326.9,498.4,326.9,500.4z"/>
	<path d="M332.5,500.4c0-2.3,0.9-3.7,2.8-3.7c1.9,0,2.8,1.5,2.8,3.7c0,2.3-0.9,3.8-2.8,3.8C333.4,504.1,332.5,502.7,332.5,500.4z
		 M333.5,500.4c0,2,0.7,3,1.8,3s1.8-1,1.8-3s-0.7-3-1.8-3S333.5,498.4,333.5,500.4z"/>
	<path d="M339.1,500.4c0-2.3,0.9-3.7,2.8-3.7c1.9,0,2.8,1.5,2.8,3.7c0,2.3-0.9,3.8-2.8,3.8C340,504.1,339.1,502.7,339.1,500.4z
		 M340.1,500.4c0,2,0.7,3,1.8,3s1.8-1,1.8-3s-0.7-3-1.8-3S340.1,498.4,340.1,500.4z"/>
</g>
<line class="st11" x1="359" y1="449.9" x2="353" y2="449.9"/>
<g class="st15">
	<path d="M319.1,447.4h-1.7v-0.6c1,0,1.6-0.2,2-1h0.6v7.2h-0.9L319.1,447.4L319.1,447.4z"/>
	<path d="M323,447.4h-1.7v-0.6c1,0,1.6-0.2,2-1h0.6v7.2H323V447.4z"/>
	<path d="M326.7,451.9v1.2l-0.6,1.3h-0.6l0.5-1.4h-0.5v-1.1H326.7z"/>
	<path d="M327.3,449.5c0-2.3,0.9-3.7,2.8-3.7c1.9,0,2.8,1.5,2.8,3.7c0,2.3-0.9,3.8-2.8,3.8C328.2,453.2,327.3,451.8,327.3,449.5z
		 M328.3,449.5c0,2,0.7,3,1.8,3s1.8-1,1.8-3s-0.7-3-1.8-3S328.3,447.5,328.3,449.5z"/>
	<path d="M333.9,449.5c0-2.3,0.9-3.7,2.8-3.7c1.9,0,2.8,1.5,2.8,3.7c0,2.3-0.9,3.8-2.8,3.8C334.8,453.2,333.9,451.8,333.9,449.5z
		 M334.9,449.5c0,2,0.7,3,1.8,3s1.8-1,1.8-3s-0.7-3-1.8-3C335.6,446.5,334.9,447.5,334.9,449.5z"/>
	<path d="M340.5,449.5c0-2.3,0.9-3.7,2.8-3.7c1.9,0,2.8,1.5,2.8,3.7c0,2.3-0.9,3.8-2.8,3.8C341.4,453.2,340.5,451.8,340.5,449.5z
		 M341.5,449.5c0,2,0.7,3,1.8,3s1.8-1,1.8-3s-0.7-3-1.8-3S341.5,447.5,341.5,449.5z"/>
</g>
<path class="st16" d="M614,1009.9V507.8"/>
<path class="st16" d="M862,1009.9v-550"/>
<path class="st11" d="M365.5,1009.9h745"/>
<path class="st11" d="M366,1009.9v-560"/>
<g class="st15">
	<path class="st2" d="M708.3,1042v-6.8h1.5v17.6h-1.5v-2.1c-0.9,1.6-2.5,2.5-4.4,2.5c-3,0-5.5-2.5-5.5-6.8s2.5-6.8,5.5-6.8
		C705.8,1039.5,707.4,1040.4,708.3,1042z M700.1,1046.3c0,3.5,1.7,5.4,4.2,5.4c2,0,4.2-1.6,4.2-5.4s-2.2-5.4-4.2-5.4
		C701.8,1040.9,700.1,1042.8,700.1,1046.3z"/>
	<path class="st2" d="M717.3,1053.1c-3,0-4.3-1.8-4.3-5.1v-8.3h1.5v7.9c0,2.5,0.6,4.1,3.1,4.1c2.1,0,3.8-1.9,3.8-4.7v-7.4h1.5v13.1
		h-1.5v-2.1C720.9,1051.9,719.6,1053.1,717.3,1053.1z"/>
	<path class="st2" d="M731.8,1039.5c3.7,0,6,3.1,5.8,7.2h-10.4c0,3.2,2,5,4.7,5c2,0,3.5-1,4-2.8h1.6c-0.6,2.7-2.8,4.2-5.7,4.2
		c-3.8,0-6.2-2.7-6.2-6.8C725.7,1042.1,728.3,1039.5,731.8,1039.5z M736,1045.3c0-2.2-1.6-4.5-4.2-4.5c-2.4,0-4.2,1.6-4.5,4.5H736z"
		/>
	<path class="st2" d="M740.3,1052.8v-13.1h1.5v2.2c0.6-1.2,1.8-2.4,4.1-2.4c2.1,0,3.3,0.9,3.8,2.6c1-1.7,2.3-2.6,4.4-2.6
		c3,0,4.2,1.8,4.2,5.1v8.2h-1.5v-7.8c0-2.5-0.5-4.1-3-4.1c-2.1,0-3.7,1.9-3.7,4.7v7.3h-1.5v-7.8c0-2.5-0.5-4.1-3-4.1
		c-2.1,0-3.7,1.9-3.7,4.7v7.3h-1.6V1052.8z"/>
	<path class="st2" d="M763.1,1037.6h-1.5v-2.4h1.5V1037.6z M763.1,1052.8h-1.5v-13.1h1.5V1052.8z"/>
	<path class="st2" d="M766.7,1052.8v-17.6h1.5v17.6H766.7z"/>
	<path class="st2" d="M775.2,1053.1c-2.4,0-4.3-1.4-4.3-3.6c0-3,2.9-4.1,9.2-4.7v-0.5c0-3-1.8-3.6-3.6-3.6c-2.2,0-3.6,1.2-3.7,2.9
		h-1.6c0.3-2.6,2.4-4.3,5.4-4.3s5.1,1.3,5.1,5.2c0,1.8,0,3,0,4c0,1.5,0.1,2.8,0.1,4.2h-1.5l-0.1-2
		C779.3,1052.2,777.6,1053.1,775.2,1053.1z M780.2,1046.8v-0.6c-5.3,0.6-7.6,1.3-7.6,3.3c0,1.4,1.3,2.3,3,2.3
		C778,1051.8,780.2,1050.5,780.2,1046.8z"/>
</g>
<g class="st15">
	<path class="st2" d="M461.2,1042v-6.8h1.5v17.6h-1.5v-2.1c-0.9,1.6-2.5,2.5-4.4,2.5c-3,0-5.5-2.5-5.5-6.8s2.5-6.8,5.5-6.8
		C458.7,1039.5,460.3,1040.4,461.2,1042z M452.9,1046.3c0,3.5,1.7,5.4,4.2,5.4c2,0,4.2-1.6,4.2-5.4s-2.2-5.4-4.2-5.4
		C454.7,1040.9,452.9,1042.8,452.9,1046.3z"/>
	<path class="st2" d="M470.2,1053.1c-3,0-4.3-1.8-4.3-5.1v-8.3h1.5v7.9c0,2.5,0.6,4.1,3.1,4.1c2.1,0,3.8-1.9,3.8-4.7v-7.4h1.5v13.1
		h-1.5v-2.1C473.8,1051.9,472.5,1053.1,470.2,1053.1z"/>
	<path class="st2" d="M484.7,1039.5c3.7,0,6,3.1,5.8,7.2h-10.4c0,3.2,2,5,4.7,5c2,0,3.5-1,4-2.8h1.6c-0.6,2.7-2.8,4.2-5.7,4.2
		c-3.8,0-6.2-2.7-6.2-6.8C478.6,1042.1,481.2,1039.5,484.7,1039.5z M488.9,1045.3c0-2.2-1.6-4.5-4.2-4.5c-2.4,0-4.2,1.6-4.5,4.5
		H488.9z"/>
	<path class="st2" d="M493.2,1052.8v-13.1h1.5v2.2c0.6-1.2,1.8-2.4,4.1-2.4c2.1,0,3.3,0.9,3.8,2.6c1-1.7,2.3-2.6,4.4-2.6
		c3,0,4.2,1.8,4.2,5.1v8.2h-1.5v-7.8c0-2.5-0.5-4.1-3-4.1c-2.1,0-3.7,1.9-3.7,4.7v7.3h-1.5v-7.8c0-2.5-0.5-4.1-3-4.1
		c-2.1,0-3.7,1.9-3.7,4.7v7.3h-1.6V1052.8z"/>
	<path class="st2" d="M516,1037.6h-1.5v-2.4h1.5V1037.6z M516,1052.8h-1.5v-13.1h1.5V1052.8z"/>
	<path class="st2" d="M519.6,1052.8v-17.6h1.5v17.6H519.6z"/>
	<path class="st2" d="M528.1,1053.1c-2.4,0-4.3-1.4-4.3-3.6c0-3,2.9-4.1,9.2-4.7v-0.5c0-3-1.8-3.6-3.6-3.6c-2.2,0-3.6,1.2-3.7,2.9
		h-1.6c0.3-2.6,2.4-4.3,5.4-4.3s5.1,1.3,5.1,5.2c0,1.8,0,3,0,4c0,1.5,0.1,2.8,0.1,4.2h-1.5l-0.1-2
		C532.1,1052.2,530.5,1053.1,528.1,1053.1z M533,1046.8v-0.6c-5.3,0.6-7.6,1.3-7.6,3.3c0,1.4,1.3,2.3,3,2.3
		C530.8,1051.8,533,1050.5,533,1046.8z"/>
</g>
<g class="st15">
	<path class="st2" d="M959.7,1042v-6.8h1.5v17.6h-1.5v-2.1c-0.9,1.6-2.5,2.5-4.4,2.5c-3,0-5.5-2.5-5.5-6.8s2.5-6.8,5.5-6.8
		C957.2,1039.5,958.8,1040.4,959.7,1042z M951.4,1046.3c0,3.5,1.7,5.4,4.2,5.4c2,0,4.2-1.6,4.2-5.4s-2.2-5.4-4.2-5.4
		C953.1,1040.9,951.4,1042.8,951.4,1046.3z"/>
	<path class="st2" d="M968.7,1053.1c-3,0-4.3-1.8-4.3-5.1v-8.3h1.5v7.9c0,2.5,0.6,4.1,3.1,4.1c2.1,0,3.8-1.9,3.8-4.7v-7.4h1.5v13.1
		h-1.5v-2.1C972.3,1051.9,971,1053.1,968.7,1053.1z"/>
	<path class="st2" d="M983.2,1039.5c3.7,0,6,3.1,5.8,7.2h-10.4c0,3.2,2,5,4.7,5c2,0,3.5-1,4-2.8h1.6c-0.6,2.7-2.8,4.2-5.7,4.2
		c-3.8,0-6.2-2.7-6.2-6.8C977,1042.1,979.7,1039.5,983.2,1039.5z M987.3,1045.3c0-2.2-1.6-4.5-4.2-4.5c-2.4,0-4.2,1.6-4.5,4.5H987.3
		z"/>
	<path class="st2" d="M991.6,1052.8v-13.1h1.5v2.2c0.6-1.2,1.8-2.4,4.1-2.4c2.1,0,3.3,0.9,3.8,2.6c1-1.7,2.3-2.6,4.4-2.6
		c3,0,4.2,1.8,4.2,5.1v8.2h-1.5v-7.8c0-2.5-0.5-4.1-3-4.1c-2.1,0-3.7,1.9-3.7,4.7v7.3h-1.5v-7.8c0-2.5-0.5-4.1-3-4.1
		c-2.1,0-3.7,1.9-3.7,4.7v7.3h-1.6V1052.8z"/>
	<path class="st2" d="M1014.4,1037.6h-1.5v-2.4h1.5V1037.6z M1014.4,1052.8h-1.5v-13.1h1.5V1052.8z"/>
	<path class="st2" d="M1018.1,1052.8v-17.6h1.5v17.6H1018.1z"/>
	<path class="st2" d="M1026.5,1053.1c-2.4,0-4.3-1.4-4.3-3.6c0-3,2.9-4.1,9.2-4.7v-0.5c0-3-1.8-3.6-3.6-3.6c-2.2,0-3.6,1.2-3.7,2.9
		h-1.6c0.3-2.6,2.4-4.3,5.4-4.3s5.1,1.3,5.1,5.2c0,1.8,0,3,0,4c0,1.5,0.1,2.8,0.1,4.2h-1.5l-0.1-2
		C1030.6,1052.2,1029,1053.1,1026.5,1053.1z M1031.5,1046.8v-0.6c-5.3,0.6-7.6,1.3-7.6,3.3c0,1.4,1.3,2.3,3,2.3
		C1029.3,1051.8,1031.5,1050.5,1031.5,1046.8z"/>
</g>
<g>
	<text transform="matrix(1 0 0 1 510.4307 959.6714)" class="st17 st3 st18">55,9%</text>
</g>
<g class="st15">
	<text transform="matrix(1 0 0 1 388.2754 608.3604)" class="st3 st19">63,4%</text>
</g>
<g>
	<text transform="matrix(1 0 0 1 763.4062 952.7021)" class="st17 st3 st20">52,4%</text>
</g>
<g>
	<text transform="matrix(1 0 0 1 1010.8505 2128.5559)" class="st17 st3 st21">52,4%</text>
</g>
<g>
	<text transform="matrix(1 0 0 1 1007.5117 888.2676)" class="st3 st22">50,1%</text>
</g>
<text transform="matrix(6.123234e-17 -1 1 6.123234e-17 554.2837 826.3906)" class="st0 st3 st23">Emilia romagna</text>
<text transform="matrix(6.123234e-17 -1 1 6.123234e-17 800 799.5898)" class="st0 st3 st23">Emilia romagna</text>
<g>
	<text transform="matrix(6.123234e-17 -1 1 6.123234e-17 1047.8 819.5469)" class="st2 st3 st23">Emilia romagna</text>
</g>
<text transform="matrix(6.123234e-17 -1 1 6.123234e-17 428.7327 544.6855)" class="st2 st3 st23">Lazio</text>
<text transform="matrix(6.123234e-17 -1 1 6.123234e-17 684.6503 553.6855)" class="st2 st3 st23">Lazio</text>
<text transform="matrix(6.123234e-17 -1 1 6.123234e-17 929.8411 459.8906)" class="st3 st23">Lazio</text>
<line class="st11" x1="374.1" y1="2192.7" x2="374.1" y2="2198.7"/>
<line class="st11" x1="250.4" y1="2192.7" x2="250.4" y2="2198.7"/>
<line class="st11" x1="497" y1="2192.7" x2="497" y2="2198.7"/>
<g>
	<text transform="matrix(1 0 0 1 350.4873 2291.4829)" class="st3 st24">19</text>
</g>
<g>
	<text transform="matrix(1 0 0 1 230.1693 2291.4839)" class="st3 st24">18</text>
</g>
<g>
	<g>
		<g>
			<text transform="matrix(1 0 0 1 334.8564 1798.1973)" class="st3 st25">56,8%</text>
		</g>
	</g>
</g>
<g>
	<g>
		<g>
			<text transform="matrix(1 0 0 1 454.1133 1694.4287)" class="st3 st26">60,7%</text>
		</g>
	</g>
</g>
<g>
	<text transform="matrix(1 0 0 1 477.4307 2291.4839)" class="st3 st24">20</text>
</g>
<line class="st11" x1="179.4" y1="2186.2" x2="173.4" y2="2186.2"/>
<line class="st11" x1="179.4" y1="2135.3" x2="173.4" y2="2135.3"/>
<line class="st11" x1="179.4" y1="2084.4" x2="173.4" y2="2084.4"/>
<line class="st11" x1="179.4" y1="2033.5" x2="173.4" y2="2033.5"/>
<line class="st11" x1="179.4" y1="1982.6" x2="173.4" y2="1982.6"/>
<line class="st11" x1="179.4" y1="1931.7" x2="173.4" y2="1931.7"/>
<line class="st11" x1="179.4" y1="1880.8" x2="173.4" y2="1880.8"/>
<line class="st11" x1="179.4" y1="1829.9" x2="173.4" y2="1829.9"/>
<line class="st11" x1="179.4" y1="1779" x2="173.4" y2="1779"/>
<line class="st11" x1="179.4" y1="1728" x2="173.4" y2="1728"/>
<line class="st11" x1="179.4" y1="1677.1" x2="173.4" y2="1677.1"/>
<line class="st11" x1="181.4" y1="1626.2" x2="175.4" y2="1626.2"/>
<path class="st16" d="M436.4,2186.2v-502.1"/>
<path class="st16" d="M312.4,2186.2v-502.1"/>
<path class="st27" d="M187.9,2186.2h474"/>
<path class="st11" d="M188.4,2186.2v-560"/>
<g class="st15">
	<text transform="matrix(1 0 0 1 213.5825 1784.4199)" class="st3 st28">63,4%</text>
</g>
<line class="st11" x1="1042.4" y1="2192.7" x2="1042.4" y2="2198.7"/>
<line class="st11" x1="918.7" y1="2192.7" x2="918.7" y2="2198.7"/>
<line class="st11" x1="1165.4" y1="2192.7" x2="1165.4" y2="2198.7"/>
<line class="st11" x1="847.7" y1="2186.2" x2="841.7" y2="2186.2"/>
<line class="st11" x1="847.7" y1="2135.3" x2="841.7" y2="2135.3"/>
<line class="st11" x1="847.7" y1="2084.4" x2="841.7" y2="2084.4"/>
<line class="st11" x1="847.7" y1="2033.5" x2="841.7" y2="2033.5"/>
<line class="st11" x1="847.7" y1="1982.6" x2="841.7" y2="1982.6"/>
<line class="st11" x1="847.7" y1="1931.7" x2="841.7" y2="1931.7"/>
<line class="st11" x1="847.7" y1="1880.8" x2="841.7" y2="1880.8"/>
<line class="st11" x1="847.7" y1="1829.9" x2="841.7" y2="1829.9"/>
<line class="st11" x1="847.7" y1="1779" x2="841.7" y2="1779"/>
<line class="st11" x1="847.7" y1="1728" x2="841.7" y2="1728"/>
<line class="st11" x1="847.7" y1="1677.1" x2="841.7" y2="1677.1"/>
<line class="st11" x1="849.7" y1="1626.2" x2="843.7" y2="1626.2"/>
<path class="st16" d="M980.7,2186.2v-502.1"/>
<path class="st27" d="M856.2,2186.2h474"/>
<path class="st11" d="M856.7,2186.2v-560"/>
<path class="st16" d="M1101.7,2186.2v-550"/>
<path class="st16" d="M980.4,2186.2v-550"/>
<g>
	<text transform="matrix(1 0 0 1 888.5734 2135.2563)" class="st17 st3 st21">55,9%</text>
</g>
<g>
	<text transform="matrix(1 0 0 1 1135.28 2063.8562)" class="st3 st21">50,1%</text>
</g>
<path class="st10" d="M1233.7,850.4c-63.3,296-354.5,484.7-650.5,421.4S98.5,917.3,161.8,621.3c9.5-44.6,24.3-86.9,43.5-126.2"/>
<path class="st9" d="M202.1,503.3C309.2,280,558.4,150.5,811.3,204.6c296.3,63.4,485.2,354.8,421.8,651.1"/>
<text transform="matrix(1 0 0 1 151.01 2189.3555)" class="st3 st29">0</text>
<text transform="matrix(1 0 0 1 132.1599 2138.4465)" class="st3 st29">1,000</text>
<text transform="matrix(1 0 0 1 129.9402 2087.5374)" class="st3 st29">2,000</text>
<text transform="matrix(1 0 0 1 130.1697 2036.6284)" class="st3 st29">3,000</text>
<text transform="matrix(1 0 0 1 129.7 1985.7192)" class="st3 st29">4,000</text>
<text transform="matrix(1 0 0 1 129.97 1934.8101)" class="st3 st29">5,000</text>
<text transform="matrix(1 0 0 1 129.99 1883.9011)" class="st3 st29">6,000</text>
<text transform="matrix(1 0 0 1 132.2102 1832.9922)" class="st3 st29">7,000</text>
<text transform="matrix(1 0 0 1 129.8801 1782.083)" class="st3 st29">8,000</text>
<text transform="matrix(1 0 0 1 130.1902 1731.1738)" class="st3 st29">9,000</text>
<text transform="matrix(1 0 0 1 126.05 1680.2649)" class="st3 st29">10,000</text>
<text transform="matrix(1 0 0 1 129.7 1629.3555)" class="st3 st29">11,000</text>
<text transform="matrix(1 0 0 1 311.6484 2238.665)" class="st2 st30 st31">duemila</text>
<g>
	<text transform="matrix(1 0 0 1 1018.3864 2291.4829)" class="st3 st24">19</text>
</g>
<g>
	<text transform="matrix(1 0 0 1 898.0683 2291.4839)" class="st3 st24">18</text>
</g>
<g>
	<text transform="matrix(1 0 0 1 1145.3297 2291.4839)" class="st3 st24">20</text>
</g>
<text transform="matrix(1 0 0 1 979.5475 2238.665)" class="st2 st30 st31">duemila</text>
<text transform="matrix(6.123234e-17 -1 1 6.123234e-17 251.1064 1720.9512)" class="st2 st3 st23">Lazio</text>
<text transform="matrix(6.123234e-17 -1 1 6.123234e-17 382.824 1729.9512)" class="st2 st3 st23">Lazio</text>
<text transform="matrix(6.123234e-17 -1 1 6.123234e-17 503.1149 1636.1562)" class="st3 st23">Lazio</text>
<text transform="matrix(1 0 0 1 819.3827 2189.3555)" class="st3 st29">0</text>
<text transform="matrix(1 0 0 1 800.5326 2138.4465)" class="st3 st29">1,000</text>
<text transform="matrix(1 0 0 1 798.3129 2087.5374)" class="st3 st29">2,000</text>
<text transform="matrix(1 0 0 1 798.5424 2036.6284)" class="st3 st29">3,000</text>
<text transform="matrix(1 0 0 1 798.0726 1985.7192)" class="st3 st29">4,000</text>
<text transform="matrix(1 0 0 1 798.3427 1934.8101)" class="st3 st29">5,000</text>
<text transform="matrix(1 0 0 1 798.3627 1883.9011)" class="st3 st29">6,000</text>
<text transform="matrix(1 0 0 1 800.5829 1832.9922)" class="st3 st29">7,000</text>
<text transform="matrix(1 0 0 1 798.2528 1782.083)" class="st3 st29">8,000</text>
<text transform="matrix(1 0 0 1 798.5629 1731.1738)" class="st3 st29">9,000</text>
<text transform="matrix(1 0 0 1 794.4227 1680.2649)" class="st3 st29">10,000</text>
<text transform="matrix(1 0 0 1 798.0726 1629.3555)" class="st3 st29">11,000</text>
<text transform="matrix(1 0 0 1 503.2372 192.3754)" class="st32 st3 st33"> </text>
<text transform="matrix(6.123236e-17 -1 1 6.123236e-17 389.0806 554.9082)" class="st2 st30 st34">numero tesserini</text>
<text transform="matrix(6.123236e-17 -1 1 6.123236e-17 211.5 1732.0908)" class="st2 st30 st35">numero tesserini</text>
<text transform="matrix(6.123236e-17 -1 1 6.123236e-17 882.9999 1732.0908)" class="st2 st30 st35">numero tesserini</text>
<text transform="matrix(1 0 0 1 634.8335 2170.0107)" class="st2 st30 st36">anni</text>
<text transform="matrix(1 0 0 1 1296.3862 2170.0107)" class="st2 st30 st36">anni</text>
<text transform="matrix(1 0 0 1 1069.1348 1037.7184)" class="st2 st30 st37">anni</text>
<text transform="matrix(1 0 0 1 1254.2838 918.2699)" class="st2 st3 st33"> </text>
<text transform="matrix(1 0 0 1 1161.0101 1092.0953)" class="st2 st3 st33"> </text>
<path id="SVGID_x5F_1_x5F_" class="st38" d="M121,799.2C92.3,522.7,266.2,257.7,543,180.7c308.9-85.9,629,94.8,715,403.7
	c3.5,12.5,6.5,24.9,9.1,37.4"/>
<g>
	<path d="M156.6,511.9l-14.7-6.2l0.9-2.1l14.7,6.2L156.6,511.9z"/>
	<path d="M158.9,506.6l-14.6-6.3l0.8-1.8l14.6,6.4L158.9,506.6z"/>
	<path d="M155.8,487.5c1.3-2.7,4.2-3.7,7.1-2.4c2.7,1.3,4.1,4.3,2.6,7.4c-1.7,3.6-5,4.1-9.4,2c-4.1-1.9-7.3-5.2-5.4-9.4
		c1.3-2.8,3.7-3.3,5.7-2.8l-0.9,2c-1.4-0.4-2.7,0.3-3.4,1.7c-1,2.2,0.6,4.5,3.9,6.1C155.2,491.1,154.9,489.5,155.8,487.5z
		 M162.1,487.1c-2-0.9-4-0.3-4.9,1.6c-0.9,1.9,0,3.8,2,4.8c2,0.9,3.9,0.3,4.8-1.6C164.8,490,164.1,488,162.1,487.1z"/>
	<path d="M161.3,482c-4.5-2.2-6.5-5.4-4.7-9.2c1.9-3.8,5.6-4.1,10.1-1.9c4.5,2.2,6.6,5.4,4.7,9.2C169.6,483.9,165.8,484.2,161.3,482
		z M162.2,480.1c4,2,6.6,1.5,7.7-0.7s-0.1-4.6-4.1-6.6s-6.6-1.5-7.7,0.7C157,475.8,158.3,478.1,162.2,480.1z"/>
	<path d="M173.5,469.8l2.4,1.2l2,2.5l-0.6,1.1l-2.2-2.4l-0.5,1l-2.3-1.2L173.5,469.8z"/>
	<path d="M172,462l-0.2,0.3l-1.6-0.9l0.1-0.2c1.3-2.4,1.3-4.1-0.3-5c-1.5-0.8-3,0-3.7,1.5c-1,1.9-0.4,3.5,1.1,4.5l-1,1.8
		c-2.4-1.5-3.2-4.2-1.6-7.2c1.3-2.4,3.4-4,6-2.7c1.4,0.8,2.2,2.2,2,4c1.8-1.7,3.5-1.6,5-0.8c2.8,1.5,2.9,4.6,1.5,7.3
		c-1.8,3.3-4.6,3.7-7.1,2.7l1-1.8c1.8,0.7,3.6,0.3,4.6-1.6c1-1.9,0.7-3.7-1-4.6C174.8,458.3,173.2,459.7,172,462z"/>
	<path d="M179.6,445.9c1.7-1.4,3.5-1.1,4.8-0.4c2.6,1.5,2.9,4.5,1.3,7.4c-1.6,2.9-4.4,4.2-7,2.8c-1.3-0.7-2.5-2.1-2.2-4.3
		c-1.5,1-3.1,0.8-4.3,0.1c-2.1-1.2-2.6-3.8-0.9-6.6c1.6-2.8,4.1-3.8,6.2-2.7C178.6,442.8,179.7,444.1,179.6,445.9z M173.5,449.8
		c1.4,0.8,3.1,0.2,4.1-1.5s0.6-3.5-0.8-4.2c-1.4-0.8-2.9-0.1-3.9,1.6C171.8,447.4,172.1,449.1,173.5,449.8z M184.3,452.1
		c1.1-2,0.7-3.8-0.9-4.7c-1.6-0.9-3.5-0.3-4.6,1.7s-0.7,3.9,1,4.8C181.4,454.7,183.2,454.1,184.3,452.1z"/>
	<path d="M180,430.2c1.3-2.1,3.5-2.1,5.9-0.7c2.3,1.4,3.3,3.5,2.1,5.5s-3.5,2.1-5.8,0.6C179.7,434.2,178.7,432.2,180,430.2z
		 M181,430.8c-0.6,1.1,0.1,2.3,1.9,3.4c1.9,1.1,3.3,1.2,3.9,0.2c0.7-1.1,0-2.3-1.9-3.5C183.1,429.8,181.6,429.7,181,430.8z
		 M185.8,420.9l1.2-1.9l7.8,17.7l-1.2,1.9L185.8,420.9z M192.8,422.6c1.3-2.1,3.5-2.1,5.9-0.7s3.3,3.5,2.1,5.5s-3.5,2.1-5.8,0.6
		C192.6,426.6,191.6,424.6,192.8,422.6z M193.8,423.2c-0.6,1.1,0.1,2.3,1.9,3.4c1.9,1.1,3.3,1.2,3.9,0.2c0.7-1.1,0-2.3-1.9-3.5
		C195.9,422.2,194.5,422.1,193.8,423.2z"/>
	<path d="M198.9,400.8l13.3,8.9l-1.1,1.7l-1.5-1c0.6,1.3,0.6,2.8-0.4,4.4c-1.5,2.3-4.7,3-7.9,0.8s-3.8-5.4-2.3-7.6
		c1.1-1.6,2.4-2.2,3.9-2.1l-5-3.3L198.9,400.8z M202.4,413.7c2.3,1.6,4.4,1.4,5.6-0.3c1-1.5,0.8-3.6-1.8-5.3s-4.6-1.1-5.6,0.4
		C199.5,410.1,200.1,412.1,202.4,413.7z"/>
	<path d="M203.9,397.8l-1.1,1.6l-2-1.4l1.1-1.6L203.9,397.8z M215.1,405.5l-1.1,1.6l-9.7-6.7l1.1-1.6L215.1,405.5z"/>
	<path d="M209.3,387.9l2.4,1.7l1.3-1.8l1.3,0.9l-1.3,1.8l5.7,4.1c1,0.7,1.3,0.8,2-0.1l0.6-0.8l1.4,1l-0.8,1.2c-1.3,1.8-2,2-4,0.5
		l-5.9-4.2l-1.1,1.5l-1.3-0.9l1.1-1.5l-2.4-1.7L209.3,387.9z"/>
	<path d="M225.7,388.1c1.1-1.4,1-2.7,0.4-3.8l1.2-1.7c1.3,1.7,1.5,4.2-0.2,6.5c-2.2,3-5.6,3.1-8.4,1c-3-2.2-3.4-5.7-1.5-8.3
		c2.2-2.9,5.9-2.8,8.7-0.4l-5.4,7.3C222.6,390.3,224.7,389.6,225.7,388.1z M223.3,382.2c-1.4-1-3.5-1-4.7,0.7
		c-1.1,1.4-1.2,3.3,0.6,4.9L223.3,382.2z"/>
	<path d="M225.9,373.3c-0.7,0.9-1.2,2.2-0.3,2.9c0.7,0.6,1.5,0.3,2.4-0.4l1.3-1.1c1.7-1.4,3.5-2.4,5.3-1s1.6,3.9-0.1,6.1
		c-1.9,2.4-4.6,2.6-6.4,1.5l1.3-1.7c1.4,0.7,2.7,0.5,3.8-0.9c0.9-1.2,1.2-2.6,0.3-3.3s-2-0.2-3,0.7l-1.4,1.2c-1.2,1.1-2.9,2-4.7,0.6
		c-1.6-1.3-1.3-3.7,0.3-5.8c1.6-2,3.8-2.5,5.8-1.4l-1.3,1.6C227.8,371.7,226.7,372.2,225.9,373.3z"/>
	<path d="M233.1,364.2c-0.7,0.9-1.2,2.2-0.4,2.9c0.7,0.6,1.5,0.4,2.4-0.4l1.3-1.1c1.7-1.4,3.5-2.4,5.3-0.9s1.5,4-0.2,6.1
		c-2,2.4-4.6,2.5-6.4,1.4l1.3-1.6c1.4,0.7,2.7,0.5,3.8-0.8c1-1.2,1.2-2.6,0.4-3.2c-0.9-0.7-2-0.2-3,0.6l-1.4,1.1
		c-1.3,1-3,1.9-4.7,0.6c-1.6-1.3-1.2-3.7,0.4-5.8c1.6-2,3.8-2.4,5.8-1.3l-1.3,1.6C235.1,362.6,234,363.1,233.1,364.2z"/>
	<path d="M248,360.1c1.1-1.3,1.2-2.6,0.6-3.7l1.3-1.6c1.2,1.7,1.3,4.2-0.6,6.5c-2.4,2.9-5.8,2.7-8.5,0.5c-2.9-2.4-3.1-5.9-1-8.3
		c2.3-2.8,6.1-2.5,8.7,0.2l-5.9,7C244.7,362,246.8,361.5,248,360.1z M245.9,354c-1.3-1-3.4-1.2-4.8,0.4c-1.1,1.4-1.4,3.2,0.3,4.9
		L245.9,354z"/>
	<path d="M249.9,345.1c-1.2,1.4-1,2.8,0.9,4.5l4.7,4.1l-1.3,1.5l-8.9-7.8l1.3-1.5l1.6,1.4c-0.6-1.3-0.4-2.7,0.6-3.9
		c0.1-0.1,0.2-0.3,0.4-0.4l1.6,1.4C250.4,344.6,250.1,344.9,249.9,345.1z"/>
	<path d="M250.5,338.9l-1.3,1.5l-1.8-1.6l1.3-1.5L250.5,338.9z M260.6,347.9l-1.3,1.5l-8.8-7.9l1.3-1.5L260.6,347.9z"/>
	<path d="M257.8,333.1c1.9-2.1,4-1.6,6,0.2l5.5,5.1l-1.4,1.5l-5.1-4.7c-1.3-1.2-2.7-2.1-4.3-0.4c-1.3,1.4-1.1,3.2,0.7,4.9l4.7,4.4
		l-1.4,1.5l-8.7-8l1.4-1.5l1.3,1.2C256.3,336,256.4,334.6,257.8,333.1z"/>
	<path d="M262.9,325.5l-1.4,1.5l-1.8-1.7l1.4-1.5L262.9,325.5z M272.7,334.8l-1.4,1.5l-8.6-8.2l1.4-1.5L272.7,334.8z"/>
	<path d="M273.9,318.8c-0.8,0.8-1.5,2.1-0.7,2.8c0.7,0.7,1.4,0.5,2.4-0.1l1.4-1c1.8-1.2,3.7-2,5.4-0.4s1.1,4.1-0.8,6
		c-2.2,2.2-4.9,2-6.5,0.7l1.5-1.5c1.3,0.9,2.6,0.8,3.8-0.4c1.1-1.1,1.5-2.4,0.7-3.2s-2-0.4-3.1,0.3l-1.5,1c-1.4,0.9-3.1,1.6-4.7,0.1
		c-1.5-1.5-0.8-3.8,1-5.7c1.8-1.8,4-2,5.9-0.7l-1.5,1.5C276,317.4,274.9,317.8,273.9,318.8z"/>
	<path d="M278.1,308.3l2.1,2.1l1.6-1.6l1.1,1.2l-1.6,1.6l4.9,5c0.9,0.9,1.1,1,2,0.2l0.7-0.7l1.2,1.2l-1,1c-1.6,1.6-2.4,1.6-4.1-0.2
		l-5.1-5.2l-1.3,1.3l-1.1-1.2l1.3-1.3l-2.1-2.1L278.1,308.3z"/>
	<path d="M286.3,307.2c-0.3-1.4,0-2.9,1.4-4.2c2-1.9,5.2-1.8,7.9,1c2.7,2.9,2.5,6.1,0.5,8c-1.4,1.3-2.8,1.6-4.2,1.1l3.9,4.1
		l-1.5,1.4l-10.7-11.4l1.5-1.4L286.3,307.2z M294,305.5c-1.9-2.1-4-2.3-5.5-0.9c-1.3,1.2-1.6,3.3,0.5,5.6s4.3,2.1,5.6,0.9
		C296,309.7,295.9,307.6,294,305.5z"/>
	<path d="M302.1,292.8c-1.4,1.2-1.4,2.6,0.3,4.6l4.1,4.6l-1.5,1.3l-7.9-8.8l1.5-1.3l1.4,1.5c-0.5-1.4,0-2.8,1.1-3.8
		c0.1-0.1,0.3-0.2,0.5-0.4l1.4,1.6C302.7,292.4,302.4,292.6,302.1,292.8z"/>
	<path d="M303.6,286.6L302,288l-1.6-1.8l1.5-1.3L303.6,286.6z M312.5,296.8l-1.5,1.3l-7.8-8.9l1.5-1.3L312.5,296.8z"/>
	<path d="M314.8,294.8l-10.4-12.1l1.5-1.3l10.4,12.1L314.8,294.8z"/>
	<path d="M319.7,281.2l-0.2-0.2c-1.4-1.7-2.8-1.4-3.9-0.5c-1.3,1.1-1.4,2.4-0.6,3.5l-1.6,1.3c-1.5-2.1-0.7-4.6,1.1-6.1
		c2.5-2.1,4.6-1.8,6.7,0.7l1.7,2.1c1.2,1.5,2.2,2.5,3.1,3.2l-1.6,1.3c-0.3-0.3-0.7-0.6-1.2-1.2c0.2,1.4-0.3,2.7-1.9,4.1
		c-1.7,1.4-3.9,1.7-5.3,0C314.4,287.4,316.3,284.7,319.7,281.2z M317.8,288.1c0.7,0.9,1.9,0.9,3,0c1.4-1.2,2.3-3,0.5-5.1l-0.5-0.6
		C318.2,284.9,316.8,286.8,317.8,288.1z"/>
	<path d="M324.8,273.1c-0.9,0.7-1.7,1.9-1,2.7c0.6,0.7,1.4,0.7,2.4,0.1l1.5-0.8c1.9-1,3.9-1.6,5.4,0.2s0.6,4.2-1.5,5.9
		c-2.4,1.9-5.1,1.4-6.5,0l1.7-1.3c1.2,1,2.5,1.1,3.9,0c1.2-0.9,1.7-2.2,1.1-3.1c-0.7-0.9-1.9-0.6-3.1,0l-1.6,0.8
		c-1.5,0.7-3.3,1.3-4.7-0.5c-1.3-1.6-0.4-3.9,1.6-5.5s4.2-1.6,5.9,0l-1.6,1.3C327.1,272,325.9,272.2,324.8,273.1z"/>
	<path d="M338.5,265.5c-1.1-0.9-2.7-1-3.9,0c-1.4,1.1-1.9,3.2-0.1,5.5c1.8,2.4,4,2.5,5.4,1.5c1.3-1,1.6-2.6,1.1-3.8l1.6-1.3
		c1,2,0.5,4.8-1.7,6.5c-2.7,2.1-6,1.3-8.1-1.6c-2.1-2.8-2-6.2,0.8-8.4c2.3-1.7,5-1.1,6.5,0.3L338.5,265.5z"/>
	<path d="M340.4,257.1l-1.6,1.2l-1.4-1.9l1.6-1.2L340.4,257.1z M348.4,268l-1.6,1.2l-7.1-9.5l1.6-1.2L348.4,268z"/>
	<path d="M352.6,255.9l-0.2-0.2c-1.3-1.7-2.7-1.6-3.9-0.8c-1.3,1-1.6,2.3-0.8,3.5l-1.7,1.2c-1.3-2.2-0.3-4.7,1.5-6
		c2.6-1.9,4.8-1.5,6.7,1.2l1.6,2.2c1.1,1.6,2,2.7,2.9,3.4l-1.6,1.2c-0.3-0.3-0.6-0.7-1.1-1.2c0.1,1.4-0.5,2.7-2.2,3.9
		c-1.8,1.3-4,1.4-5.3-0.4C346.9,261.7,349,259.2,352.6,255.9z M350.3,262.6c0.7,0.9,1.8,1,2.9,0.2c1.5-1.1,2.5-2.8,0.8-5.1l-0.4-0.6
		C350.9,259.5,349.4,261.3,350.3,262.6z"/>
	<path d="M354.6,245.4l1.7,2.4l1.8-1.3l0.9,1.3l-1.8,1.3l4,5.8c0.7,1,1,1.2,1.9,0.6l0.8-0.6l1,1.4l-1.2,0.8c-1.9,1.3-2.6,1.2-4-0.8
		l-4.1-6l-1.5,1.1l-0.9-1.3l1.5-1.1l-1.7-2.4L354.6,245.4z"/>
	<path d="M361,242.5l-1.7,1.1l-1.4-2l1.7-1.1L361,242.5z M368.6,253.7l-1.7,1.1l-6.6-9.8l1.7-1.1L368.6,253.7z"/>
	<path d="M375.3,230.2l8.6,13.4l-1.7,1.1l-1-1.5c0.1,1.4-0.5,2.8-2.1,3.8c-2.3,1.5-5.5,0.9-7.6-2.4c-2.1-3.3-1.4-6.5,0.9-7.9
		c1.6-1,3.1-1,4.4-0.4l-3.2-5L375.3,230.2z M373.4,243.4c1.5,2.4,3.5,3,5.3,1.9c1.5-1,2.2-3,0.5-5.6s-3.8-2.8-5.3-1.9
		C372.2,238.9,371.9,241,373.4,243.4z"/>
	<path d="M389,232l-0.1-0.2c-1.1-1.8-2.5-1.8-3.8-1.1c-1.4,0.9-1.8,2.1-1.1,3.4l-1.8,1.1c-1.2-2.3,0-4.7,2-5.9
		c2.8-1.7,4.8-1.1,6.6,1.7l1.4,2.3c1,1.7,1.8,2.8,2.6,3.6L393,238c-0.3-0.3-0.6-0.7-1-1.3c0,1.4-0.7,2.7-2.4,3.7
		c-1.9,1.2-4.1,1.1-5.3-0.8C382.9,237.3,385.1,235,389,232z M386.2,238.5c0.6,1,1.7,1.1,2.9,0.4c1.6-1,2.7-2.6,1.2-5l-0.4-0.6
		C387.1,235.4,385.4,237.1,386.2,238.5z"/>
	<path d="M397,235.6l-8.1-13.7l1.7-1l8.1,13.7L397,235.6z"/>
	<path d="M401.5,233l-8-13.8l1.7-1l8,13.8L401.5,233z"/>
	<path d="M408.7,220.5l-0.1-0.2c-1.1-1.9-2.5-1.9-3.8-1.2c-1.4,0.8-1.8,2.1-1.2,3.4l-1.8,1c-1.1-2.3,0.2-4.7,2.2-5.8
		c2.8-1.6,4.9-1,6.5,2l1.3,2.4c1,1.7,1.7,2.9,2.5,3.7l-1.8,1c-0.3-0.4-0.6-0.7-0.9-1.3c0,1.4-0.8,2.6-2.6,3.7
		c-1.9,1.1-4.2,0.9-5.2-1C402.4,225.6,404.7,223.4,408.7,220.5z M405.6,226.9c0.5,1,1.7,1.2,2.9,0.5c1.6-0.9,2.8-2.5,1.4-5l-0.4-0.7
		C406.6,223.9,404.8,225.5,405.6,226.9z"/>
	<path d="M420.8,211.1c-1.6,0.9-2,2.2-0.8,4.5l2.9,5.5l-1.8,0.9l-5.5-10.5l1.7-0.9l1,1.8c-0.1-1.5,0.6-2.7,2-3.4
		c0.2-0.1,0.3-0.2,0.5-0.3l1,1.9C421.4,210.8,421,211,420.8,211.1z"/>
	<path d="M431.6,214.9c1.6-0.8,2.1-1.9,2-3.2l1.8-0.9c0.4,2.1-0.5,4.4-3.1,5.7c-3.3,1.7-6.4,0.2-8-2.9c-1.7-3.3-0.5-6.6,2.4-8.1
		c3.2-1.6,6.5,0.1,8,3.6l-8.1,4.1C427.8,215.5,430,215.7,431.6,214.9z M432.1,208.5c-0.8-1.5-2.7-2.4-4.6-1.4
		c-1.6,0.8-2.6,2.4-1.7,4.6L432.1,208.5z"/>
	<path d="M443.1,197.8l4.4,9.3c1,2.2,1.1,3.3,0.8,4.2c-0.3,1.3-1.4,2.4-3,3.2c-2.4,1.2-4.6,0.8-6-1.2l1.9-0.9
		c0.7,0.8,1.6,1.3,3.3,0.5c1-0.5,1.6-1.1,1.8-1.8c0.2-0.6,0.3-1.2-0.4-2.7l-0.5-1c-0.1,1.4-0.8,2.7-2.5,3.5
		c-2.4,1.1-5.4,0.3-7.1-3.2c-1.6-3.4-0.4-6.4,2-7.5c1.7-0.8,3.1-0.6,4.3,0.2l-0.8-1.7L443.1,197.8z M437.8,206.7
		c1.2,2.4,3.1,3.2,4.8,2.4c1.6-0.8,2.5-2.5,1.2-5.3c-1.3-2.7-3.2-3.1-4.8-2.3C437.3,202.3,436.7,204.2,437.8,206.7z"/>
	<path d="M447.2,194l-1.8,0.8l-1-2.2l1.8-0.8L447.2,194z M452.9,206.3l-1.8,0.8l-4.9-10.8l1.8-0.8L452.9,206.3z"/>
	<path d="M460.3,203.3c-2.5,1.1-5.9,0.6-7.7-3.3c-1.7-3.9,0.2-6.8,2.7-7.9s5.9-0.6,7.7,3.3C464.7,199.3,462.8,202.2,460.3,203.3z
		 M461.1,196.2c-1.3-2.9-3.4-3.3-5-2.6c-1.7,0.7-2.8,2.5-1.5,5.5c1.3,2.9,3.4,3.3,5,2.6S462.3,199,461.1,196.2z"/>
	<path d="M468.3,186.5c2.6-1.1,4.3,0.2,5.3,2.7l2.9,6.9l-1.8,0.8l-2.6-6.4c-0.7-1.7-1.6-3-3.7-2.2c-1.8,0.7-2.4,2.4-1.4,4.8l2.5,5.9
		l-1.8,0.8l-4.5-10.9l1.8-0.8l0.7,1.6C465.7,188.5,466.4,187.3,468.3,186.5z"/>
	<path d="M483.3,191.9c1.6-0.6,2.3-1.7,2.3-3l1.9-0.8c0.2,2.1-0.9,4.3-3.6,5.4c-3.5,1.4-6.4-0.4-7.7-3.7c-1.4-3.5,0.1-6.6,3.1-7.8
		c3.4-1.3,6.5,0.7,7.6,4.3l-8.5,3.3C479.5,192,481.7,192.5,483.3,191.9z M484.4,185.5c-0.6-1.5-2.4-2.6-4.4-1.9
		c-1.7,0.6-2.8,2.1-2.1,4.4L484.4,185.5z"/>
	<path d="M505.6,183.2l0.6,1.8l-10.1,3.6l-5.3-15l2.1-0.8l4.7,13.2L505.6,183.2z"/>
	<path d="M512.3,175.3l-0.1-0.3c-0.7-2-2.1-2.4-3.5-1.9c-1.6,0.5-2.2,1.7-1.8,3.1l-2,0.6c-0.6-2.5,1.1-4.5,3.3-5.3c3.1-1,5,0,6,3.2
		l0.8,2.6c0.6,1.9,1.1,3.1,1.7,4.1l-1.9,0.6c-0.2-0.4-0.4-0.8-0.7-1.5c-0.3,1.4-1.3,2.4-3.2,3.1c-2.1,0.7-4.3,0.1-4.9-2
		C505.1,179.1,507.9,177.4,512.3,175.3z M508.1,181.1c0.4,1.1,1.4,1.5,2.8,1.1c1.8-0.6,3.2-2,2.3-4.6l-0.2-0.7
		C509.6,178.3,507.6,179.5,508.1,181.1z"/>
	<path d="M522,169.3l-6.1,1.9l-0.5-1.7l8.3-2.6l0.5,1.7l-4,10l6.6-2.1l0.5,1.7l-8.9,2.7l-0.5-1.7L522,169.3z"/>
	<path d="M527.6,164.1l-1.9,0.6l-0.7-2.3l1.9-0.6L527.6,164.1z M531.4,177l-1.9,0.6l-3.3-11.4l1.9-0.6L531.4,177z"/>
	<path d="M539.2,175.1c-2.6,0.7-6-0.3-7.1-4.4s1.2-6.7,3.8-7.4c2.6-0.7,6,0.3,7.1,4.4S541.8,174.4,539.2,175.1z M541,168.3
		c-0.8-3-2.8-3.8-4.6-3.3c-1.7,0.5-3.1,2.1-2.2,5.2c0.8,3,2.8,3.8,4.6,3.3C540.5,173,541.8,171.2,541,168.3z"/>
	<path d="M550.8,156.5l0.7,2.9l2.2-0.5l0.4,1.6l-2.2,0.5l1.7,6.8c0.3,1.2,0.5,1.5,1.6,1.2l1-0.2l0.4,1.6l-1.4,0.4
		c-2.2,0.5-2.8,0.2-3.4-2.2l-1.8-7l-1.8,0.5l-0.4-1.6l1.8-0.5l-0.7-2.9L550.8,156.5z"/>
	<path d="M561.1,159.1c-1.8,0.4-2.5,1.6-1.9,4.2l1.4,6l-1.9,0.5l-2.7-11.5l1.9-0.4l0.5,2c0.3-1.4,1.3-2.4,2.8-2.8
		c0.2,0,0.4-0.1,0.6-0.1l0.5,2.1C561.8,159,561.5,159,561.1,159.1z"/>
	<path d="M571.5,159.4l-0.1-0.3c-0.5-2.1-1.8-2.6-3.2-2.2c-1.6,0.4-2.4,1.4-2.1,2.9l-2,0.4c-0.4-2.5,1.5-4.4,3.8-4.9
		c3.2-0.7,5,0.5,5.6,3.8l0.6,2.7c0.4,1.9,0.8,3.2,1.3,4.3l-2,0.4c-0.2-0.4-0.3-0.9-0.5-1.6c-0.5,1.3-1.5,2.3-3.5,2.7
		c-2.2,0.5-4.2-0.3-4.7-2.5C563.9,162.5,566.8,161,571.5,159.4z M566.7,164.7c0.2,1.1,1.2,1.6,2.6,1.3c1.8-0.4,3.4-1.6,2.8-4.3
		l-0.2-0.7C568.5,162.1,566.4,163.1,566.7,164.7z"/>
	<path d="M582.3,150.9l-2,0.4l-0.5-2.4l2-0.4L582.3,150.9z M584.9,164.1l-2,0.4l-2.2-11.6l2-0.4L584.9,164.1z"/>
	<path d="M588,163.5l-2.9-15.7l2-0.4l2.9,15.7L588,163.5z"/>
	<path d="M599.6,159.6l8.6-1.4l0.3,1.8l-11.3,1.8l-0.3-1.8c4.9-5,7.7-8.5,7.2-11.3c-0.3-1.6-1.5-2.6-3.4-2.3
		c-1.7,0.3-3.2,1.5-2.8,4.1l-2,0.3c-0.5-3.1,1.3-5.5,4.6-6.1c2.9-0.5,5.2,0.7,5.7,3.3C606.8,151.9,603.5,155.7,599.6,159.6z"/>
	<path d="M609.2,151.9c-0.7-5,0.8-8.4,5-9s6.6,2.3,7.3,7.3s-0.8,8.5-5,9C612.3,159.8,609.9,156.9,609.2,151.9z M611.3,151.6
		c0.6,4.4,2.4,6.3,4.9,6s3.7-2.7,3.1-7.1c-0.6-4.4-2.4-6.3-4.9-6S610.8,147.2,611.3,151.6z"/>
	<path d="M626.1,145.2l-3.7,0.4l-0.2-1.4c2.3-0.4,3.4-0.8,4.1-2.6l1.4-0.2l1.8,15.8l-2,0.2L626.1,145.2z"/>
	<path d="M640.7,147.7c2.1,0.6,2.9,2.3,3.1,3.7c0.3,3-2.1,5-5.3,5.3c-3.3,0.3-6-1.2-6.3-4.2c-0.1-1.4,0.3-3.2,2.3-4.2
		c-1.7-0.7-2.4-2.2-2.5-3.4c-0.2-2.3,1.6-4.2,4.9-4.6c3.2-0.3,5.5,1.2,5.7,3.5C642.7,145.1,642.2,146.6,640.7,147.7z M634,144.9
		c0.2,1.6,1.6,2.7,3.6,2.5s3.2-1.5,3-3.1s-1.6-2.5-3.5-2.3C635,142.1,633.8,143.3,634,144.9z M638.3,155c2.2-0.2,3.6-1.6,3.4-3.4
		c-0.2-1.9-1.8-3-4-2.8c-2.3,0.2-3.6,1.7-3.4,3.5C634.5,154.2,636.1,155.2,638.3,155z"/>
	<path d="M656.8,153.4c1.8-0.1,2.7-1,3.1-2.2l2.1-0.1c-0.4,2.1-2.2,3.9-5,4.1c-3.7,0.2-6-2.3-6.2-5.8c-0.2-3.7,2.1-6.3,5.3-6.5
		c3.6-0.2,6,2.6,6,6.4l-9.1,0.6C653.2,152.4,655.1,153.5,656.8,153.4z M659.8,147.7c-0.2-1.7-1.5-3.3-3.6-3.1
		c-1.8,0.1-3.3,1.2-3.3,3.6L659.8,147.7z"/>
	<path d="M671.2,140.6l-2,0.1l-0.1-2.4l2-0.1L671.2,140.6z M671.8,154.1l-2,0.1l-0.5-11.8l2-0.1L671.8,154.1z"/>
	<path d="M675,154l-0.5-15.9l2-0.1l0.5,15.9L675,154z"/>
	<path d="M687,151.8l8.8-0.1v1.9l-11.5,0.2V152c5.6-4.2,8.8-7.3,8.8-10.1c0-1.7-1.1-2.8-3-2.7c-1.7,0-3.4,1-3.4,3.6h-2.1
		c-0.1-3.2,2.1-5.3,5.5-5.3c2.9,0,5.1,1.4,5.1,4.1C695.3,145.2,691.5,148.6,687,151.8z"/>
	<path d="M697.7,145.6c0.1-5,2.1-8.2,6.3-8.2c4.2,0.1,6.2,3.3,6.1,8.4s-2.1,8.2-6.3,8.2C699.6,153.9,697.6,150.7,697.7,145.6z
		 M699.9,145.6c-0.1,4.4,1.5,6.6,4,6.7s4.1-2.1,4.2-6.5s-1.5-6.6-4-6.6C701.5,139.1,699.9,141.2,699.9,145.6z"/>
	<path d="M714.5,152.1l8.8,0.3l-0.1,1.9l-11.5-0.4l0.1-1.8c5.8-3.9,9.2-6.8,9.3-9.7c0.1-1.6-1-2.8-2.9-2.9c-1.7-0.1-3.4,0.8-3.6,3.5
		l-2.1-0.1c0.1-3.2,2.3-5.2,5.7-5.1c2.9,0.1,5,1.7,4.9,4.4C723,145.9,719.1,149,714.5,152.1z"/>
	<path d="M725.4,146.4c0.3-5,2.4-8.1,6.7-7.9c4.2,0.3,6,3.6,5.7,8.6c-0.3,5.1-2.4,8.1-6.7,7.9C726.9,154.7,725.1,151.4,725.4,146.4z
		 M727.5,146.5c-0.3,4.4,1.2,6.7,3.7,6.8c2.5,0.1,4.2-1.9,4.5-6.3s-1.2-6.7-3.7-6.8C729.5,140,727.8,142.1,727.5,146.5z"/>
	<path d="M750.2,154.7c1.8,0.2,2.8-0.5,3.4-1.7l2.1,0.2c-0.7,2-2.8,3.5-5.6,3.2c-3.7-0.3-5.5-3.2-5.2-6.7c0.3-3.7,3.1-5.9,6.3-5.6
		c3.6,0.3,5.5,3.6,4.9,7.3l-9.1-0.8C746.7,153.1,748.4,154.5,750.2,154.7z M754,149.5c0.1-1.7-1-3.4-3.1-3.6c-1.8-0.2-3.5,0.7-3.9,3
		L754,149.5z M750.1,140.1l1.8,2.7l-1.7-0.2l-2.6-2.8L750.1,140.1z"/>
	<path d="M768.1,147.7c-1.2-0.1-2.5,0.1-2.6,1.2c-0.1,0.9,0.5,1.5,1.6,1.8l1.6,0.5c2.1,0.7,3.9,1.7,3.6,4s-2.5,3.4-5.2,3.1
		c-3.1-0.4-4.6-2.6-4.5-4.7l2.1,0.3c0.1,1.5,1,2.6,2.7,2.8c1.5,0.2,2.8-0.3,2.9-1.4c0.1-1.2-0.9-1.8-2.1-2.2l-1.7-0.6
		c-1.6-0.5-3.2-1.5-2.9-3.7c0.3-2.1,2.5-3,5.1-2.7c2.5,0.3,4.1,1.9,4.2,4.2l-2.1-0.3C770.5,148.5,769.4,147.8,768.1,147.7z"/>
	<path d="M778.8,144.6l-0.4,2.9l2.2,0.3l-0.2,1.6l-2.2-0.3l-1,7c-0.2,1.2-0.1,1.5,1,1.7l1,0.1l-0.2,1.7l-1.4-0.2
		c-2.2-0.3-2.7-0.9-2.4-3.3l1-7.2l-1.9-0.3l0.2-1.6l1.9,0.3l0.4-2.9L778.8,144.6z"/>
	<path d="M789.6,153.8v-0.3c0.3-2.1-0.8-3-2.2-3.3c-1.6-0.3-2.7,0.5-3,1.9l-2-0.3c0.6-2.5,3-3.6,5.3-3.2c3.2,0.5,4.4,2.3,3.9,5.5
		l-0.4,2.7c-0.3,2-0.4,3.3-0.4,4.5l-2-0.3c0-0.4,0-0.9,0.1-1.6c-0.9,1.1-2.2,1.6-4.3,1.3c-2.2-0.3-3.8-1.8-3.5-4
		C781.5,153.9,784.7,153.6,789.6,153.8z M783.3,156.9c-0.2,1.1,0.6,2,2,2.2c1.8,0.3,3.7-0.3,4.2-3.1l0.1-0.7
		C785.9,155.2,783.5,155.3,783.3,156.9z"/>
	<path d="M798.4,147.6l-0.5,2.9l2.2,0.4l-0.3,1.6l-2.2-0.4l-1.2,6.9c-0.2,1.2-0.2,1.5,1,1.7l1,0.2l-0.3,1.6l-1.4-0.2
		c-2.2-0.4-2.7-1-2.3-3.4l1.2-7.2l-1.8-0.3l0.3-1.6l1.8,0.3l0.5-2.9L798.4,147.6z"/>
	<path d="M805,164.1c-2.7-0.5-5.2-2.9-4.4-7.1c0.8-4.2,4-5.5,6.7-5s5.2,2.9,4.4,7.1C810.9,163.3,807.7,164.6,805,164.1z
		 M809.6,158.7c0.6-3.1-0.9-4.6-2.7-5c-1.8-0.3-3.7,0.5-4.3,3.7c-0.6,3.1,0.9,4.6,2.7,5C807.1,162.7,809.1,161.7,809.6,158.7z"/>
	<path d="M826.7,160.9l0.1-0.3c0.5-2.1-0.6-3.1-2-3.4c-1.6-0.4-2.8,0.3-3.2,1.7l-2-0.4c0.7-2.4,3.2-3.4,5.5-2.9
		c3.2,0.7,4.3,2.5,3.5,5.8l-0.6,2.7c-0.4,1.9-0.6,3.3-0.7,4.4l-2-0.4c0-0.4,0.1-0.9,0.2-1.6c-1,1-2.3,1.4-4.4,1
		c-2.2-0.5-3.7-2.1-3.2-4.2C818.6,160.5,821.8,160.4,826.7,160.9z M820.2,163.7c-0.2,1.1,0.4,2,1.8,2.3c1.8,0.4,3.8-0.1,4.4-2.8
		l0.2-0.7C822.9,162.1,820.5,162.1,820.2,163.7z"/>
	<path d="M836.2,160c-1.1-0.3-2.5-0.2-2.8,0.9c-0.2,0.9,0.3,1.5,1.4,2l1.5,0.7c2,0.9,3.6,2.2,3.1,4.4c-0.5,2.3-2.9,3.1-5.5,2.4
		c-3-0.7-4.2-3.1-4-5.2l2.1,0.5c-0.1,1.5,0.6,2.6,2.4,3.1c1.5,0.4,2.8,0,3.1-1.1c0.3-1.2-0.7-1.9-1.9-2.5l-1.6-0.8
		c-1.5-0.7-3-1.8-2.5-4c0.5-2,2.8-2.7,5.4-2.1c2.5,0.6,3.8,2.4,3.7,4.7l-2-0.5C838.5,161.1,837.6,160.3,836.2,160z"/>
	<path d="M847.5,162.8c-1.1-0.3-2.5-0.2-2.8,0.8c-0.2,0.9,0.3,1.5,1.3,2l1.5,0.7c2,1,3.6,2.2,3,4.4c-0.6,2.3-3,3-5.6,2.3
		c-3-0.8-4.2-3.2-3.9-5.3l2,0.5c-0.1,1.5,0.6,2.7,2.3,3.1c1.5,0.4,2.8,0.1,3.1-1c0.3-1.1-0.7-1.9-1.8-2.5L845,167
		c-1.5-0.7-3-1.9-2.4-4c0.5-2,2.9-2.7,5.4-2c2.5,0.6,3.8,2.5,3.6,4.7l-2-0.5C849.8,164,848.9,163.2,847.5,162.8z"/>
	<path d="M857.4,174.7c1.7,0.5,2.8,0,3.6-1l2,0.6c-1.1,1.8-3.3,2.9-6.1,2.1c-3.6-1-4.8-4.2-3.9-7.5c1-3.6,4.1-5.2,7.2-4.3
		c3.5,1,4.7,4.5,3.4,8l-8.8-2.5C854.3,172.6,855.7,174.3,857.4,174.7z M862.1,170.4c0.4-1.6-0.3-3.6-2.4-4.2c-1.7-0.5-3.5,0-4.3,2.2
		L862.1,170.4z"/>
	<path d="M877.5,170l-3,9.8c-0.7,2.3-1.4,3.1-2.3,3.6c-1.1,0.7-2.7,0.8-4.4,0.3c-2.6-0.8-3.9-2.5-3.6-4.9l2,0.6
		c-0.1,1.1,0.3,2.1,2.1,2.6c1,0.3,1.9,0.3,2.6-0.1c0.6-0.3,1-0.7,1.5-2.3l0.3-1.1c-1.1,1-2.4,1.4-4.2,0.8c-2.5-0.8-4.2-3.5-3-7.1
		c1.1-3.6,4-4.9,6.5-4.2c1.8,0.6,2.7,1.7,3,3.1l0.6-1.8L877.5,170z M867.5,172.9c-0.8,2.6,0.1,4.4,1.9,5c1.7,0.5,3.6-0.2,4.4-3
		c0.9-2.9-0.2-4.5-1.9-5C870.1,169.3,868.3,170.3,867.5,172.9z"/>
	<path d="M886.2,172.7c2.7,0.9,3.1,3,2.2,5.6l-2.4,7.1l-1.9-0.6l2.2-6.5c0.6-1.7,0.8-3.3-1.4-4.1c-1.8-0.6-3.4,0.3-4.2,2.7l-2,6.1
		l-1.9-0.6l3.8-11.2l1.9,0.6l-0.6,1.7C883,172.5,884.3,172,886.2,172.7z"/>
	<path d="M898.2,181.9l0.1-0.3c0.7-2-0.2-3.1-1.6-3.6c-1.6-0.6-2.8,0-3.3,1.3l-1.9-0.7c1-2.3,3.6-2.9,5.8-2.1
		c3.1,1.1,3.9,3.1,2.8,6.2l-0.9,2.6c-0.7,1.9-1,3.2-1.2,4.3l-1.9-0.7c0.1-0.4,0.2-0.9,0.4-1.6c-1.1,0.9-2.5,1.1-4.5,0.4
		c-2.1-0.8-3.4-2.5-2.7-4.6C890.2,180.5,893.4,180.8,898.2,181.9z M891.4,183.8c-0.4,1.1,0.2,2,1.5,2.5c1.8,0.6,3.7,0.4,4.7-2.2
		l0.3-0.7C894.3,182.6,891.9,182.3,891.4,183.8z"/>
	<path d="M908,177.5l-1,2.8l2.1,0.8l-0.6,1.5l-2.1-0.8l-2.5,6.6c-0.4,1.2-0.5,1.5,0.6,1.9l0.9,0.4l-0.6,1.6l-1.4-0.5
		c-2.1-0.8-2.4-1.5-1.6-3.8l2.6-6.8l-1.8-0.7l0.6-1.5l1.7,0.7l1-2.8L908,177.5z"/>
	<path d="M911.3,195c-2.6-1-4.6-3.8-3-7.8s5-4.6,7.5-3.6c2.6,1,4.6,3.8,3,7.8S913.9,196,911.3,195z M916.9,190.6
		c1.2-2.9,0-4.7-1.7-5.4c-1.7-0.7-3.7-0.2-4.9,2.8c-1.2,2.9,0,4.7,1.7,5.4C913.7,194,915.8,193.4,916.9,190.6z"/>
	<path d="M933.2,195.9l0.1-0.3c0.9-2,0-3.1-1.3-3.7c-1.5-0.7-2.8-0.2-3.4,1.1l-1.9-0.8c1.2-2.3,3.8-2.7,5.9-1.8
		c3,1.3,3.7,3.3,2.4,6.4l-1.1,2.5c-0.8,1.8-1.2,3.1-1.5,4.2l-1.9-0.8c0.1-0.4,0.2-0.9,0.5-1.6c-1.1,0.8-2.6,1-4.5,0.1
		c-2-0.9-3.2-2.7-2.4-4.7C925.4,194,928.6,194.5,933.2,195.9z M926.3,197.4c-0.4,1,0,2.1,1.4,2.6c1.7,0.7,3.7,0.7,4.8-1.9l0.3-0.7
		C929.3,196.4,926.9,195.9,926.3,197.4z"/>
	<path d="M948,199.9c-1.7-0.8-3-0.2-4,2.1l-2.6,5.6l-1.8-0.8l5-10.7l1.8,0.8l-0.9,1.9c1.1-1,2.5-1.1,3.9-0.5
		c0.2,0.1,0.3,0.2,0.5,0.3l-0.9,1.9C948.6,200.2,948.3,200,948,199.9z"/>
	<path d="M948.4,210.9l-1.8-0.9l5.1-10.7l1.8,0.9L948.4,210.9z M954.2,198.7l-1.8-0.9l1-2.2l1.8,0.9L954.2,198.7z"/>
	<path d="M961.7,208.7c0.4-1.4-0.3-2.8-1.7-3.5c-1.6-0.8-3.7-0.3-5,2.4s-0.5,4.7,1.1,5.5c1.5,0.7,3.1,0.3,3.9-0.7l1.9,0.9
		c-1.3,1.8-4.1,2.6-6.6,1.4c-3-1.5-3.8-4.8-2.2-8c1.6-3.2,4.7-4.5,7.9-3c2.6,1.3,3.2,4,2.6,5.9L961.7,208.7z"/>
	<path d="M972.8,209.7c2.5,1.3,2.6,3.4,1.3,5.8l-3.5,6.6l-1.8-0.9l3.2-6.1c0.8-1.6,1.3-3.2-0.7-4.2c-1.7-0.9-3.4-0.3-4.6,2l-3,5.7
		l-1.8-0.9l7.4-14.1l1.8,0.9l-2.7,5.2C969.7,209.1,971.1,208.8,972.8,209.7z"/>
	<path d="M975,224.6l-1.8-1l5.6-10.4l1.8,1L975,224.6z M981.5,212.7l-1.8-1l1.2-2.1l1.8,1L981.5,212.7z"/>
	<path d="M982.8,227.2c1.5,0.9,2.8,0.6,3.8-0.1l1.8,1c-1.5,1.5-3.9,2.1-6.4,0.6c-3.3-1.8-3.7-5.2-2-8.2c1.8-3.3,5.2-4.1,8-2.5
		c3.1,1.8,3.6,5.5,1.5,8.6l-7.9-4.5C980.3,224.4,981.3,226.3,982.8,227.2z M988.5,224.1c0.8-1.5,0.5-3.5-1.3-4.6
		c-1.6-0.9-3.4-0.8-4.7,1.2L988.5,224.1z"/>
	<path d="M1005.8,223.8l-8.1,13.7l-1.7-1l0.9-1.5c-1.3,0.7-2.8,0.8-4.4-0.2c-2.3-1.4-3.2-4.5-1.2-7.9c2-3.3,5.2-4.1,7.5-2.7
		c1.6,1,2.3,2.3,2.3,3.8l3.1-5.1L1005.8,223.8z M993.1,228c-1.4,2.4-1.1,4.5,0.6,5.5c1.5,0.9,3.6,0.6,5.2-2.1
		c1.6-2.7,0.8-4.7-0.7-5.6C996.5,224.9,994.5,225.6,993.1,228z"/>
	<path d="M1005.3,240.5c1.5,0.9,2.7,0.8,3.8,0l1.8,1.1c-1.5,1.4-4,1.9-6.5,0.4c-3.2-2-3.5-5.3-1.7-8.3c2-3.2,5.4-3.9,8.1-2.2
		c3.1,1.9,3.3,5.6,1.1,8.7l-7.7-4.8C1002.9,237.6,1003.8,239.6,1005.3,240.5z M1011,237.6c0.8-1.4,0.7-3.5-1.1-4.6
		c-1.5-0.9-3.4-1-4.8,1L1011,237.6z"/>
	<path d="M1022.5,239c2.4,1.6,2.2,3.7,0.8,5.9l-4.1,6.3l-1.7-1.1l3.8-5.8c1-1.5,1.6-3-0.3-4.3c-1.6-1.1-3.3-0.6-4.7,1.5l-3.5,5.4
		l-1.7-1.1l6.5-9.9l1.7,1.1l-1,1.5C1019.4,238,1020.8,237.9,1022.5,239z"/>
	<path d="M1032,242l-1.7,2.5l1.9,1.3l-0.9,1.3l-1.9-1.3l-3.9,5.8c-0.7,1-0.8,1.3,0.2,2l0.8,0.6l-0.9,1.4l-1.2-0.8
		c-1.9-1.3-2-2-0.6-4l4.1-6l-1.5-1l0.9-1.3l1.5,1l1.7-2.5L1032,242z"/>
	<path d="M1029.3,258.1l-1.6-1.1l6.7-9.7l1.6,1.1L1029.3,258.1z M1037,247l-1.6-1.1l1.4-2l1.6,1.1L1037,247z"/>
	<path d="M1053.7,256l-9.4,12.9l-1.6-1.2l1.1-1.4c-1.3,0.6-2.8,0.5-4.3-0.6c-2.2-1.6-2.8-4.8-0.4-8c2.3-3.1,5.5-3.6,7.7-2
		c1.5,1.1,2.1,2.5,1.9,4l3.5-4.8L1053.7,256z M1040.6,258.9c-1.7,2.3-1.5,4.4,0.1,5.6c1.4,1.1,3.6,1,5.4-1.5s1.3-4.6-0.2-5.6
		C1044.4,256.1,1042.3,256.7,1040.6,258.9z"/>
	<path d="M1066,270.6l-6.3,8.1c-1.5,1.9-2.4,2.4-3.4,2.6c-1.3,0.3-2.8-0.2-4.2-1.3c-2.1-1.6-2.8-3.7-1.6-5.9l1.7,1.3
		c-0.4,1-0.4,2,1,3.2c0.9,0.7,1.7,0.9,2.4,0.8c0.6-0.1,1.2-0.3,2.2-1.6l0.7-0.9c-1.3,0.5-2.7,0.5-4.2-0.7c-2.1-1.6-2.7-4.7-0.3-7.7
		c2.3-3,5.5-3.2,7.6-1.6c1.5,1.2,1.9,2.5,1.7,3.9l1.1-1.5L1066,270.6z M1055.7,269.8c-1.7,2.1-1.5,4.2,0,5.4
		c1.4,1.1,3.4,1.1,5.2-1.3c1.8-2.4,1.4-4.3-0.1-5.4C1059.3,267.4,1057.3,267.7,1055.7,269.8z"/>
	<path d="M1065.9,283.9c1.4,1.1,2.6,1.1,3.7,0.5l1.6,1.3c-1.7,1.2-4.2,1.4-6.5-0.5c-2.9-2.4-2.8-5.7-0.6-8.5
		c2.4-2.9,5.8-3.2,8.3-1.1c2.8,2.3,2.6,6,0,8.7l-7.1-5.8C1063.9,280.7,1064.6,282.8,1065.9,283.9z M1072,281.7
		c1-1.3,1.1-3.4-0.5-4.7c-1.4-1.1-3.2-1.4-4.9,0.3L1072,281.7z"/>
	<path d="M1083.2,284.6c2.2,1.9,1.8,3.9,0,6l-4.9,5.7l-1.5-1.3l4.5-5.2c1.2-1.4,2-2.8,0.2-4.3c-1.5-1.3-3.2-1-4.9,0.9l-4.2,4.9
		l-1.5-1.3l7.7-9l1.5,1.3l-1.2,1.4C1080.2,283.2,1081.7,283.3,1083.2,284.6z"/>
	<path d="M1085.2,300.4c1.3,1.2,2.6,1.2,3.7,0.7l1.5,1.4c-1.8,1.2-4.3,1.2-6.4-0.7c-2.8-2.5-2.6-5.9-0.2-8.5c2.5-2.8,6-2.9,8.4-0.8
		c2.7,2.4,2.3,6.1-0.4,8.7l-6.8-6.1C1083.4,297.1,1083.9,299.2,1085.2,300.4z M1091.4,298.5c1.1-1.3,1.3-3.4-0.3-4.8
		c-1.3-1.2-3.2-1.5-4.9,0.1L1091.4,298.5z"/>
	<path d="M1100.2,302.6c-1.4-1.3-2.7-1.1-4.5,0.8l-4.2,4.6l-1.5-1.4l8-8.7l1.4,1.3l-1.4,1.5c1.3-0.6,2.7-0.3,3.9,0.7
		c0.1,0.1,0.3,0.3,0.4,0.4l-1.4,1.6C1100.6,303.1,1100.4,302.9,1100.2,302.6z"/>
	<path d="M1100.2,314.1c1.3,1.2,2.5,1.3,3.7,0.8l1.5,1.4c-1.8,1.1-4.3,1-6.4-1c-2.7-2.6-2.3-5.9,0.1-8.5c2.6-2.7,6-2.7,8.4-0.5
		c2.6,2.5,2.1,6.2-0.7,8.7l-6.6-6.3C1098.4,310.8,1098.9,312.9,1100.2,314.1z M1106.4,312.4c1.1-1.2,1.4-3.3-0.2-4.8
		c-1.3-1.2-3.1-1.6-4.9,0L1106.4,312.4z"/>
	<path class="st2" d="M1119.8,327l-4.4,4.3l-2.1-2.2l4.9-4.8c0.9-0.9,1.9-2,0.7-3.3c-1.4-1.4-2.9-0.5-4.1,0.8l-4.4,4.3l-2.1-2.2
		l8.5-8.3l2.1,2.2l-1.1,1.1c1.3-0.3,2.6,0.1,3.6,1.1c1.4,1.4,1.3,2.8,1,3.8c1.6-0.3,2.9,0.2,4.1,1.4c2.1,2.1,1.5,4.2-0.5,6.1
		l-5.3,5.2l-2.1-2.2l4.9-4.8c0.9-0.9,1.9-2,0.7-3.3C1122.6,324.8,1121.1,325.8,1119.8,327z"/>
	<path class="st2" d="M1124.2,335.9c2.1-1.9,4.8-0.1,8.3,2.9l0.1-0.1c1.3-1.2,1.1-2.4,0.3-3.3c-0.8-0.9-1.9-1.2-2.9-0.3l-1.9-2.1
		c1.9-1.4,4.4-1.2,6.5,1.1c1.9,2.1,2.6,4.6-0.4,7.3c-0.3,0.3-1.5,1.3-2.2,2c-1.4,1.3-2.1,2.1-2.6,2.9l-1.9-2.1
		c0.2-0.3,0.6-0.7,1-1.1c-1.5,0.2-2.7-0.3-3.9-1.7C1123,339.7,1122.6,337.3,1124.2,335.9z M1126.4,338c-0.6,0.6-0.7,1.6,0.2,2.6
		c1.3,1.4,2.6,1.3,3.9,0.1l0.6-0.6C1128.6,337.9,1127.4,337.1,1126.4,338z"/>
	<path class="st2" d="M1141,344.3c-0.7-0.8-1.6-1.2-2.1-0.7c-0.5,0.4-0.5,1.1,0,2.1l0.8,1.4c1.2,2.1,2,4,0.2,5.6s-4.5,0.7-6.3-1.3
		c-1.9-2.2-2.3-4.8-0.4-6.8l1.9,2.2c-0.7,0.9-0.8,2.1,0.2,3.2c0.9,1,1.8,1.3,2.4,0.7c0.7-0.6,0.3-1.5-0.2-2.4l-0.9-1.6
		c-1.1-2-1.4-3.7,0.2-5.1c1.6-1.4,4.2-0.6,5.8,1.3c1.6,1.8,2.3,4.4,0.6,6.5l-1.9-2.1C1142,346.5,1141.9,345.3,1141,344.3z"/>
	<path class="st2" d="M1149.4,357.3c0.7-0.9,0.6-2.3-0.1-3.1c-1-1.2-2.9-1.3-4.7,0.3c-1.9,1.6-2.2,3.4-1.1,4.7
		c0.7,0.8,1.8,1.3,3.1,0.7l1.9,2.2c-2.9,1.6-5.3,0.4-6.9-1.5c-2.3-2.7-1.8-6.1,1-8.4c2.8-2.3,6.3-2.2,8.6,0.5
		c1.6,1.9,2.2,4.7,0.2,6.9L1149.4,357.3z"/>
	<path class="st2" d="M1160,363.4c1.8,2.2,1.2,4.3-1,6.1l-5.8,4.7l-1.9-2.4l5.3-4.3c1.2-1,2-2.1,0.9-3.4c-1.3-1.6-2.8-0.9-4.3,0.3
		l-4.8,3.9l-1.9-2.4l12.4-10.1l1.9,2.4l-4.4,3.6C1157.8,361.7,1159.1,362.3,1160,363.4z"/>
	<path class="st2" d="M1156.6,378.6l-1.9-2.4l9.3-7.3l1.9,2.4L1156.6,378.6z M1166.9,370.5l-1.9-2.4l2.2-1.7l1.9,2.4L1166.9,370.5z"
		/>
	<path class="st2" d="M1158.2,380.7l12.6-9.7l1.9,2.4l-12.6,9.7L1158.2,380.7z"/>
	<path class="st2" d="M1166.5,388.2c0.6,0.7,1.4,1.3,2.6,1.2l1.9,2.5c-1.8,0.5-4.4,0.3-6.3-2.3c-2.3-3.1-1.3-6.5,1.4-8.6
		c2.8-2.1,6.4-1.7,8.5,1.1c2.2,2.9,1.3,6.5-2.2,8.8l-5.2-7C1165.6,385.3,1165.6,387,1166.5,388.2z M1172.2,387.3
		c1.6-1.2,1.3-2.8,0.5-3.8c-0.7-0.9-2.1-1.7-3.9-0.7L1172.2,387.3z"/>
</g>
<g>
	<path d="M1262.5,886.4l15.4,4.1l-0.6,2.2l-15.4-4.1L1262.5,886.4z"/>
	<path d="M1261,891.9l15.4,4.2l-0.5,1.9l-15.4-4.2L1261,891.9z"/>
	<path d="M1265.4,909.2c0.5-1.6-0.1-2.9-0.8-3.5l0.7-1.9l7.9,3.5l-2.6,8.8l-1.8-0.5l2.2-7.2l-4.2-1.8c0.5,1,0.5,2.4,0.2,3.6
		c-0.8,2.7-3.4,4.4-6.8,3.4c-3.5-1.1-4.5-4.2-3.7-7c1.1-3.5,3.8-4.5,6.3-4l-0.6,2c-2-0.3-3.5,0.4-4.1,2.5c-0.6,1.8,0.3,3.8,2.7,4.5
		C1263.3,912.3,1264.9,910.9,1265.4,909.2z"/>
	<path d="M1255.6,916.8l-2.7,8.3l-1.8-0.6l3.6-10.9l1.7,0.6c2.2,6.6,4,10.7,6.7,11.6c1.6,0.5,3-0.2,3.6-2c0.5-1.6,0.2-3.5-2.3-4.4
		l0.6-2c3,0.9,4.3,3.7,3.3,6.9c-0.9,2.8-3,4.3-5.5,3.5C1259.2,926.7,1257.3,922,1255.6,916.8z"/>
	<path d="M1251.9,929.8l-2.6-0.9l-2.3-2.2l0.4-1.2l2.5,2.1l0.4-1l2.4,0.8L1251.9,929.8z"/>
	<path d="M1260.3,946.3l-1.8-0.6c-1.7-4.8-5.5-8.8-11-11.1l0.8-2.3c5.3,2.3,9,6.3,10.9,11.2l3-8.2l1.8,0.6L1260.3,946.3z"/>
	<path d="M1246.1,949.9l-3.7-1.4l0.7-1.9l3.7,1.4l2.8-7.4l1.8,0.7l6.7,11l-0.7,1.9l-9.5-3.6l-1,2.7l-1.8-0.7L1246.1,949.9z
		 M1248.6,948.7l6.9,2.6l-4.9-7.9L1248.6,948.7z"/>
	<path d="M1240.9,976.1c-0.9,2.2-3.2,2.6-5.7,1.5s-3.8-2.9-2.8-5.2c0.9-2.2,3.2-2.5,5.7-1.5C1240.6,972.1,1241.8,974,1240.9,976.1z
		 M1239.8,975.7c0.5-1.1-0.4-2.3-2.4-3.1c-2-0.9-3.4-0.7-3.9,0.4c-0.5,1.2,0.4,2.3,2.4,3.1C1237.9,977,1239.3,976.9,1239.8,975.7z
		 M1248.1,976.8l-0.9,2l-10.4-16.4l0.9-2L1248.1,976.8z M1252.5,966.7c-0.9,2.2-3.2,2.6-5.7,1.5s-3.8-2.9-2.8-5.2
		c0.9-2.2,3.2-2.6,5.7-1.5C1252.1,962.7,1253.4,964.6,1252.5,966.7z M1251.4,966.3c0.5-1.1-0.4-2.3-2.4-3.1c-2-0.9-3.4-0.7-3.9,0.4
		c-0.5,1.2,0.4,2.3,2.4,3.1C1249.5,967.6,1250.9,967.4,1251.4,966.3z"/>
	<path d="M1238.1,998.6l-14.4-6.8l0.9-1.8l1.6,0.8c-0.8-1.2-1-2.7-0.2-4.4c1.2-2.4,4.2-3.6,7.7-1.9s4.6,4.8,3.4,7.2
		c-0.8,1.7-2.1,2.5-3.5,2.6l5.4,2.6L1238.1,998.6z M1232.7,986.3c-2.5-1.2-4.6-0.7-5.5,1.2c-0.8,1.6-0.3,3.7,2.5,5s4.7,0.4,5.5-1.2
		C1236.2,989.5,1235.3,987.5,1232.7,986.3z"/>
	<path d="M1221.4,996.3l0.9-1.8l10.6,5.2l-0.9,1.8L1221.4,996.3z M1233.5,1002.3l0.9-1.8l2.2,1.1l-0.9,1.8L1233.5,1002.3z"/>
	<path d="M1229.7,1012.8l-2.6-1.4l-1,2l-1.4-0.7l1-2l-6.2-3.2c-1.1-0.6-1.4-0.6-1.9,0.4l-0.5,0.9l-1.5-0.8l0.7-1.3
		c1-2,1.7-2.3,3.9-1.1l6.5,3.3l0.9-1.7l1.4,0.7l-0.9,1.7l2.6,1.4L1229.7,1012.8z"/>
	<path d="M1213.4,1015.1c-0.8,1.6-0.6,2.8,0.2,3.8l-1,1.8c-1.5-1.5-2.1-3.9-0.8-6.4c1.8-3.3,5.1-3.8,8.2-2.2c3.3,1.8,4.2,5.1,2.7,8
		c-1.7,3.2-5.4,3.7-8.6,1.7l4.3-8C1216.2,1012.5,1214.2,1013.5,1213.4,1015.1z M1216.7,1020.6c1.5,0.8,3.6,0.4,4.6-1.4
		c0.8-1.6,0.8-3.4-1.3-4.7L1216.7,1020.6z"/>
	<path d="M1215.5,1029.7c0.6-1,0.9-2.4-0.1-2.9c-0.8-0.5-1.5-0.1-2.3,0.8l-1.1,1.3c-1.4,1.7-3.1,2.9-5.1,1.8s-2.2-3.6-0.8-6
		c1.5-2.7,4.2-3.2,6.1-2.4l-1,1.8c-1.5-0.5-2.7-0.1-3.6,1.4c-0.7,1.3-0.8,2.7,0.2,3.3c1,0.6,2-0.1,2.9-1.1l1.2-1.4
		c1.1-1.2,2.6-2.4,4.5-1.3c1.8,1,1.8,3.5,0.6,5.7c-1.3,2.2-3.4,3-5.5,2.3l1-1.8C1213.8,1031.6,1214.8,1030.9,1215.5,1029.7z"/>
	<path d="M1209.6,1039.8c0.6-1,0.9-2.4,0-2.9c-0.8-0.5-1.5-0.1-2.3,0.7l-1.1,1.3c-1.5,1.6-3.1,2.9-5.1,1.7c-2-1.2-2.1-3.7-0.7-6
		c1.6-2.7,4.2-3.1,6.1-2.3l-1.1,1.8c-1.5-0.5-2.7-0.1-3.6,1.4c-0.8,1.3-0.8,2.7,0.1,3.3c1,0.6,2-0.1,2.9-1.1l1.2-1.3
		c1.1-1.2,2.6-2.4,4.5-1.2c1.8,1.1,1.8,3.5,0.4,5.8c-1.3,2.2-3.4,3-5.5,2.2l1.1-1.8C1207.9,1041.7,1208.9,1041,1209.6,1039.8z"/>
	<path d="M1195.5,1046.1c-0.9,1.5-0.8,2.7,0,3.8l-1.1,1.8c-1.5-1.5-1.9-4-0.4-6.5c2-3.2,5.3-3.5,8.3-1.7c3.2,2,3.9,5.4,2.2,8.1
		c-1.9,3.1-5.6,3.3-8.7,1.1l4.8-7.7C1198.4,1043.7,1196.4,1044.6,1195.5,1046.1z M1198.4,1051.8c1.4,0.8,3.5,0.7,4.6-1.1
		c0.9-1.5,1-3.4-1-4.8L1198.4,1051.8z"/>
	<path d="M1195.9,1061.2c1-1.6,0.6-2.9-1.6-4.3l-5.2-3.4l1.1-1.7l10,6.4l-1.1,1.6l-1.7-1.1c0.8,1.2,0.8,2.6,0,4
		c-0.1,0.2-0.2,0.3-0.3,0.5l-1.8-1.2C1195.4,1061.7,1195.7,1061.4,1195.9,1061.2z"/>
	<path d="M1184.8,1060l1.1-1.7l9.9,6.5l-1.1,1.7L1184.8,1060z M1196.1,1067.5l1.1-1.7l2,1.3l-1.1,1.7L1196.1,1067.5z"/>
	<path d="M1189.8,1074.2c-1.6,2.4-3.7,2.2-6,0.7l-6.2-4.2l1.1-1.7l5.7,3.9c1.5,1,3,1.7,4.3-0.2c1.1-1.6,0.6-3.3-1.4-4.8l-5.3-3.6
		l1.1-1.7l9.8,6.7l-1.1,1.7l-1.5-1C1190.9,1071.1,1191,1072.5,1189.8,1074.2z"/>
	<path d="M1174.8,1074.7l1.2-1.6l9.7,6.8l-1.2,1.6L1174.8,1074.7z M1185.9,1082.5l1.2-1.6l2,1.4l-1.2,1.6L1185.9,1082.5z"/>
	<path d="M1176,1090.8c0.7-0.9,1.1-2.2,0.3-2.9c-0.8-0.6-1.5-0.3-2.4,0.5l-1.3,1.1c-1.6,1.5-3.4,2.5-5.2,1.2
		c-1.9-1.4-1.7-3.9-0.1-6.1c1.8-2.5,4.5-2.7,6.3-1.6l-1.3,1.7c-1.4-0.7-2.7-0.4-3.7,1c-0.9,1.2-1.1,2.6-0.2,3.3c1,0.7,2,0.1,3-0.8
		l1.3-1.2c1.2-1.1,2.9-2.1,4.6-0.8c1.7,1.2,1.4,3.7-0.1,5.8c-1.5,2.1-3.7,2.6-5.7,1.6l1.2-1.7
		C1174.1,1092.5,1175.2,1091.9,1176,1090.8z"/>
	<path d="M1173.4,1101.7l-2.4-1.8l-1.4,1.8l-1.3-1l1.4-1.8l-5.6-4.3c-1-0.7-1.3-0.9-2,0l-0.6,0.8l-1.3-1l0.9-1.2
		c1.4-1.8,2.1-1.9,4.1-0.4l5.8,4.4l1.1-1.5l1.3,1l-1.1,1.5l2.4,1.8L1173.4,1101.7z"/>
	<path d="M1165.5,1104.1c0.5,1.3,0.4,2.8-0.8,4.3c-1.7,2.1-4.9,2.6-8,0.2s-3.4-5.7-1.7-7.8c1.2-1.5,2.6-2,4-1.8l-4.4-3.5l1.2-1.6
		l12.3,9.7l-1.2,1.6L1165.5,1104.1z M1158.1,1106.8c2.2,1.7,4.3,1.7,5.6,0.1c1.1-1.4,1.1-3.5-1.3-5.5c-2.5-1.9-4.5-1.4-5.6,0
		C1155.4,1103,1155.9,1105.1,1158.1,1106.8z"/>
	<path d="M1151.9,1120.6c1.2-1.4,1-2.8-1-4.5l-4.8-4l1.3-1.5l9.1,7.6l-1.3,1.5l-1.6-1.3c0.7,1.3,0.5,2.7-0.5,3.9
		c-0.1,0.2-0.2,0.3-0.4,0.4l-1.6-1.4C1151.4,1121.1,1151.6,1120.9,1151.9,1120.6z"/>
	<path d="M1141.1,1118.1l1.3-1.5l9,7.7l-1.3,1.5L1141.1,1118.1z M1151.4,1126.9l1.3-1.5l1.8,1.6l-1.3,1.5L1151.4,1126.9z"/>
	<path d="M1139,1120.5l12.1,10.4l-1.3,1.5l-12.1-10.4L1139,1120.5z"/>
	<path d="M1136.2,1134.7l0.2,0.2c1.6,1.4,3,1,3.9-0.1c1.1-1.2,1.1-2.6,0-3.6l1.4-1.5c1.8,1.8,1.3,4.5-0.2,6.2
		c-2.2,2.4-4.3,2.5-6.8,0.3l-2-1.8c-1.5-1.3-2.6-2.2-3.5-2.7l1.3-1.5c0.4,0.2,0.8,0.5,1.3,1c-0.4-1.3-0.1-2.7,1.3-4.3
		c1.5-1.7,3.6-2.2,5.3-0.8C1140.6,1127.8,1139.1,1130.7,1136.2,1134.7z M1137,1127.6c-0.8-0.7-2-0.6-2.9,0.5
		c-1.2,1.4-1.8,3.3,0.3,5.2l0.6,0.5C1137.1,1130.8,1138.2,1128.7,1137,1127.6z"/>
	<path d="M1132.4,1143.4c0.8-0.9,1.4-2.1,0.6-2.8c-0.7-0.6-1.5-0.5-2.4,0.2l-1.4,1c-1.8,1.3-3.7,2.1-5.3,0.6c-1.7-1.6-1.2-4,0.6-6
		c2.1-2.3,4.8-2.2,6.5-0.9l-1.4,1.5c-1.3-0.8-2.6-0.7-3.8,0.6c-1,1.1-1.4,2.5-0.6,3.2c0.9,0.8,2,0.3,3.1-0.4l1.5-1
		c1.3-1,3.1-1.7,4.7-0.2c1.5,1.4,1,3.8-0.8,5.7c-1.7,1.9-4,2.2-5.9,0.9l1.4-1.5C1130.3,1144.9,1131.4,1144.4,1132.4,1143.4z"/>
	<path d="M1119.9,1152.9c1.2,0.8,2.8,0.6,3.9-0.5c1.2-1.3,1.4-3.4-0.8-5.5c-2.2-2.1-4.3-1.9-5.6-0.6c-1.2,1.2-1.2,2.8-0.5,3.9
		l-1.4,1.5c-1.3-1.8-1.2-4.7,0.7-6.7c2.4-2.4,5.7-2.2,8.3,0.3c2.5,2.4,2.9,5.9,0.4,8.4c-2,2.1-4.8,1.9-6.4,0.7L1119.9,1152.9z"/>
	<path d="M1109.7,1152l1.4-1.4l8.4,8.4l-1.4,1.4L1109.7,1152z M1119.3,1161.6l1.4-1.4l1.7,1.7l-1.4,1.4L1119.3,1161.6z"/>
	<path d="M1107.4,1164.5l0.2,0.2c1.5,1.5,2.9,1.2,3.9,0.2c1.2-1.1,1.2-2.5,0.3-3.6l1.5-1.4c1.6,2,1,4.6-0.6,6.2
		c-2.3,2.3-4.5,2.2-6.8-0.2l-1.9-2c-1.4-1.4-2.4-2.3-3.3-3l1.5-1.4c0.4,0.3,0.7,0.6,1.2,1.1c-0.3-1.4,0.1-2.7,1.6-4.2
		c1.6-1.5,3.8-2,5.3-0.4C1112.2,1157.9,1110.5,1160.7,1107.4,1164.5z M1108.7,1157.5c-0.8-0.8-1.9-0.7-2.9,0.3
		c-1.3,1.3-2,3.2-0.1,5.2l0.5,0.5C1108.5,1160.7,1109.8,1158.7,1108.7,1157.5z"/>
	<path d="M1107,1175.2l-2-2.2l-1.6,1.5l-1.1-1.2l1.6-1.5l-4.8-5.1c-0.8-0.9-1.1-1.1-2-0.3l-0.7,0.7l-1.1-1.2l1.1-1
		c1.7-1.6,2.4-1.5,4.1,0.2l5,5.3l1.4-1.3l1.1,1.2l-1.4,1.3l2,2.2L1107,1175.2z"/>
	<path d="M1091.9,1169.1l1.5-1.4l8,8.7l-1.5,1.4L1091.9,1169.1z M1101.1,1179l1.5-1.4l1.6,1.8l-1.5,1.4L1101.1,1179z"/>
	<path d="M1088.7,1193.3l-10.5-12l1.5-1.3l1.2,1.3c-0.3-1.4,0.1-2.9,1.5-4.1c2-1.8,5.3-1.6,7.9,1.3s2.3,6.2,0.3,8
		c-1.4,1.2-2.9,1.5-4.3,1l3.9,4.5L1088.7,1193.3z M1088.6,1179.9c-1.9-2.1-3.9-2.5-5.5-1.1c-1.3,1.2-1.7,3.3,0.3,5.6
		c2.1,2.3,4.2,2.2,5.5,1.1C1090.6,1184.2,1090.5,1182.1,1088.6,1179.9z"/>
	<path d="M1074.9,1193.6l0.2,0.2c1.4,1.7,2.8,1.4,3.9,0.5c1.3-1.1,1.4-2.4,0.6-3.5l1.6-1.3c1.5,2.1,0.7,4.6-1.1,6.1
		c-2.5,2.1-4.6,1.8-6.7-0.7l-1.7-2.1c-1.3-1.5-2.2-2.5-3.1-3.2l1.6-1.3c0.3,0.3,0.7,0.6,1.2,1.1c-0.2-1.4,0.3-2.7,1.9-4.1
		c1.7-1.4,3.9-1.7,5.3,0C1080.2,1187.4,1078.3,1190,1074.9,1193.6z M1076.7,1186.7c-0.7-0.9-1.9-0.9-3,0c-1.4,1.2-2.2,3-0.5,5.1
		l0.5,0.6C1076.3,1189.8,1077.8,1188,1076.7,1186.7z"/>
	<path d="M1066.4,1191.2l10.1,12.4l-1.6,1.3l-10.1-12.4L1066.4,1191.2z"/>
	<path d="M1062.4,1194.4l10,12.5l-1.6,1.2l-10-12.5L1062.4,1194.4z"/>
	<path d="M1057.1,1207.8l0.2,0.2c1.3,1.7,2.7,1.5,3.9,0.6c1.3-1,1.5-2.3,0.7-3.5l1.6-1.3c1.4,2.1,0.5,4.6-1.3,6.1
		c-2.6,2-4.7,1.7-6.7-1l-1.7-2.2c-1.2-1.6-2.1-2.6-3-3.3l1.6-1.2c0.3,0.3,0.7,0.6,1.1,1.2c-0.2-1.4,0.4-2.7,2-4
		c1.8-1.4,4-1.5,5.3,0.2C1062.6,1201.8,1060.6,1204.4,1057.1,1207.8z M1059.2,1201c-0.7-0.9-1.8-1-3-0.1c-1.5,1.1-2.4,2.9-0.6,5.1
		l0.5,0.6C1058.7,1204.1,1060.2,1202.3,1059.2,1201z"/>
	<path d="M1046.6,1218.9c1.5-1.1,1.6-2.5,0.1-4.6l-3.7-5l1.6-1.2l7,9.5l-1.6,1.2l-1.2-1.7c0.3,1.4-0.2,2.8-1.4,3.7
		c-0.2,0.1-0.3,0.2-0.5,0.3l-1.3-1.7C1046,1219.3,1046.3,1219.1,1046.6,1218.9z"/>
	<path d="M1035.3,1216.7c-1.4,1-1.8,2.2-1.5,3.5l-1.7,1.2c-0.7-2-0.2-4.4,2.2-6.1c3.1-2.2,6.3-1.2,8.3,1.7c2.2,3.1,1.5,6.5-1.1,8.3
		c-2.9,2.1-6.5,0.9-8.4-2.3l7.4-5.3C1038.9,1215.6,1036.7,1215.7,1035.3,1216.7z M1035.7,1223.1c1,1.3,3,2,4.7,0.8
		c1.5-1,2.2-2.7,1-4.8L1035.7,1223.1z"/>
	<path d="M1026.4,1235.3l-5.7-8.5c-1.4-2-1.5-3.1-1.4-4.1c0.2-1.3,1.1-2.6,2.5-3.6c2.2-1.5,4.4-1.5,6.1,0.3l-1.8,1.2
		c-0.8-0.7-1.8-1-3.3,0c-0.9,0.6-1.4,1.3-1.5,2.1c-0.1,0.6-0.1,1.3,0.8,2.6l0.6,0.9c-0.1-1.4,0.4-2.7,2-3.8c2.2-1.5,5.3-1.1,7.5,2.1
		c2.1,3.1,1.3,6.2-0.8,7.7c-1.6,1.1-3,1-4.3,0.4l1,1.6L1026.4,1235.3z M1030.4,1225.8c-1.5-2.2-3.5-2.7-5.1-1.6
		c-1.5,1-2.1,2.9-0.4,5.4s3.6,2.6,5.1,1.6C1031.6,1230,1031.9,1228,1030.4,1225.8z"/>
	<path d="M1015.5,1228.3l1.7-1.1l6.5,9.9l-1.7,1.1L1015.5,1228.3z M1022.9,1239.7l1.7-1.1l1.3,2l-1.7,1.1L1022.9,1239.7z"/>
	<path d="M1008.6,1232.4c2.3-1.5,5.8-1.4,8.1,2.2c2.3,3.6,0.8,6.8-1.5,8.2c-2.3,1.5-5.8,1.4-8.1-2.2S1006.3,1233.9,1008.6,1232.4z
		 M1008.9,1239.5c1.7,2.7,3.8,2.8,5.3,1.8s2.4-2.9,0.6-5.6c-1.7-2.7-3.8-2.8-5.3-1.8S1007.3,1236.9,1008.9,1239.5z"/>
	<path d="M1003.2,1250.2c-2.5,1.5-4.3,0.4-5.7-1.9l-3.9-6.4l1.7-1l3.5,5.9c0.9,1.6,2,2.8,4,1.6c1.7-1,2-2.8,0.7-4.9l-3.3-5.5l1.7-1
		l6.1,10.1l-1.7,1l-0.9-1.5C1005.5,1247.9,1004.9,1249.2,1003.2,1250.2z"/>
	<path d="M987.5,1247.1c-1.5,0.9-2,2-1.8,3.3l-1.8,1c-0.5-2,0.3-4.4,2.8-5.9c3.2-1.9,6.4-0.6,8.1,2.5c1.9,3.2,0.9,6.6-1.9,8.2
		c-3.1,1.8-6.5,0.2-8.2-3.1l7.9-4.5C991.2,1246.4,989.1,1246.3,987.5,1247.1z M987.4,1253.6c0.9,1.4,2.8,2.3,4.6,1.2
		c1.5-0.9,2.5-2.5,1.4-4.7L987.4,1253.6z"/>
	<path d="M973.2,1271.4l-0.9-1.7l7.6-4l-2.3-4.3l-7.1,3.8l-0.9-1.7l7.1-3.8l-2.5-4.7l-7.6,4l-0.9-1.7l9.6-5.1l7.5,14.1L973.2,1271.4
		z"/>
	<path d="M963.8,1258.4l5.3,10.6l-1.8,0.9l-0.8-1.6c-0.1,1.3-0.7,2.6-2.3,3.4c-1.6,0.8-2.9,0.6-4-0.4c-0.2,1.7-1.2,2.9-2.6,3.6
		c-2.5,1.2-4.2,0-5.5-2.4l-3.3-6.7l1.8-0.9l3.1,6.2c0.8,1.6,1.8,2.9,3.8,1.9c1.5-0.8,2-2.5,0.8-4.7l-2.9-5.8l1.8-0.9l3.1,6.2
		c0.8,1.6,1.8,2.9,3.8,1.9c1.5-0.8,2-2.5,0.8-4.7l-2.9-5.8L963.8,1258.4z"/>
	<path d="M944.2,1267.9l1.8-0.8l5,10.7l-1.8,0.8L944.2,1267.9z M950,1280.1l1.8-0.8l1,2.2l-1.8,0.8L950,1280.1z"/>
	<path d="M941.4,1269.2l6.6,14.5l-1.8,0.8l-6.6-14.5L941.4,1269.2z"/>
	<path d="M934.9,1272.1l1.8-0.8l4.8,10.8l-1.8,0.8L934.9,1272.1z M940.4,1284.5l1.8-0.8l1,2.2l-1.8,0.8L940.4,1284.5z"/>
	<path d="M928.2,1283l0.1,0.3c0.9,2,2.2,2.2,3.6,1.6c1.5-0.7,2.1-1.9,1.6-3.2l1.9-0.8c0.8,2.4-0.7,4.6-2.8,5.5c-3,1.3-5,0.4-6.3-2.6
		l-1.1-2.5c-0.8-1.8-1.4-3-2-4l1.9-0.8c0.2,0.4,0.5,0.8,0.8,1.4c0.2-1.4,1-2.5,3-3.4s4.2-0.5,5.1,1.5
		C935,1278.6,932.5,1280.6,928.2,1283z M931.9,1276.9c-0.4-1-1.5-1.4-2.8-0.8c-1.7,0.7-3,2.2-1.9,4.8l0.3,0.7
		C930.6,1279.8,932.5,1278.4,931.9,1276.9z"/>
	<path d="M913.5,1288.4l2.6-1l-2.4-6.2l2.1-0.8l5.8,14.9l-4.7,1.8c-3.6,1.4-6.5,1.7-7.9-1.9c-0.9-2.4-0.2-3.9,1.4-5.1l-6-5.2
		l2.3-0.9l5.7,5C912.7,1288.7,913.1,1288.5,913.5,1288.4z M916.8,1289.1l-2.8,1.1c-2.2,0.8-3.8,1.7-2.9,4s2.7,1.9,4.9,1l2.8-1.1
		L916.8,1289.1z"/>
	<path d="M897.6,1286.9c2.6-0.9,6-0.2,7.4,3.8c1.5,4-0.6,6.8-3.2,7.7c-2.6,0.9-6,0.2-7.4-3.8C892.9,1290.6,895,1287.8,897.6,1286.9z
		 M896.4,1293.9c1.1,3,3.1,3.5,4.8,2.9c1.7-0.6,2.9-2.3,1.8-5.3s-3.1-3.5-4.8-2.9S895.3,1291.1,896.4,1293.9z"/>
	<path d="M890.2,1289.9l3.7,11.2l-1.9,0.6l-0.6-1.7c-0.3,1.3-1.1,2.4-2.8,3c-1.7,0.6-3,0.2-3.9-0.9c-0.4,1.7-1.6,2.7-3.1,3.2
		c-2.6,0.9-4.2-0.5-5.1-3.1l-2.4-7.1l1.9-0.6l2.2,6.5c0.6,1.7,1.4,3.1,3.5,2.4c1.6-0.5,2.3-2.2,1.5-4.6l-2-6.1l1.9-0.6l2.2,6.5
		c0.6,1.7,1.4,3.1,3.5,2.4c1.6-0.5,2.3-2.2,1.5-4.6l-2-6.1L890.2,1289.9z"/>
	<path d="M866.6,1305.1l0.1,0.3c0.6,2.1,2,2.4,3.4,2c1.6-0.5,2.2-1.6,1.9-3l2-0.6c0.5,2.5-1.2,4.5-3.4,5.2c-3.1,0.9-5-0.1-5.9-3.3
		l-0.8-2.6c-0.6-1.9-1.1-3.2-1.6-4.2l1.9-0.6c0.2,0.4,0.4,0.8,0.6,1.5c0.3-1.4,1.3-2.4,3.3-3c2.1-0.6,4.3,0,4.9,2.1
		C873.9,1301.5,871.1,1303.2,866.6,1305.1z M871,1299.5c-0.3-1.1-1.4-1.5-2.7-1.1c-1.8,0.5-3.2,1.9-2.4,4.6l0.2,0.7
		C869.4,1302.2,871.4,1301.1,871,1299.5z"/>
	<path d="M853.4,1313.6l-2.8-9.9c-0.7-2.3-0.5-3.4,0-4.3c0.6-1.2,1.8-2.1,3.5-2.6c2.6-0.7,4.7,0,5.7,2.2l-2.1,0.6
		c-0.5-0.9-1.4-1.6-3.2-1.1c-1,0.3-1.7,0.8-2.1,1.5c-0.3,0.6-0.5,1.2,0,2.7l0.3,1.1c0.4-1.4,1.2-2.5,3.1-3c2.5-0.7,5.4,0.7,6.4,4.3
		c1,3.6-0.7,6.3-3.2,7c-1.8,0.5-3.1,0-4.2-1l0.5,1.8L853.4,1313.6z M860.1,1305.8c-0.7-2.6-2.5-3.7-4.4-3.2c-1.7,0.5-2.9,2.1-2.1,5
		s2.6,3.6,4.4,3.1C859.9,1310.2,860.9,1308.4,860.1,1305.8z"/>
	<path d="M844.6,1316.1c-2.8,0.7-4.2-0.8-4.9-3.4l-1.9-7.2l1.9-0.5l1.7,6.7c0.5,1.8,1.1,3.2,3.4,2.7c1.9-0.5,2.7-2.1,2.1-4.5
		l-1.6-6.2l1.9-0.5l2.9,11.5l-1.9,0.5l-0.4-1.7C847.4,1314.5,846.5,1315.6,844.6,1316.1z"/>
	<path d="M829.5,1314.9l0.1,0.3c0.5,2.1,1.8,2.5,3.3,2.2c1.6-0.4,2.3-1.5,2.1-2.9l2-0.5c0.4,2.5-1.5,4.4-3.7,5
		c-3.2,0.7-5-0.4-5.7-3.7l-0.6-2.7c-0.4-1.9-0.8-3.2-1.3-4.3l2-0.5c0.2,0.4,0.3,0.9,0.5,1.6c0.4-1.3,1.5-2.3,3.5-2.8
		c2.2-0.5,4.2,0.3,4.7,2.4C837,1311.7,834.1,1313.2,829.5,1314.9z M834.2,1309.6c-0.3-1.1-1.3-1.6-2.7-1.3c-1.8,0.4-3.4,1.7-2.7,4.4
		l0.2,0.7C832.5,1312.2,834.6,1311.1,834.2,1309.6z"/>
	<path d="M818.4,1325l-0.6-2.9l-2.2,0.5l-0.3-1.6l2.2-0.5l-1.4-6.9c-0.2-1.2-0.4-1.5-1.5-1.3l-1,0.2l-0.3-1.6l1.4-0.3
		c2.2-0.5,2.8-0.1,3.3,2.3l1.5,7.1l1.8-0.4l0.3,1.6l-1.8,0.4l0.6,2.9L818.4,1325z"/>
	<path d="M808.2,1321.9c1.8-0.4,2.5-1.5,2-4.1l-1.2-6.1l2-0.4l2.3,11.6l-1.9,0.4l-0.4-2c-0.3,1.4-1.4,2.4-2.9,2.7
		c-0.2,0-0.4,0.1-0.6,0.1l-0.4-2.1C807.5,1322,807.9,1322,808.2,1321.9z"/>
	<path d="M797.9,1321.2v0.3c0.4,2.1,1.7,2.6,3.1,2.4c1.6-0.3,2.4-1.3,2.3-2.8l2-0.4c0.3,2.5-1.7,4.3-4,4.8c-3.2,0.6-4.9-0.7-5.5-4
		l-0.5-2.7c-0.3-2-0.7-3.3-1.1-4.3l2-0.4c0.1,0.4,0.3,0.9,0.4,1.6c0.5-1.3,1.6-2.2,3.7-2.6c2.2-0.4,4.2,0.5,4.6,2.6
		C805.6,1318.5,802.6,1319.8,797.9,1321.2z M802.9,1316.1c-0.2-1.1-1.2-1.7-2.6-1.4c-1.8,0.3-3.4,1.5-3,4.2l0.1,0.7
		C801,1318.7,803.2,1317.8,802.9,1316.1z"/>
	<path d="M784.7,1316l2-0.3l1.8,11.7l-2,0.3L784.7,1316z M786.8,1329.3l2-0.3l0.4,2.4l-2,0.3L786.8,1329.3z"/>
	<path d="M781.5,1316.4l2.5,15.8l-2,0.3l-2.5-15.8L781.5,1316.4z"/>
	<path d="M769.8,1319.9l-8.7,1l-0.2-1.9l11.4-1.4l0.2,1.8c-5.1,4.8-8,8.2-7.7,11c0.2,1.6,1.4,2.6,3.3,2.4c1.7-0.2,3.2-1.3,3-4
		l2.1-0.2c0.4,3.1-1.5,5.5-4.9,5.9c-2.9,0.4-5.2-0.9-5.5-3.5C762.3,1327.3,765.8,1323.6,769.8,1319.9z"/>
	<path d="M759.9,1327.3c0.5,5-1.2,8.4-5.4,8.8c-4.2,0.4-6.5-2.6-7-7.6s1.2-8.4,5.4-8.8C757.1,1319.2,759.4,1322.2,759.9,1327.3z
		 M757.8,1327.5c-0.4-4.4-2.2-6.4-4.7-6.2c-2.5,0.2-3.8,2.5-3.4,7c0.4,4.4,2.2,6.4,4.7,6.2C756.8,1334.2,758.2,1331.9,757.8,1327.5z
		"/>
	<path d="M742.8,1333.3l3.7-0.3l0.1,1.4c-2.3,0.3-3.4,0.6-4.2,2.4l-1.4,0.1l-1.2-15.9l2-0.2L742.8,1333.3z"/>
	<path d="M728.3,1330.3c-2.1-0.7-2.8-2.4-2.9-3.8c-0.2-3,2.2-4.9,5.5-5.1s5.9,1.4,6.1,4.4c0.1,1.5-0.4,3.2-2.5,4.2
		c1.6,0.8,2.3,2.2,2.4,3.5c0.1,2.3-1.8,4.2-5.1,4.4c-3.3,0.2-5.4-1.4-5.6-3.8C726.2,1332.8,726.7,1331.2,728.3,1330.3z M731,1323
		c-2.2,0.1-3.6,1.4-3.5,3.3s1.6,3.1,3.9,2.9c2.3-0.1,3.6-1.5,3.5-3.4C734.7,1324,733.2,1322.9,731,1323z M734.9,1333.3
		c-0.1-1.6-1.5-2.7-3.5-2.6s-3.2,1.4-3.1,3s1.5,2.6,3.5,2.4C733.7,1336,735,1334.9,734.9,1333.3z"/>
	<path d="M712.4,1323.9c-1.8,0-2.7,0.9-3.2,2l-2.1,0.1c0.5-2.1,2.3-3.8,5.2-3.9c3.7-0.1,5.9,2.5,6,6c0.1,3.7-2.3,6.2-5.6,6.3
		c-3.6,0.1-5.9-2.9-5.7-6.6l9.1-0.3C716,1325,714.1,1323.9,712.4,1323.9z M709.2,1329.5c0.1,1.7,1.4,3.3,3.5,3.2
		c1.8,0,3.4-1.1,3.5-3.4L709.2,1329.5z"/>
	<path d="M697.4,1322.7h2v11.8h-2V1322.7z M697.5,1336.2h2v2.4h-2V1336.2z"/>
	<path d="M694.3,1322.6l-0.1,15.9h-2l0.1-15.9H694.3z"/>
	<path d="M682.2,1324.4l-8.8-0.3l0.1-1.9l11.5,0.3l-0.1,1.8c-5.8,4-9.1,6.9-9.2,9.7c0,1.6,1,2.8,2.9,2.9c1.7,0,3.4-0.8,3.5-3.5
		l2.1,0.1c0,3.2-2.3,5.2-5.7,5.1c-2.9-0.1-5-1.6-4.9-4.3C673.7,1330.6,677.6,1327.4,682.2,1324.4z"/>
	<path d="M671.2,1330.1c-0.3,5-2.4,8.1-6.6,7.9s-6-3.5-5.8-8.6c0.3-5.1,2.4-8.2,6.6-7.9S671.5,1325.1,671.2,1330.1z M669.1,1330
		c0.2-4.4-1.2-6.7-3.7-6.8c-2.5-0.1-4.2,1.9-4.4,6.4c-0.2,4.4,1.2,6.7,3.7,6.8C667.2,1336.5,668.8,1334.4,669.1,1330z"/>
	<path d="M654.8,1323.1l-8.7-0.7l0.1-1.9l11.5,0.9l-0.1,1.8c-5.9,3.7-9.5,6.5-9.7,9.3c-0.1,1.6,0.9,2.8,2.8,3
		c1.7,0.1,3.5-0.7,3.7-3.3l2.1,0.2c-0.2,3.2-2.6,5.1-5.9,4.8c-2.9-0.2-4.9-1.9-4.7-4.6C646,1328.9,650.1,1325.9,654.8,1323.1z"/>
	<path d="M643.6,1328.3c-0.5,5-2.8,8-7,7.6s-5.9-3.8-5.3-8.8c0.5-5,2.8-8,7-7.6C642.4,1319.9,644.1,1323.3,643.6,1328.3z
		 M641.4,1328.1c0.4-4.4-0.9-6.7-3.4-7s-4.3,1.7-4.7,6.2c-0.4,4.4,0.9,6.7,3.4,7C639.2,1334.5,641,1332.5,641.4,1328.1z"/>
	<path d="M619.2,1319c-1.7-0.2-2.8,0.4-3.5,1.5l-2-0.3c0.8-2,2.9-3.4,5.7-3c3.7,0.5,5.4,3.4,4.9,6.9c-0.5,3.7-3.3,5.8-6.5,5.3
		c-3.6-0.5-5.3-3.8-4.6-7.4l9,1.2C622.5,1320.7,620.9,1319.2,619.2,1319z M615.1,1324c-0.2,1.7,0.8,3.5,2.9,3.8
		c1.8,0.2,3.5-0.5,4-2.8L615.1,1324z M618.6,1333.5l-1.6-2.8l1.7,0.2l2.5,2.9L618.6,1333.5z"/>
	<path d="M601,1325.3c1.2,0.2,2.5,0,2.7-1.1c0.2-0.9-0.4-1.5-1.5-1.9l-1.6-0.6c-2.1-0.8-3.8-1.9-3.4-4.1c0.4-2.3,2.7-3.3,5.3-2.8
		c3.1,0.5,4.5,2.8,4.4,4.9l-2.1-0.3c-0.1-1.5-0.8-2.6-2.6-2.9c-1.5-0.2-2.8,0.2-3,1.3c-0.2,1.2,0.8,1.9,2.1,2.3l1.7,0.6
		c1.5,0.6,3.1,1.6,2.8,3.8c-0.3,2.1-2.6,2.9-5.2,2.5c-2.5-0.4-4-2.1-4-4.4l2.1,0.3C598.7,1324.3,599.7,1325.1,601,1325.3z"/>
	<path d="M590.1,1327.9l0.5-2.9l-2.2-0.4l0.3-1.6l2.2,0.4l1.2-6.9c0.2-1.2,0.2-1.5-0.9-1.7l-1-0.2l0.3-1.6l1.4,0.3
		c2.2,0.4,2.7,1,2.2,3.4l-1.3,7.1l1.8,0.3l-0.3,1.6l-1.8-0.3l-0.5,2.9L590.1,1327.9z"/>
	<path d="M579.7,1318.3l-0.1,0.3c-0.4,2.1,0.6,3.1,2.1,3.3c1.6,0.3,2.7-0.4,3.1-1.8l2,0.4c-0.7,2.5-3.2,3.4-5.4,3
		c-3.2-0.6-4.3-2.4-3.7-5.7l0.5-2.7c0.4-1.9,0.6-3.3,0.6-4.4l2,0.4c0,0.4-0.1,0.9-0.2,1.6c0.9-1,2.3-1.5,4.3-1.1
		c2.2,0.4,3.8,2,3.3,4.1C587.8,1318.5,584.6,1318.7,579.7,1318.3z M586.2,1315.4c0.2-1.1-0.5-2-1.9-2.3c-1.8-0.4-3.7,0.1-4.3,2.9
		l-0.1,0.7C583.5,1317,585.9,1317,586.2,1315.4z"/>
	<path d="M570.7,1324.1l0.6-2.9l-2.2-0.5l0.3-1.6l2.2,0.5l1.5-6.9c0.3-1.2,0.2-1.5-0.9-1.8l-1-0.2l0.3-1.6l1.4,0.3
		c2.2,0.5,2.6,1.1,2.1,3.5l-1.5,7.1l1.8,0.4l-0.3,1.6l-1.8-0.4l-0.6,2.9L570.7,1324.1z"/>
	<path d="M564.8,1307.3c2.7,0.6,5.1,3.1,4.1,7.3c-1,4.2-4.2,5.3-6.9,4.7c-2.7-0.6-5.1-3.1-4.1-7.3
		C558.8,1307.8,562.1,1306.7,564.8,1307.3z M559.9,1312.5c-0.7,3.1,0.7,4.7,2.5,5.1s3.7-0.3,4.4-3.5c0.7-3.1-0.7-4.7-2.5-5.1
		C562.6,1308.6,560.6,1309.5,559.9,1312.5z"/>
	<path d="M543,1309.6l-0.1,0.3c-0.6,2.1,0.4,3.1,1.9,3.5c1.6,0.4,2.8-0.2,3.2-1.6l2,0.5c-0.8,2.4-3.4,3.2-5.6,2.6
		c-3.1-0.8-4.2-2.7-3.3-5.9l0.7-2.6c0.5-1.9,0.8-3.3,0.8-4.4l2,0.5c0,0.4-0.1,0.9-0.3,1.6c1-1,2.4-1.3,4.4-0.8
		c2.1,0.6,3.6,2.2,3.1,4.3C551.1,1310.4,547.8,1310.3,543,1309.6z M549.6,1307.1c0.3-1.1-0.4-2-1.7-2.4c-1.8-0.5-3.7-0.1-4.5,2.6
		l-0.2,0.7C546.8,1308.6,549.2,1308.7,549.6,1307.1z"/>
	<path d="M533.4,1310.1c1.1,0.3,2.5,0.3,2.8-0.8c0.3-0.9-0.3-1.5-1.3-2l-1.5-0.8c-2-1-3.5-2.3-2.9-4.5s3-2.9,5.6-2.2
		c3,0.9,4.1,3.3,3.7,5.4l-2-0.6c0.1-1.5-0.5-2.7-2.2-3.2c-1.5-0.4-2.8-0.1-3.1,0.9c-0.3,1.1,0.6,1.9,1.8,2.5l1.6,0.8
		c1.5,0.8,2.9,2,2.3,4.1c-0.6,2-2.9,2.6-5.5,1.9c-2.5-0.7-3.7-2.6-3.5-4.8l2,0.6C531.2,1308.9,532.1,1309.8,533.4,1310.1z"/>
	<path d="M522.2,1306.8c1.1,0.3,2.5,0.3,2.8-0.7c0.3-0.9-0.2-1.5-1.2-2.1l-1.5-0.8c-1.9-1-3.5-2.4-2.8-4.6s3.1-2.9,5.7-2.1
		c3,0.9,4,3.4,3.6,5.4l-2-0.6c0.2-1.5-0.5-2.7-2.2-3.2c-1.5-0.4-2.8-0.2-3.1,0.9s0.6,1.9,1.7,2.6l1.6,0.9c1.4,0.8,2.9,2,2.2,4.1
		c-0.6,2-3,2.5-5.5,1.8c-2.4-0.8-3.7-2.6-3.4-4.9l2,0.6C520,1305.5,520.9,1306.4,522.2,1306.8z"/>
	<path d="M512.9,1294.5c-1.7-0.6-2.8-0.1-3.7,0.8l-2-0.7c1.2-1.8,3.5-2.8,6.2-1.9c3.5,1.2,4.7,4.4,3.6,7.7c-1.2,3.5-4.3,5-7.4,4
		c-3.4-1.1-4.5-4.7-3.1-8.2l8.6,2.9C515.9,1296.8,514.6,1295.1,512.9,1294.5z M508,1298.7c-0.5,1.6,0.2,3.6,2.2,4.2
		c1.7,0.6,3.5,0.1,4.4-2.1L508,1298.7z"/>
	<path d="M492.6,1298.4l3.4-9.7c0.8-2.3,1.6-3.1,2.5-3.5c1.1-0.6,2.7-0.7,4.4-0.1c2.5,0.9,3.8,2.7,3.4,5.1l-2-0.7
		c0.1-1.1-0.2-2.1-2-2.7c-1-0.4-1.9-0.3-2.6,0c-0.6,0.3-1.1,0.7-1.6,2.2l-0.4,1.1c1.1-0.9,2.4-1.3,4.2-0.7c2.5,0.9,4,3.7,2.7,7.3
		c-1.3,3.6-4.2,4.8-6.7,3.9c-1.8-0.6-2.6-1.8-2.8-3.2l-0.6,1.8L492.6,1298.4z M502.6,1295.9c0.9-2.5,0.1-4.4-1.7-5.1
		c-1.7-0.6-3.6,0-4.6,2.9c-1,2.8,0.1,4.5,1.7,5.1C499.9,1299.4,501.7,1298.5,502.6,1295.9z"/>
	<path d="M484,1295.4c-2.7-1-3-3.1-2-5.6l2.7-7l1.9,0.7l-2.5,6.4c-0.7,1.7-0.9,3.3,1.2,4.1c1.8,0.7,3.4-0.1,4.3-2.5l2.3-6l1.9,0.7
		l-4.2,11.1l-1.9-0.7l0.6-1.7C487.2,1295.7,485.8,1296.1,484,1295.4z"/>
	<path d="M472.4,1285.7l-0.1,0.3c-0.8,2,0,3.1,1.4,3.7c1.5,0.6,2.8,0.1,3.4-1.2l1.9,0.8c-1.1,2.3-3.8,2.8-5.9,1.9
		c-3-1.2-3.8-3.2-2.5-6.3l1-2.5c0.8-1.8,1.2-3.1,1.4-4.3l1.9,0.8c-0.1,0.4-0.2,0.9-0.5,1.6c1.1-0.8,2.5-1,4.5-0.3
		c2.1,0.8,3.3,2.7,2.5,4.7C480.3,1287.4,477.1,1287,472.4,1285.7z M479.3,1284.1c0.4-1-0.1-2.1-1.4-2.6c-1.7-0.7-3.7-0.6-4.8,2
		l-0.3,0.7C476.4,1285.2,478.7,1285.6,479.3,1284.1z"/>
	<path d="M462.4,1289.7l1.2-2.7l-2.1-0.9l0.6-1.5l2.1,0.9l2.7-6.5c0.5-1.1,0.5-1.5-0.5-1.9l-0.9-0.4l0.7-1.5l1.3,0.6
		c2.1,0.9,2.4,1.6,1.4,3.8l-2.8,6.7l1.7,0.7l-0.6,1.5l-1.7-0.7l-1.2,2.7L462.4,1289.7z"/>
	<path d="M459.8,1272.1c2.5,1.1,4.4,4,2.7,7.9s-5.2,4.4-7.7,3.3s-4.4-4-2.7-7.9C453.9,1271.5,457.3,1270.9,459.8,1272.1z
		 M454.1,1276.2c-1.3,2.9-0.2,4.7,1.4,5.5c1.6,0.7,3.7,0.4,5-2.6c1.3-2.9,0.2-4.7-1.4-5.5C457.4,1272.9,455.3,1273.5,454.1,1276.2z"
		/>
	<path d="M438,1270.2l-0.1,0.3c-0.9,1.9-0.2,3.1,1.2,3.8c1.5,0.7,2.8,0.3,3.5-0.9l1.9,0.9c-1.3,2.2-3.9,2.5-6,1.5
		c-2.9-1.4-3.6-3.5-2.1-6.4l1.2-2.4c0.9-1.8,1.4-3.1,1.7-4.2l1.8,0.9c-0.1,0.4-0.3,0.9-0.6,1.5c1.2-0.8,2.6-0.9,4.5,0
		c2,1,3.1,2.9,2.2,4.8C445.8,1272.5,442.6,1271.8,438,1270.2z M445,1269c0.5-1,0-2.1-1.2-2.7c-1.7-0.8-3.7-0.8-4.9,1.7l-0.3,0.7
		C441.9,1270,444.3,1270.5,445,1269z"/>
	<path d="M423.3,1265.7c1.6,0.8,2.9,0.3,4.1-2l2.8-5.5l1.8,0.9l-5.4,10.5l-1.7-0.9l0.9-1.8c-1.1,0.9-2.6,1-4,0.4
		c-0.2-0.1-0.3-0.2-0.5-0.3l1-1.9C422.7,1265.4,423,1265.6,423.3,1265.7z"/>
	<path d="M417.1,1266.6l1.8,0.9l-1.1,2.1l-1.8-0.9L417.1,1266.6z M423.4,1254.6l1.8,0.9l-5.5,10.5l-1.8-0.9L423.4,1254.6z"/>
	<path d="M410,1256.3c-0.4,1.4,0.2,2.8,1.5,3.6c1.6,0.9,3.7,0.4,5.1-2.2c1.4-2.6,0.7-4.7-0.9-5.5c-1.5-0.8-3-0.4-3.9,0.6l-1.8-1
		c1.4-1.8,4.2-2.4,6.6-1.1c3,1.6,3.6,4.9,1.9,8.1c-1.7,3.1-4.9,4.3-8,2.6c-2.5-1.4-3.1-4.1-2.3-6L410,1256.3z"/>
	<path d="M399,1254.8c-2.5-1.4-2.5-3.5-1.1-5.9l3.7-6.5l1.7,1l-3.4,6c-0.9,1.6-1.4,3.1,0.5,4.2c1.7,1,3.4,0.4,4.6-1.8l3.2-5.6l1.7,1
		l-8,13.8l-1.7-1l2.9-5.1C402.1,1255.7,400.7,1255.8,399,1254.8z"/>
	<path d="M390.4,1251.6l1.7,1l-1.2,2.1l-1.7-1L390.4,1251.6z M397.3,1239.9l1.7,1l-6.1,10.2l-1.7-1L397.3,1239.9z"/>
	<path d="M389.6,1237c-1.5-0.9-2.7-0.8-3.8,0l-1.8-1.1c1.5-1.5,4-1.9,6.5-0.4c3.2,2,3.5,5.3,1.7,8.3c-2,3.2-5.4,3.9-8.1,2.2
		c-3.1-1.9-3.3-5.6-1.1-8.7l7.8,4.8C392,1239.9,391.1,1237.9,389.6,1237z M383.9,1239.9c-0.8,1.4-0.6,3.5,1.1,4.6
		c1.5,0.9,3.4,1,4.8-1L383.9,1239.9z"/>
	<path d="M366.6,1239.5l8.7-13.4l1.7,1.1l-1,1.5c1.3-0.7,2.8-0.7,4.4,0.4c2.3,1.5,3,4.6,0.9,7.9s-5.3,3.9-7.6,2.4
		c-1.6-1-2.2-2.4-2.1-3.8l-3.3,5L366.6,1239.5z M379.4,1235.8c1.5-2.4,1.3-4.5-0.4-5.6c-1.5-1-3.6-0.8-5.3,1.9
		c-1.7,2.6-1,4.6,0.5,5.6C375.9,1238.8,377.9,1238.2,379.4,1235.8z"/>
	<path d="M367.7,1222.8c-1.5-1-2.7-0.9-3.8-0.2l-1.7-1.2c1.6-1.4,4.1-1.7,6.5-0.1c3.1,2.1,3.3,5.5,1.3,8.4c-2.1,3.1-5.5,3.7-8.2,1.8
		c-3-2-3.1-5.8-0.8-8.7l7.5,5.1C370,1225.8,369.2,1223.8,367.7,1222.8z M361.9,1225.5c-0.9,1.4-0.8,3.5,0.9,4.7
		c1.5,1,3.3,1.1,4.8-0.8L361.9,1225.5z"/>
	<path d="M350.5,1223.7c-2.3-1.7-2.1-3.8-0.5-6l4.3-6.1l1.6,1.2l-4,5.6c-1.1,1.5-1.7,3,0.1,4.3c1.6,1.1,3.3,0.7,4.8-1.3l3.7-5.2
		l1.6,1.2l-6.9,9.6l-1.6-1.2l1-1.5C353.6,1224.8,352.1,1224.8,350.5,1223.7z"/>
	<path d="M341.1,1220.3l1.8-2.4l-1.8-1.3l1-1.3l1.8,1.3l4.2-5.6c0.7-1,0.8-1.3-0.1-2l-0.8-0.6l1-1.3l1.2,0.9c1.8,1.3,1.9,2.1,0.5,4
		l-4.3,5.8l1.5,1.1l-1,1.3l-1.5-1.1l-1.8,2.4L341.1,1220.3z"/>
	<path d="M336.3,1215.1l1.6,1.2l-1.5,1.9l-1.6-1.2L336.3,1215.1z M344.5,1204.3l1.6,1.2l-7.1,9.5l-1.6-1.2L344.5,1204.3z"/>
	<path d="M320,1205.5l9.9-12.5l1.6,1.2l-1.1,1.4c1.3-0.5,2.8-0.4,4.3,0.8c2.1,1.7,2.6,4.9,0.1,8c-2.4,3.1-5.7,3.4-7.8,1.7
		c-1.5-1.2-2-2.6-1.8-4l-3.7,4.7L320,1205.5z M333.1,1203c1.7-2.2,1.7-4.3,0.1-5.6c-1.4-1.1-3.5-1.1-5.5,1.3
		c-1.9,2.4-1.4,4.5-0.1,5.6C329.3,1205.7,331.4,1205.2,333.1,1203z"/>
	<path d="M317.4,1200.2l1.5,1.3l-1.5,1.9l-1.5-1.3L317.4,1200.2z M326,1189.7l1.5,1.3l-7.5,9.2l-1.6-1.3L326,1189.7z"/>
	<path d="M304.3,1186.9l6.7-7.8c1.6-1.8,2.6-2.3,3.6-2.4c1.3-0.2,2.8,0.3,4.1,1.5c2,1.7,2.6,3.9,1.3,5.9l-1.6-1.4
		c0.5-1,0.5-2-0.9-3.2c-0.8-0.7-1.6-1-2.4-0.9c-0.6,0.1-1.2,0.3-2.3,1.5l-0.7,0.9c1.4-0.5,2.8-0.3,4.2,0.9c2,1.7,2.4,4.9-0.1,7.8
		s-5.7,2.9-7.7,1.2c-1.4-1.2-1.8-2.6-1.5-4l-1.2,1.4L304.3,1186.9z M314.6,1188.2c1.8-2.1,1.7-4.1,0.2-5.4c-1.4-1.2-3.3-1.3-5.3,1
		s-1.6,4.2-0.2,5.4C310.8,1190.5,312.8,1190.2,314.6,1188.2z"/>
	<path d="M305,1173.7c-1.3-1.2-2.6-1.2-3.7-0.7l-1.5-1.4c1.8-1.2,4.3-1.1,6.4,0.8c2.8,2.5,2.5,5.9,0.2,8.5c-2.5,2.8-6,2.9-8.4,0.7
		c-2.7-2.4-2.3-6.1,0.4-8.7l6.8,6.1C306.9,1177,306.3,1174.8,305,1173.7z M298.9,1175.5c-1.1,1.3-1.3,3.4,0.3,4.8
		c1.3,1.2,3.2,1.5,4.9-0.1L298.9,1175.5z"/>
	<path d="M287.8,1172.2c-2.1-2-1.6-4,0.3-6l5.1-5.5l1.5,1.4l-4.7,5c-1.2,1.3-2.1,2.7-0.4,4.3c1.4,1.3,3.2,1.2,4.9-0.7l4.4-4.7
		l1.5,1.4l-8.1,8.6l-1.5-1.4l1.2-1.3C290.7,1173.7,289.3,1173.6,287.8,1172.2z"/>
	<path d="M286.5,1156.3c-1.3-1.2-2.5-1.3-3.7-0.9l-1.5-1.4c1.8-1.1,4.3-1,6.4,1.1c2.7,2.6,2.3,6-0.2,8.5c-2.6,2.7-6.1,2.6-8.4,0.4
		c-2.6-2.5-2-6.2,0.8-8.7l6.5,6.4C288.2,1159.7,287.8,1157.5,286.5,1156.3z M280.3,1157.9c-1.1,1.2-1.4,3.3,0.1,4.8
		c1.3,1.2,3.1,1.7,4.9,0.1L280.3,1157.9z"/>
	<path d="M271.7,1153.3c1.3,1.3,2.7,1.2,4.5-0.6l4.4-4.4l1.4,1.4l-8.4,8.3l-1.4-1.4l1.5-1.5c-1.4,0.5-2.8,0.2-3.9-0.9
		c-0.1-0.1-0.3-0.3-0.4-0.4l1.5-1.5C271.2,1152.8,271.5,1153.1,271.7,1153.3z"/>
	<path d="M272.3,1141.8c-1.2-1.3-2.5-1.4-3.6-1l-1.4-1.5c1.9-1,4.4-0.8,6.3,1.3c2.6,2.7,2.1,6.1-0.5,8.5c-2.7,2.6-6.2,2.4-8.4,0.1
		c-2.5-2.6-1.8-6.3,1.1-8.7l6.3,6.6C273.8,1145.3,273.5,1143.1,272.3,1141.8z M266,1143.2c-1.2,1.2-1.5,3.2-0.1,4.8
		c1.2,1.3,3,1.8,4.9,0.3L266,1143.2z"/>
	<path class="st32" d="M249.7,1138.8l-0.7-0.8l1.7-1.5l0.4,0.4c1,1.1,1.3,1.2,2.2,0.4l0.4-0.4l-1.6-1.8l1.5-1.4l1.6,1.8l7.2-6.5
		l2,2.3l-7.2,6.5l1.1,1.2l-1.5,1.4l-1.1-1.2l-0.5,0.4C253,1141.7,251.7,1141,249.7,1138.8z"/>
	<path class="st32" d="M254.9,1123.6c-0.6-0.7-1.5-1.2-2.7-1l-2.1-2.4c1.7-0.7,4.4-0.7,6.5,1.8c2.5,2.9,1.8,6.4-0.7,8.6
		c-2.7,2.3-6.2,2.2-8.5-0.4c-2.4-2.7-1.8-6.3,1.5-9l5.7,6.6C256,1126.4,255.8,1124.7,254.9,1123.6z M249.3,1125
		c-1.5,1.4-1.1,2.9-0.2,3.9c0.8,0.9,2.3,1.5,3.9,0.4L249.3,1125z"/>
	<path class="st32" d="M240.1,1112.5l4.8-3.9l1.9,2.3l-5.3,4.4c-1,0.8-2.1,1.9-0.9,3.2c1.3,1.6,2.8,0.7,4.2-0.4l4.8-3.9l1.9,2.3
		l-9.1,7.5l-1.9-2.3l1.2-1c-1.3,0.2-2.6-0.3-3.5-1.4c-1.3-1.6-1-2.9-0.7-3.8c-1.6,0.1-2.8-0.4-4-1.8c-1.9-2.3-1.1-4.3,1-6l5.8-4.7
		l1.9,2.3l-5.3,4.4c-1,0.8-2.1,1.9-0.9,3.2C237.2,1114.5,238.7,1113.7,240.1,1112.5z"/>
	<path class="st32" d="M227.5,1096.7l4.9-3.8l1.9,2.4l-5.5,4.2c-1,0.8-2.1,1.8-1,3.2c1.2,1.6,2.8,0.8,4.2-0.3l4.9-3.8l1.9,2.4
		l-9.4,7.2l-1.9-2.4l1.2-1c-1.3,0.2-2.6-0.4-3.5-1.5c-1.2-1.6-0.9-3-0.5-3.8c-1.6,0.1-2.8-0.5-3.9-1.9c-1.8-2.4-1-4.3,1.2-6l5.9-4.5
		l1.9,2.4l-5.5,4.2c-1,0.8-2.1,1.8-1,3.2C224.6,1098.5,226.1,1097.8,227.5,1096.7z"/>
	<path class="st32" d="M214.2,1090.5l1.8,2.4l-2.3,1.7l-1.8-2.4L214.2,1090.5z M224.8,1082.7l1.8,2.4l-9.5,7l-1.8-2.4L224.8,1082.7z
		"/>
	<path class="st32" d="M209.6,1082.3c-1.6-2.3-1-4.3,1.4-6l6.1-4.3l1.8,2.5l-5.5,3.9c-1.3,0.9-2.1,1.9-1.1,3.3c1.2,1.6,2.7,1,4.3,0
		l5-3.6l1.8,2.5l-9.6,6.9l-1.8-2.5l1.3-0.9C211.7,1084.2,210.4,1083.5,209.6,1082.3z"/>
	<path class="st32" d="M203.1,1074.8l1.7,2.5l-2.3,1.6l-1.7-2.5L203.1,1074.8z M213.9,1067.4l1.7,2.5l-9.8,6.7l-1.7-2.5
		L213.9,1067.4z"/>
	<path class="st32" d="M212.4,1065.2l-13.2,8.9l-1.7-2.5l13.2-8.9L212.4,1065.2z"/>
	<path class="st32" d="M204.7,1057.2c-0.5-0.8-1.3-1.4-2.5-1.3l-1.7-2.6c1.8-0.4,4.4,0,6.2,2.7c2.1,3.2,0.9,6.6-2,8.5
		c-3,1.9-6.5,1.3-8.4-1.6c-2-3.1-0.9-6.5,2.7-8.7l4.8,7.3C205.4,1060.1,205.4,1058.4,204.7,1057.2z M198.9,1057.7
		c-1.6,1.1-1.5,2.7-0.8,3.8c0.6,1,2,1.8,3.8,0.9L198.9,1057.7z"/>
</g>
<rect x="366" y="850.3" class="st0" width="124.8" height="159.6"/>
<rect x="980" y="2011.8" class="st1" width="121.7" height="82.7"/>
</svg>
