<?xml version="1.0" encoding="utf-8"?>
<!-- Generator: Adobe Illustrator 21.1.0, SVG Export Plug-In . SVG Version: 6.00 Build 0)  -->
<svg version="1.1" id="Livello_1" xmlns="http://www.w3.org/2000/svg" xmlns:xlink="http://www.w3.org/1999/xlink" x="0px" y="0px"
	 viewBox="0 0 1089 764.9" style="enable-background:new 0 0 1089 764.9;" xml:space="preserve">
<style type="text/css">
	.st0{fill:#FFB6B6;}
	.st1{fill:#E75151;}
	.st2{fill:#EE0000;}
	.st3{fill:none;stroke:#3A3A3A;stroke-width:0.7108;}
	.st4{fill:none;stroke:#3A3A3A;stroke-width:0.7077;}
	.st5{font-family:'SuisseIntl-Regular';}
	.st6{font-size:6.3695px;}
	.st7{font-family:'Helvetica';}
	.st8{font-size:39.9825px;}
	.st9{fill:#98CCCC;}
	.st10{font-family:'SuisseIntl-Light';}
	.st11{font-size:17.2105px;}
	.st12{fill:#3A3A3A;}
	.st13{font-size:4.9541px;}
	.st14{fill:none;}
	.st15{fill:none;stroke:#000000;stroke-width:0.483;}
	.st16{font-size:4.3469px;}
	.st17{font-size:27.2859px;}
	.st18{font-size:3.3809px;}
	.st19{font-size:11.7453px;}
	.st20{fill:none;stroke:#000000;stroke-width:0.4851;}
</style>
<title>lazio</title>
<g>
	<g>
		<rect id="_x31_8_-_num_50_" x="439.9" y="332.7" class="st0" width="15.9" height="31"/>
		<rect id="_x31_8_-_num_49_" x="463.3" y="334.3" class="st0" width="15.9" height="29.4"/>
		<rect id="_x31_8_-_num_48_" x="486.8" y="190.9" class="st0" width="15.9" height="172.8"/>
		<rect id="_x31_8_-_num_47_" x="510.2" y="208.9" class="st0" width="15.9" height="154.8"/>
		<rect id="_x31_8_-_num_46_" x="533.6" y="280" class="st0" width="15.9" height="83.7"/>
		<rect id="_x31_8_-_num_45_" x="557.1" y="316.3" class="st0" width="15.9" height="47.4"/>
		<rect id="_x31_8_-_num_44_" x="580.5" y="337.4" class="st0" width="15.9" height="26.2"/>
		<rect id="_x31_8_-_num_43_" x="603.9" y="353.2" class="st0" width="15.9" height="10.4"/>
		<rect id="_x31_8_-_num_42_" x="627.4" y="360.2" class="st0" width="15.9" height="3.5"/>
		<rect id="_x31_8_-_num_41_" x="650.8" y="363.3" class="st0" width="15.9" height="0.3"/>
	</g>
	<g>
		<rect id="_x31_9_-_num_50_" x="445.4" y="330.5" class="st1" width="15.9" height="33.4"/>
		<rect id="_x31_9_-_num_49_" x="468.8" y="325.9" class="st1" width="15.9" height="38.1"/>
		<rect id="_x31_9_-_num_48_" x="492.3" y="247.6" class="st1" width="15.9" height="116.4"/>
		<rect id="_x31_9_-_num_47_" x="515.7" y="222.3" class="st1" width="15.9" height="141.7"/>
		<rect id="_x31_9_-_num_46_" x="539.2" y="267.7" class="st1" width="15.9" height="96.3"/>
		<rect id="_x31_9_-_num_45_" x="562.6" y="300.9" class="st1" width="15.9" height="63"/>
		<rect id="_x31_9_-_num_44_" x="586.1" y="327.8" class="st1" width="15.9" height="36.1"/>
		<rect id="_x31_9_-_num_43_" x="609.5" y="350.2" class="st1" width="15.9" height="13.8"/>
		<rect id="_x31_9_-_num_42_" x="633" y="360.7" class="st1" width="15.9" height="3.2"/>
		<rect id="_x31_9_-_num_41_" x="656.4" y="363.8" class="st1" width="15.9" height="0.2"/>
	</g>
	<g>
		<rect id="_x32_0_-_num_50_" x="449.2" y="323.5" class="st2" width="15.9" height="40.8"/>
		<rect id="_x32_0_-_num_49_" x="472.7" y="306.3" class="st2" width="15.9" height="58"/>
		<rect id="_x32_0_-_num_48_" x="496.1" y="199.9" class="st2" width="15.9" height="164.4"/>
		<rect id="_x32_0_-_num_47_" x="519.5" y="199.8" class="st2" width="15.9" height="164.5"/>
		<rect id="_x32_0_-_num_46_" x="543" y="249.6" class="st2" width="15.9" height="114.7"/>
		<rect id="_x32_0_-_num_45_" x="566.4" y="287.1" class="st2" width="15.9" height="77.1"/>
		<rect id="_x32_0_-_num_44_" x="589.8" y="325.9" class="st2" width="15.9" height="38.4"/>
		<rect id="_x32_0_-_num_43_" x="613.3" y="349.7" class="st2" width="15.9" height="14.6"/>
		<rect id="_x32_0_-_num_42_" x="636.7" y="360.5" class="st2" width="15.9" height="3.8"/>
		<rect id="_x32_0_-_num_41_" x="660.2" y="363.9" class="st2" width="15.9" height="0.4"/>
	</g>
	<path class="st3" d="M433.3,364.1h242.7"/>
	<line class="st4" x1="447.8" y1="366.5" x2="447.8" y2="370.8"/>
	<line class="st4" x1="471.3" y1="366.5" x2="471.3" y2="370.8"/>
	<line class="st4" x1="494.7" y1="366.5" x2="494.7" y2="370.8"/>
	<line class="st4" x1="518.1" y1="366.5" x2="518.1" y2="370.8"/>
	<line class="st4" x1="541.6" y1="366.5" x2="541.6" y2="370.8"/>
	<line class="st4" x1="565" y1="366.5" x2="565" y2="370.8"/>
	<line class="st4" x1="588.4" y1="366.5" x2="588.4" y2="370.8"/>
	<line class="st4" x1="611.9" y1="366.5" x2="611.9" y2="370.8"/>
	<text transform="matrix(1 0 0 1 608.1303 377.8987)" class="st5 st6">70</text>
	<text transform="matrix(1 0 0 1 608.1303 385.5295)" class="st5 st6">79</text>
	<line class="st4" x1="635.3" y1="366.5" x2="635.3" y2="370.8"/>
	<text transform="matrix(1 0 0 1 631.2866 377.8987)" class="st5 st6">80</text>
	<text transform="matrix(1 0 0 1 631.2866 385.5295)" class="st5 st6">89</text>
	<text transform="matrix(1 0 0 1 561.3813 377.8987)" class="st5 st6">50</text>
	<text transform="matrix(1 0 0 1 561.3813 385.5295)" class="st5 st6">59</text>
	<text transform="matrix(1 0 0 1 584.5375 377.8987)" class="st5 st6">60</text>
	<text transform="matrix(1 0 0 1 584.5375 385.5295)" class="st5 st6">69</text>
	<text transform="matrix(1 0 0 1 514.4291 377.8987)" class="st5 st6">30</text>
	<text transform="matrix(1 0 0 1 514.4291 385.5295)" class="st5 st6">39</text>
	<text transform="matrix(1 0 0 1 537.5844 377.8987)" class="st5 st6">40</text>
	<text transform="matrix(1 0 0 1 537.5844 385.5295)" class="st5 st6">49</text>
	<text transform="matrix(1 0 0 1 467.6801 377.8987)" class="st5 st6">10</text>
	<text transform="matrix(1 0 0 1 467.6801 385.5295)" class="st5 st6">19</text>
	<text transform="matrix(1 0 0 1 490.8354 377.8987)" class="st5 st6">20</text>
	<text transform="matrix(1 0 0 1 490.8354 385.5295)" class="st5 st6">29</text>
	<line class="st4" x1="658.8" y1="366.5" x2="658.8" y2="370.8"/>
	<text transform="matrix(1 0 0 1 652.7875 377.8987)" class="st5 st6">&gt;90</text>
	<text transform="matrix(1 0 0 1 443.2993 377.8987)" class="st5 st6">&lt; 9</text>
	<path class="st4" d="M433.3,364.1V180"/>
	<line class="st4" x1="430.8" y1="364.1" x2="426.6" y2="364.1"/>
	<g>
		<text transform="matrix(1 0 0 1 420.5561 366.2912)" class="st5 st6">0</text>
	</g>
	<line class="st4" x1="430.8" y1="350.9" x2="426.6" y2="350.9"/>
	<g>
		<text transform="matrix(1 0 0 1 412.685 353.1477)" class="st5 st6">200</text>
	</g>
	<line class="st4" x1="430.8" y1="337.7" x2="426.6" y2="337.7"/>
	<g>
		<text transform="matrix(1 0 0 1 412.685 340.0041)" class="st5 st6">400</text>
	</g>
	<line class="st4" x1="430.8" y1="324.6" x2="426.6" y2="324.6"/>
	<g>
		<text transform="matrix(1 0 0 1 412.685 326.8615)" class="st5 st6">600</text>
	</g>
	<line class="st4" x1="430.8" y1="311.5" x2="426.6" y2="311.5"/>
	<g>
		<text transform="matrix(1 0 0 1 412.685 313.717)" class="st5 st6">800</text>
	</g>
	<line class="st4" x1="430.8" y1="298.3" x2="426.6" y2="298.3"/>
	<g>
		<text transform="matrix(1 0 0 1 406.7827 300.5735)" class="st5 st6">1,000</text>
	</g>
	<line class="st4" x1="430.8" y1="285.2" x2="426.6" y2="285.2"/>
	<g>
		<text transform="matrix(1 0 0 1 406.7827 287.4299)" class="st5 st6">1,200</text>
	</g>
	<line class="st4" x1="430.8" y1="272.1" x2="426.6" y2="272.1"/>
	<g>
		<text transform="matrix(1 0 0 1 406.7827 274.2863)" class="st5 st6">1,400</text>
	</g>
	<line class="st4" x1="430.8" y1="258.9" x2="426.6" y2="258.9"/>
	<g>
		<text transform="matrix(1 0 0 1 406.7827 261.1433)" class="st5 st6">1,600</text>
	</g>
	<line class="st4" x1="430.8" y1="245.7" x2="426.6" y2="245.7"/>
	<g>
		<text transform="matrix(1 0 0 1 406.7827 247.9997)" class="st5 st6">1,800</text>
	</g>
	<line class="st4" x1="430.8" y1="232.6" x2="426.6" y2="232.6"/>
	<g>
		<text transform="matrix(1 0 0 1 406.7827 234.8562)" class="st5 st6">2,000</text>
	</g>
	<line class="st4" x1="430.8" y1="219.5" x2="426.6" y2="219.5"/>
	<g>
		<text transform="matrix(1 0 0 1 406.7827 221.7131)" class="st5 st6">2,200</text>
	</g>
	<line class="st4" x1="430.8" y1="206.3" x2="426.6" y2="206.3"/>
	<g>
		<text transform="matrix(1 0 0 1 406.7827 208.5695)" class="st5 st6">2,400</text>
	</g>
	<line class="st4" x1="430.8" y1="193.2" x2="426.6" y2="193.2"/>
	<g>
		<text transform="matrix(1 0 0 1 406.7827 195.4255)" class="st5 st6">2,600</text>
	</g>
	<line class="st4" x1="430.8" y1="180" x2="426.6" y2="180"/>
	<g>
		<text transform="matrix(1 0 0 1 406.7827 182.2824)" class="st5 st6">2,800</text>
	</g>
	<text transform="matrix(1 0 0 1 609.518 229.7131)" class="st0 st7 st8">18</text>
	<text transform="matrix(1 0 0 1 609.518 248.5852)" class="st1 st7 st8">19</text>
	<text transform="matrix(1 0 0 1 609.518 262.4196)" class="st2 st7 st8">20</text>
	<text transform="matrix(6.123236e-17 -1 1 6.123236e-17 599.9975 263.759)" class="st9 st10 st11">duemila</text>
	<text transform="matrix(6.123236e-17 -1 1 6.123236e-17 444.103 241.0764)" class="st12 st10 st13">numero tesserini</text>
	<text transform="matrix(1 0 0 1 658.5268 360.1897)" class="st12 st10 st13">fasce d’età</text>
</g>
<g>
	<line class="st14" x1="878.2" y1="637.5" x2="876.9" y2="637.5"/>
	<line class="st15" x1="695.9" y1="573.1" x2="695.9" y2="576"/>
	<line class="st15" x1="711.9" y1="573.1" x2="711.9" y2="576"/>
	<line class="st15" x1="727.8" y1="573.1" x2="727.8" y2="576"/>
	<line class="st15" x1="743.9" y1="573.1" x2="743.9" y2="576"/>
	<line class="st15" x1="759.9" y1="573.1" x2="759.9" y2="576"/>
	<line class="st15" x1="775.9" y1="573.1" x2="775.9" y2="576"/>
	<line class="st15" x1="791.8" y1="573.1" x2="791.8" y2="576"/>
	<line class="st15" x1="807.9" y1="573.1" x2="807.9" y2="576"/>
	<text transform="matrix(1 0 0 1 805.2856 580.9045)" class="st5 st16">70</text>
	<text transform="matrix(1 0 0 1 805.2856 586.1204)" class="st5 st16">79</text>
	<line class="st15" x1="823.9" y1="573.1" x2="823.9" y2="576"/>
	<text transform="matrix(1 0 0 1 821.0884 580.9045)" class="st5 st16">80</text>
	<text transform="matrix(1 0 0 1 821.0884 586.1204)" class="st5 st16">89</text>
	<text transform="matrix(1 0 0 1 773.3813 580.9045)" class="st5 st16">50</text>
	<text transform="matrix(1 0 0 1 773.3813 586.1204)" class="st5 st16">59</text>
	<text transform="matrix(1 0 0 1 789.1841 580.9045)" class="st5 st16">60</text>
	<text transform="matrix(1 0 0 1 789.1841 586.1204)" class="st5 st16">69</text>
	<text transform="matrix(1 0 0 1 741.3394 580.9045)" class="st5 st16">30</text>
	<text transform="matrix(1 0 0 1 741.3394 586.1204)" class="st5 st16">39</text>
	<text transform="matrix(1 0 0 1 757.1421 580.9045)" class="st5 st16">40</text>
	<text transform="matrix(1 0 0 1 757.1421 586.1204)" class="st5 st16">49</text>
	<text transform="matrix(1 0 0 1 709.4351 580.9045)" class="st5 st16">10</text>
	<text transform="matrix(1 0 0 1 709.4351 586.1204)" class="st5 st16">19</text>
	<text transform="matrix(1 0 0 1 725.2378 580.9045)" class="st5 st16">20</text>
	<text transform="matrix(1 0 0 1 725.2378 586.1204)" class="st5 st16">29</text>
	<line class="st15" x1="839.9" y1="573.1" x2="839.9" y2="576"/>
	<text transform="matrix(1 0 0 1 835.7612 580.9045)" class="st5 st16">&gt;90</text>
	<text transform="matrix(1 0 0 1 692.7974 580.9045)" class="st5 st16">&lt; 9</text>
	<line class="st15" x1="684.6" y1="571.5" x2="681.7" y2="571.5"/>
	<g>
		<text transform="matrix(1 0 0 1 677.5249 572.9836)" class="st5 st16">0</text>
	</g>
	<line class="st15" x1="684.6" y1="562.5" x2="681.7" y2="562.5"/>
	<g>
		<text transform="matrix(1 0 0 1 672.1528 564.0139)" class="st5 st16">200</text>
	</g>
	<line class="st15" x1="684.6" y1="553.5" x2="681.7" y2="553.5"/>
	<g>
		<text transform="matrix(1 0 0 1 672.1528 555.0442)" class="st5 st16">400</text>
	</g>
	<line class="st15" x1="684.6" y1="544.6" x2="681.7" y2="544.6"/>
	<g>
		<text transform="matrix(1 0 0 1 672.1528 546.0745)" class="st5 st16">600</text>
	</g>
	<line class="st15" x1="684.6" y1="535.6" x2="681.7" y2="535.6"/>
	<g>
		<text transform="matrix(1 0 0 1 672.1528 537.1047)" class="st5 st16">800</text>
	</g>
	<line class="st15" x1="684.6" y1="526.6" x2="681.7" y2="526.6"/>
	<g>
		<text transform="matrix(1 0 0 1 668.1245 528.134)" class="st5 st16">1,000</text>
	</g>
	<line class="st15" x1="684.6" y1="517.7" x2="681.7" y2="517.7"/>
	<g>
		<text transform="matrix(1 0 0 1 668.1245 519.1643)" class="st5 st16">1,200</text>
	</g>
	<line class="st15" x1="684.6" y1="508.7" x2="681.7" y2="508.7"/>
	<g>
		<text transform="matrix(1 0 0 1 668.1245 510.1945)" class="st5 st16">1,400</text>
	</g>
	<line class="st15" x1="684.6" y1="499.7" x2="681.7" y2="499.7"/>
	<g>
		<text transform="matrix(1 0 0 1 668.1245 501.2248)" class="st5 st16">1,600</text>
	</g>
	<line class="st15" x1="684.6" y1="490.7" x2="681.7" y2="490.7"/>
	<g>
		<text transform="matrix(1 0 0 1 668.1245 492.2551)" class="st5 st16">1,800</text>
	</g>
	<line class="st15" x1="684.6" y1="481.8" x2="681.7" y2="481.8"/>
	<g>
		<text transform="matrix(1 0 0 1 668.1245 483.2854)" class="st5 st16">2,000</text>
	</g>
	<line class="st15" x1="684.6" y1="472.8" x2="681.7" y2="472.8"/>
	<g>
		<text transform="matrix(1 0 0 1 668.1245 474.3156)" class="st5 st16">2,200</text>
	</g>
	<line class="st15" x1="684.6" y1="463.8" x2="681.7" y2="463.8"/>
	<g>
		<text transform="matrix(1 0 0 1 668.1245 465.3459)" class="st5 st16">2,400</text>
	</g>
	<line class="st15" x1="684.6" y1="454.9" x2="681.7" y2="454.9"/>
	<g>
		<text transform="matrix(1 0 0 1 668.1245 456.3762)" class="st5 st16">2,600</text>
	</g>
	<line class="st15" x1="684.6" y1="445.9" x2="681.7" y2="445.9"/>
	<g>
		<text transform="matrix(1 0 0 1 668.1245 447.4065)" class="st5 st16">2,800</text>
	</g>
	<path class="st15" d="M687,571.5h164.2"/>
	<path class="st15" d="M687,571.5V445.9"/>
	<g>
		<rect id="_x32_0_-_num_40_" x="691.5" y="543.3" class="st2" width="10.8" height="27.8"/>
		<rect id="_x32_0_-_num_39_" x="707.5" y="531.6" class="st2" width="10.8" height="39.6"/>
		<rect id="_x32_0_-_num_38_" x="723.5" y="458.9" class="st2" width="10.8" height="112.1"/>
		<rect id="_x32_0_-_num_37_" x="739.5" y="458.8" class="st2" width="10.8" height="112.2"/>
		<rect id="_x32_0_-_num_36_" x="755.5" y="492.8" class="st2" width="10.8" height="78.2"/>
		<rect id="_x32_0_-_num_35_" x="771.5" y="518.4" class="st2" width="10.8" height="52.6"/>
		<rect id="_x32_0_-_num_34_" x="787.5" y="544.9" class="st2" width="10.8" height="26.2"/>
		<rect id="_x32_0_-_num_33_" x="803.5" y="561.1" class="st2" width="10.8" height="9.9"/>
		<rect id="_x32_0_-_num_32_" x="819.5" y="568.6" class="st2" width="10.8" height="2.6"/>
		<rect id="_x32_0_-_num_31_" x="835.5" y="570.8" class="st2" width="10.8" height="0.3"/>
	</g>
	<g>
		<text transform="matrix(1 0 0 1 814.3257 503.6633)" class="st2 st7 st17">20</text>
	</g>
	<text transform="matrix(6.123236e-17 -1 1 6.123236e-17 692.7964 481.7395)" class="st12 st10 st18">numero tesserini</text>
	<text transform="matrix(1 0 0 1 841.6089 568.5256)" class="st12 st10 st18">fasce d’età</text>
	<text transform="matrix(6.123236e-17 -1 1 6.123236e-17 808.3442 503.6633)" class="st9 st10 st19">duemila</text>
	<g>
		<rect id="_x31_9_-_num_40_" x="459.6" y="548.4" class="st1" width="10.8" height="22.8"/>
		<rect id="_x31_9_-_num_9_" x="475.7" y="545.2" class="st1" width="10.8" height="26"/>
		<rect id="_x31_9_-_num_8_" x="491.7" y="491.8" class="st1" width="10.8" height="79.4"/>
		<rect id="_x31_9_-_num_7_" x="507.7" y="474.5" class="st1" width="10.8" height="96.7"/>
		<rect id="_x31_9_-_num_6_" x="523.6" y="505.5" class="st1" width="10.8" height="65.7"/>
		<rect id="_x31_9_-_num_5_" x="539.7" y="528.2" class="st1" width="10.8" height="43"/>
		<rect id="_x31_9_-_num_4_" x="555.7" y="546.5" class="st1" width="10.8" height="24.7"/>
		<rect id="_x31_9_-_num_3_" x="571.6" y="561.8" class="st1" width="10.8" height="9.4"/>
		<rect id="_x31_9_-_num_2_" x="587.6" y="569" class="st1" width="10.8" height="2.2"/>
		<rect id="_x31_9_-_num_1_" x="603.7" y="571.1" class="st1" width="10.8" height="0.1"/>
	</g>
	<path class="st20" d="M454.6,571.5h165.7"/>
	<line class="st15" x1="464.5" y1="573.1" x2="464.5" y2="576"/>
	<line class="st15" x1="480.5" y1="573.1" x2="480.5" y2="576"/>
	<line class="st15" x1="496.4" y1="573.1" x2="496.4" y2="576"/>
	<line class="st15" x1="512.5" y1="573.1" x2="512.5" y2="576"/>
	<line class="st15" x1="528.5" y1="573.1" x2="528.5" y2="576"/>
	<line class="st15" x1="544.5" y1="573.1" x2="544.5" y2="576"/>
	<line class="st15" x1="560.4" y1="573.1" x2="560.4" y2="576"/>
	<line class="st15" x1="576.4" y1="573.1" x2="576.4" y2="576"/>
	<text transform="matrix(1 0 0 1 573.8823 580.9045)" class="st5 st16">70</text>
	<text transform="matrix(1 0 0 1 573.8823 586.1204)" class="st5 st16">79</text>
	<line class="st15" x1="592.5" y1="573.1" x2="592.5" y2="576"/>
	<text transform="matrix(1 0 0 1 589.6851 580.9045)" class="st5 st16">80</text>
	<text transform="matrix(1 0 0 1 589.6851 586.1204)" class="st5 st16">89</text>
	<text transform="matrix(1 0 0 1 541.978 580.9045)" class="st5 st16">50</text>
	<text transform="matrix(1 0 0 1 541.978 586.1204)" class="st5 st16">59</text>
	<text transform="matrix(1 0 0 1 557.7808 580.9045)" class="st5 st16">60</text>
	<text transform="matrix(1 0 0 1 557.7808 586.1204)" class="st5 st16">69</text>
	<text transform="matrix(1 0 0 1 509.936 580.9045)" class="st5 st16">30</text>
	<text transform="matrix(1 0 0 1 509.936 586.1204)" class="st5 st16">39</text>
	<text transform="matrix(1 0 0 1 525.7388 580.9045)" class="st5 st16">40</text>
	<text transform="matrix(1 0 0 1 525.7388 586.1204)" class="st5 st16">49</text>
	<text transform="matrix(1 0 0 1 478.0317 580.9045)" class="st5 st16">10</text>
	<text transform="matrix(1 0 0 1 478.0317 586.1204)" class="st5 st16">19</text>
	<text transform="matrix(1 0 0 1 493.8344 580.9045)" class="st5 st16">20</text>
	<text transform="matrix(1 0 0 1 493.8344 586.1204)" class="st5 st16">29</text>
	<line class="st15" x1="608.5" y1="573.1" x2="608.5" y2="576"/>
	<text transform="matrix(1 0 0 1 604.3579 580.9045)" class="st5 st16">&gt;90</text>
	<text transform="matrix(1 0 0 1 461.394 580.9045)" class="st5 st16">&lt; 9</text>
	<path class="st15" d="M454.6,571.5V445.9"/>
	<line class="st15" x1="452.9" y1="571.5" x2="450" y2="571.5"/>
	<g>
		<text transform="matrix(1 0 0 1 445.8735 572.9836)" class="st5 st16">0</text>
	</g>
	<line class="st15" x1="452.9" y1="562.5" x2="450" y2="562.5"/>
	<g>
		<text transform="matrix(1 0 0 1 440.5005 564.0139)" class="st5 st16">200</text>
	</g>
	<line class="st15" x1="452.9" y1="553.5" x2="450" y2="553.5"/>
	<g>
		<text transform="matrix(1 0 0 1 440.5005 555.0442)" class="st5 st16">400</text>
	</g>
	<line class="st15" x1="452.9" y1="544.6" x2="450" y2="544.6"/>
	<g>
		<text transform="matrix(1 0 0 1 440.5005 546.0745)" class="st5 st16">600</text>
	</g>
	<line class="st15" x1="452.9" y1="535.6" x2="450" y2="535.6"/>
	<g>
		<text transform="matrix(1 0 0 1 440.5005 537.1047)" class="st5 st16">800</text>
	</g>
	<line class="st15" x1="452.9" y1="526.6" x2="450" y2="526.6"/>
	<g>
		<text transform="matrix(1 0 0 1 436.4731 528.134)" class="st5 st16">1,000</text>
	</g>
	<line class="st15" x1="452.9" y1="517.7" x2="450" y2="517.7"/>
	<g>
		<text transform="matrix(1 0 0 1 436.4731 519.1643)" class="st5 st16">1,200</text>
	</g>
	<line class="st15" x1="452.9" y1="508.7" x2="450" y2="508.7"/>
	<g>
		<text transform="matrix(1 0 0 1 436.4731 510.1945)" class="st5 st16">1,400</text>
	</g>
	<line class="st15" x1="452.9" y1="499.7" x2="450" y2="499.7"/>
	<g>
		<text transform="matrix(1 0 0 1 436.4731 501.2248)" class="st5 st16">1,600</text>
	</g>
	<line class="st15" x1="452.9" y1="490.7" x2="450" y2="490.7"/>
	<g>
		<text transform="matrix(1 0 0 1 436.4731 492.2551)" class="st5 st16">1,800</text>
	</g>
	<line class="st15" x1="452.9" y1="481.8" x2="450" y2="481.8"/>
	<g>
		<text transform="matrix(1 0 0 1 436.4731 483.2854)" class="st5 st16">2,000</text>
	</g>
	<line class="st15" x1="452.9" y1="472.8" x2="450" y2="472.8"/>
	<g>
		<text transform="matrix(1 0 0 1 436.4731 474.3156)" class="st5 st16">2,200</text>
	</g>
	<line class="st15" x1="452.9" y1="463.8" x2="450" y2="463.8"/>
	<g>
		<text transform="matrix(1 0 0 1 436.4731 465.3459)" class="st5 st16">2,400</text>
	</g>
	<line class="st15" x1="452.9" y1="454.9" x2="450" y2="454.9"/>
	<g>
		<text transform="matrix(1 0 0 1 436.4731 456.3762)" class="st5 st16">2,600</text>
	</g>
	<line class="st15" x1="452.9" y1="445.9" x2="450" y2="445.9"/>
	<g>
		<text transform="matrix(1 0 0 1 436.4731 447.4065)" class="st5 st16">2,800</text>
	</g>
	<g>
		<text transform="matrix(1 0 0 1 574.8296 492.6555)" class="st1 st7 st17">19</text>
	</g>
	<text transform="matrix(6.123236e-17 -1 1 6.123236e-17 460.5761 481.7404)" class="st12 st10 st18">numero tesserini</text>
	<text transform="matrix(1 0 0 1 605.3452 568.5256)" class="st12 st10 st18">fasce d’età</text>
	<text transform="matrix(6.123236e-17 -1 1 6.123236e-17 570.1479 503.6633)" class="st9 st10 st19">duemila</text>
	<g>
		<rect id="_x31_8_-_num_40_" x="233.2" y="550" class="st0" width="10.8" height="21.1"/>
		<rect id="_x31_8_-_num_39_" x="249.2" y="551" class="st0" width="10.8" height="20"/>
		<rect id="_x31_8_-_num_38_" x="265.2" y="453.2" class="st0" width="10.8" height="117.9"/>
		<rect id="_x31_8_-_num_37_" x="281.2" y="465.4" class="st0" width="10.8" height="105.7"/>
		<rect id="_x31_8_-_num_36_" x="297.2" y="514" class="st0" width="10.8" height="57.1"/>
		<rect id="_x31_8_-_num_35_" x="313.2" y="538.8" class="st0" width="10.8" height="32.3"/>
		<rect id="_x31_8_-_num_34_" x="329.2" y="553.2" class="st0" width="10.8" height="17.9"/>
		<rect id="_x31_8_-_num_33_" x="345.2" y="564" class="st0" width="10.8" height="7.1"/>
		<rect id="_x31_8_-_num_32_" x="361.2" y="568.7" class="st0" width="10.8" height="2.4"/>
		<rect id="_x31_8_-_num_31_" x="377.2" y="570.9" class="st0" width="10.8" height="0.2"/>
	</g>
	<path class="st20" d="M228.9,571.5h165.7"/>
	<line class="st15" x1="238.8" y1="573.1" x2="238.8" y2="576"/>
	<line class="st15" x1="254.8" y1="573.1" x2="254.8" y2="576"/>
	<line class="st15" x1="270.8" y1="573.1" x2="270.8" y2="576"/>
	<line class="st15" x1="286.8" y1="573.1" x2="286.8" y2="576"/>
	<line class="st15" x1="302.8" y1="573.1" x2="302.8" y2="576"/>
	<line class="st15" x1="318.8" y1="573.1" x2="318.8" y2="576"/>
	<line class="st15" x1="334.8" y1="573.1" x2="334.8" y2="576"/>
	<line class="st15" x1="350.8" y1="573.1" x2="350.8" y2="576"/>
	<text transform="matrix(1 0 0 1 348.2075 580.9045)" class="st5 st16">70</text>
	<text transform="matrix(1 0 0 1 348.2075 586.1204)" class="st5 st16">79</text>
	<line class="st15" x1="366.8" y1="573.1" x2="366.8" y2="576"/>
	<text transform="matrix(1 0 0 1 364.0102 580.9045)" class="st5 st16">80</text>
	<text transform="matrix(1 0 0 1 364.0102 586.1204)" class="st5 st16">89</text>
	<text transform="matrix(1 0 0 1 316.3042 580.9045)" class="st5 st16">50</text>
	<text transform="matrix(1 0 0 1 316.3042 586.1204)" class="st5 st16">59</text>
	<text transform="matrix(1 0 0 1 332.1069 580.9045)" class="st5 st16">60</text>
	<text transform="matrix(1 0 0 1 332.1069 586.1204)" class="st5 st16">69</text>
	<text transform="matrix(1 0 0 1 284.2612 580.9045)" class="st5 st16">30</text>
	<text transform="matrix(1 0 0 1 284.2612 586.1204)" class="st5 st16">39</text>
	<text transform="matrix(1 0 0 1 300.0639 580.9045)" class="st5 st16">40</text>
	<text transform="matrix(1 0 0 1 300.0639 586.1204)" class="st5 st16">49</text>
	<text transform="matrix(1 0 0 1 252.3579 580.9045)" class="st5 st16">10</text>
	<text transform="matrix(1 0 0 1 252.3579 586.1204)" class="st5 st16">19</text>
	<text transform="matrix(1 0 0 1 268.1606 580.9045)" class="st5 st16">20</text>
	<text transform="matrix(1 0 0 1 268.1606 586.1204)" class="st5 st16">29</text>
	<line class="st15" x1="382.8" y1="573.1" x2="382.8" y2="576"/>
	<text transform="matrix(1 0 0 1 378.6841 580.9045)" class="st5 st16">&gt;90</text>
	<text transform="matrix(1 0 0 1 235.7192 580.9045)" class="st5 st16">&lt; 9</text>
	<path class="st15" d="M228.9,571.5V445.9"/>
	<line class="st15" x1="227.2" y1="571.5" x2="224.3" y2="571.5"/>
	<g>
		<text transform="matrix(1 0 0 1 220.1987 572.9836)" class="st5 st16">0</text>
	</g>
	<line class="st15" x1="227.2" y1="562.5" x2="224.3" y2="562.5"/>
	<g>
		<text transform="matrix(1 0 0 1 214.8266 564.0139)" class="st5 st16">200</text>
	</g>
	<line class="st15" x1="227.2" y1="553.5" x2="224.3" y2="553.5"/>
	<g>
		<text transform="matrix(1 0 0 1 214.8266 555.0442)" class="st5 st16">400</text>
	</g>
	<line class="st15" x1="227.2" y1="544.6" x2="224.3" y2="544.6"/>
	<g>
		<text transform="matrix(1 0 0 1 214.8266 546.0745)" class="st5 st16">600</text>
	</g>
	<line class="st15" x1="227.2" y1="535.6" x2="224.3" y2="535.6"/>
	<g>
		<text transform="matrix(1 0 0 1 214.8266 537.1047)" class="st5 st16">800</text>
	</g>
	<line class="st15" x1="227.2" y1="526.6" x2="224.3" y2="526.6"/>
	<g>
		<text transform="matrix(1 0 0 1 210.7983 528.134)" class="st5 st16">1,000</text>
	</g>
	<line class="st15" x1="227.2" y1="517.7" x2="224.3" y2="517.7"/>
	<g>
		<text transform="matrix(1 0 0 1 210.7983 519.1643)" class="st5 st16">1,200</text>
	</g>
	<line class="st15" x1="227.2" y1="508.7" x2="224.3" y2="508.7"/>
	<g>
		<text transform="matrix(1 0 0 1 210.7983 510.1945)" class="st5 st16">1,400</text>
	</g>
	<line class="st15" x1="227.2" y1="499.7" x2="224.3" y2="499.7"/>
	<g>
		<text transform="matrix(1 0 0 1 210.7983 501.2248)" class="st5 st16">1,600</text>
	</g>
	<line class="st15" x1="227.2" y1="490.7" x2="224.3" y2="490.7"/>
	<g>
		<text transform="matrix(1 0 0 1 210.7983 492.2551)" class="st5 st16">1,800</text>
	</g>
	<line class="st15" x1="227.2" y1="481.8" x2="224.3" y2="481.8"/>
	<g>
		<text transform="matrix(1 0 0 1 210.7983 483.2854)" class="st5 st16">2,000</text>
	</g>
	<line class="st15" x1="227.2" y1="472.8" x2="224.3" y2="472.8"/>
	<g>
		<text transform="matrix(1 0 0 1 210.7983 474.3156)" class="st5 st16">2,200</text>
	</g>
	<line class="st15" x1="227.2" y1="463.8" x2="224.3" y2="463.8"/>
	<g>
		<text transform="matrix(1 0 0 1 210.7983 465.3459)" class="st5 st16">2,400</text>
	</g>
	<line class="st15" x1="227.2" y1="454.9" x2="224.3" y2="454.9"/>
	<g>
		<text transform="matrix(1 0 0 1 210.7983 456.3762)" class="st5 st16">2,600</text>
	</g>
	<line class="st15" x1="227.2" y1="445.9" x2="224.3" y2="445.9"/>
	<g>
		<text transform="matrix(1 0 0 1 210.7983 447.4065)" class="st5 st16">2,800</text>
	</g>
	<g>
		<text transform="matrix(1 0 0 1 349.1548 479.7756)" class="st0 st7 st17">18</text>
	</g>
	<text transform="matrix(6.123236e-17 -1 1 6.123236e-17 234.1372 481.7404)" class="st12 st10 st18">numero tesserini</text>
	<text transform="matrix(1 0 0 1 378.9057 568.5256)" class="st12 st10 st18">fasce d’età</text>
	<text transform="matrix(6.123236e-17 -1 1 6.123236e-17 344.8867 503.6633)" class="st9 st10 st19">duemila</text>
</g>
</svg>
